<?xml version="1.0" encoding="iso-8859-1"?>
   <!DOCTYPE svg PUBLIC "-//W3C//DTD SVG 1.0//EN"
     "http://www.w3.org/TR/2001/
      REC-SVG-20010904/DTD/svg10.dtd"><svg xmlns="http://www.w3.org/2000/svg" width="600" height="600" aria-label="A chart." style="overflow: hidden;"><defs id="defs"/><rect x="0" y="0" width="600" height="600" stroke="none" stroke-width="0" fill="#ffffff"/><g><path d="M300,300L300,30A270,270,0,0,1,570,300L300,300A0,0,0,0,0,300,300" stroke="#ffffff" stroke-width="0" fill="#633ab5"/></g><g><path d="M300,300L30,300.00000000000006A270,270,0,0,1,300,30L300,300A0,0,0,0,0,300,300" stroke="#ffffff" stroke-width="0" fill="#15092e"/></g><g><path d="M300,300L300,570A270,270,0,0,1,30,300.00000000000006L300,300A0,0,0,0,0,300,300" stroke="#ffffff" stroke-width="0" fill="#24124a"/></g><g><path d="M300,300L570,300A270,270,0,0,1,300,570L300,300A0,0,0,0,0,300,300" stroke="#ffffff" stroke-width="0" fill="#422480"/></g><g/><circle cx="422" cy="300" r="91" fill="#FFFFFF" stroke="none" stroke-width="0"/></svg>