<?xml version="1.0" encoding="utf-8"?>
<!-- Generator: Adobe Illustrator 18.1.1, SVG Export Plug-In . SVG Version: 6.00 Build 0)  -->
<svg version="1.1" id="Layer_1" xmlns="http://www.w3.org/2000/svg" xmlns:xlink="http://www.w3.org/1999/xlink" x="0px" y="0px"
	 viewBox="0 0 76.6 23.6" enable-background="new 0 0 76.6 23.6" xml:space="preserve">
<g>
	<g>
		<g>
			<g>
				<path fill="#F8F9F7" d="M66.9,11.3l2.4-2.4c0.1-0.1,0.1-0.3,0-0.4c0-0.1-0.2-0.3-0.4-0.3c-0.1,0-0.2,0-0.3,0.1l-2.4,2.4
					l-2.4-2.4c0,0-0.1-0.1-0.3-0.1c-0.1,0-0.3,0.1-0.4,0.3c0,0.1,0,0.3,0.1,0.4l2.4,2.4l-2.4,2.4c-0.1,0.1-0.1,0.3-0.1,0.4
					c0,0.1,0.2,0.3,0.4,0.3c0.1,0,0.2,0,0.3-0.1l2.4-2.4l2.4,2.2c0,0,0.1,0.1,0.3,0.1c0.1,0,0.3-0.1,0.4-0.3c0-0.1,0-0.3-0.1-0.5
					L66.9,11.3z"/>
				<path fill="#F8F9F7" d="M63.7,14.5c-0.2,0-0.5-0.1-0.5-0.4c-0.1-0.2,0-0.5,0.1-0.6l2.2-2.2L63.3,9c-0.1-0.1-0.2-0.4-0.1-0.6
					C63.3,8.1,63.5,8,63.7,8c0.1,0,0.3,0,0.4,0.1l2.2,2.2l2.2-2.2C68.7,8,68.8,8,69,8c0.2,0,0.5,0.1,0.5,0.4c0.1,0.2,0,0.5-0.1,0.6
					l-2.2,2.2l2.2,2.1c0.1,0.2,0.2,0.4,0.1,0.7c-0.1,0.2-0.3,0.4-0.5,0.4c-0.1,0-0.3,0-0.4-0.1L66.3,12l-2.2,2.2
					C64,14.4,63.8,14.5,63.7,14.5z M63.7,8.4c-0.1,0-0.1,0-0.2,0.1c0,0.1,0,0.1,0,0.3l2.5,2.6l-2.5,2.5c0,0-0.1,0.1,0,0.3
					c0,0.1,0.3,0.1,0.4,0l2.5-2.5l2.5,2.3c0.1,0.1,0.3,0,0.4,0c0-0.1,0-0.1,0-0.3l-2.5-2.3l2.5-2.5c0,0,0-0.1,0-0.2
					c0-0.1-0.3-0.1-0.4,0l-2.5,2.5l-2.5-2.5C63.8,8.4,63.7,8.4,63.7,8.4z"/>
			</g>
		</g>
		<g>
			<g>
				<g>
					<circle fill="#F8F9F7" cx="75.1" cy="9.7" r="1.5"/>
				</g>
				<g>
					<circle fill="#F8F9F7" cx="68.8" cy="2.2" r="1.5"/>
				</g>
				<g>
					<circle fill="#F8F9F7" cx="64.7" cy="1.2" r="1.2"/>
				</g>
				<g>
					<circle fill="#F8F9F7" cx="74.5" cy="13.6" r="1.1"/>
				</g>
				<g>
					<circle fill="#F8F9F7" cx="71.8" cy="15.2" r="0.7"/>
				</g>
				<g>
					<circle fill="#F8F9F7" cx="62.1" cy="3" r="0.7"/>
				</g>
				<g>
					<circle fill="#F8F9F7" cx="61.9" cy="5.8" r="0.6"/>
				</g>
				<g>
					<path fill="#F8F9F7" d="M70.7,5.5c0,1.1,0.9,1.9,2,1.9c1.1,0,1.9-0.9,1.9-2s-0.9-1.9-2-1.9C71.5,3.5,70.7,4.4,70.7,5.5z"/>
				</g>
			</g>
		</g>
		<g>
			<g>
				<g>
					<circle fill="#F8F9F7" cx="74.5" cy="13.6" r="1.1"/>
				</g>
				<g>
					<circle fill="#F8F9F7" cx="71.8" cy="15.2" r="0.7"/>
				</g>
				<g>
					<circle fill="#F8F9F7" cx="62.1" cy="3" r="0.7"/>
				</g>
				<g>
					<circle fill="#F8F9F7" cx="61.9" cy="5.8" r="0.6"/>
				</g>
			</g>
		</g>
		<g>
			<g>
				<path fill="#F8F9F7" d="M4.9,8.2H0.8c-0.3,0-0.5,0.2-0.5,0.5v5.1c0,0.3,0.2,0.5,0.5,0.5H5c0.7,0,1.5-0.7,1.5-1.4V9.7
					C6.3,8.9,5.6,8.2,4.9,8.2z M4.9,13.5c-0.7,0-1.4,0-2.1,0H2.6c-0.5,0-1.1,0-1.6,0V9h3.9c0.3,0,0.6,0.3,0.6,0.6v3.3
					C5.5,13.2,5.2,13.5,4.9,13.5z"/>
				<path fill="#F8F9F7" d="M4.9,14.5H0.7c-0.4,0-0.7-0.3-0.7-0.7V8.7C0,8.3,0.3,8,0.7,8h4.1c0.8,0,1.6,0.8,1.6,1.6v3.3
					C6.5,13.8,5.7,14.5,4.9,14.5z M0.7,8.4c-0.2,0-0.3,0.1-0.3,0.3v5.1c0,0.2,0.1,0.3,0.3,0.3h4.2c0.7,0,1.2-0.6,1.2-1.2V9.6
					c0-0.6-0.6-1.2-1.2-1.2L0.7,8.4L0.7,8.4z M0.8,13.7V8.8h4.1c0.4,0,0.8,0.4,0.8,0.8v3.3c0,0.4-0.4,0.8-0.8,0.8
					c-0.7,0-1.4,0-2.1,0H2.5c-0.5,0-1.1,0-1.6,0L0.8,13.7L0.8,13.7z M1.2,9.2v4.1c0.5,0,1,0,1.5,0h0.2c0.7,0,1.4,0,2.1,0
					c0.2,0,0.4-0.2,0.4-0.4V9.7c0-0.2-0.3-0.5-0.5-0.5C4.8,9.2,1.2,9.2,1.2,9.2z"/>
			</g>
			<g>
				<path fill="#F8F9F7" d="M14.3,8.2h-3.1c-0.8,0-1.5,0.6-1.5,1.5V14c0,0.2,0.1,0.4,0.4,0.4c0.2,0,0.4-0.1,0.4-0.4v-2.1h4.6V14
					c0,0.2,0.1,0.4,0.4,0.4c0.2,0,0.4-0.1,0.4-0.4V9.7C15.8,8.8,15,8.2,14.3,8.2z M15,9.6v1.5h-4.6V9.6c0-0.4,0.4-0.6,0.7-0.6h3.1
					C14.7,9,15,9.3,15,9.6z"/>
				<path fill="#F8F9F7" d="M15.4,14.5c-0.3,0-0.6-0.3-0.6-0.6v-2h-4.2v2c0,0.3-0.3,0.6-0.6,0.6c-0.3,0-0.6-0.3-0.6-0.6V9.7
					c0-0.9,0.8-1.6,1.7-1.6h3.1c0.8,0,1.7,0.6,1.7,1.6V14C16,14.3,15.7,14.5,15.4,14.5z M10.3,11.7h4.9V14c0,0.1,0.1,0.2,0.2,0.2
					c0.1,0,0.2-0.1,0.2-0.2V9.7c0-0.8-0.7-1.2-1.3-1.2h-3.1c-0.7,0-1.3,0.6-1.3,1.2V14c0,0.1,0.1,0.2,0.2,0.2c0.1,0,0.2-0.1,0.2-0.2
					V11.7C10.3,11.7,10.3,11.7,10.3,11.7z M15.2,11.3h-4.9V9.6c0-0.5,0.5-0.8,0.9-0.8h3.1c0.5,0,0.9,0.3,0.9,0.8V11.3L15.2,11.3z
					 M10.7,10.9h4.2V9.6c0-0.3-0.3-0.5-0.6-0.5h-3.1c-0.3,0-0.6,0.1-0.6,0.5L10.7,10.9L10.7,10.9z"/>
			</g>
			<g>
				<path fill="#F8F9F7" d="M23.5,8.2H19c-0.2,0-0.4,0.1-0.4,0.4C18.6,8.8,18.8,9,19,9h1.8c0,0.6,0,1.5,0,2.3V12c0,0.8,0,1.5,0,2
					c0,0.2,0.1,0.4,0.4,0.4c0.2,0,0.4-0.1,0.4-0.4V9h1.8c0.2,0,0.4-0.1,0.4-0.4C23.9,8.4,23.8,8.2,23.5,8.2z"/>
				<path fill="#F8F9F7" d="M21.3,14.5c-0.3,0-0.6-0.3-0.6-0.6c0-0.5,0-1.2,0-2v-1.1c0-0.6,0-1.2,0-1.6H19c-0.3,0-0.6-0.3-0.6-0.6
					s0.3-0.6,0.6-0.6h4.5c0.3,0,0.6,0.3,0.6,0.6s-0.3,0.6-0.6,0.6h-1.6V14C21.9,14.3,21.6,14.5,21.3,14.5z M19.1,8.4
					c-0.1,0-0.2,0.1-0.2,0.2c0,0.1,0.1,0.2,0.2,0.2h2.1v0.2c0,0.5,0,1.1,0,1.8V12c0,0.8,0,1.5,0,2c0,0.1,0.1,0.2,0.2,0.2
					c0.1,0,0.2-0.1,0.2-0.2V8.8h2.1c0.1,0,0.2-0.1,0.2-0.2c0-0.1-0.1-0.2-0.2-0.2L19.1,8.4L19.1,8.4z"/>
			</g>
			<g>
				<path fill="#F8F9F7" d="M31.6,8.2h-3.1c-0.8,0-1.5,0.6-1.5,1.5V14c0,0.2,0.1,0.4,0.4,0.4c0.2,0,0.4-0.1,0.4-0.4v-2.1h4.6V14
					c0,0.2,0.1,0.4,0.4,0.4c0.2,0,0.4-0.1,0.4-0.4V9.7C33.1,8.8,32.3,8.2,31.6,8.2z M32.3,9.6v1.5h-4.6V9.6c0-0.4,0.4-0.6,0.7-0.6
					h3.1C31.9,9,32.3,9.3,32.3,9.6z"/>
				<path fill="#F8F9F7" d="M32.7,14.5c-0.3,0-0.6-0.3-0.6-0.6v-2h-4.2v2c0,0.3-0.3,0.6-0.6,0.6s-0.6-0.3-0.6-0.6V9.7
					c0-0.9,0.8-1.6,1.7-1.6h3.1c0.8,0,1.7,0.6,1.7,1.6V14C33.3,14.3,33,14.5,32.7,14.5z M27.6,11.7h4.9V14c0,0.1,0.1,0.2,0.2,0.2
					c0.1,0,0.2-0.1,0.2-0.2V9.7c0-0.8-0.7-1.2-1.3-1.2h-3.1c-0.7,0-1.3,0.6-1.3,1.2V14c0,0.1,0.1,0.2,0.2,0.2c0.1,0,0.2-0.1,0.2-0.2
					V11.7C27.6,11.7,27.6,11.7,27.6,11.7z M32.5,11.3h-4.9V9.6c0-0.5,0.5-0.8,0.9-0.8h3.1c0.5,0,0.9,0.3,0.9,0.8V11.3L32.5,11.3z
					 M28,10.9h4.2V9.6c0-0.3-0.3-0.5-0.6-0.5h-3.1c-0.3,0-0.6,0.1-0.6,0.5L28,10.9L28,10.9z"/>
			</g>
			<g>
				<path fill="#F8F9F7" d="M41.3,10.9h-3.4c-0.4,0-0.6-0.5-0.6-1S37.5,9,37.9,9h3.7C41.8,9,42,8.9,42,8.6c0-0.2-0.1-0.4-0.4-0.4
					h-3.7c-0.9,0-1.4,0.9-1.4,1.7c0,0.8,0.5,1.7,1.5,1.7h3.4c0.4,0,0.6,0.5,0.6,1c0,0.5-0.2,0.9-0.6,0.9h-4.4
					c-0.2,0-0.4,0.1-0.4,0.4c0,0.2,0.1,0.4,0.4,0.4h4.3c1,0,1.4-0.9,1.4-1.7C42.7,11.7,42.2,10.9,41.3,10.9z"/>
				<path fill="#F8F9F7" d="M41.3,14.5H37c-0.3,0-0.6-0.3-0.6-0.6c0-0.3,0.3-0.6,0.6-0.6h4.4c0.3,0,0.4-0.4,0.4-0.7
					c0-0.3-0.1-0.8-0.5-0.8h-3.4c-1.1,0-1.6-1-1.6-1.9c0-1,0.6-1.9,1.6-1.9h3.7c0.3,0,0.6,0.3,0.6,0.6s-0.3,0.6-0.6,0.6h-3.7
					c-0.3,0-0.4,0.5-0.4,0.8c0,0.3,0.1,0.8,0.4,0.8h3.4c1,0,1.5,1,1.5,1.9C42.9,13.5,42.4,14.5,41.3,14.5z M36.9,13.7
					c-0.1,0-0.2,0.1-0.2,0.2c0,0.1,0.1,0.2,0.2,0.2h4.3c0.8,0,1.2-0.8,1.2-1.5c0-0.8-0.4-1.5-1.2-1.5h-3.4c-0.6,0-0.8-0.6-0.8-1.1
					c0-0.5,0.3-1.1,0.8-1.1h3.7c0.1,0,0.2-0.1,0.2-0.2c0-0.1-0.1-0.2-0.2-0.2h-3.7c-0.8,0-1.2,0.8-1.2,1.5c0,0.8,0.4,1.5,1.2,1.5
					h3.4c0.6,0,0.8,0.6,0.8,1.1s-0.3,1.1-0.8,1.1L36.9,13.7L36.9,13.7L36.9,13.7z"/>
			</g>
			<g>
				<path fill="#F8F9F7" d="M50.4,8.2h-4.9c-0.2,0-0.4,0.1-0.4,0.4c0,0.2,0.1,0.4,0.4,0.4h2.2c0,0.6,0,1.5,0,2.3c0,1,0,2,0,2.6
					c0,0.2,0.1,0.4,0.4,0.4c0.2,0,0.4-0.1,0.4-0.4V9h1.8c0.2,0,0.4-0.1,0.4-0.4C50.8,8.4,50.7,8.2,50.4,8.2z"/>
				<path fill="#F8F9F7" d="M48.2,14.5c-0.3,0-0.6-0.3-0.6-0.6c0-0.6,0-1.6,0-2.6V9.2h-2.1C45.2,9.2,45,9,45,8.6
					C45,8.3,45.2,8,45.5,8h4.9C50.7,8,51,8.3,51,8.6c0,0.3-0.3,0.6-0.6,0.6h-1.6V14C48.7,14.3,48.5,14.5,48.2,14.5z M45.5,8.4
					c-0.1,0-0.2,0.1-0.2,0.2c0,0.1,0.1,0.2,0.2,0.2h2.4v2.5c0,1,0,2,0,2.6c0,0.1,0.1,0.2,0.2,0.2c0.1,0,0.2-0.1,0.2-0.2V8.8h2.1
					c0.1,0,0.2-0.1,0.2-0.2c0-0.1-0.1-0.2-0.2-0.2L45.5,8.4L45.5,8.4z"/>
			</g>
			<g>
				<path fill="#F8F9F7" d="M58.5,8.2h-3.1c-0.8,0-1.5,0.6-1.5,1.5V14c0,0.2,0.1,0.4,0.4,0.4c0.2,0,0.4-0.1,0.4-0.4v-2.1h4.6V14
					c0,0.2,0.1,0.4,0.4,0.4c0.2,0,0.4-0.1,0.4-0.4V9.7C60,8.8,59.2,8.2,58.5,8.2z M59.2,9.6v1.5h-4.6V9.6C54.6,9.2,55,9,55.4,9h3.1
					C58.8,9,59.2,9.3,59.2,9.6z"/>
				<path fill="#F8F9F7" d="M59.5,14.5c-0.3,0-0.6-0.3-0.6-0.6v-2h-4.2v2c0,0.3-0.3,0.6-0.6,0.6s-0.6-0.3-0.6-0.6V9.7
					c0-0.9,0.8-1.6,1.7-1.6h3.1c0.8,0,1.7,0.6,1.7,1.6V14C60.1,14.3,59.9,14.5,59.5,14.5z M54.4,11.7h4.9V14c0,0.1,0.1,0.2,0.2,0.2
					c0.1,0,0.2-0.1,0.2-0.2V9.7c0-0.8-0.7-1.2-1.3-1.2h-3.1C54.6,8.4,54,9,54,9.7V14c0,0.1,0.1,0.2,0.2,0.2c0.1,0,0.2-0.1,0.2-0.2
					V11.7C54.4,11.7,54.4,11.7,54.4,11.7z M59.4,11.3h-4.9V9.6c0-0.5,0.5-0.8,0.9-0.8h3.1c0.5,0,0.9,0.3,0.9,0.8V11.3L59.4,11.3z
					 M54.8,10.9H59V9.6c0-0.3-0.3-0.5-0.6-0.5h-3.1c-0.3,0-0.6,0.1-0.6,0.5L54.8,10.9L54.8,10.9z"/>
			</g>
		</g>
	</g>
	<g>
		<path fill="#F8F9F7" d="M2.5,18.5l2,4.9H4l-0.6-1.5H1.1l-0.6,1.5H0l2-4.9H2.5z M3.2,21.5l-1-2.5l-1,2.5H3.2z"/>
		<path fill="#F8F9F7" d="M14.5,19.5c-0.1-0.1-0.2-0.3-0.4-0.4C14,19,13.8,19,13.7,18.9c-0.1,0-0.4-0.1-0.5-0.1
			c-0.3,0-0.6,0-0.8,0.2c-0.3,0.1-0.4,0.3-0.6,0.5c-0.1,0.2-0.3,0.5-0.3,0.7s-0.1,0.5-0.1,0.8c0,0.3,0,0.5,0.1,0.8s0.2,0.5,0.3,0.7
			c0.1,0.2,0.4,0.4,0.6,0.5c0.3,0.1,0.5,0.2,0.8,0.2c0.2,0,0.5,0,0.6-0.1c0.2-0.1,0.4-0.2,0.5-0.4c0.1-0.1,0.3-0.3,0.3-0.5
			c0.1-0.2,0.1-0.4,0.1-0.6h0.5c0,0.3-0.1,0.6-0.2,0.8c-0.1,0.3-0.3,0.5-0.4,0.6c-0.1,0.1-0.4,0.3-0.6,0.4c-0.3,0.1-0.5,0.1-0.8,0.1
			c-0.4,0-0.7,0-1-0.2c-0.3-0.1-0.5-0.3-0.7-0.6c-0.2-0.3-0.4-0.5-0.4-0.8c-0.1-0.3-0.1-0.6-0.1-1c0-0.4,0-0.7,0.1-1
			c0.1-0.3,0.3-0.6,0.4-0.8c0.2-0.3,0.5-0.4,0.7-0.6c0.3-0.1,0.6-0.2,1-0.2c0.3,0,0.5,0,0.7,0.1c0.2,0,0.4,0.1,0.6,0.3
			c0.2,0.1,0.4,0.3,0.5,0.5c0.1,0.2,0.2,0.4,0.3,0.7h-0.5C14.7,19.8,14.6,19.6,14.5,19.5z"/>
		<path fill="#F8F9F7" d="M24.1,18.5l2,4.9h-0.5L25,21.9h-2.2l-0.6,1.5h-0.5l2-4.9H24.1z M24.8,21.5l-1-2.5l-1,2.5H24.8z"/>
		<path fill="#F8F9F7" d="M34.4,18.5c0.8,0,1.3,0.2,1.7,0.6c0.4,0.4,0.6,1,0.6,1.8c0,0.8-0.2,1.5-0.6,1.8c-0.4,0.4-0.9,0.6-1.7,0.6
			h-1.7v-4.9H34.4z M34.2,23c0.4,0,0.7,0,0.9-0.1c0.3-0.1,0.5-0.2,0.6-0.4c0.1-0.1,0.3-0.4,0.4-0.7c0.1-0.3,0.1-0.6,0.1-0.9
			c0-0.4,0-0.7-0.1-0.9c-0.1-0.3-0.2-0.5-0.4-0.7c-0.1-0.1-0.4-0.3-0.6-0.4s-0.6-0.1-0.9-0.1h-1v4.1L34.2,23L34.2,23z"/>
		<path fill="#F8F9F7" d="M47.1,18.5v0.4h-2.9v1.8h2.8v0.4h-2.8v2h3v0.4h-3.4v-4.9L47.1,18.5L47.1,18.5L47.1,18.5z"/>
		<path fill="#F8F9F7" d="M54.6,18.5l1.6,4.3l1.7-4.3h0.7v4.9h-0.5v-4.3l0,0l-1.7,4.2h-0.5l-1.6-4.2l0,0v4.2h-0.5v-4.9H54.6z"/>
		<path fill="#F8F9F7" d="M65.2,18.5h0.6l1.6,2.5l1.6-2.5h0.6l-2,2.9v2.1h-0.5v-2.1L65.2,18.5z"/>
	</g>
</g>
</svg>
