<?xml version="1.0" encoding="utf-8"?>
<!-- Generator: Adobe Illustrator 18.1.1, SVG Export Plug-In . SVG Version: 6.00 Build 0)  -->
<svg version="1.1" id="Layer_1" xmlns="http://www.w3.org/2000/svg" xmlns:xlink="http://www.w3.org/1999/xlink" x="0px" y="0px"
	 viewBox="0 0 1440 810" enable-background="new 0 0 1440 810" xml:space="preserve">
<rect fill="#F8F9F7" width="1440" height="810"/>
<g>
	<g>
		<path id="XMLID_141_" fill="#0A7A96" d="M1136.1,488.7h-16c-1.3,0-2.3,1-2.3,2.3v35.2c0,1.3,1,2.3,2.3,2.3h16c1.3,0,2.3-1,2.3-2.3
			V491C1138.4,489.7,1137.4,488.7,1136.1,488.7z M1128.1,526.8c-0.5,0-0.9-0.4-0.9-0.9s0.4-0.9,0.9-0.9s0.9,0.4,0.9,0.9
			C1129,526.4,1128.6,526.8,1128.1,526.8z M1136.4,523.5h-16.6v-29.8h16.6V523.5z"/>
		<path id="XMLID_882_" opacity="0.35" fill="#0DB7E1" enable-background="new    " d="M982.6,256c-5.3,0-9.6-4.3-9.6-9.6
			s4.3-9.6,9.6-9.6h17.1c5.3,0,9.6-4.3,9.6-9.6s-4.3-9.6-9.6-9.6H968c-5.3,0-9.6-4.3-9.6-9.6s4.3-9.6,9.6-9.6h38.9
			c5.3,0,9.6-4.3,9.6-9.6s4.3-9.6,9.6-9.6H1158c5.3,0,9.6,4.3,9.6,9.6s-4.3,9.6-9.6,9.6h-101.8c-5.3,0-9.6,4.3-9.6,9.6
			s4.3,9.6,9.6,9.6h10.2c5.3,0,9.6,4.3,9.6,9.6s-4.3,9.6-9.6,9.6H1051c-5.3,0-9.6,4.3-9.6,9.6s-4.3,9.6-9.6,9.6H982.6z"/>
		<path id="XMLID_881_" opacity="0.35" fill="#0DB7E1" enable-background="new    " d="M1010.1,427.6c5.3,0,9.6-4.3,9.6-9.6
			c0-5.3-4.3-9.6-9.6-9.6h-71c-5.3,0-9.6-4.3-9.6-9.6c0-5.3,4.3-9.6,9.6-9.6h23.3c5.3,0,9.6-4.3,9.6-9.6c0-5.3-4.3-9.6-9.6-9.6
			h-30.5c-5.3,0-9.6-4.3-9.6-9.6c0-5.3-4.3-9.6-9.6-9.6h-72.2c-5.3,0-9.6,4.3-9.6,9.6c0,5.3,4.3,9.6,9.6,9.6h42
			c5.3,0,9.6,4.3,9.6,9.6c0,5.3-4.3,9.6-9.6,9.6h-10.2c-5.3,0-9.6,4.3-9.6,9.6c0,5.3,4.3,9.6,9.6,9.6h15.5c5.3,0,9.6,4.3,9.6,9.6
			c0,5.3,4.3,9.6,9.6,9.6H1010.1z"/>
		<path id="XMLID_879_" opacity="0.35" fill="#0DB7E1" enable-background="new    " d="M393.6,441.8c-5.3,0-9.6-4.3-9.6-9.6
			c0-5.3,4.3-9.6,9.6-9.6h17.1c5.3,0,9.6-4.3,9.6-9.6c0-5.3-4.3-9.6-9.6-9.6h-63c-5.3,0-9.6-4.3-9.6-9.6c0-5.3,4.3-9.6,9.6-9.6h95.7
			c5.3,0,9.6-4.3,9.6-9.6c0-5.3,4.3-9.6,9.6-9.6h36.5c5.3,0,9.6,4.3,9.6,9.6c0,5.3-4.3,9.6-9.6,9.6h-6.3c-5.3,0-9.6,4.3-9.6,9.6
			c0,5.3,4.3,9.6,9.6,9.6H503c5.3,0,9.6,4.3,9.6,9.6c0,5.3-4.3,9.6-9.6,9.6h-15.5c-5.3,0-9.6,4.3-9.6,9.6c0,5.3-4.3,9.6-9.6,9.6
			H393.6z"/>
		<path id="XMLID_849_" fill="#047B97" d="M822.5,126.9v104.8c0,3.1-2.5,5.7-5.7,5.7h-46.6v7.9h46.6c7.5,0,13.6-6.1,13.6-13.6V126.9
			H822.5z"/>
		<g id="XMLID_218_">
			<polygon id="XMLID_848_" fill="#FFFFFF" points="810.1,242 810.1,240.8 814.6,240.8 814.6,242 			"/>
			<polygon id="XMLID_847_" fill="#FFFFFF" points="801.1,242 801.1,240.8 805.6,240.8 805.6,242 			"/>
			<polygon id="XMLID_846_" fill="#FFFFFF" points="792,242 792,240.8 796.5,240.8 796.5,242 			"/>
			<polygon id="XMLID_845_" fill="#FFFFFF" points="783,242 783,240.8 787.5,240.8 787.5,242 			"/>
			<polygon id="XMLID_844_" fill="#FFFFFF" points="773.9,242 773.9,240.8 778.4,240.8 778.4,242 			"/>
			<path id="XMLID_843_" fill="#FFFFFF" d="M819,240.6c1.4-0.3,2.7-1,3.7-1.9l0,0l0.7,0.9c-1.2,1-2.6,1.8-4.2,2.2l0,0L819,240.6
				L819,240.6z"/>
			<path id="XMLID_842_" fill="#FFFFFF" d="M825.2,235.2c0.4-1.1,0.7-2.2,0.7-3.4l0,0V231h1.1v0.8c0,1.4-0.3,2.7-0.8,3.9l0,0
				L825.2,235.2L825.2,235.2z"/>
			<polygon id="XMLID_841_" fill="#FFFFFF" points="825.9,226.4 825.9,221.9 827,221.9 827,226.4 			"/>
			<polygon id="XMLID_840_" fill="#FFFFFF" points="825.9,217.4 825.9,212.9 827,212.9 827,217.4 			"/>
			<polygon id="XMLID_839_" fill="#FFFFFF" points="825.9,208.3 825.9,203.8 827,203.8 827,208.3 			"/>
			<polygon id="XMLID_838_" fill="#FFFFFF" points="825.9,199.3 825.9,194.8 827,194.8 827,199.3 			"/>
			<polygon id="XMLID_837_" fill="#FFFFFF" points="825.9,190.2 825.9,185.7 827,185.7 827,190.2 			"/>
			<polygon id="XMLID_836_" fill="#FFFFFF" points="825.9,181.2 825.9,176.7 827,176.7 827,181.2 			"/>
			<polygon id="XMLID_835_" fill="#FFFFFF" points="825.9,172.1 825.9,167.6 827,167.6 827,172.1 			"/>
			<polygon id="XMLID_834_" fill="#FFFFFF" points="825.9,163.1 825.9,158.6 827,158.6 827,163.1 			"/>
			<polygon id="XMLID_833_" fill="#FFFFFF" points="825.9,154 825.9,149.5 827,149.5 827,154 			"/>
			<polygon id="XMLID_832_" fill="#FFFFFF" points="825.9,145 825.9,140.4 827,140.4 827,145 			"/>
			<polygon id="XMLID_831_" fill="#FFFFFF" points="825.9,135.9 825.9,131.4 827,131.4 827,135.9 			"/>
		</g>
		<g id="XMLID_1221_">
			<path id="XMLID_997_" fill="#047B97" d="M799.1,310.7c-7.5,0-13.6,6.1-13.6,13.6v121.6c0,3.1-2.5,5.7-5.7,5.7h-64.4v7.9h64.4
				c7.5,0,13.6-6.1,13.6-13.6V324.3c0-3.1,2.5-5.7,5.7-5.7h451.7v-7.9L799.1,310.7L799.1,310.7z"/>
			<g id="XMLID_223_">
				<path id="XMLID_797_" fill="#FFFFFF" d="M777.2,456.1V455h2.7c0.6,0,1.2-0.1,1.7-0.2l0,0l0.2,1.1c-0.6,0.1-1.3,0.2-1.9,0.2l0,0
					H777.2L777.2,456.1z"/>
				<polygon id="XMLID_796_" fill="#FFFFFF" points="768.1,456.1 768.1,455 772.7,455 772.7,456.1 				"/>
				<polygon id="XMLID_795_" fill="#FFFFFF" points="759.1,456.1 759.1,455 763.6,455 763.6,456.1 				"/>
				<polygon id="XMLID_794_" fill="#FFFFFF" points="750,456.1 750,455 754.5,455 754.5,456.1 				"/>
				<polygon id="XMLID_793_" fill="#FFFFFF" points="741,456.1 741,455 745.5,455 745.5,456.1 				"/>
				<polygon id="XMLID_792_" fill="#FFFFFF" points="731.9,456.1 731.9,455 736.4,455 736.4,456.1 				"/>
				<polygon id="XMLID_791_" fill="#FFFFFF" points="722.9,456.1 722.9,455 727.4,455 727.4,456.1 				"/>
				<path id="XMLID_790_" fill="#FFFFFF" d="M785.4,453.1c1.1-0.9,2-2,2.6-3.3l0,0l1,0.5c-0.7,1.5-1.7,2.7-3,3.7l0,0L785.4,453.1
					L785.4,453.1z"/>
				<polygon id="XMLID_789_" fill="#FFFFFF" points="788.9,445.6 788.9,441.1 790.1,441.1 790.1,445.6 				"/>
				<polygon id="XMLID_788_" fill="#FFFFFF" points="788.9,436.6 788.9,432 790.1,432 790.1,436.6 				"/>
				<polygon id="XMLID_787_" fill="#FFFFFF" points="788.9,427.5 788.9,423 790.1,423 790.1,427.5 				"/>
				<polygon id="XMLID_786_" fill="#FFFFFF" points="788.9,418.5 788.9,413.9 790.1,413.9 790.1,418.5 				"/>
				<polygon id="XMLID_785_" fill="#FFFFFF" points="788.9,409.4 788.9,404.9 790.1,404.9 790.1,409.4 				"/>
				<polygon id="XMLID_784_" fill="#FFFFFF" points="788.9,400.3 788.9,395.8 790.1,395.8 790.1,400.3 				"/>
				<polygon id="XMLID_783_" fill="#FFFFFF" points="788.9,391.3 788.9,386.8 790.1,386.8 790.1,391.3 				"/>
				<polygon id="XMLID_782_" fill="#FFFFFF" points="788.9,382.2 788.9,377.7 790.1,377.7 790.1,382.2 				"/>
				<polygon id="XMLID_781_" fill="#FFFFFF" points="788.9,373.2 788.9,368.7 790.1,368.7 790.1,373.2 				"/>
				<polygon id="XMLID_780_" fill="#FFFFFF" points="788.9,364.1 788.9,359.6 790.1,359.6 790.1,364.1 				"/>
				<polygon id="XMLID_779_" fill="#FFFFFF" points="788.9,355.1 788.9,350.6 790.1,350.6 790.1,355.1 				"/>
				<polygon id="XMLID_778_" fill="#FFFFFF" points="788.9,346 788.9,341.5 790.1,341.5 790.1,346 				"/>
				<polygon id="XMLID_777_" fill="#FFFFFF" points="788.9,337 788.9,332.4 790.1,332.4 790.1,337 				"/>
				<path id="XMLID_776_" fill="#FFFFFF" d="M788.9,327.9v-3.6c0-0.3,0-0.7,0-1l0,0l1.1,0.1c0,0.3,0,0.6,0,0.9l0,0v3.6H788.9
					L788.9,327.9z"/>
				<path id="XMLID_775_" fill="#FFFFFF" d="M790.5,318.9c0.9-1.4,2-2.5,3.4-3.3l0,0l0.6,1c-1.2,0.7-2.3,1.7-3,2.9l0,0L790.5,318.9
					L790.5,318.9z"/>
				<path id="XMLID_774_" fill="#FFFFFF" d="M798.5,314.1c0.2,0,0.4,0,0.7,0l0,0h3.9v1.1h-3.9c-0.2,0-0.4,0-0.6,0l0,0L798.5,314.1
					L798.5,314.1z"/>
				<polygon id="XMLID_773_" fill="#FFFFFF" points="1088.2,315.3 1088.2,314.1 1092.7,314.1 1092.7,315.3 				"/>
				<polygon id="XMLID_772_" fill="#FFFFFF" points="1079.1,315.3 1079.1,314.1 1083.7,314.1 1083.7,315.3 				"/>
				<polygon id="XMLID_771_" fill="#FFFFFF" points="1070.1,315.3 1070.1,314.1 1074.6,314.1 1074.6,315.3 				"/>
				<polygon id="XMLID_770_" fill="#FFFFFF" points="1061,315.3 1061,314.1 1065.6,314.1 1065.6,315.3 				"/>
				<polygon id="XMLID_769_" fill="#FFFFFF" points="1052,315.3 1052,314.1 1056.5,314.1 1056.5,315.3 				"/>
				<polygon id="XMLID_768_" fill="#FFFFFF" points="1042.9,315.3 1042.9,314.1 1047.5,314.1 1047.5,315.3 				"/>
				<polygon id="XMLID_767_" fill="#FFFFFF" points="1033.9,315.3 1033.9,314.1 1038.4,314.1 1038.4,315.3 				"/>
				<polygon id="XMLID_766_" fill="#FFFFFF" points="1024.8,315.3 1024.8,314.1 1029.3,314.1 1029.3,315.3 				"/>
				<polygon id="XMLID_765_" fill="#FFFFFF" points="1015.8,315.3 1015.8,314.1 1020.3,314.1 1020.3,315.3 				"/>
				<polygon id="XMLID_764_" fill="#FFFFFF" points="1006.7,315.3 1006.7,314.1 1011.2,314.1 1011.2,315.3 				"/>
				<polygon id="XMLID_763_" fill="#FFFFFF" points="997.7,315.3 997.7,314.1 1002.2,314.1 1002.2,315.3 				"/>
				<polygon id="XMLID_762_" fill="#FFFFFF" points="988.6,315.3 988.6,314.1 993.1,314.1 993.1,315.3 				"/>
				<polygon id="XMLID_761_" fill="#FFFFFF" points="979.6,315.3 979.6,314.1 984.1,314.1 984.1,315.3 				"/>
				<polygon id="XMLID_760_" fill="#FFFFFF" points="970.5,315.3 970.5,314.1 975,314.1 975,315.3 				"/>
				<polygon id="XMLID_759_" fill="#FFFFFF" points="961.5,315.3 961.5,314.1 966,314.1 966,315.3 				"/>
				<polygon id="XMLID_758_" fill="#FFFFFF" points="1214.9,315.3 1214.9,314.1 1219.5,314.1 1219.5,315.3 				"/>
				<polygon id="XMLID_757_" fill="#FFFFFF" points="1205.9,315.3 1205.9,314.1 1210.4,314.1 1210.4,315.3 				"/>
				<polygon id="XMLID_756_" fill="#FFFFFF" points="1196.8,315.3 1196.8,314.1 1201.4,314.1 1201.4,315.3 				"/>
				<polygon id="XMLID_755_" fill="#FFFFFF" points="1187.8,315.3 1187.8,314.1 1192.3,314.1 1192.3,315.3 				"/>
				<polygon id="XMLID_754_" fill="#FFFFFF" points="1242.1,315.3 1242.1,314.1 1246.6,314.1 1246.6,315.3 				"/>
				<polygon id="XMLID_753_" fill="#FFFFFF" points="1233,315.3 1233,314.1 1237.6,314.1 1237.6,315.3 				"/>
				<polygon id="XMLID_752_" fill="#FFFFFF" points="1224,315.3 1224,314.1 1228.5,314.1 1228.5,315.3 				"/>
				<polygon id="XMLID_751_" fill="#FFFFFF" points="1178.7,315.3 1178.7,314.1 1183.2,314.1 1183.2,315.3 				"/>
				<polygon id="XMLID_750_" fill="#FFFFFF" points="1169.7,315.3 1169.7,314.1 1174.2,314.1 1174.2,315.3 				"/>
				<polygon id="XMLID_749_" fill="#FFFFFF" points="1160.6,315.3 1160.6,314.1 1165.1,314.1 1165.1,315.3 				"/>
				<polygon id="XMLID_748_" fill="#FFFFFF" points="1151.6,315.3 1151.6,314.1 1156.1,314.1 1156.1,315.3 				"/>
				<polygon id="XMLID_747_" fill="#FFFFFF" points="1142.5,315.3 1142.5,314.1 1147,314.1 1147,315.3 				"/>
				<polygon id="XMLID_746_" fill="#FFFFFF" points="1133.5,315.3 1133.5,314.1 1138,314.1 1138,315.3 				"/>
				<polygon id="XMLID_745_" fill="#FFFFFF" points="1124.4,315.3 1124.4,314.1 1128.9,314.1 1128.9,315.3 				"/>
				<polygon id="XMLID_744_" fill="#FFFFFF" points="1115.4,315.3 1115.4,314.1 1119.9,314.1 1119.9,315.3 				"/>
				<polygon id="XMLID_743_" fill="#FFFFFF" points="1106.3,315.3 1106.3,314.1 1110.8,314.1 1110.8,315.3 				"/>
				<polygon id="XMLID_742_" fill="#FFFFFF" points="1097.2,315.3 1097.2,314.1 1101.8,314.1 1101.8,315.3 				"/>
				<polygon id="XMLID_741_" fill="#FFFFFF" points="952.4,315.3 952.4,314.1 956.9,314.1 956.9,315.3 				"/>
				<polygon id="XMLID_740_" fill="#FFFFFF" points="943.3,315.3 943.3,314.1 947.9,314.1 947.9,315.3 				"/>
				<polygon id="XMLID_739_" fill="#FFFFFF" points="934.3,315.3 934.3,314.1 938.8,314.1 938.8,315.3 				"/>
				<polygon id="XMLID_738_" fill="#FFFFFF" points="925.2,315.3 925.2,314.1 929.8,314.1 929.8,315.3 				"/>
				<polygon id="XMLID_737_" fill="#FFFFFF" points="916.2,315.3 916.2,314.1 920.7,314.1 920.7,315.3 				"/>
				<polygon id="XMLID_736_" fill="#FFFFFF" points="907.1,315.3 907.1,314.1 911.7,314.1 911.7,315.3 				"/>
				<polygon id="XMLID_735_" fill="#FFFFFF" points="898.1,315.3 898.1,314.1 902.6,314.1 902.6,315.3 				"/>
				<polygon id="XMLID_734_" fill="#FFFFFF" points="889,315.3 889,314.1 893.6,314.1 893.6,315.3 				"/>
				<polygon id="XMLID_733_" fill="#FFFFFF" points="880,315.3 880,314.1 884.5,314.1 884.5,315.3 				"/>
				<polygon id="XMLID_732_" fill="#FFFFFF" points="870.9,315.3 870.9,314.1 875.4,314.1 875.4,315.3 				"/>
				<polygon id="XMLID_731_" fill="#FFFFFF" points="861.9,315.3 861.9,314.1 866.4,314.1 866.4,315.3 				"/>
				<polygon id="XMLID_730_" fill="#FFFFFF" points="852.8,315.3 852.8,314.1 857.3,314.1 857.3,315.3 				"/>
				<polygon id="XMLID_729_" fill="#FFFFFF" points="843.8,315.3 843.8,314.1 848.3,314.1 848.3,315.3 				"/>
				<polygon id="XMLID_728_" fill="#FFFFFF" points="834.7,315.3 834.7,314.1 839.2,314.1 839.2,315.3 				"/>
				<polygon id="XMLID_727_" fill="#FFFFFF" points="825.7,315.3 825.7,314.1 830.2,314.1 830.2,315.3 				"/>
				<polygon id="XMLID_726_" fill="#FFFFFF" points="816.6,315.3 816.6,314.1 821.1,314.1 821.1,315.3 				"/>
				<polygon id="XMLID_725_" fill="#FFFFFF" points="807.6,315.3 807.6,314.1 812.1,314.1 812.1,315.3 				"/>
			</g>
		</g>
		<g id="XMLID_224_">
			<path id="XMLID_724_" fill="#047B97" d="M587.4,313.3c0-5-2-9.6-5.3-12.9l0,0c-3.3-3.3-7.8-5.3-12.9-5.3l0,0H226v-11.3h343.2
				c16.3,0,29.5,13.2,29.5,29.5l0,0L587.4,313.3L587.4,313.3z"/>
		</g>
		<g id="XMLID_1446_">
			<path id="XMLID_723_" fill="#047B97" d="M1108.1,583.2c-2.2,0-4-1.8-4-4V441c0-5,2-9.6,5.3-12.9s7.8-5.3,12.9-5.3h43.7
				c8.4,0,15.3-6.8,15.3-15.3v-88.7H1170v88.7c0,2.2-1.8,4-4,4h-43.7c-16.3,0-29.5,13.2-29.5,29.5v138.3c0,8.5,6.8,15.3,15.3,15.3
				h133v-11.3h-133V583.2z"/>
			<g id="XMLID_225_">
				<path id="XMLID_226_" fill="#FFFFFF" d="M1227.2,589.4v-1.1h4.5v1.1H1227.2L1227.2,589.4z M1218.2,589.4v-1.1h4.5v1.1H1218.2
					L1218.2,589.4z M1209.1,589.4v-1.1h4.5v1.1H1209.1L1209.1,589.4z M1200.1,589.4v-1.1h4.5v1.1H1200.1L1200.1,589.4z M1191,589.4
					v-1.1h4.5v1.1H1191L1191,589.4z M1182,589.4v-1.1h4.5v1.1H1182L1182,589.4z M1172.9,589.4v-1.1h4.5v1.1H1172.9L1172.9,589.4z
					 M1163.9,589.4v-1.1h4.5v1.1H1163.9L1163.9,589.4z M1154.8,589.4v-1.1h4.5v1.1H1154.8L1154.8,589.4z M1145.8,589.4v-1.1h4.5v1.1
					H1145.8L1145.8,589.4z M1136.7,589.4v-1.1h4.5v1.1H1136.7L1136.7,589.4z M1127.7,589.4v-1.1h4.5v1.1H1127.7L1127.7,589.4z
					 M1118.6,589.4v-1.1h4.5v1.1H1118.6L1118.6,589.4z M1109.6,589.4v-1.1h4.5v1.1H1109.6L1109.6,589.4z M1100.9,586.4l0.8-0.8
					c1,1,2.2,1.8,3.6,2.2l0,0l-0.4,1.1C1103.4,588.4,1102,587.5,1100.9,586.4L1100.9,586.4z M1097.9,579.2v-1.5h1.1v1.5
					c0,1,0.2,1.9,0.4,2.8l0,0l-1.1,0.3C1098.1,581.4,1097.9,580.3,1097.9,579.2L1097.9,579.2z M1097.9,573.2v-4.5h1.1v4.5H1097.9
					L1097.9,573.2z M1097.9,564.1v-4.5h1.1v4.5H1097.9L1097.9,564.1z M1097.9,555.1v-4.5h1.1v4.5H1097.9L1097.9,555.1z M1097.9,546
					v-4.5h1.1v4.5H1097.9L1097.9,546z M1097.9,537v-4.5h1.1v4.5H1097.9L1097.9,537z M1097.9,527.9v-4.5h1.1v4.5H1097.9L1097.9,527.9
					z M1097.9,518.9v-4.5h1.1v4.5H1097.9L1097.9,518.9z M1097.9,509.8v-4.5h1.1v4.5H1097.9L1097.9,509.8z M1097.9,500.8v-4.5h1.1
					v4.5H1097.9L1097.9,500.8z M1097.9,491.7v-4.5h1.1v4.5H1097.9L1097.9,491.7z M1097.9,482.6v-4.5h1.1v4.5H1097.9L1097.9,482.6z
					 M1097.9,473.6v-4.5h1.1v4.5H1097.9L1097.9,473.6z M1097.9,464.5V460h1.1v4.5H1097.9L1097.9,464.5z M1097.9,455.5V451h1.1v4.5
					H1097.9L1097.9,455.5z M1097.9,446.4v-4.5h1.1v4.5H1097.9L1097.9,446.4z M1098.2,437.3c0.2-1.5,0.6-3,1.1-4.5l0,0l1.1,0.4
					c-0.5,1.4-0.8,2.8-1.1,4.3l0,0L1098.2,437.3L1098.2,437.3z M1101.3,428.6c0.8-1.3,1.7-2.6,2.7-3.8l0,0l0,0l0.9,0.7
					c-1,1.1-1.8,2.3-2.6,3.6l0,0L1101.3,428.6L1101.3,428.6z M1107.3,421.7c1.2-0.9,2.5-1.8,3.9-2.5l0,0l0.5,1
					c-1.3,0.7-2.6,1.5-3.7,2.4l0,0L1107.3,421.7L1107.3,421.7z M1115.5,417.5c1.5-0.4,3-0.7,4.5-0.9l0,0l0.1,1.1
					c-1.5,0.1-2.9,0.4-4.3,0.8l0,0L1115.5,417.5L1115.5,417.5z M1160.9,417.7v-1.1h4.5v1.1H1160.9L1160.9,417.7z M1151.8,417.7v-1.1
					h4.5v1.1H1151.8L1151.8,417.7z M1142.8,417.7v-1.1h4.5v1.1H1142.8L1142.8,417.7z M1133.7,417.7v-1.1h4.5v1.1H1133.7
					L1133.7,417.7z M1124.6,417.7v-1.1h4.5v1.1H1124.6L1124.6,417.7z M1169.6,415.8c1.3-0.6,2.5-1.4,3.4-2.5l0,0l0.9,0.7
					c-1,1.2-2.3,2.2-3.8,2.8l0,0L1169.6,415.8L1169.6,415.8z M1173,413.3L1173,413.3L1173,413.3L1173,413.3L1173,413.3L1173,413.3z
					 M1174.9,409.6c0.2-0.7,0.2-1.4,0.2-2.1l0,0v-2.3h1.1v2.3c0,0.8-0.1,1.6-0.3,2.4l0,0L1174.9,409.6L1174.9,409.6z M1175.1,400.7
					v-4.5h1.1v4.5H1175.1L1175.1,400.7z M1175.1,391.6v-4.5h1.1v4.5H1175.1L1175.1,391.6z M1175.1,382.6V378h1.1v4.5h-1.1V382.6z
					 M1175.1,373.5V369h1.1v4.5H1175.1L1175.1,373.5z M1175.1,364.5V360h1.1v4.5H1175.1L1175.1,364.5z M1175.1,355.4v-4.5h1.1v4.5
					H1175.1L1175.1,355.4z M1175.1,346.4v-4.5h1.1v4.5H1175.1L1175.1,346.4z M1175.1,337.3v-4.5h1.1v4.5H1175.1L1175.1,337.3z
					 M1175.1,328.3v-4.5h1.1v4.5H1175.1L1175.1,328.3z"/>
			</g>
		</g>
		<path id="XMLID_670_" fill="#047B97" d="M760.3,88v267.5c0,5.3-2.1,10.1-5.6,13.5c-3.5,3.5-8.2,5.6-13.5,5.6h-25.5v9.4h25.5
			c15.8,0,28.6-12.8,28.6-28.6V88H760.3z"/>
		<g id="XMLID_227_">
			<polygon id="XMLID_669_" fill="#FFFFFF" points="735.2,380 735.2,378.8 739.7,378.8 739.7,380 			"/>
			<polygon id="XMLID_668_" fill="#FFFFFF" points="726.2,380 726.2,378.8 730.7,378.8 730.7,380 			"/>
			<polygon id="XMLID_667_" fill="#FFFFFF" points="717.1,380 717.1,378.8 721.6,378.8 721.6,380 			"/>
			<path id="XMLID_666_" fill="#FFFFFF" d="M744.2,378.6c1.5-0.2,2.9-0.5,4.3-1l0,0l0.4,1.1c-1.4,0.5-3,0.8-4.5,1l0,0L744.2,378.6
				L744.2,378.6z"/>
			<path id="XMLID_665_" fill="#FFFFFF" d="M752.5,375.9c1.3-0.7,2.5-1.6,3.6-2.5l0,0l0.7,0.9c-1.2,1-2.4,1.9-3.8,2.6l0,0
				L752.5,375.9L752.5,375.9z"/>
			<path id="XMLID_664_" fill="#FFFFFF" d="M759.2,370.2c0.9-1.1,1.7-2.4,2.4-3.7l0,0l1,0.5c-0.7,1.4-1.6,2.7-2.6,3.9l0,0
				L759.2,370.2L759.2,370.2z"/>
			<path id="XMLID_663_" fill="#FFFFFF" d="M763.4,362.5c0.4-1.4,0.7-2.8,0.9-4.3l0,0l1.1,0.1c-0.2,1.6-0.5,3.1-0.9,4.5l0,0
				L763.4,362.5L763.4,362.5z"/>
			<polygon id="XMLID_662_" fill="#FFFFFF" points="764.4,353.7 764.4,349.2 765.5,349.2 765.5,353.7 			"/>
			<polygon id="XMLID_661_" fill="#FFFFFF" points="764.4,344.6 764.4,340.1 765.5,340.1 765.5,344.6 			"/>
			<polygon id="XMLID_660_" fill="#FFFFFF" points="764.4,335.6 764.4,331 765.5,331 765.5,335.6 			"/>
			<polygon id="XMLID_659_" fill="#FFFFFF" points="764.4,326.5 764.4,322 765.5,322 765.5,326.5 			"/>
			<polygon id="XMLID_658_" fill="#FFFFFF" points="764.4,317.5 764.4,312.9 765.5,312.9 765.5,317.5 			"/>
			<polygon id="XMLID_657_" fill="#FFFFFF" points="764.4,308.4 764.4,303.9 765.5,303.9 765.5,308.4 			"/>
			<polygon id="XMLID_656_" fill="#FFFFFF" points="764.4,299.4 764.4,294.8 765.5,294.8 765.5,299.4 			"/>
			<polygon id="XMLID_655_" fill="#FFFFFF" points="764.4,290.3 764.4,285.8 765.5,285.8 765.5,290.3 			"/>
			<polygon id="XMLID_654_" fill="#FFFFFF" points="764.4,281.3 764.4,276.7 765.5,276.7 765.5,281.3 			"/>
			<polygon id="XMLID_653_" fill="#FFFFFF" points="764.4,272.2 764.4,267.7 765.5,267.7 765.5,272.2 			"/>
			<polygon id="XMLID_652_" fill="#FFFFFF" points="764.4,263.2 764.4,258.6 765.5,258.6 765.5,263.2 			"/>
			<polygon id="XMLID_651_" fill="#FFFFFF" points="764.4,254.1 764.4,249.6 765.5,249.6 765.5,254.1 			"/>
			<polygon id="XMLID_650_" fill="#FFFFFF" points="764.4,245 764.4,240.5 765.5,240.5 765.5,245 			"/>
			<polygon id="XMLID_649_" fill="#FFFFFF" points="764.4,236 764.4,231.5 765.5,231.5 765.5,236 			"/>
			<polygon id="XMLID_648_" fill="#FFFFFF" points="764.4,226.9 764.4,222.4 765.5,222.4 765.5,226.9 			"/>
			<polygon id="XMLID_647_" fill="#FFFFFF" points="764.4,217.9 764.4,213.4 765.5,213.4 765.5,217.9 			"/>
			<polygon id="XMLID_646_" fill="#FFFFFF" points="764.4,208.8 764.4,204.3 765.5,204.3 765.5,208.8 			"/>
			<polygon id="XMLID_645_" fill="#FFFFFF" points="764.4,199.8 764.4,195.3 765.5,195.3 765.5,199.8 			"/>
			<polygon id="XMLID_644_" fill="#FFFFFF" points="764.4,190.7 764.4,186.2 765.5,186.2 765.5,190.7 			"/>
			<polygon id="XMLID_643_" fill="#FFFFFF" points="764.4,181.7 764.4,177.1 765.5,177.1 765.5,181.7 			"/>
			<polygon id="XMLID_642_" fill="#FFFFFF" points="764.4,172.6 764.4,168.1 765.5,168.1 765.5,172.6 			"/>
			<polygon id="XMLID_641_" fill="#FFFFFF" points="764.4,163.6 764.4,159 765.5,159 765.5,163.6 			"/>
			<polygon id="XMLID_640_" fill="#FFFFFF" points="764.4,154.5 764.4,150 765.5,150 765.5,154.5 			"/>
			<polygon id="XMLID_639_" fill="#FFFFFF" points="764.4,145.5 764.4,140.9 765.5,140.9 765.5,145.5 			"/>
			<polygon id="XMLID_638_" fill="#FFFFFF" points="764.4,136.4 764.4,131.9 765.5,131.9 765.5,136.4 			"/>
			<polygon id="XMLID_637_" fill="#FFFFFF" points="764.4,127.4 764.4,122.8 765.5,122.8 765.5,127.4 			"/>
			<polygon id="XMLID_636_" fill="#FFFFFF" points="764.4,118.3 764.4,113.8 765.5,113.8 765.5,118.3 			"/>
			<polygon id="XMLID_635_" fill="#FFFFFF" points="764.4,109.3 764.4,104.7 765.5,104.7 765.5,109.3 			"/>
			<polygon id="XMLID_634_" fill="#FFFFFF" points="764.4,100.2 764.4,95.7 765.5,95.7 765.5,100.2 			"/>
		</g>
		<g id="XMLID_229_">
			<path id="XMLID_591_" fill="#047B97" d="M700.5,474.3V373.8c0-1.2-0.9-2.1-2.1-2.1l0,0h-93.9c-9.5,0-17.2-7.7-17.2-17.2l0,0
				V197.3l0,0h15.1v157.3c0,1.2,0.9,2.1,2.1,2.1l0,0h93.9c9.5,0,17.2,7.7,17.2,17.2l0,0v100.4L700.5,474.3L700.5,474.3z"/>
		</g>
		<g id="XMLID_230_">
			<polygon id="XMLID_590_" fill="#FFFFFF" points="707.5,453 707.5,448.5 708.6,448.5 708.6,453 			"/>
			<polygon id="XMLID_589_" fill="#FFFFFF" points="707.5,444 707.5,439.4 708.6,439.4 708.6,444 			"/>
			<polygon id="XMLID_588_" fill="#FFFFFF" points="707.5,434.9 707.5,430.4 708.6,430.4 708.6,434.9 			"/>
			<polygon id="XMLID_587_" fill="#FFFFFF" points="707.5,425.8 707.5,421.3 708.6,421.3 708.6,425.8 			"/>
			<polygon id="XMLID_586_" fill="#FFFFFF" points="707.5,471.1 707.5,466.6 708.6,466.6 708.6,471.1 			"/>
			<polygon id="XMLID_585_" fill="#FFFFFF" points="707.5,462.1 707.5,457.5 708.6,457.5 708.6,462.1 			"/>
			<polygon id="XMLID_584_" fill="#FFFFFF" points="707.5,416.8 707.5,412.3 708.6,412.3 708.6,416.8 			"/>
			<polygon id="XMLID_583_" fill="#FFFFFF" points="707.5,407.7 707.5,403.2 708.6,403.2 708.6,407.7 			"/>
			<polygon id="XMLID_582_" fill="#FFFFFF" points="707.5,398.7 707.5,394.2 708.6,394.2 708.6,398.7 			"/>
			<polygon id="XMLID_581_" fill="#FFFFFF" points="707.5,389.6 707.5,385.1 708.6,385.1 708.6,389.6 			"/>
			<polygon id="XMLID_580_" fill="#FFFFFF" points="707.5,380.6 707.5,376.1 708.6,376.1 708.6,380.6 			"/>
			<path id="XMLID_579_" fill="#FFFFFF" d="M705.3,367.9l0.9-0.7c1,1.2,1.8,2.6,2.2,4.2l0,0l-1.1,0.3
				C706.9,370.3,706.2,369,705.3,367.9L705.3,367.9z"/>
			<path id="XMLID_578_" fill="#FFFFFF" d="M698.4,364.8h-0.7v-1.1h0.7c1.4,0,2.7,0.3,3.9,0.8l0,0l-0.4,1
				C700.8,365,699.6,364.8,698.4,364.8L698.4,364.8z"/>
			<polygon id="XMLID_577_" fill="#FFFFFF" points="688.6,364.8 688.6,363.6 693.2,363.6 693.2,364.8 			"/>
			<polygon id="XMLID_576_" fill="#FFFFFF" points="679.6,364.8 679.6,363.6 684.1,363.6 684.1,364.8 			"/>
			<polygon id="XMLID_575_" fill="#FFFFFF" points="670.5,364.8 670.5,363.6 675,363.6 675,364.8 			"/>
			<polygon id="XMLID_574_" fill="#FFFFFF" points="661.5,364.8 661.5,363.6 666,363.6 666,364.8 			"/>
			<polygon id="XMLID_573_" fill="#FFFFFF" points="652.4,364.8 652.4,363.6 656.9,363.6 656.9,364.8 			"/>
			<polygon id="XMLID_572_" fill="#FFFFFF" points="643.4,364.8 643.4,363.6 647.9,363.6 647.9,364.8 			"/>
			<polygon id="XMLID_571_" fill="#FFFFFF" points="634.3,364.8 634.3,363.6 638.8,363.6 638.8,364.8 			"/>
			<polygon id="XMLID_570_" fill="#FFFFFF" points="625.3,364.8 625.3,363.6 629.8,363.6 629.8,364.8 			"/>
			<polygon id="XMLID_569_" fill="#FFFFFF" points="616.2,364.8 616.2,363.6 620.7,363.6 620.7,364.8 			"/>
			<polygon id="XMLID_568_" fill="#FFFFFF" points="607.1,364.8 607.1,363.6 611.7,363.6 611.7,364.8 			"/>
			<path id="XMLID_567_" fill="#FFFFFF" d="M598.2,362.6L598.2,362.6l0.7-0.9c1.1,0.9,2.4,1.5,3.8,1.8l0,0l-0.2,1.1
				C600.9,364.2,599.5,363.5,598.2,362.6L598.2,362.6z"/>
			<path id="XMLID_566_" fill="#FFFFFF" d="M594.3,354.5v-0.3h1.1v0.3c0,1.4,0.3,2.7,0.8,3.8l0,0l-1,0.5
				C594.7,357.5,594.3,356.1,594.3,354.5L594.3,354.5z"/>
			<polygon id="XMLID_565_" fill="#FFFFFF" points="594.3,349.7 594.3,345.1 595.5,345.1 595.5,349.7 			"/>
			<polygon id="XMLID_564_" fill="#FFFFFF" points="594.3,340.6 594.3,336.1 595.5,336.1 595.5,340.6 			"/>
			<polygon id="XMLID_563_" fill="#FFFFFF" points="594.3,331.6 594.3,327 595.5,327 595.5,331.6 			"/>
			<polygon id="XMLID_562_" fill="#FFFFFF" points="594.3,322.5 594.3,318 595.5,318 595.5,322.5 			"/>
			<polygon id="XMLID_561_" fill="#FFFFFF" points="594.3,313.5 594.3,308.9 595.5,308.9 595.5,313.5 			"/>
			<polygon id="XMLID_560_" fill="#FFFFFF" points="594.3,304.4 594.3,299.9 595.5,299.9 595.5,304.4 			"/>
			<polygon id="XMLID_559_" fill="#FFFFFF" points="594.3,295.4 594.3,290.8 595.5,290.8 595.5,295.4 			"/>
			<polygon id="XMLID_558_" fill="#FFFFFF" points="594.3,286.3 594.3,281.8 595.5,281.8 595.5,286.3 			"/>
			<polygon id="XMLID_557_" fill="#FFFFFF" points="594.3,277.2 594.3,272.7 595.5,272.7 595.5,277.2 			"/>
			<polygon id="XMLID_556_" fill="#FFFFFF" points="594.3,268.2 594.3,263.7 595.5,263.7 595.5,268.2 			"/>
			<polygon id="XMLID_555_" fill="#FFFFFF" points="594.3,259.1 594.3,254.6 595.5,254.6 595.5,259.1 			"/>
			<polygon id="XMLID_554_" fill="#FFFFFF" points="594.3,250.1 594.3,245.6 595.5,245.6 595.5,250.1 			"/>
			<polygon id="XMLID_553_" fill="#FFFFFF" points="594.3,241 594.3,236.5 595.5,236.5 595.5,241 			"/>
			<polygon id="XMLID_552_" fill="#FFFFFF" points="594.3,232 594.3,227.5 595.5,227.5 595.5,232 			"/>
			<polygon id="XMLID_551_" fill="#FFFFFF" points="594.3,222.9 594.3,218.4 595.5,218.4 595.5,222.9 			"/>
			<polygon id="XMLID_550_" fill="#FFFFFF" points="594.3,213.9 594.3,209.4 595.5,209.4 595.5,213.9 			"/>
			<polygon id="XMLID_549_" fill="#FFFFFF" points="594.3,204.8 594.3,200.3 595.5,200.3 595.5,204.8 			"/>
		</g>
		<g id="XMLID_232_">
			<path id="XMLID_492_" fill="#FFFFFF" d="M588.7,300.6l0.9-0.6c0.8,1.3,1.6,2.7,2.2,4.1l0,0l-1,0.4
				C590.2,303.1,589.5,301.8,588.7,300.6L588.7,300.6z"/>
			<path id="XMLID_491_" fill="#FFFFFF" d="M582.6,294.3l0.7-0.9c1.3,0.9,2.4,1.9,3.5,3l0,0l-0.8,0.8
				C584.9,296.1,583.8,295.1,582.6,294.3L582.6,294.3z"/>
			<path id="XMLID_490_" fill="#FFFFFF" d="M574.5,290.7l0.3-1.1c1.5,0.4,3,0.9,4.4,1.5l0,0l-0.5,1C577.4,291.5,576,291,574.5,290.7
				L574.5,290.7z"/>
			<path id="XMLID_489_" fill="#FFFFFF" d="M569.2,290h-3.5v-1.1h3.5c0.4,0,0.7,0,1.1,0l0,0v1.1C569.8,290,569.5,290,569.2,290
				L569.2,290z"/>
			<path id="XMLID_488_" fill="#FFFFFF" d="M565.7,290L565.7,290L565.7,290z"/>
			<polygon id="XMLID_487_" fill="#FFFFFF" points="556.6,290 556.6,288.9 561.2,288.9 561.2,290 			"/>
			<polygon id="XMLID_486_" fill="#FFFFFF" points="547.6,290 547.6,288.9 552.1,288.9 552.1,290 			"/>
			<polygon id="XMLID_485_" fill="#FFFFFF" points="538.5,290 538.5,288.9 543,288.9 543,290 			"/>
			<polygon id="XMLID_484_" fill="#FFFFFF" points="529.5,290 529.5,288.9 534,288.9 534,290 			"/>
			<polygon id="XMLID_483_" fill="#FFFFFF" points="520.4,290 520.4,288.9 524.9,288.9 524.9,290 			"/>
			<polygon id="XMLID_482_" fill="#FFFFFF" points="511.4,290 511.4,288.9 515.9,288.9 515.9,290 			"/>
			<polygon id="XMLID_481_" fill="#FFFFFF" points="502.3,290 502.3,288.9 506.8,288.9 506.8,290 			"/>
			<polygon id="XMLID_480_" fill="#FFFFFF" points="493.3,290 493.3,288.9 497.8,288.9 497.8,290 			"/>
			<polygon id="XMLID_479_" fill="#FFFFFF" points="484.2,290 484.2,288.9 488.7,288.9 488.7,290 			"/>
			<polygon id="XMLID_478_" fill="#FFFFFF" points="475.1,290 475.1,288.9 479.7,288.9 479.7,290 			"/>
			<polygon id="XMLID_477_" fill="#FFFFFF" points="466.1,290 466.1,288.9 470.6,288.9 470.6,290 			"/>
			<polygon id="XMLID_476_" fill="#FFFFFF" points="457,290 457,288.9 461.6,288.9 461.6,290 			"/>
			<polygon id="XMLID_475_" fill="#FFFFFF" points="448,290 448,288.9 452.5,288.9 452.5,290 			"/>
			<polygon id="XMLID_474_" fill="#FFFFFF" points="438.9,290 438.9,288.9 443.5,288.9 443.5,290 			"/>
			<polygon id="XMLID_473_" fill="#FFFFFF" points="429.9,290 429.9,288.9 434.4,288.9 434.4,290 			"/>
			<polygon id="XMLID_472_" fill="#FFFFFF" points="420.8,290 420.8,288.9 425.4,288.9 425.4,290 			"/>
			<polygon id="XMLID_471_" fill="#FFFFFF" points="411.8,290 411.8,288.9 416.3,288.9 416.3,290 			"/>
			<polygon id="XMLID_470_" fill="#FFFFFF" points="402.7,290 402.7,288.9 407.3,288.9 407.3,290 			"/>
			<polygon id="XMLID_469_" fill="#FFFFFF" points="393.7,290 393.7,288.9 398.2,288.9 398.2,290 			"/>
			<polygon id="XMLID_468_" fill="#FFFFFF" points="384.6,290 384.6,288.9 389.1,288.9 389.1,290 			"/>
			<polygon id="XMLID_467_" fill="#FFFFFF" points="375.6,290 375.6,288.9 380.1,288.9 380.1,290 			"/>
			<polygon id="XMLID_466_" fill="#FFFFFF" points="366.5,290 366.5,288.9 371,288.9 371,290 			"/>
			<polygon id="XMLID_465_" fill="#FFFFFF" points="357.5,290 357.5,288.9 362,288.9 362,290 			"/>
			<polygon id="XMLID_464_" fill="#FFFFFF" points="348.4,290 348.4,288.9 352.9,288.9 352.9,290 			"/>
			<polygon id="XMLID_463_" fill="#FFFFFF" points="339.4,290 339.4,288.9 343.9,288.9 343.9,290 			"/>
			<polygon id="XMLID_462_" fill="#FFFFFF" points="330.3,290 330.3,288.9 334.8,288.9 334.8,290 			"/>
			<polygon id="XMLID_461_" fill="#FFFFFF" points="321.2,290 321.2,288.9 325.8,288.9 325.8,290 			"/>
			<polygon id="XMLID_460_" fill="#FFFFFF" points="312.2,290 312.2,288.9 316.7,288.9 316.7,290 			"/>
			<polygon id="XMLID_459_" fill="#FFFFFF" points="303.1,290 303.1,288.9 307.7,288.9 307.7,290 			"/>
			<polygon id="XMLID_458_" fill="#FFFFFF" points="294.1,290 294.1,288.9 298.6,288.9 298.6,290 			"/>
			<polygon id="XMLID_457_" fill="#FFFFFF" points="285,290 285,288.9 289.6,288.9 289.6,290 			"/>
			<polygon id="XMLID_456_" fill="#FFFFFF" points="276,290 276,288.9 280.5,288.9 280.5,290 			"/>
			<polygon id="XMLID_455_" fill="#FFFFFF" points="266.9,290 266.9,288.9 271.5,288.9 271.5,290 			"/>
			<polygon id="XMLID_454_" fill="#FFFFFF" points="257.9,290 257.9,288.9 262.4,288.9 262.4,290 			"/>
			<polygon id="XMLID_453_" fill="#FFFFFF" points="248.8,290 248.8,288.9 253.4,288.9 253.4,290 			"/>
			<polygon id="XMLID_452_" fill="#FFFFFF" points="239.8,290 239.8,288.9 244.3,288.9 244.3,290 			"/>
			<polygon id="XMLID_451_" fill="#FFFFFF" points="230.7,290 230.7,288.9 235.2,288.9 235.2,290 			"/>
		</g>
		<g id="XMLID_239_">
			<path id="XMLID_306_" fill="#FFFFFF" d="M915.9,387c2.3,0,4.3-1.6,4.9-3.7c0.6,2.1,2.6,3.7,4.9,3.7s4.3-1.6,4.9-3.7
				c0.6,2.1,2.5,3.7,4.9,3.7c2.3,0,4.3-1.6,4.9-3.7c0.6,2.1,2.5,3.7,4.9,3.7c2.3,0,4.3-1.6,4.9-3.7c0.6,2.1,2.5,3.7,4.9,3.7
				s4.3-1.6,4.9-3.7c0.6,2.1,2.6,3.7,4.9,3.7v-0.4c-2.6,0-4.7-2.1-4.7-4.7l0,0l0,0h-0.4l0,0c0,2.6-2.1,4.7-4.7,4.7
				c-2.6,0-4.7-2.1-4.7-4.7H950l0,0c0,2.6-2.1,4.7-4.7,4.7c-2.6,0-4.7-2.1-4.7-4.7l0,0l0,0l0,0h-0.4l0,0l0,0c0,2.6-2.1,4.7-4.7,4.7
				c-2.6,0-4.7-2.1-4.7-4.7l0,0h-0.4c0,2.6-2.1,4.7-4.7,4.7c-2.6,0-4.7-2.1-4.7-4.7h-0.4l0,0l0,0c0,2.6-2.1,4.7-4.7,4.7
				c-2.6,0-4.7-2.1-4.7-4.7h-0.4l0,0l0,0c0,2.6-2.1,4.7-4.7,4.7v0.4c2.3,0,4.3-1.6,4.9-3.7C911.6,385.4,913.6,387,915.9,387z"/>
			<path id="XMLID_305_" fill="#FFFFFF" d="M922.2,396.2h-0.4l0,0l0,0c0,2.6-2.1,4.7-4.7,4.7c-2.6,0-4.7-2.1-4.7-4.7l0,0l0,0H912
				l0,0l0,0c0,2.6-2.1,4.7-4.7,4.7c-2.6,0-4.7-2.1-4.7-4.7l0,0l0,0h-0.4c0,2.6-2.1,4.7-4.7,4.7c-2.6,0-4.7-2.1-4.7-4.7h-0.4l0,0l0,0
				c0,2.6-2.1,4.7-4.7,4.7c-2.6,0-4.7-2.1-4.7-4.7l0,0h-0.4l0,0c0,2.6-2.1,4.7-4.7,4.7c-2.6,0-4.7-2.1-4.7-4.7l0,0l0,0l0,0H873l0,0
				c0,2.6-2.1,4.7-4.7,4.7v0.4c2.3,0,4.3-1.6,4.9-3.7c0.6,2.1,2.6,3.7,4.9,3.7s4.3-1.6,4.9-3.7c0.6,2.1,2.6,3.7,4.9,3.7
				c2.3,0,4.3-1.6,4.9-3.7c0.6,2.1,2.6,3.7,4.9,3.7c2.3,0,4.3-1.6,4.9-3.7c0.6,2.1,2.5,3.7,4.9,3.7c2.3,0,4.3-1.6,4.9-3.7
				c0.6,2.1,2.5,3.7,4.9,3.7c2.3,0,4.3-1.6,4.9-3.7c0.6,2.1,2.5,3.7,4.9,3.7v-0.4C924.3,400.8,922.2,398.7,922.2,396.2z"/>
			<path id="XMLID_304_" fill="#FFFFFF" d="M911,379.6c2.3,0,4.3-1.6,4.9-3.7c0.6,2.1,2.6,3.7,4.9,3.7s4.3-1.6,4.9-3.7
				c0.6,2.1,2.6,3.7,4.9,3.7s4.3-1.6,4.9-3.7c0.6,2.1,2.5,3.7,4.9,3.7c2.3,0,4.3-1.6,4.9-3.7c0.6,2.1,2.5,3.7,4.9,3.7
				c2.3,0,4.3-1.6,4.9-3.7c0.6,2.1,2.6,3.7,4.9,3.7v-0.4c-2.6,0-4.7-2.1-4.7-4.7l0,0l0,0h-0.4l0,0l0,0c0,2.6-2.1,4.7-4.7,4.7
				c-2.6,0-4.7-2.1-4.7-4.7H945l0,0l0,0c0,2.6-2.1,4.7-4.7,4.7c-2.6,0-4.7-2.1-4.7-4.7l0,0h-0.4l0,0c0,2.6-2.1,4.7-4.7,4.7
				c-2.6,0-4.7-2.1-4.7-4.7l0,0h-0.4l0,0c0,2.6-2.1,4.7-4.7,4.7c-2.6,0-4.7-2.1-4.7-4.7l0,0h-0.4l0,0c0,2.6-2.1,4.7-4.7,4.7
				c-2.6,0-4.7-2.1-4.7-4.7l0,0l0,0l0,0h-0.4l0,0l0,0c0,2.6-2.1,4.7-4.7,4.7v0.4c2.3,0,4.3-1.6,4.9-3.7
				C906.7,378.1,908.7,379.6,911,379.6z"/>
		</g>
		<g id="XMLID_242_">
			<path id="XMLID_243_" fill="#0A7A96" d="M1066.3,98.9h-15.6c-2.6,0-4.6-2.1-4.6-4.6c0-1.5,0.7-2.9,1.9-3.7
				c-0.1-0.4-0.1-0.8-0.1-1.2c0-3.9,3.2-7.1,7.1-7.1c2.4,0,4.6,1.2,5.9,3.2c0.5-0.2,1.1-0.3,1.7-0.3c2.7,0,4.9,2,5.1,4.7
				c1.9,0.6,3.3,2.4,3.3,4.4C1070.9,96.8,1068.8,98.9,1066.3,98.9z M1054.9,84.2c-2.8,0-5.1,2.3-5.1,5.1c0,0.5,0.1,0.9,0.2,1.4
				l0.2,0.8l-0.7,0.4c-0.9,0.5-1.5,1.4-1.5,2.4c0,1.5,1.2,2.7,2.7,2.7h15.6c1.5,0,2.7-1.2,2.7-2.7c0-1.4-1-2.5-2.4-2.7l-0.9-0.1
				l0.1-0.9c0-0.1,0-0.2,0-0.2c0-1.8-1.4-3.2-3.2-3.2c-0.6,0-1.1,0.2-1.6,0.4l-0.9,0.5l-0.5-1C1058.7,85.4,1056.9,84.2,1054.9,84.2z
				"/>
		</g>
		<g id="XMLID_268_">
			<path id="XMLID_273_" fill="#0A7A96" d="M1004,88.3h-22.4c-3.7,0-6.7-3-6.7-6.7c0-2.1,1-4.1,2.7-5.3c-0.1-0.6-0.1-1.1-0.1-1.7
				c0-5.6,4.6-10.2,10.2-10.2c3.4,0,6.6,1.8,8.5,4.6c0.8-0.3,1.6-0.4,2.5-0.4c3.8,0,7,2.9,7.4,6.7c2.7,0.9,4.7,3.4,4.7,6.4
				C1010.7,85.3,1007.7,88.3,1004,88.3z M987.7,67.2c-4.1,0-7.4,3.3-7.4,7.4c0,0.7,0.1,1.3,0.3,2l0.3,1.1l-1,0.5
				c-1.3,0.7-2.1,2-2.1,3.4c0,2.1,1.7,3.9,3.9,3.9h22.4c2.1,0,3.9-1.7,3.9-3.9c0-2-1.5-3.6-3.4-3.8l-1.3-0.2l0.1-1.3
				c0-0.2,0-0.2,0-0.3c0-2.5-2.1-4.6-4.6-4.6c-0.8,0-1.6,0.2-2.3,0.6l-1.3,0.8l-0.7-1.4C993.2,68.9,990.6,67.2,987.7,67.2z"/>
		</g>
		<g id="XMLID_244_">
			<path id="XMLID_245_" fill="#0A7A96" d="M349.2,155.7h-27.8c-4.6,0-8.3-3.7-8.3-8.3c0-2.6,1.3-5.1,3.3-6.6
				c-0.1-0.7-0.2-1.4-0.2-2.1c0-7,5.7-12.6,12.6-12.6c4.3,0,8.2,2.2,10.6,5.7c1-0.3,2-0.5,3.1-0.5c4.8,0,8.7,3.6,9.1,8.3
				c3.4,1.1,5.8,4.2,5.8,7.9C357.5,152,353.7,155.7,349.2,155.7z M328.9,129.5c-5.1,0-9.2,4.1-9.2,9.2c0,0.8,0.1,1.6,0.3,2.5
				l0.4,1.4l-1.3,0.6c-1.6,0.8-2.6,2.5-2.6,4.3c0,2.7,2.2,4.8,4.8,4.8h27.8c2.7,0,4.8-2.2,4.8-4.8c0-2.4-1.8-4.5-4.3-4.8l-1.6-0.2
				l0.1-1.6c0-0.2,0-0.3,0-0.4c0-3.2-2.6-5.7-5.7-5.7c-1,0-2,0.3-2.9,0.8l-1.6,1l-0.8-1.7C335.7,131.6,332.4,129.5,328.9,129.5z"/>
		</g>
		<g id="XMLID_246_">
			<path id="XMLID_247_" fill="#0A7A96" d="M391.8,142h-18c-3,0-5.4-2.4-5.4-5.4c0-1.7,0.8-3.3,2.2-4.3c-0.1-0.5-0.1-0.9-0.1-1.4
				c0-4.5,3.7-8.2,8.2-8.2c2.8,0,5.3,1.4,6.8,3.7c0.6-0.2,1.3-0.3,2-0.3c3.1,0,5.6,2.4,5.9,5.4c2.2,0.7,3.8,2.7,3.8,5.1
				C397.2,139.6,394.8,142,391.8,142z M378.7,125c-3.3,0-5.9,2.7-5.9,5.9c0,0.5,0.1,1.1,0.2,1.6l0.2,0.9l-0.8,0.4
				c-1.1,0.5-1.7,1.6-1.7,2.8c0,1.7,1.4,3.1,3.1,3.1h18c1.7,0,3.1-1.4,3.1-3.1c0-1.6-1.2-2.9-2.8-3.1l-1.1-0.1l0.1-1.1
				c0-0.1,0-0.2,0-0.3c0-2-1.7-3.7-3.7-3.7c-0.7,0-1.3,0.2-1.9,0.5l-1.1,0.6l-0.5-1.1C383.1,126.4,380.9,125,378.7,125z"/>
		</g>
		<g id="XMLID_1122_">
			<g id="XMLID_1129_">
				<g id="XMLID_1130_">
					<path id="XMLID_1131_" fill="#0A7A96" d="M418.5,254.1c0-7.4-6.1-13.5-13.5-13.5s-13.5,6.1-13.5,13.5v0.1h-2.8v-0.1
						c0-9,7.3-16.2,16.2-16.2c9,0,16.2,7.3,16.2,16.2v0.1h-2.8C418.5,254.2,418.5,254.2,418.5,254.1z"/>
				</g>
				<path id="XMLID_1132_" fill="#0A7A96" d="M400.2,258.1c-0.4,0.8-0.6,1.6-0.6,2.5c0,3,2.5,5.5,5.5,5.5s5.5-2.5,5.5-5.5
					s-2.5-5.5-5.5-5.5c-0.3,0-0.6,0-0.9,0.1l-6.7-6.2L400.2,258.1z M402.3,260.6c0-1.5,1.2-2.8,2.8-2.8c1.5,0,2.8,1.2,2.8,2.8
					c0,1.5-1.2,2.8-2.8,2.8S402.3,262.1,402.3,260.6z"/>
			</g>
			<path id="XMLID_1135_" fill="#0A7A96" d="M381.9,254.1c0,12.8,10.4,23.1,23.1,23.1c12.8,0,23.1-10.4,23.1-23.1
				c0-12.8-10.4-23.1-23.1-23.1C392.2,231,381.9,241.3,381.9,254.1z M384.6,254.1c0-11.2,9.1-20.4,20.4-20.4
				c11.2,0,20.4,9.1,20.4,20.4c0,11.2-9.1,20.4-20.4,20.4C393.8,274.5,384.6,265.3,384.6,254.1z"/>
		</g>
		<g id="XMLID_1596_">
			<path id="XMLID_1617_" fill="#087B97" d="M969.3,297.9c-0.7-5-11.8-9.1-14.9-10.2l-6.6-7.6c-0.2-0.2-0.4-0.3-0.7-0.4
				c-9.1-2.8-20.1,0.3-20.5,0.4c-11,2.6-12.5,10.1-12.6,10.5c0,0.1,0,0.2,0,0.3v5.3c-1.1,2.6-1.3,4.9-0.5,6.9c1,2.4,3.2,3.4,3.8,3.6
				h0.1c-0.1-0.5-0.2-1.1-0.2-1.7c0-0.5,0.1-1,0.1-1.5c-0.5-0.3-1-0.8-1.3-1.5c-0.5-1.2-0.3-2.9,0.6-4.9c0.1-0.2,0.1-0.4,0.1-0.6
				v-5.4c0.2-0.8,1.8-6.1,10.4-8.1c0.1,0,2.7-0.8,6.4-1.2v6.7h-10.9c-0.8,0-1.4,0.6-1.4,1.4s0.6,1.4,1.4,1.4h32.9h0.1
				c4.8,1.9,10.4,4.9,10.6,7c0,0.1,0,0.1,0,0.2c0,0,0.7,2.8-1.2,4.4c-0.1,0.1-0.1,0.1-0.2,0.2c-0.1,0.1-0.3,0.2-0.4,0.3
				c0.1,0.5,0.2,1.1,0.2,1.6s-0.1,1-0.1,1.5c1-0.4,2-0.9,2.9-1.8c0.1-0.1,0.2-0.2,0.3-0.4C970,301.8,969.5,298.5,969.3,297.9z
				 M936.7,281.4c3-0.2,6.3,0,9.3,0.9l5.3,6.1h-14.6V281.4z"/>
			<path id="XMLID_1597_" fill="#087B97" d="M956.2,298.8c-3.1,0-5.7,2.3-6.1,5.3H932c-0.4-3-3-5.3-6.1-5.3c-3.4,0-6.1,2.8-6.1,6.2
				c0,3.4,2.8,6.1,6.1,6.1c2.7,0,5-1.7,5.8-4.1h18.7c0.8,2.4,3.1,4.1,5.8,4.1c3.4,0,6.2-2.8,6.2-6.1
				C962.4,301.5,959.6,298.8,956.2,298.8z M926,308.2c-1.8,0-3.3-1.5-3.3-3.3s1.5-3.3,3.3-3.3s3.3,1.5,3.3,3.3
				C929.2,306.8,927.8,308.2,926,308.2z M956.2,308.2c-1.8,0-3.3-1.5-3.3-3.3s1.5-3.3,3.3-3.3s3.3,1.5,3.3,3.3
				C959.5,306.8,958.1,308.2,956.2,308.2z"/>
		</g>
		<g id="XMLID_1252_">
			<path id="XMLID_1253_" fill="#047B97" d="M345.8,365.3c1,0.5,2.1,0.7,3.2,0.7c4.3,0,7.8-3.5,7.8-7.8c0-3-1.7-5.7-4.4-7
				c-1-3.6-4.1-6.2-7.7-6.2c-1.6,0-3.1,0.5-4.3,1.4c0.2,0.8,0.4,1.6,0.6,2.3c1-0.9,2.3-1.5,3.7-1.5c2.7,0,5.1,2.1,5.7,5.1l0.1,0.6
				l0.6,0.2c2.2,0.8,3.6,2.9,3.6,5.2c0,3.1-2.5,5.6-5.6,5.6c-1.1,0-2.3-0.4-3.2-1V359l2.9-1.2c0.5-0.2,0.7-0.7,0.5-1.2
				s-0.7-0.7-1.2-0.5l-2.2,0.9v-2.6c0-0.6-0.5-1.1-1.1-1.1s-1.1,0.5-1.1,1.1v4.8l-1.9-1.2c-0.1,0.6-0.3,1.2-0.5,1.9l2.4,1.5v1.5
				c-0.9,0.7-2.1,1-3.3,1c-0.6,0-1.1-0.1-1.6-0.2c-0.6,0.6-1.2,1.1-1.9,1.6c1.1,0.5,2.3,0.9,3.5,0.9c1.1,0,2.2-0.3,3.3-0.7v4.9
				c-1.8-0.3-3.7-0.4-5.8-0.4c-2.5,0-4.9,0.2-7.1,0.6v-5.2c2.9-0.2,5.5-1.4,7.2-3.4c1.3-1.6,2.8-4.5,2-9.2
				c-0.3-1.7-3.1-16.6-10.2-16.6c-6.2,0-9.5,12.1-10.3,16.8c-0.7,4.3,0.7,7.2,2.1,8.8c1.7,2.1,4.3,3.4,7.1,3.7v5.7
				c-3.4,0.9-6.2,2.3-7.9,4h3.6c3-1.7,7.8-3,13.6-3c5.8,0,10.6,1.2,13.6,3h3.6c-2-1.9-5.3-3.5-9.3-4.3v-5.6H345.8z M330.8,359.3
				l5.2-4.3c0.4-0.3,0.5-0.9,0.1-1.3c-0.3-0.4-0.9-0.5-1.3-0.1l-4.1,3.3v-4l3.2-2.7c0.4-0.3,0.5-0.9,0.1-1.3
				c-0.3-0.4-0.9-0.5-1.3-0.1l-2.1,1.7v-4.1c0-0.6-0.5-1.1-1.1-1.1l0,0c-0.6,0-1.1,0.5-1.1,1.1v4.1l-1.9-1.6c-0.4-0.3-1-0.3-1.3,0.1
				s-0.3,1,0.1,1.3l3.1,2.6v4l-4.1-3.4c-0.4-0.3-1-0.3-1.3,0.1s-0.3,1,0.1,1.3l5.3,4.4v3.6c-2.2-0.3-4.2-1.3-5.5-2.9
				c-1.5-1.8-2.1-4.2-1.6-7c1-6.3,4.4-14.9,8.2-14.9c3.6,0,6.8,7.6,8.1,14.8c0.5,3.1,0,5.6-1.5,7.4c-1.3,1.5-3.2,2.5-5.5,2.7
				L330.8,359.3z"/>
		</g>
		<g id="XMLID_253_">
			<path id="XMLID_263_" fill="#0A7A96" d="M214.2,274.5l-42.6-37c-1-0.9-2.6-0.9-3.6,0l-16,13.9V246c0-1.5-1.2-2.7-2.7-2.7h-9.9
				c-1.5,0-2.7,1.2-2.7,2.7v18.8l-11.1,9.7c-1.1,1-1.3,2.7-0.3,3.9c1,1.1,2.7,1.3,3.9,0.3l12.9-11.3v-18.6h4.4v14.7l23.2-20.3
				l40.8,35.4c0.5,0.4,1.2,0.7,1.8,0.7c0.8,0,1.5-0.3,2.1-0.9C215.4,277.2,215.3,275.4,214.2,274.5z"/>
			<path id="XMLID_271_" fill="#0A7A96" d="M171.6,250.6c-1-0.9-2.6-0.9-3.6,0l-30.3,27.1c-0.6,0.5-0.9,1.3-0.9,2v34.7
				c0,1.5,1.2,2.7,2.7,2.7h25.2v-19.7h10.4v19.7h25.2c1.5,0,2.7-1.2,2.7-2.7v-34.7c0-0.8-0.3-1.5-0.9-2L171.6,250.6z M197.5,311.8
				h-17v-17c0-1.5-1.2-2.7-2.7-2.7H162c-1.5,0-2.7,1.2-2.7,2.7v17h-17v-30.7l27.6-24.7l27.7,24.7v30.7H197.5z"/>
		</g>
		<g id="XMLID_1036_">
			<g id="XMLID_1101_">
				<path id="XMLID_1150_" fill="#0A7A96" d="M667.6,326.3h-3.8c-0.9,0-1.6-0.7-1.6-1.6v-16.1c0-0.9,0.7-1.6,1.6-1.6h3.8
					c0.9,0,1.6,0.7,1.6,1.6v16.1C669.3,325.5,668.5,326.3,667.6,326.3z"/>
				<rect id="XMLID_1128_" x="656.7" y="321.1" fill="#0A7A96" width="17.9" height="10.8"/>
				<path id="XMLID_1127_" fill="#0A7A96" d="M638.6,308.2c0.1,2.4,0.5,4.6,1.1,6.2c0.7,1.9,1.7,3.1,2.7,3.1c1.1,0,2-1.2,2.7-3.1
					c0.6-1.6,1-3.8,1.1-6.2H638.6z"/>
				<polygon id="XMLID_1126_" fill="#0A7A96" points="641.2,310.5 641.9,314 665.7,319.4 665.7,310.5 				"/>
				<path id="XMLID_1125_" fill="#0A7A96" d="M692.8,308.2c-0.1,2.4-0.5,4.6-1.1,6.2c-0.7,1.9-1.7,3.1-2.7,3.1c-1.1,0-2-1.2-2.7-3.1
					c-0.6-1.6-1-3.8-1.1-6.2H692.8z"/>
				<polygon id="XMLID_1124_" fill="#0A7A96" points="690.2,310.5 689.5,314 665.6,319.4 665.6,310.5 				"/>
				<g id="XMLID_1117_">
					<g id="XMLID_1118_">
						<g id="XMLID_1121_">
							<path id="XMLID_1123_" fill="#0A7A96" d="M642.8,306.2c0-0.9,0-0.4,0-1.3c-1.4,0.2-4.2-0.2-5.6-0.3
								c-3.7-0.2-7.2-0.4-10.8,0.4c0,0.5,0,0.7,0,1.2c3.6,0.8,7.1,0.6,10.8,0.4C638.6,306.5,641.4,306,642.8,306.2z"/>
						</g>
						<g id="XMLID_1119_">
							<path id="XMLID_1120_" fill="#0A7A96" d="M642.2,304.9c0,0.9,0,0.4,0,1.3c1.4-0.2,4.2,0.2,5.6,0.3c3.7,0.2,7.2,0.4,10.8-0.4
								c0-0.5,0-0.7,0-1.2c-3.6-0.8-7.1-0.6-10.8-0.4C646.3,304.6,643.6,305.1,642.2,304.9z"/>
						</g>
					</g>
				</g>
				<g id="XMLID_1103_">
					<g id="XMLID_1104_">
						<g id="XMLID_1110_">
							<path id="XMLID_1111_" fill="#0A7A96" d="M689.2,306.2c0-0.9,0-0.4,0-1.3c-1.4,0.2-4.2-0.2-5.6-0.3
								c-3.7-0.2-7.2-0.4-10.8,0.4c0,0.5,0,0.7,0,1.2c3.6,0.8,7.1,0.6,10.8,0.4C685.1,306.5,687.8,306,689.2,306.2z"/>
						</g>
						<g id="XMLID_1107_">
							<path id="XMLID_1108_" fill="#0A7A96" d="M688.6,304.9c0,0.9,0,0.4,0,1.3c1.4-0.2,4.2,0.2,5.6,0.3c3.7,0.2,7.2,0.4,10.8-0.4
								c0-0.5,0-0.7,0-1.2c-3.6-0.8-7.1-0.6-10.8-0.4C692.8,304.6,690,305.1,688.6,304.9z"/>
						</g>
					</g>
				</g>
			</g>
			<path id="XMLID_1099_" fill="#0A7A96" d="M653.9,333.3c0,6.5,5.3,11.8,11.8,11.8s11.8-5.3,11.8-11.8H653.9z"/>
			<g id="XMLID_1056_">
				<circle id="XMLID_1098_" fill="#FFFFFF" cx="665.6" cy="339.1" r="3.9"/>
				<circle id="XMLID_1058_" fill="#0A7A96" cx="665.6" cy="339.1" r="2.3"/>
				<circle id="XMLID_1057_" fill="#FFFFFF" cx="666.7" cy="338.1" r="1"/>
			</g>
		</g>
		<g id="XMLID_1447_">
			<path id="XMLID_1454_" fill="#0A7A96" d="M779.5,52.9L779.5,52.9c0-0.4-0.2-0.7-0.6-0.8l-10.1-3.6c-0.5-0.2-0.9,0.1-1.1,0.5
				c0,0.1-0.1,0.3,0,0.4v18.1c-1-0.9-2.4-1.4-3.9-1.4c-0.3,0-0.7,0-1,0.1c-1.5,0.2-2.9,1-3.8,2c-1,1.1-1.4,2.5-1.2,3.9
				c0.4,2.5,2.7,4.3,5.6,4.3c0.3,0,0.7,0,1-0.1c1.5-0.2,2.9-1,3.8-2c0.9-1,1.3-2.2,1.2-3.5l0,0V57.1l9,3.2c0.1,0,0.2,0,0.3,0
				c0.4,0,0.7-0.2,0.8-0.6c0-0.1,0-0.2,0-0.3l0,0V52.9z M766.8,73.1c-0.7,0.8-1.7,1.3-2.8,1.5c-0.2,0-0.5,0.1-0.7,0.1
				c-2,0-3.6-1.2-3.9-2.8c-0.1-0.9,0.2-1.8,0.8-2.5c0.7-0.8,1.7-1.3,2.8-1.5c0.2,0,0.5-0.1,0.7-0.1c2,0,3.6,1.2,3.9,2.8
				C767.8,71.5,767.5,72.4,766.8,73.1z M769.4,50.5l8.4,3v4.7l-8.4-3V50.5z"/>
			<rect id="XMLID_1442_" x="753" y="51.1" fill="#0A7A96" width="11.3" height="1.7"/>
			<ellipse id="XMLID_1441_" fill="#0A7A96" cx="750.4" cy="52" rx="1.2" ry="1.2"/>
			<rect id="XMLID_1440_" x="753" y="56.2" fill="#0A7A96" width="11.3" height="1.7"/>
			<ellipse id="XMLID_1439_" fill="#0A7A96" cx="750.4" cy="57.1" rx="1.2" ry="1.2"/>
			<rect id="XMLID_1437_" x="753" y="61.4" fill="#0A7A96" width="11.3" height="1.7"/>
			<ellipse id="XMLID_1386_" fill="#0A7A96" cx="750.4" cy="62.3" rx="1.2" ry="1.2"/>
		</g>
		<path id="XMLID_1530_" fill="#0A7A96" d="M885.4,200.2h-38c-1.9,0-3.5,1.6-3.5,3.5V231c0,1.9,1.6,3.5,3.5,3.5h38
			c1.9,0,3.5-1.6,3.5-3.5v-27.3C888.9,201.8,887.3,200.2,885.4,200.2z M847.4,202.7h38c0.6,0,1.1,0.5,1.1,1.1v5.4h-40.1v-5.4
			C846.3,203.2,846.8,202.7,847.4,202.7z M885.4,232.1h-38c-0.6,0-1-0.5-1-1.1v-19.4h40.1V231C886.4,231.6,885.9,232.1,885.4,232.1z
			"/>
		<circle id="XMLID_1502_" fill="#0A7A96" cx="850.1" cy="206" r="1.6"/>
		<circle id="XMLID_1501_" fill="#0A7A96" cx="854.7" cy="206" r="1.6"/>
		<circle id="XMLID_1500_" fill="#0A7A96" cx="859.2" cy="206" r="1.6"/>
		<g id="XMLID_1511_">
			<g id="XMLID_1534_">
				<g id="XMLID_1539_">
					<rect id="XMLID_1509_" x="1035.1" y="471.4" fill="#0A7A96" width="42.9" height="2.4"/>
				</g>
				<g id="XMLID_1535_">
					<path id="XMLID_1536_" fill="#0A7A96" d="M1073.2,438.4h-33.4c-2.6,0-4.8,2.2-4.8,4.8v20.7c0,2.6,2.2,4.8,4.8,4.8h33.4
						c2.6,0,4.8-2.2,4.8-4.8v-20.7C1078,440.5,1075.8,438.4,1073.2,438.4z M1075.6,463.9c0,1.3-1.1,2.4-2.4,2.4h-33.4
						c-1.3,0-2.4-1.1-2.4-2.4v-20.7c0-1.3,1.1-2.4,2.4-2.4h33.4c1.3,0,2.4,1.1,2.4,2.4V463.9z"/>
				</g>
			</g>
			<g id="XMLID_1499_">
				<rect id="XMLID_1497_" x="1046" y="454.3" fill="#0A7A96" width="5.6" height="9.4"/>
				<rect id="XMLID_1506_" x="1053.7" y="450.5" fill="#0A7A96" width="5.6" height="13.2"/>
				<rect id="XMLID_1510_" x="1061.4" y="447.6" fill="#0A7A96" width="5.6" height="16.1"/>
			</g>
		</g>
		<g id="XMLID_73_">
			<path id="XMLID_74_" fill="#0A7A96" d="M1284.3,610.2h2.5v-42.5h-2.5v4.4h-3.2v-4.4H1259v4.4h-3.2v-4.4h-2.5v42.5h2.5v-4.5h3.2
				v4.5h22.1v-4.5h3.2L1284.3,610.2z M1284.3,597.9v5.3h-3.2v-5.3H1284.3z M1284.3,590.1v5.3h-3.2v-5.3H1284.3z M1284.3,574.6v5.3
				h-3.2v-5.3H1284.3z M1255.7,579.9v-5.3h3.2v5.3H1255.7z M1255.7,587.6v-5.3h3.2v5.3H1255.7z M1261.4,587.6v-17.5h17.1v17.5
				H1261.4z M1281,587.6v-5.3h3.2v5.3H1281z M1255.7,595.4v-5.3h3.2v5.3H1255.7z M1255.7,603.2v-5.3h3.2v5.3H1255.7z M1278.5,607.7
				h-17.1v-17.5h17.1V607.7z"/>
		</g>
		<g id="XMLID_90_">
			<circle id="XMLID_3_" fill="none" stroke="#0A7A96" stroke-miterlimit="10" cx="1270" cy="598.5" r="6"/>
			<g id="XMLID_89_">
				<polygon fill="#0A7A96" points="1273,598.5 1270.8,599.7 1268.6,601 1268.6,598.5 1268.6,595.9 1270.8,597.2 				"/>
			</g>
		</g>
		<g id="XMLID_366_">
			<path id="XMLID_372_" fill="#0A7A96" d="M1105.8,232.3h-8.1l6.6-6.8c0.3-0.3,0.4-0.9,0.2-1.3c-0.2-0.4-0.6-0.7-1.1-0.7h-4
				l5.3-6.5c0.3-0.4,0.4-0.8,0.2-1.3c-0.2-0.4-0.6-0.7-1.1-0.7h-2l4.8-5.6l3.3,3.9l1.6-1.8l-4-4.6c-0.2-0.3-0.6-0.4-0.9-0.4
				s-0.7,0.1-0.9,0.4l-7.3,8.5c-0.3,0.4-0.4,0.9-0.2,1.3c0.2,0.4,0.6,0.7,1.1,0.7h2.1l-5.3,6.5c-0.3,0.4-0.4,0.8-0.2,1.3
				c0.2,0.4,0.6,0.7,1.1,0.7h3.6l-6.6,6.8c-0.3,0.3-0.4,0.9-0.2,1.3c0.2,0.4,0.6,0.7,1.1,0.7h8.6L1105.8,232.3z"/>
			<path id="XMLID_371_" fill="#0A7A96" d="M1141.2,232.6l-6.6-6.8h3.6c0.5,0,0.9-0.3,1.1-0.7s0.1-0.9-0.2-1.3l-5.3-6.5h2.1
				c0.5,0,0.9-0.3,1.1-0.7s0.1-0.9-0.2-1.3l-7.3-8.5c-0.2-0.3-0.6-0.4-0.9-0.4s-0.7,0.1-0.9,0.4l-4,4.6l1.6,1.8l3.3-3.9l4.8,5.6h-2
				c-0.5,0-0.9,0.3-1.1,0.7s-0.1,0.9,0.2,1.3l5.3,6.5h-4c-0.5,0-0.9,0.3-1.1,0.7s-0.1,1,0.2,1.3l6.6,6.8h-8.1l2.3,2.4h8.6
				c0.5,0,0.9-0.3,1.1-0.7C1141.6,233.5,1141.5,233,1141.2,232.6z"/>
			<path id="XMLID_367_" fill="#0A7A96" d="M1131.6,237.7l-7.6-7.8h4.4c0.5,0,0.9-0.3,1.1-0.7s0.1-0.9-0.2-1.3l-6.1-7.5h2.6
				c0.5,0,0.9-0.3,1.1-0.7s0.1-0.9-0.2-1.3l-8.2-9.5c-0.2-0.3-0.6-0.4-1-0.4s-0.7,0.1-1,0.4l-8.2,9.5c-0.3,0.4-0.4,0.9-0.2,1.3
				c0.2,0.4,0.6,0.7,1.1,0.7h2.6l-6.1,7.5c-0.3,0.4-0.3,0.8-0.2,1.3c0.2,0.4,0.6,0.7,1.1,0.7h4.4l-7.6,7.8c-0.3,0.3-0.4,0.9-0.2,1.3
				c0.2,0.4,0.6,0.7,1.1,0.7h9.7v6.7h6.9v-6.7h9.7c0.5,0,0.9-0.3,1.1-0.7C1132.1,238.6,1132,238.1,1131.6,237.7z M1118.7,244h-2.1
				v-4.3h2.1V244z M1107.3,237.4l7.6-7.8c0.3-0.3,0.4-0.9,0.2-1.3c-0.2-0.4-0.6-0.7-1.1-0.7h-4.7l6.1-7.5c0.3-0.4,0.3-0.8,0.2-1.3
				c-0.2-0.4-0.6-0.7-1.1-0.7h-2.5l5.7-6.6l5.7,6.6h-2.5c-0.5,0-0.9,0.3-1.1,0.7s-0.1,0.9,0.2,1.3l6.1,7.5h-4.7
				c-0.5,0-0.9,0.3-1.1,0.7s-0.1,1,0.2,1.3l7.6,7.8H1107.3z"/>
		</g>
		<g id="XMLID_352_">
			<path id="XMLID_357_" fill="#0A7A96" d="M607.2,174l1.1-3.3c-0.7,0-1.4-0.1-2.1-0.3l-0.7,2.3H602l0.6-4.1
				c-0.1-0.1-0.2-0.2-0.4-0.3c-0.6-0.5-1.1-1-1.5-1.7c-0.1-0.1-0.2-0.3-0.3-0.4H596v-3.8l3,0.2c-0.1-0.5-0.1-1.1-0.1-1.6
				c0-0.2,0-0.3,0-0.5l-17-1.1L581,155c-0.1-0.5-0.5-0.8-1-0.8h-6.8c-0.6,0-1,0.5-1,1c0,0.6,0.5,1,1,1h5.9l3.7,17.8
				c0,0,0.1,0.3,0.1,0.4c0.5,2.5,1.4,4.3,2.8,5.4c-0.9,0.7-1.5,1.8-1.5,3.1c0,2.1,1.7,3.9,3.9,3.9c2.1,0,3.9-1.7,3.9-3.9
				c0-0.6-0.2-1.2-0.4-1.7h9c-0.3,0.5-0.4,1.1-0.4,1.7c0,2.1,1.7,3.9,3.9,3.9s3.9-1.7,3.9-3.9c0-2.1-1.7-3.9-3.9-3.9
				c-0.1,0-0.3,0-0.4,0h-13.6c-1.8,0-3.8-0.5-4.7-4.3h21C606.7,174.7,607.1,174.4,607.2,174z M588,184.5c-1,0-1.8-0.8-1.8-1.8
				s0.8-1.8,1.8-1.8s1.8,0.8,1.8,1.8S589,184.5,588,184.5z M603.9,184.5c-1,0-1.8-0.8-1.8-1.8c0-0.9,0.7-1.6,1.6-1.7h0.4
				c0.9,0.1,1.6,0.8,1.6,1.7C605.6,183.7,604.8,184.5,603.9,184.5z M600.5,168.2l-0.6,4.4H596v-4.4H600.5z M584.7,172.6l-0.9-4.4
				h3.6l0.6,4.4H584.7z M589.5,168.2h4.4v4.4h-3.8L589.5,168.2z M593.9,166.1h-4.7l-0.6-4.3l5.3,0.4V166.1z M586.5,161.6l0.6,4.5
				h-3.7l-1-4.7L586.5,161.6z"/>
			<path id="XMLID_354_" fill="#0A7A96" d="M608.7,153.1c-4.3,0-7.8,3.5-7.8,7.8s3.5,7.8,7.8,7.8s7.8-3.5,7.8-7.8
				C616.4,156.6,613,153.1,608.7,153.1z M608.7,166.6c-3.1,0-5.7-2.5-5.7-5.7c0-3.1,2.5-5.7,5.7-5.7c3.1,0,5.7,2.5,5.7,5.7
				C614.4,164,611.8,166.6,608.7,166.6z"/>
			<polygon id="XMLID_353_" fill="#0A7A96" points="609.7,157.6 607.6,157.6 607.6,159.8 605.4,159.8 605.4,161.9 607.6,161.9 
				607.6,164.2 609.7,164.2 609.7,161.9 612,161.9 612,159.8 609.7,159.8 			"/>
		</g>
		<path id="XMLID_348_" fill="#0A7A96" d="M723.2,488.1h-30c-1.8,0-3.2,1.4-3.2,3.2v44.4c0,1.8,1.4,3.2,3.2,3.2h30
			c1.8,0,3.2-1.4,3.2-3.2v-44.4C726.4,489.6,725,488.1,723.2,488.1z M708.2,537.8c-0.6,0-1.1-0.5-1.1-1.1s0.5-1.1,1.1-1.1
			s1.1,0.5,1.1,1.1S708.8,537.8,708.2,537.8z M721.9,534.4h-27.4v-41.7h27.4V534.4z"/>
		<g id="XMLID_4_">
			<g id="XMLID_7_">
				<path id="XMLID_8_" fill="#0A7A96" d="M1298.2,293.6l-0.3-0.3c-2-2-4.7-3.1-7.6-3.1s-5.6,1.1-7.6,3.1l-2.4,2.4l-2.4-2.4
					c-2-2-4.7-3.1-7.6-3.1s-5.6,1.1-7.6,3.1l-0.3,0.3c-3.4,3.4-4.1,8.6-1.9,12.6h2.8c-2.5-3.3-2.2-8,0.8-10.9l0.3-0.3
					c1.6-1.6,3.7-2.4,5.9-2.4c2.2,0,4.3,0.9,5.9,2.4l2.3,2.3l0,0l0,0c0.4,0.4,1,0.8,1.7,0.8s1.2-0.3,1.7-0.8l0,0l0,0l0.6-0.6
					l0.1-0.1l1.6-1.6c1.6-1.6,3.7-2.4,5.9-2.4c2.2,0,4.4,0.9,5.9,2.4l0.3,0.3c3.3,3.3,3.3,8.6,0,11.9l-16.2,16.2l-10-10h-3.4
					l11.5,11.5l0,0l0,0c0.5,0.4,1.1,0.9,1.8,0.9c0.7,0,1.2-0.4,1.8-0.9c0,0,0,0,0.1,0l16.1-16.1
					C1302.4,304.6,1302.4,297.8,1298.2,293.6z"/>
			</g>
			<g id="XMLID_5_">
				<path id="XMLID_6_" fill="#0A7A96" d="M1276.6,315.1c-0.5,0-0.9-0.3-1.1-0.7l-3-6.1l-1.6,2.1c-0.2,0.3-0.6,0.5-1,0.5h-11.5
					c-0.7,0-1.2-0.5-1.2-1.2s0.5-1.2,1.2-1.2h10.9l2.4-3.2c0.2-0.3,0.7-0.5,1.1-0.5s0.8,0.3,1,0.7l2.5,5.1l2.8-9.2
					c0.2-0.5,0.6-0.8,1.1-0.8s1,0.3,1.2,0.8l2.6,7.2h3.7c0.7,0,1.2,0.5,1.2,1.2s-0.5,1.2-1.2,1.2h-4.6c-0.5,0-1-0.3-1.1-0.8
					l-1.7-4.6l-2.6,8.6C1277.6,314.7,1277.2,315.1,1276.6,315.1C1276.7,315.1,1276.6,315.1,1276.6,315.1z"/>
			</g>
		</g>
		<g id="XMLID_12_">
			<path id="XMLID_14_" fill="#0A7A96" d="M698.8,497.4l2.2,3.5l0,0v-3.5h1.1v5.2H701l-2.2-3.5l0,0v3.5h-1.1v-5.2H698.8z"/>
			<path id="XMLID_16_" fill="#0A7A96" d="M707,497.4v1h-2.7v1.1h2.5v0.9h-2.5v1.3h2.8v1h-3.9v-5.2L707,497.4L707,497.4z"/>
			<path id="XMLID_18_" fill="#0A7A96" d="M711.6,502.6l-0.9-3.5l0,0l-0.9,3.5h-1.2l-1.4-5.2h1.1l0.8,3.5l0,0l0.9-3.5h1.1l0.9,3.6
				l0,0l0.9-3.6h1.1l-1.4,5.2H711.6z"/>
			<path id="XMLID_23_" fill="#0A7A96" d="M715.5,501.3c0.1,0.1,0.1,0.2,0.3,0.3c0.1,0.1,0.2,0.1,0.4,0.2c0.1,0,0.3,0.1,0.4,0.1
				c0.1,0,0.2,0,0.3,0s0.2,0,0.3-0.1s0.2-0.1,0.3-0.2s0.1-0.2,0.1-0.3c0-0.1,0-0.3-0.1-0.3c-0.1-0.1-0.2-0.2-0.4-0.2
				c-0.1-0.1-0.3-0.1-0.5-0.2c-0.2,0-0.4-0.1-0.6-0.1c-0.2,0-0.4-0.1-0.6-0.2c-0.2-0.1-0.3-0.2-0.5-0.3c-0.1-0.1-0.3-0.3-0.4-0.4
				c-0.1-0.2-0.1-0.4-0.1-0.6c0-0.3,0.1-0.5,0.2-0.7c0.1-0.2,0.3-0.4,0.4-0.5c0.2-0.1,0.4-0.2,0.6-0.3c0.2-0.1,0.5-0.1,0.7-0.1
				c0.3,0,0.5,0,0.8,0.1c0.2,0.1,0.5,0.2,0.7,0.3c0.2,0.1,0.3,0.3,0.5,0.5c0.1,0.2,0.2,0.5,0.2,0.8h-1.1c0-0.2,0-0.3-0.1-0.4
				s-0.1-0.2-0.2-0.2c-0.1-0.1-0.2-0.1-0.3-0.1s-0.2,0-0.4,0c-0.1,0-0.2,0-0.3,0s-0.2,0.1-0.3,0.1s-0.1,0.1-0.2,0.2
				s-0.1,0.2-0.1,0.3c0,0.1,0,0.2,0.1,0.2c0,0.1,0.1,0.1,0.2,0.2c0.1,0.1,0.3,0.1,0.5,0.2s0.5,0.1,0.8,0.2c0.1,0,0.2,0.1,0.4,0.1
				c0.2,0.1,0.3,0.1,0.5,0.2s0.3,0.3,0.4,0.4c0.1,0.2,0.2,0.4,0.2,0.7c0,0.2,0,0.5-0.1,0.7s-0.2,0.4-0.4,0.5s-0.4,0.3-0.7,0.3
				c-0.3,0.1-0.6,0.1-0.9,0.1c-0.3,0-0.6,0-0.8-0.1c-0.3-0.1-0.5-0.2-0.7-0.3c-0.2-0.2-0.4-0.3-0.5-0.6c-0.1-0.2-0.2-0.5-0.2-0.8
				h1.1C715.4,501.1,715.5,501.2,715.5,501.3z"/>
		</g>
		<rect id="XMLID_1_" x="695.8" y="507.4" fill="#0A7A96" width="24.8" height="3.5"/>
		<g id="XMLID_28_">
			<rect id="XMLID_29_" x="695.8" y="513.2" fill="#0A7A96" width="10.6" height="0.9"/>
			<rect id="XMLID_30_" x="710" y="513.2" fill="#0A7A96" width="10.6" height="0.9"/>
		</g>
		<g id="XMLID_33_">
			<rect id="XMLID_35_" x="695.8" y="515.6" fill="#0A7A96" width="10.6" height="0.9"/>
			<rect id="XMLID_34_" x="710" y="515.6" fill="#0A7A96" width="10.6" height="0.9"/>
		</g>
		<g id="XMLID_39_">
			<rect id="XMLID_41_" x="695.8" y="518" fill="#0A7A96" width="10.6" height="0.9"/>
			<rect id="XMLID_40_" x="710" y="518" fill="#0A7A96" width="10.6" height="0.9"/>
		</g>
		<g id="XMLID_42_">
			<rect id="XMLID_44_" x="695.8" y="520.4" fill="#0A7A96" width="10.6" height="0.9"/>
			<rect id="XMLID_43_" x="710" y="520.4" fill="#0A7A96" width="10.6" height="0.9"/>
		</g>
		<g id="XMLID_45_">
			<rect id="XMLID_47_" x="695.8" y="522.8" fill="#0A7A96" width="10.6" height="0.9"/>
			<rect id="XMLID_46_" x="710" y="522.8" fill="#0A7A96" width="10.6" height="0.9"/>
		</g>
		<g id="XMLID_48_">
			<rect id="XMLID_50_" x="695.8" y="525.2" fill="#0A7A96" width="10.6" height="0.9"/>
			<rect id="XMLID_49_" x="710" y="525.2" fill="#0A7A96" width="10.6" height="0.9"/>
		</g>
		<g id="XMLID_51_">
			<rect id="XMLID_53_" x="695.8" y="527.5" fill="#0A7A96" width="10.6" height="0.9"/>
			<rect id="XMLID_52_" x="710" y="527.5" fill="#0A7A96" width="10.6" height="0.9"/>
		</g>
		<g id="XMLID_54_">
			<rect id="XMLID_56_" x="695.8" y="529.9" fill="#0A7A96" width="10.6" height="0.9"/>
			<rect id="XMLID_55_" x="710" y="529.9" fill="#0A7A96" width="10.6" height="0.9"/>
		</g>
		<path id="XMLID_1265_" fill="#0A7A96" d="M1183.4,265h-16c-1.3,0-2.3,1-2.3,2.3v35.2c0,1.3,1,2.3,2.3,2.3h16c1.3,0,2.3-1,2.3-2.3
			v-35.2C1185.7,266,1184.6,265,1183.4,265z M1175.4,303.1c-0.5,0-0.9-0.4-0.9-0.9s0.4-0.9,0.9-0.9s0.9,0.4,0.9,0.9
			S1175.9,303.1,1175.4,303.1z M1183.7,299.8h-16.6V270h16.6V299.8z"/>
		<path id="XMLID_97_" fill="#0A7A96" d="M274,260.2c0,2.5-2.1,4.6-4.6,4.6H250c-2.5,0-4.6-2.1-4.6-4.6v-24.6c0-2.5,2.1-4.6,4.6-4.6
			h19.4c2.5,0,4.6,2.1,4.6,4.6V260.2z"/>
		<path id="XMLID_91_" fill="#0A7A96" d="M279.4,249.7c0,0.5-0.4,0.9-0.9,0.9h-2.3c-0.5,0-0.9-0.4-0.9-0.9V245
			c0-0.5,0.4-0.9,0.9-0.9h2.3c0.5,0,0.9,0.4,0.9,0.9V249.7z"/>
		<rect id="XMLID_59_" x="249.1" y="234.8" fill="#FFFFFF" width="21.1" height="26.2"/>
		<path id="XMLID_36_" fill="#0A7A96" d="M250.3,229.8h18.8h2.1c-0.7-0.6-0.9-1-1.4-2c-0.6-1.3-0.8-5.8-1-6.8s-0.5-1.4-1.4-1.7
			c-1.2-0.5-2.7-0.8-7.6-0.8c0,0-1.5,0-2.1,0l0,0c-3.6,0.1-4.9,0.4-6,0.8c-0.9,0.3-1.2,0.7-1.4,1.7s-0.4,5.5-1,6.8
			c-0.5,1.1-0.7,1.4-1.3,2H250.3z"/>
		<path id="XMLID_32_" fill="#0A7A96" d="M269.1,266.1h-18.8h-1.9c0.5,0.5,0.8,0.9,1.1,1.8c0.6,1.3,0.8,5.8,1,6.8s0.5,1.4,1.4,1.7
			c1.2,0.5,2.7,0.8,7.6,0.8c0,0,1.5,0,2.1,0l0,0c3.6-0.1,4.9-0.4,6-0.8c0.9-0.3,1.2-0.7,1.4-1.7c0.2-1,0.4-5.5,1-6.8
			c0.4-0.9,0.6-1.3,1.1-1.8H269.1z"/>
		<g id="XMLID_119_">
			<path id="XMLID_129_" fill="#0A7A96" d="M260.1,252.5c-0.3,0-0.6-0.2-0.7-0.4l-1.9-3.9l-1,1.4c-0.1,0.2-0.4,0.3-0.6,0.3h-7.5
				c-0.4,0-0.8-0.3-0.8-0.8s0.3-0.8,0.8-0.8h7.1l1.5-2.1c0.2-0.2,0.4-0.3,0.7-0.3c0.3,0,0.5,0.2,0.6,0.4l1.6,3.3l1.8-6
				c0.1-0.3,0.4-0.5,0.7-0.6c0.3,0,0.6,0.2,0.8,0.5l1.7,4.7h2.4c0.4,0,0.8,0.3,0.8,0.8c0,0.4-0.3,0.8-0.8,0.8h-3
				c-0.3,0-0.6-0.2-0.7-0.5l-1.1-3l-1.7,5.6C260.8,252.3,260.5,252.5,260.1,252.5C260.2,252.5,260.2,252.5,260.1,252.5z"/>
		</g>
		<g id="XMLID_136_">
			<circle id="XMLID_124_" fill="#0A7A96" cx="812.8" cy="96.3" r="1.3"/>
			<path id="XMLID_100_" fill="#0A7A96" d="M842.3,90.8h-3.5c0,0-0.1,0-0.1-0.1l-4.5-4.6h-10.8l-4.7,4.6h-0.1h-8.7
				c-1.6,0-2.9,1.3-2.9,2.9v16.8c0,1.6,1.3,2.9,2.9,2.9h8.7c-0.5-0.6-1-1.3-1.5-2h-7.2c-0.5,0-0.9-0.4-0.9-0.9V93.7
				c0-0.5,0.4-0.9,0.9-0.9h8.6c0.6,0,1.1-0.3,1.5-0.7l4.1-4h0.1h9c0,0,0.1,0,0.1,0.1l3.8,4c0.4,0.4,1,0.7,1.5,0.7h0.1l0,0h3.4
				c0.5,0,0.9,0.4,0.9,0.9v16.8c0,0.5-0.4,0.9-0.9,0.9h-2.3c-0.4,0.7-0.9,1.4-1.5,2h3.7c1.6,0,2.9-1.3,2.9-2.9V93.7
				C845.2,92.1,843.9,90.8,842.3,90.8z"/>
			<path id="XMLID_99_" fill="#0A7A96" d="M811.4,89.2h3.1c0.6,0,1-0.5,1-1s-0.5-1-1-1h-3.1c-0.6,0-1,0.5-1,1S810.9,89.2,811.4,89.2
				z"/>
			<path id="XMLID_145_" fill="#0A7A96" d="M828.6,93.2c-6.4,0-11.5,5.2-11.5,11.5c0,6.4,5.2,11.5,11.5,11.5
				c6.4,0,11.5-5.2,11.5-11.5C840.1,98.4,834.9,93.2,828.6,93.2z M828.6,114.3c-5.2,0-9.5-4.3-9.5-9.5s4.3-9.5,9.5-9.5
				s9.5,4.3,9.5,9.5S833.8,114.3,828.6,114.3z"/>
			<path id="XMLID_139_" fill="#0A7A96" d="M828.6,97.2c-4.1,0-7.5,3.4-7.5,7.5c0,4.2,3.4,7.5,7.5,7.5s7.5-3.4,7.5-7.5
				S832.7,97.2,828.6,97.2z M828.6,110.3c-3,0-5.5-2.5-5.5-5.5s2.5-5.5,5.5-5.5s5.5,2.5,5.5,5.5S831.6,110.3,828.6,110.3z"/>
		</g>
		<g id="XMLID_149_">
			<g id="XMLID_150_">
				<g id="XMLID_156_">
					<polygon id="XMLID_147_" fill="#117B97" points="1181.3,279.2 1178.4,279.3 1179,280.2 1175,282.9 1174,281.5 1169.5,284.5 
						1170.1,285.3 1173.7,282.8 1174.8,284.3 1179.5,281 1180.1,281.8 					"/>
				</g>
				<g id="XMLID_152_">
					<polygon id="XMLID_146_" fill="#117B97" points="1170.2,288.8 1172.5,288.8 1172.5,284.5 1170.2,286.1 					"/>
					<polygon id="XMLID_144_" fill="#117B97" points="1173.7,284 1173.7,288.8 1176.1,288.8 1176.1,284.1 1174.6,285.2 					"/>
					<polygon id="XMLID_140_" fill="#117B97" points="1177.3,283.3 1177.3,288.8 1179.7,288.8 1179.7,282.4 1179.4,281.9 					"/>
				</g>
				<rect id="XMLID_135_" x="1169.7" y="289.3" fill="#117B97" width="10.5" height="0.6"/>
			</g>
		</g>
		<g id="XMLID_37_">
			<path id="XMLID_68_" fill="#0A7A96" d="M852.2,226.7h-0.5v-1.1c-0.7-0.1-1.2-0.2-1.6-0.5c-0.6-0.4-0.9-1.1-0.9-2.1h1.5
				c0.1,0.5,0.1,0.8,0.2,0.9c0.1,0.2,0.4,0.4,0.8,0.5v-2.3l-0.4-0.1c-0.7-0.2-1.2-0.5-1.5-0.8c-0.3-0.4-0.4-0.8-0.4-1.3
				c0-0.3,0.1-0.6,0.2-0.9c0.1-0.3,0.3-0.5,0.5-0.7c0.3-0.3,0.5-0.4,0.9-0.5c0.2-0.1,0.5-0.1,0.8-0.1V217h0.5v0.7
				c0.6,0,1,0.2,1.4,0.4c0.6,0.4,0.9,1,0.9,1.9h-1.4c0-0.3-0.1-0.6-0.2-0.7c-0.1-0.3-0.4-0.4-0.7-0.4v2.1c0.9,0.3,1.4,0.6,1.7,0.8
				c0.5,0.4,0.7,0.9,0.7,1.6c0,0.9-0.3,1.6-1,2c-0.4,0.3-0.9,0.4-1.4,0.4L852.2,226.7L852.2,226.7z M851.7,218.8
				c-0.3,0-0.5,0.1-0.7,0.3s-0.2,0.4-0.2,0.7s0.1,0.5,0.3,0.7c0.1,0.1,0.3,0.2,0.6,0.3L851.7,218.8L851.7,218.8z M852.2,224.4
				c0.3,0,0.5-0.1,0.6-0.2c0.2-0.2,0.3-0.5,0.3-0.9c0-0.3-0.1-0.6-0.3-0.7c-0.1-0.1-0.3-0.2-0.6-0.3V224.4z"/>
		</g>
		<line id="XMLID_148_" fill="none" stroke="#0A7A96" stroke-miterlimit="10" x1="857.7" y1="221.1" x2="883.1" y2="221.1"/>
		<line id="XMLID_151_" fill="none" stroke="#0A7A96" stroke-miterlimit="10" x1="857.7" y1="224.4" x2="883.1" y2="224.4"/>
		<g id="XMLID_38_">
			<path id="XMLID_165_" fill="#0A7A96" d="M1161.2,537.9h7.1v-2h-7.8C1160.7,536.5,1161,537.2,1161.2,537.9z"/>
			<path id="XMLID_164_" fill="#0A7A96" d="M1152.4,510.3c0.2,0.2,0.3,0.3,0.5,0.5c0.1,0.2,0.2,0.4,0.2,0.5c0,0.3-0.2,0.6-0.6,0.9
				c-0.4,0.3-0.5,1-0.2,1.4c0.2,0.3,0.5,0.4,0.8,0.4c0.2,0,0.4-0.1,0.6-0.2c0.9-0.7,1.4-1.6,1.4-2.6c0-0.6-0.2-1.2-0.7-1.8l-0.1-0.1
				c-0.2-0.2-0.3-0.3-0.5-0.5c-0.1-0.2-0.2-0.4-0.2-0.5c0-0.3,0.2-0.6,0.6-0.9s0.5-1,0.2-1.4s-1-0.5-1.4-0.2
				c-0.9,0.7-1.4,1.6-1.4,2.6C1151.6,509,1151.8,509.6,1152.4,510.3C1152.3,510.2,1152.4,510.2,1152.4,510.3z"/>
			<path id="XMLID_162_" fill="#0A7A96" d="M1158.3,510.3c0.2,0.2,0.3,0.3,0.5,0.5c0.1,0.2,0.2,0.4,0.2,0.5c0,0.3-0.2,0.6-0.6,0.9
				c-0.4,0.3-0.5,1-0.2,1.4c0.2,0.3,0.5,0.4,0.8,0.4c0.2,0,0.4-0.1,0.6-0.2c0.9-0.7,1.4-1.6,1.4-2.6c0-0.6-0.2-1.2-0.7-1.8l-0.1-0.1
				c-0.2-0.2-0.3-0.3-0.5-0.5c-0.1-0.2-0.2-0.4-0.2-0.5c0-0.3,0.2-0.6,0.6-0.9s0.5-1,0.2-1.4s-1-0.5-1.4-0.2
				c-0.9,0.7-1.4,1.6-1.4,2.6C1157.5,509,1157.7,509.6,1158.3,510.3C1158.3,510.2,1158.3,510.2,1158.3,510.3z"/>
			<path id="XMLID_174_" fill="#0A7A96" d="M1156.7,533.5c0.6-1.2,0.6-2.1,0.5-2.2c-0.1-1.4-1.3-2.7-1.4-2.8
				c-1.8-2.1-4.6-2.4-5.9-2.4c-0.1-0.7-0.2-1.1-0.3-1.1v-0.1c-1.4-2.9-5.3-3.1-6.4-3.1l0,0c0,0-0.1,0-0.2,0s-0.1,0-0.1,0l0,0
				c-1.1,0-5,0.3-6.4,3.1v0.1c0,0.1-0.8,2.1,0.2,4.7l3.6,9.5c-0.2,0.2-0.4,0.4-0.6,0.4c-0.4,0.1-0.8-0.2-1-0.4l-6.8-6
				c-0.9-1-0.8-1.8-0.8-1.9c0-0.5,0.6-1.3,0.9-1.6c0.7-0.9,1.7-1.3,2.7-1.5c-0.2-0.8-0.2-1.5-0.1-2.1c-1.3,0.2-2.9,0.8-4,2.2
				c-0.1,0.1-1.3,1.4-1.4,2.8c0,0.1-0.1,1,0.5,2.2c-0.5,0.6-2.7,3.3-2.8,5.9c-0.2,1.2,0.1,3.4,2.3,3.7c0.1,0,0.5,0.1,1.1,0.1
				c1.4,0,3.9-0.4,7.1-2.6l0.2,0.1c0.1,0.1,1,0.9,2.2,0.9c0.1,0,0.2,0,0.3,0c0.3,0,0.8-0.2,1.2-0.5c0.3,0.5,1,1,1.9,1.1l0,0l0,0l0,0
				l0,0c0.9,0,1.6-0.5,1.9-1.1c0.4,0.3,0.9,0.4,1.2,0.5c0.1,0,0.2,0,0.3,0c1.2,0,2.1-0.8,2.2-0.9l0.2-0.2c3.2,2.2,5.7,2.6,7.1,2.6
				c0.6,0,0.9-0.1,1.1-0.1c2.1-0.4,2.4-2.6,2.3-3.7C1159.4,536.8,1157.3,534.2,1156.7,533.5z M1129.6,541.2L1129.6,541.2
				c-0.9-0.1-0.7-1.4-0.7-1.5v-0.1c0.1-1.6,1.3-3.5,2.1-4.5l4.7,4.2C1132.1,541.7,1129.6,541.2,1129.6,541.2z M1154.4,529.9
				c0.3,0.3,0.8,1,0.9,1.6c0,0,0,0.8-0.8,1.8l-4,3.5l0,0l-0.1,0.1l-2.7,2.4c0,0-0.5,0.4-1,0.4c-0.2,0-0.4-0.2-0.6-0.4l3.6-9.5
				c0.2-0.6,0.3-1.1,0.4-1.6C1150.9,528.2,1153.1,528.3,1154.4,529.9z M1143.2,540.3c-0.2,0-0.3-0.1-0.3-0.2l-4.1-10.9
				c-0.6-1.8-0.3-3-0.2-3.3c0.8-1.6,3.4-1.9,4.6-2l0,0h0.1l0,0l0,0c1.1,0,3.7,0.4,4.6,2c0.1,0.2,0.4,1.5-0.2,3.2l-4.1,10.9
				C1143.5,540.1,1143.4,540.2,1143.2,540.3z M1155.4,535.1c0.8,1,2,2.9,2.1,4.5v0.1c0,0,0.2,1.3-0.6,1.5h-0.1c0,0-2.5,0.5-6.2-1.9
				L1155.4,535.1z"/>
			<path id="XMLID_169_" fill="#0A7A96" d="M1168.5,519.2c-0.3,0-0.6,0-0.8,0.1v-3.8H1146v4.9c0.5,0.1,1,0.3,1.5,0.5
				c0.2,0.1,0.4,0.2,0.6,0.2v-3.5l0,0l0,0h17.5l0,0l0,0v11.6c0,1.7-1.4,3.1-3.1,3.1h-3.6c0,0.3-0.1,0.6-0.2,1c0.2,0.3,0.5,0.7,0.7,1
				h3.1c2.8,0,5.1-2.3,5.1-5.1v-0.8c0.3,0,0.5,0.1,0.8,0.1c2.7,0,4.9-2.1,4.9-4.6S1171.3,519.2,1168.5,519.2z M1168.5,526.4
				c-0.3,0-0.6,0-0.8-0.1v-4.9c0.3-0.1,0.5-0.1,0.8-0.1c1.6,0,2.9,1.2,2.9,2.6S1170.1,526.4,1168.5,526.4z"/>
		</g>
	</g>
</g>
<g>
	<path fill="#58595B" d="M1270,71c-0.7-0.8-1.7-1.3-2.9-1.3c-2.6,0-4.5,2.1-4.5,5c0,2.9,1.9,4.9,4.3,4.9c1.4,0,2.5-0.6,3.2-1.6
		l2.8,2.1c-1.3,1.8-3.5,2.7-5.6,2.7c-4.8,0-8.3-3.1-8.3-8.1c0-4.9,3.5-8.1,8.3-8.1c1.7,0,3.9,0.6,5.2,2.3L1270,71z"/>
	<path fill="#58595B" d="M1279.6,67h2.8l6.7,15.4h-3.8l-1.3-3.3h-6l-1.3,3.3h-3.7L1279.6,67z M1280.9,71.5l-1.9,4.8h3.8L1280.9,71.5
		z"/>
	<path fill="#58595B" d="M1298.1,70.8c-0.5-0.7-1.6-1-2.5-1c-1,0-2.3,0.4-2.3,1.6c0,2.8,7.1,1,7.1,6.4c0,3.4-2.8,5.1-5.9,5.1
		c-2,0-3.7-0.6-5.2-1.9l2.4-2.6c0.7,0.9,1.8,1.5,3,1.5c1.1,0,2.3-0.5,2.3-1.6c0-2.8-7.2-1.3-7.2-6.4c0-3.3,2.8-5,5.9-5
		c1.7,0,3.4,0.5,4.7,1.6L1298.1,70.8z"/>
	<path fill="#58595B" d="M1309.7,70.8c-0.5-0.7-1.6-1-2.5-1c-1,0-2.3,0.4-2.3,1.6c0,2.8,7.1,1,7.1,6.4c0,3.4-2.8,5.1-5.9,5.1
		c-2,0-3.7-0.6-5.2-1.9l2.4-2.6c0.7,0.9,1.8,1.5,3,1.5c1.1,0,2.3-0.5,2.3-1.6c0-2.8-7.2-1.3-7.2-6.4c0-3.3,2.8-5,5.9-5
		c1.7,0,3.4,0.5,4.7,1.6L1309.7,70.8z"/>
	<path fill="#58595B" d="M1318.8,67h2.8l6.7,15.4h-3.8l-1.3-3.3h-6l-1.3,3.3h-3.7L1318.8,67z M1320.1,71.5l-1.9,4.8h3.8L1320.1,71.5
		z"/>
	<polygon fill="#58595B" points="1329.3,67 1333.9,67 1340.5,77.7 1340.5,77.7 1340.5,67 1343.9,67 1343.9,82.4 1339.5,82.4 
		1332.8,71.4 1332.7,71.4 1332.7,82.4 1329.3,82.4 	"/>
	<path fill="#58595B" d="M1346.5,67h5.1c5,0,9.1,2.1,9.1,7.7c0,5-4.1,7.6-8.6,7.6h-5.5V67z M1349.9,79.2h1.8c3.1,0,5.5-1.2,5.5-4.7
		c0-3-2.4-4.4-5.3-4.4h-2V79.2z"/>
	<path fill="#58595B" d="M1362.5,67h5.9c3.1,0,5.8,1.1,5.8,4.7c0,2.1-1.2,3.8-3.3,4.2l3.9,6.5h-4.1l-3.2-6.1h-1.7v6.1h-3.4V67z
		 M1365.9,73.4h2c1.2,0,2.8,0,2.8-1.7c0-1.5-1.4-1.8-2.6-1.8h-2.2V73.4z"/>
	<path fill="#58595B" d="M1381.8,67h2.8l6.7,15.4h-3.8l-1.3-3.3h-6l-1.3,3.3h-3.7L1381.8,67z M1383.2,71.5l-1.9,4.8h3.8L1383.2,71.5
		z"/>
	<path fill="#58595B" d="M1260.4,99.5c0.8,1.3,2,2,3.6,2c2,0,3.5-1.2,3.5-3.1c0-4.4-8.1-1.8-8.1-7.8c0-2.8,2.4-4.3,5-4.3
		c1.7,0,3.2,0.6,4.3,2l-1.3,0.9c-0.7-1-1.7-1.6-3.1-1.6c-1.9,0-3.5,1-3.5,3c0,4.7,8.1,1.9,8.1,7.8c0,2.8-2.3,4.4-4.9,4.4
		c-2.1,0-3.9-0.7-5.1-2.4L1260.4,99.5z"/>
	<path fill="#58595B" d="M1283,96.4c0,3.4-1.4,6.4-5.7,6.4s-5.7-3.1-5.7-6.4v-9.7h1.5V96c0,2.2,0.6,5.5,4.3,5.5s4.3-3.2,4.3-5.5
		v-9.3h1.5V96.4z"/>
	<polygon fill="#58595B" points="1286.8,86.7 1289,86.7 1294.7,99.9 1300.5,86.7 1302.6,86.7 1302.6,102.4 1301.1,102.4 
		1301.1,88.6 1301.1,88.6 1295.1,102.4 1294.4,102.4 1288.3,88.6 1288.3,88.6 1288.3,102.4 1286.8,102.4 	"/>
	<polygon fill="#58595B" points="1306.5,86.7 1308.7,86.7 1314.4,99.9 1320.1,86.7 1322.2,86.7 1322.2,102.4 1320.7,102.4 
		1320.7,88.6 1320.7,88.6 1314.7,102.4 1314.1,102.4 1308,88.6 1307.9,88.6 1307.9,102.4 1306.5,102.4 	"/>
	<rect x="1326.2" y="86.7" fill="#58595B" width="1.5" height="15.7"/>
	<polygon fill="#58595B" points="1335.3,88 1329.9,88 1329.9,86.7 1342.1,86.7 1342.1,88 1336.7,88 1336.7,102.4 1335.3,102.4 	"/>
	<path fill="#CA6228" d="M1297.7,51.8c0,1.2-1,2.2-2.2,2.3c-1.2,0-2.2-1-2.3-2.2c0-1.2,1-2.2,2.2-2.3
		C1296.7,49.5,1297.7,50.5,1297.7,51.8"/>
	<path fill="#CA6228" d="M1304.1,40c1.7,0,3,1.3,3.1,3c0,1.7-1.3,3-3,3.1c-1.7,0-3-1.3-3.1-3C1301.1,41.4,1302.4,40,1304.1,40"/>
	<path fill="#CA6228" d="M1319.3,33.3c2.1,0,3.8,1.6,3.8,3.7c0,2.1-1.6,3.8-3.7,3.8c-2.1,0-3.8-1.6-3.8-3.7
		C1315.6,35,1317.2,33.3,1319.3,33.3"/>
	<path fill="#CA6228" d="M1336.6,33.9c2.4,0,4.4,1.9,4.4,4.3c0,2.4-1.9,4.4-4.3,4.4c-2.4,0-4.4-1.9-4.4-4.3
		C1332.3,35.9,1334.2,33.9,1336.6,33.9"/>
	<path fill="#CA6228" d="M1357.5,48.8c0,3.1-2.4,5.6-5.5,5.6c-3.1,0-5.6-2.4-5.6-5.5c0-3.1,2.4-5.6,5.5-5.6
		C1354.9,43.3,1357.5,45.8,1357.5,48.8"/>
	<g>
		<path fill="#58595B" d="M1343.2,98.8l6.2-5.6c0.3-0.3,0.6-0.6,0.9-1c0.3-0.4,0.5-0.8,0.5-1.3c0-0.5-0.2-1-0.6-1.3
			c-0.4-0.3-0.9-0.5-1.4-0.5c-0.6,0-1.1,0.2-1.5,0.6c-0.4,0.4-0.6,0.9-0.6,1.4l-3.4-0.2c0-0.8,0.2-1.5,0.5-2.2
			c0.3-0.6,0.7-1.1,1.2-1.5c0.5-0.4,1.1-0.7,1.7-0.9c0.7-0.2,1.4-0.3,2.2-0.3c0.7,0,1.4,0.1,2,0.3c0.6,0.2,1.2,0.5,1.6,0.9
			c0.5,0.4,0.8,0.9,1.1,1.5c0.3,0.6,0.4,1.3,0.4,2.1c0,0.5-0.1,1-0.2,1.4c-0.1,0.4-0.3,0.8-0.4,1.1c-0.2,0.3-0.4,0.7-0.7,0.9
			c-0.3,0.3-0.5,0.6-0.8,0.8l-4.9,4.2h7.1v3h-11.2V98.8z"/>
		<path fill="#58595B" d="M1355.8,94.4c0-0.9,0.1-1.9,0.3-2.9c0.2-1,0.5-1.9,0.9-2.7c0.4-0.8,1.1-1.4,1.8-2c0.8-0.5,1.7-0.8,2.9-0.8
			c1.2,0,2.2,0.3,2.9,0.8c0.8,0.5,1.4,1.2,1.8,2c0.4,0.8,0.8,1.7,0.9,2.7c0.2,1,0.3,1.9,0.3,2.9c0,0.9-0.1,1.9-0.3,2.9
			c-0.2,1-0.5,1.9-0.9,2.7c-0.4,0.8-1.1,1.4-1.8,2c-0.8,0.5-1.7,0.8-2.9,0.8c-1.2,0-2.2-0.3-2.9-0.8c-0.8-0.5-1.4-1.2-1.8-2
			c-0.4-0.8-0.8-1.7-0.9-2.7C1355.9,96.3,1355.8,95.4,1355.8,94.4z M1359.2,94.4c0,0.4,0,0.9,0.1,1.5c0,0.6,0.1,1.2,0.3,1.7
			c0.2,0.5,0.4,1,0.8,1.4c0.3,0.4,0.8,0.6,1.4,0.6c0.6,0,1.1-0.2,1.4-0.6c0.3-0.4,0.6-0.8,0.8-1.4c0.2-0.5,0.3-1.1,0.3-1.7
			c0-0.6,0.1-1.1,0.1-1.5c0-0.4,0-0.9-0.1-1.5c0-0.6-0.1-1.2-0.3-1.7c-0.2-0.5-0.4-1-0.8-1.4c-0.3-0.4-0.8-0.6-1.4-0.6
			c-0.6,0-1.1,0.2-1.4,0.6c-0.3,0.4-0.6,0.8-0.8,1.4c-0.2,0.5-0.3,1.1-0.3,1.7C1359.2,93.5,1359.2,94,1359.2,94.4z"/>
		<path fill="#58595B" d="M1374,90.2l-3.2,2.8l-1.9-2.2l5.2-4.4h3.2v16h-3.3V90.2z"/>
		<path fill="#58595B" d="M1390.7,89.4h-6.3l-0.1,2.5c0.3-0.1,0.8-0.2,1.4-0.2c0.8,0,1.6,0.1,2.2,0.4c0.7,0.2,1.3,0.6,1.7,1.1
			c0.5,0.5,0.9,1,1.1,1.7c0.3,0.7,0.4,1.4,0.4,2.2c0,0.9-0.2,1.7-0.5,2.4c-0.3,0.7-0.7,1.3-1.3,1.8c-0.5,0.5-1.2,0.9-1.9,1.1
			c-0.7,0.3-1.6,0.4-2.4,0.4c-1.4,0-2.5-0.3-3.5-1c-0.9-0.7-1.6-1.7-1.9-3.1l3.5-0.8c0.1,0.6,0.3,1,0.7,1.4c0.4,0.4,0.9,0.5,1.5,0.5
			c0.7,0,1.3-0.2,1.7-0.7c0.4-0.5,0.6-1,0.6-1.7c0-0.5-0.1-1-0.3-1.3c-0.2-0.3-0.5-0.6-0.9-0.8c-0.4-0.2-0.7-0.3-1.2-0.4
			c-0.4-0.1-0.9-0.1-1.3-0.1c-0.6,0-1.1,0.1-1.7,0.2c-0.6,0.1-1.1,0.2-1.6,0.4l0.2-8.8h9.7V89.4z"/>
	</g>
</g>
</svg>
