<?xml version="1.0" encoding="utf-8"?>
<!-- Generator: Adobe Illustrator 18.1.1, SVG Export Plug-In . SVG Version: 6.00 Build 0)  -->
<svg version="1.1" id="Layer_1" xmlns="http://www.w3.org/2000/svg" xmlns:xlink="http://www.w3.org/1999/xlink" x="0px" y="0px"
	 viewBox="0 0 1440 810" enable-background="new 0 0 1440 810" xml:space="preserve">
<pattern  y="810" width="429.5" height="433.9" patternUnits="userSpaceOnUse" id="New_Pattern" viewBox="0 -434 429.5 433.9" overflow="visible">
	<g>
		<polygon fill="none" points="0,-0.1 429.5,-0.1 429.5,-434 0,-434 		"/>
		<g>
			<polygon fill="none" points="0,-0.1 429.5,-0.1 429.5,-434 0,-434 			"/>
			<path d="M37.2-2.2l15.3-26.6c0.7,0.3,1.5,0.4,2.3,0L70.1-2.2c-0.3,0.2-0.6,0.5-0.8,0.9C69.1-0.9,69-0.5,69,0h76.7
				c0-0.4-0.1-0.9-0.3-1.3s-0.5-0.6-0.8-0.9l15.3-26.6c0.7,0.3,1.5,0.4,2.3,0l14.1,24.3c-0.7,0.4-1.3,1-1.7,1.8
				c-0.5,0.8-0.7,1.7-0.7,2.6h78c0-0.2,0-0.4-0.2-0.6c-0.1-0.2-0.2-0.3-0.3-0.4l16-27.7c0.7,0.3,1.5,0.4,2.3,0L285-2.2
				c-0.3,0.2-0.6,0.5-0.8,0.9c-0.2,0.4-0.3,0.8-0.3,1.3h76.7c0-0.4-0.1-0.9-0.3-1.3c-0.2-0.4-0.5-0.6-0.8-0.9l14.4-24.9
				c1.3,0.7,2.8,0.7,4.2,0l14.4,24.9c-0.3,0.2-0.6,0.5-0.8,0.9c-0.2,0.4-0.3,0.8-0.3,1.3h38.3v-2.6c-0.4,0-0.8,0.1-1.1,0.3L413-29
				c1.1-0.7,1.5-2.2,0.8-3.4c-0.2-0.4-0.5-0.6-0.8-0.9l15.3-26.6c0.4,0.2,0.7,0.3,1.1,0.3v-5.1c-0.4,0-0.8,0.1-1.1,0.3L413-90.9
				c1.1-0.7,1.5-2.2,0.8-3.4c-0.2-0.4-0.5-0.6-0.8-0.9l15.3-26.6c0.4,0.2,0.7,0.3,1.1,0.3v-5.1c-0.4,0-0.8,0.1-1.1,0.3l-16-27.7
				c0.5-0.4,0.7-1.1,0.3-1.7c-0.1-0.2-0.2-0.3-0.3-0.4l16-27.7c0.4,0.2,0.7,0.3,1.1,0.3v-5.1c-0.4,0-0.8,0.1-1.1,0.3L413-214.9
				c1.1-0.7,1.5-2.2,0.8-3.4c-0.2-0.4-0.5-0.6-0.8-0.9l15.3-26.6c0.4,0.2,0.7,0.3,1.1,0.3v-5.1c-0.4,0-0.8,0.1-1.1,0.3L413-276.9
				c1.1-0.7,1.5-2.2,0.8-3.4c-0.2-0.4-0.5-0.6-0.8-0.9l15.3-26.6c0.4,0.2,0.7,0.3,1.1,0.3v-5.1c-0.4,0-0.8,0.1-1.1,0.3L413-338.9
				c1.1-0.7,1.5-2.2,0.8-3.4c-0.2-0.4-0.5-0.6-0.8-0.9l15.3-26.6c0.4,0.2,0.7,0.3,1.1,0.3v-5.1c-0.4,0-0.8,0.1-1.1,0.3l-14.1-24.3
				c2.3-1.5,3.1-4.5,1.7-6.9c-0.4-0.8-1-1.4-1.7-1.8l14.1-24.3c0.4,0.2,0.7,0.3,1.1,0.3v-2.7h-38.3c0,0.8,0.4,1.6,1.1,2.1
				l-15.3,26.6c-0.7-0.3-1.5-0.4-2.3,0l-15.3-26.6c0.7-0.5,1.1-1.3,1.1-2.1h-76.7c0,0.8,0.4,1.6,1.1,2.1l-15.3,26.6
				c-0.7-0.3-1.5-0.4-2.3,0L251.3-433c0.3-0.2,0.5-0.6,0.5-1h-78c0,1.7,0.9,3.4,2.4,4.3l-14.1,24.3c-0.7-0.3-1.5-0.4-2.3,0
				l-15.2-26.5c0.7-0.5,1.1-1.3,1.1-2.1H69c0,0.8,0.4,1.6,1.1,2.1l-14,24.4c-1.5-0.8-3.3-0.8-4.8,0l-14.1-24.4
				c0.7-0.5,1.1-1.3,1.1-2.1H0v2.6c0.4,0,0.8-0.1,1.1-0.3l16,27.7c-0.1,0.1-0.2,0.2-0.3,0.4c-0.3,0.6-0.2,1.3,0.3,1.7l-16,27.7
				c-0.4-0.2-0.7-0.3-1.1-0.3v5.1c0.4,0,0.8-0.1,1.1-0.3l15.3,26.6c-0.3,0.2-0.6,0.5-0.8,0.9c-0.7,1.2-0.3,2.7,0.8,3.4L1.1-312.3
				c-0.4-0.2-0.7-0.3-1.1-0.3v5.1c0.4,0,0.8-0.1,1.1-0.3l15.3,26.6c-0.3,0.2-0.6,0.5-0.8,0.9c-0.7,1.2-0.3,2.7,0.8,3.4L1.1-250.3
				c-0.4-0.2-0.7-0.3-1.1-0.3v5.1c0.4,0,0.8-0.1,1.1-0.3l14.7,25.5c-0.5,0.3-0.9,0.8-1.3,1.3c-1,1.8-0.5,4.1,1.3,5.2L1.1-188.3
				c-0.4-0.2-0.7-0.3-1.1-0.3v5.1c0.4,0,0.8-0.1,1.1-0.3l16,27.7c-0.1,0.1-0.2,0.2-0.3,0.4c-0.3,0.6-0.2,1.3,0.3,1.7l-16,27.7
				c-0.4-0.2-0.7-0.3-1.1-0.3v5.1c0.4,0,0.8-0.1,1.1-0.3l14.1,24.3c-0.7,0.4-1.3,1-1.7,1.8c-1.4,2.4-0.6,5.5,1.7,6.9L1.1-64.4
				c-0.4-0.2-0.7-0.3-1.1-0.3v5.1c0.4,0,0.8-0.1,1.1-0.3l15.3,26.6c-0.3,0.2-0.6,0.5-0.8,0.9c-0.7,1.2-0.3,2.7,0.8,3.4L1.1-2.4
				C0.7-2.6,0.4-2.7,0-2.7v2.6h38.3c0-0.4-0.1-0.9-0.3-1.3C37.8-1.7,37.5-2,37.2-2.2z M91.7-32.4c-0.2-0.4-0.5-0.6-0.8-0.9
				l15.3-26.6c0.7,0.3,1.5,0.4,2.3,0l15.7,27.1c-0.2,0.2-0.4,0.4-0.6,0.6c-0.5,0.9-0.2,2,0.6,2.5L108.5-2.6c-0.7-0.3-1.5-0.4-2.3,0
				L90.9-29C92-29.7,92.4-31.2,91.7-32.4z M213.6-2.4L198.3-29c1.1-0.7,1.5-2.2,0.8-3.4c-0.2-0.4-0.5-0.6-0.8-0.9L213-58.8
				c1.1,0.6,2.4,0.6,3.6,0l14.7,25.5c-0.3,0.2-0.6,0.5-0.8,0.9c-0.7,1.2-0.3,2.7,0.8,3.4L216-2.4C215.2-2.7,214.3-2.8,213.6-2.4z
				 M302.9-33.3c-0.8,0.4-1.2,1.2-1.3,2.1H271c0-0.4-0.1-0.8-0.3-1.1c-0.2-0.4-0.5-0.6-0.8-0.9l16-27.7c0.6,0.2,1.3,0,1.6-0.5
				c0.1-0.2,0.1-0.3,0.2-0.5h32c0,0.4,0.1,0.8,0.3,1.1c0.2,0.4,0.5,0.6,0.8,0.9l-15.3,26.6C304.6-33.7,303.7-33.8,302.9-33.3z
				 M356.6-64.3c-0.8,0.4-1.2,1.2-1.3,2.1h-30.7c0-0.4-0.1-0.8-0.3-1.1c-0.2-0.4-0.5-0.6-0.8-0.8l16-27.7c0.6,0.2,1.3,0,1.6-0.5
				c0.1-0.2,0.1-0.3,0.2-0.5H372c0,0.6,0.2,1.2,0.5,1.8c0.3,0.6,0.8,1,1.3,1.3L359-64.4C358.3-64.7,357.4-64.7,356.6-64.3z
				 M319.5-62.2h-32c0-0.4-0.3-0.7-0.6-0.9c-0.4-0.2-0.8-0.2-1.1-0.1l-16-27.7c0.7-0.5,1.1-1.2,1.1-2h30.7c0,0.4,0.1,0.8,0.3,1.1
				c0.7,1.2,2.2,1.6,3.4,1l15.3,26.6C320-63.8,319.6-63,319.5-62.2z M302.9-95.3c-0.8,0.4-1.2,1.2-1.3,2.1H271
				c0-0.4-0.1-0.8-0.3-1.1c-0.2-0.4-0.5-0.6-0.8-0.9l14.1-24.3c2.4,1.3,5.5,0.5,6.9-1.9c0.4-0.8,0.7-1.6,0.7-2.4h28.1
				c0,0.4,0.1,0.8,0.3,1.1c0.2,0.4,0.5,0.6,0.8,0.9l-15.3,26.6C304.6-95.7,303.7-95.7,302.9-95.3z M356.6-126.3
				c-0.8,0.4-1.2,1.2-1.3,2.1h-30.7c0-0.4-0.1-0.8-0.3-1.1c-0.2-0.4-0.5-0.6-0.8-0.8l15.3-26.6c1.2,0.6,2.7,0.2,3.4-1
				c0.2-0.4,0.3-0.7,0.3-1.1h32c0,0.2,0.1,0.3,0.2,0.5s0.2,0.3,0.3,0.4l-16,27.7C358.3-126.7,357.4-126.7,356.6-126.3z M319.5-124.2
				h-28.1c-0.1-1.7-1-3.4-2.6-4.3s-3.5-0.9-5-0.1l-14.1-24.3c0.7-0.5,1.1-1.2,1.1-2h30.7c0,0.4,0.1,0.8,0.3,1.1
				c0.7,1.2,2.2,1.6,3.4,1l15.3,26.6C320-125.7,319.6-125,319.5-124.2z M302.9-157.3c-0.8,0.4-1.2,1.2-1.3,2.1H271
				c0-0.4-0.1-0.8-0.3-1.1c-0.2-0.4-0.5-0.6-0.8-0.9l16-27.7c0.6,0.2,1.3,0,1.6-0.5c0.1-0.2,0.1-0.3,0.2-0.5h32
				c0,0.4,0.1,0.8,0.3,1.1c0.2,0.4,0.5,0.6,0.8,0.9l-15.3,26.6C304.6-157.7,303.7-157.7,302.9-157.3z M356.6-188.3
				c-0.8,0.4-1.2,1.2-1.3,2.1h-30.7c0-0.4-0.1-0.8-0.3-1.1c-0.2-0.4-0.5-0.6-0.8-0.8l15.3-26.6c1.2,0.6,2.7,0.2,3.4-1
				c0.2-0.4,0.3-0.7,0.3-1.1h30.7c0,0.4,0.1,0.8,0.3,1.1c0.2,0.4,0.5,0.6,0.8,0.8L359-188.3C358.3-188.7,357.4-188.7,356.6-188.3z
				 M319.5-186.2h-32c0-0.4-0.3-0.7-0.6-0.9c-0.4-0.2-0.8-0.2-1.1-0.1L269.2-216c0.3-0.2,0.4-0.5,0.5-0.9h32c0,0.4,0.1,0.8,0.3,1.1
				c0.7,1.2,2.2,1.6,3.4,1l15.3,26.6C320-187.7,319.6-187,319.5-186.2z M302.9-219.3c-0.8,0.4-1.2,1.2-1.3,2.1h-32
				c0-0.2-0.1-0.3-0.2-0.5s-0.2-0.3-0.3-0.4l16-27.7c1.2,0.6,2.7,0.2,3.4-1c0.2-0.4,0.3-0.7,0.3-1.1h32c0,0.2,0.1,0.3,0.2,0.5
				s0.2,0.3,0.3,0.4l-16,27.7C304.6-219.7,303.7-219.7,302.9-219.3z M355.3-252.5c-1.6,0.9-2.5,2.6-2.6,4.3h-29.4
				c0-0.2-0.1-0.3-0.2-0.5s-0.2-0.3-0.3-0.4l16-27.7c1.2,0.6,2.7,0.2,3.4-1c0.2-0.4,0.3-0.7,0.3-1.1h32c0,0.2,0.1,0.3,0.2,0.5
				s0.2,0.3,0.3,0.4l-14.7,25.5C358.8-253.4,356.9-253.4,355.3-252.5z M320.8-248.2h-32c-0.1-0.8-0.5-1.6-1.3-2.1
				c-0.8-0.4-1.7-0.4-2.4-0.1l-14.4-24.9c1.3-0.8,2-2.2,2.1-3.6h29.4c0,0.3,0.1,0.5,0.2,0.8c0.5,0.9,1.6,1.2,2.5,0.8l16.3,28.2
				C321-248.8,320.9-248.5,320.8-248.2z M303.2-280.7c-0.6,0.3-0.9,0.9-1,1.5h-29.4c0-0.7-0.2-1.4-0.6-2.1s-0.9-1.2-1.5-1.6l15-26
				c0.6,0.2,1.3,0,1.6-0.5c0.1-0.2,0.1-0.3,0.2-0.5h32.6c0,0.3,0.1,0.5,0.2,0.8s0.3,0.5,0.6,0.6l-16,27.7
				C304.5-281,303.8-281,303.2-280.7z M356.6-312.2c-0.8,0.4-1.2,1.2-1.3,2.1H324c0-0.3-0.1-0.5-0.2-0.8c-0.1-0.3-0.3-0.5-0.6-0.6
				l15.7-27.1c1.2,0.6,2.7,0.2,3.4-1c0.2-0.4,0.3-0.7,0.3-1.1h28.8c0,0.7,0.2,1.4,0.6,2.1c0.4,0.7,0.9,1.2,1.5,1.6L359-312.3
				C358.3-312.7,357.4-312.7,356.6-312.2z M320.2-310.2h-32.6c0-0.4-0.3-0.7-0.6-0.9c-0.4-0.2-0.8-0.2-1.1-0.1l-16-27.7
				c0.7-0.5,1.1-1.2,1.1-2h30.7c0,0.4,0.1,0.8,0.3,1.1c0.7,1.2,2.2,1.6,3.4,1l15.7,27.1C320.5-311.3,320.2-310.7,320.2-310.2z
				 M302.9-343.2c-0.8,0.4-1.2,1.2-1.3,2.1H271c0-0.4-0.1-0.8-0.3-1.1c-0.2-0.4-0.5-0.6-0.8-0.9l14.1-24.3c2.4,1.3,5.5,0.5,6.9-1.9
				c0.4-0.8,0.7-1.6,0.7-2.4H321c0,0.2,0.1,0.3,0.2,0.5c0.1,0.2,0.2,0.3,0.3,0.4l-16,27.7C304.6-343.7,303.7-343.7,302.9-343.2z
				 M356.6-374.2c-0.8,0.4-1.2,1.2-1.3,2.1h-32c0-0.2-0.1-0.3-0.2-0.5c-0.1-0.2-0.2-0.3-0.3-0.4l16-27.7c1.2,0.6,2.7,0.2,3.4-1
				c0.2-0.4,0.3-0.7,0.3-1.1h30.7c0,0.4,0.1,0.8,0.3,1.1c0.2,0.4,0.5,0.6,0.8,0.9L359-374.3C358.3-374.7,357.4-374.7,356.6-374.2z
				 M320.8-372.2h-29.4c-0.1-1.7-1-3.4-2.6-4.3s-3.5-0.9-5-0.1l-14.1-24.3c0.7-0.5,1.1-1.2,1.1-2h30.7c0,0.4,0.1,0.8,0.3,1.1
				c0.7,1.2,2.2,1.6,3.4,1l16,27.7C321-372.8,320.9-372.5,320.8-372.2z M215.9-431.7l15.3,26.6c-0.3,0.2-0.6,0.5-0.8,0.9
				c-0.7,1.2-0.3,2.7,0.8,3.4l-15.3,26.6c-0.7-0.3-1.5-0.4-2.3,0l-16-27.7c0.5-0.4,0.7-1.1,0.3-1.7c-0.1-0.2-0.2-0.3-0.3-0.4
				l16-27.7C214.3-431.4,215.1-431.3,215.9-431.7z M126.4-402.4c0.1-0.2,0.1-0.3,0.2-0.5h32c0,0.4,0.1,0.8,0.3,1.1
				c0.2,0.4,0.5,0.6,0.8,0.9L144-373.8c-0.5-0.3-1.2-0.3-1.8,0.1c-0.6,0.3-0.9,0.9-1,1.5h-31.3c0-0.4-0.1-0.8-0.3-1.1
				c-0.2-0.4-0.5-0.6-0.8-0.9l16-27.7C125.4-401.6,126-401.8,126.4-402.4z M73.8-370.7c0.2-0.4,0.3-0.7,0.3-1.1h30.7
				c0,0.4,0.1,0.8,0.3,1.1c0.2,0.4,0.5,0.6,0.8,0.9l-15.3,26.5c-0.7-0.4-1.6-0.4-2.4,0.1c-0.8,0.4-1.2,1.2-1.3,2.1H55.6
				c0-0.3-0.1-0.5-0.2-0.8c-0.1-0.3-0.3-0.5-0.6-0.6l15.7-27.1C71.6-369.1,73.1-369.6,73.8-370.7z M109.9-371.9h31.3
				c0,0.3,0.1,0.5,0.2,0.8c0.5,0.9,1.6,1.2,2.5,0.8l16.4,28.3c-0.3,0.2-0.4,0.5-0.5,0.9h-30.7c-0.1-1.3-0.7-2.5-1.9-3.2
				c-1.2-0.7-2.6-0.7-3.7-0.1l-14.7-25.5C109.5-370.3,109.9-371.1,109.9-371.9z M194.6-344.9c-1.4,0.8-2.2,2.2-2.2,3.7h-30
				c0-0.2-0.1-0.3-0.2-0.5c-0.1-0.2-0.2-0.3-0.3-0.4l16-27.7c1.2,0.6,2.7,0.2,3.4-1c0.2-0.4,0.3-0.7,0.3-1.1h30.7
				c0,0.4,0.1,0.8,0.3,1.1c0.2,0.4,0.5,0.6,0.8,0.9L198.9-345C197.6-345.7,196-345.7,194.6-344.9z M144.8-373
				c-0.1-0.3-0.3-0.5-0.6-0.6l15.7-27.1c0.7,0.3,1.5,0.4,2.3,0l15.3,26.6c-0.3,0.2-0.6,0.5-0.8,0.9c-0.7,1.2-0.3,2.7,0.8,3.4
				l-16,27.7c-0.3-0.1-0.7-0.1-1,0l-16.3-28.2C145.1-371,145.3-372.1,144.8-373z M163.6-402.8h32c0,0.2,0.1,0.3,0.2,0.5
				c0.3,0.6,1,0.8,1.6,0.5l16,27.7c-0.7,0.5-1.1,1.2-1.1,2h-30.7c-0.1-0.8-0.5-1.6-1.3-2.1c-0.8-0.4-1.7-0.4-2.4-0.1l-15.3-26.6
				C163.1-401.3,163.6-402.1,163.6-402.8z M249.2-374.2c-0.8,0.4-1.2,1.2-1.3,2.1h-30.7c0-0.4-0.1-0.8-0.3-1.1
				c-0.2-0.4-0.5-0.6-0.8-0.9l15.3-26.6c1.2,0.6,2.7,0.2,3.4-1c0.2-0.4,0.3-0.7,0.3-1.1h30.7c0,0.4,0.1,0.8,0.3,1.1
				c0.2,0.4,0.5,0.6,0.8,0.9l-15.3,26.6C250.9-374.7,250-374.7,249.2-374.2z M283.6-367.7l-14.1,24.3c-0.7-0.3-1.5-0.4-2.3,0
				L251.9-370c1.1-0.7,1.5-2.2,0.8-3.4c-0.2-0.4-0.5-0.6-0.8-0.9l15.3-26.6c0.7,0.3,1.5,0.4,2.3,0l14.1,24.3c-0.7,0.4-1.3,1-1.7,1.8
				C280.5-372.2,281.3-369.1,283.6-367.7z M265.9-341.2h-30.7c-0.1-0.8-0.5-1.6-1.3-2.1c-0.8-0.4-1.7-0.4-2.4-0.1L216.2-370
				c0.7-0.5,1.1-1.2,1.1-2H248c0,0.4,0.1,0.8,0.3,1.1c0.7,1.2,2.2,1.6,3.4,1l15.3,26.7C266.3-342.7,265.9-342,265.9-341.2z
				 M231.2-338.9l-15.3,26.6c-0.7-0.3-1.5-0.4-2.3,0l-14.4-24.9c2-1.3,2.7-3.9,1.5-6c-0.4-0.7-0.9-1.2-1.5-1.6l14.4-24.9
				c0.7,0.3,1.5,0.4,2.3,0l15.3,26.6c-0.3,0.2-0.6,0.5-0.8,0.9C229.7-341.1,230.1-339.6,231.2-338.9z M128.6-339.1
				c0.3-0.6,0.5-1.2,0.5-1.8h30.7c0,0.2,0.1,0.3,0.2,0.5c0.1,0.2,0.2,0.3,0.3,0.4l-16,27.7c-0.7-0.4-1.6-0.4-2.4,0.1
				c-0.8,0.4-1.2,1.2-1.3,2.1h-30.7c0-0.4-0.1-0.8-0.3-1.1c-0.2-0.4-0.5-0.6-0.8-0.9l14.7-25.5C125.3-336.7,127.6-337.3,128.6-339.1
				z M73.8-308.7c0.2-0.4,0.3-0.7,0.3-1.1h30.7c0,0.4,0.1,0.8,0.3,1.1c0.2,0.4,0.5,0.6,0.8,0.9L91.6-283c-1.3-0.7-3-0.7-4.3,0.1
				c-1.4,0.8-2.2,2.2-2.2,3.7H56.2c0-0.4-0.1-0.8-0.3-1.1c-0.2-0.4-0.5-0.6-0.8-0.9l15.3-26.6C71.6-307.1,73.1-307.6,73.8-308.7z
				 M109.9-309.9h30.7c0,0.4,0.1,0.8,0.3,1.1c0.7,1.2,2.2,1.6,3.4,1l15.3,26.6c-0.7,0.5-1.1,1.2-1.1,2h-31.3c-0.1-0.6-0.4-1.2-1-1.5
				c-0.6-0.3-1.2-0.3-1.8-0.1l-15.7-27.1C109.5-308.4,109.9-309.1,109.9-309.9z M195.6-281.3c-0.8,0.4-1.2,1.2-1.3,2.1h-30.7
				c0-0.4-0.1-0.8-0.3-1.1c-0.2-0.4-0.5-0.6-0.8-0.9l15.7-27.1c0.9,0.4,2,0.1,2.5-0.8c0.1-0.3,0.2-0.5,0.2-0.8h31.3
				c0,0.4,0.1,0.8,0.3,1.1c0.2,0.4,0.5,0.6,0.8,0.9L198-281.3C197.2-281.7,196.3-281.7,195.6-281.3z M145.4-311.3
				c-0.2-0.4-0.5-0.6-0.8-0.9l16-27.7c0.3,0.1,0.7,0.1,1,0l16.3,28.2c-0.2,0.2-0.4,0.4-0.6,0.6c-0.5,0.9-0.2,2,0.6,2.5l-15.7,27.1
				c-0.7-0.3-1.5-0.4-2.3,0l-15.3-26.6C145.7-308.6,146-310.1,145.4-311.3z M162.3-340.9h30c0,0.7,0.2,1.4,0.6,2.1
				c1.2,2.1,3.9,2.8,6,1.7l14.4,24.9c-0.7,0.5-1.1,1.2-1.1,2h-31.3c-0.1-0.6-0.4-1.2-1-1.5c-0.6-0.3-1.2-0.3-1.8-0.1L161.8-340
				C162.1-340.2,162.3-340.5,162.3-340.9z M249.2-312.2c-0.8,0.4-1.2,1.2-1.3,2.1h-30.7c0-0.4-0.1-0.8-0.3-1.1
				c-0.2-0.4-0.5-0.6-0.8-0.9l15.3-26.6c1.2,0.6,2.7,0.2,3.4-1c0.2-0.4,0.3-0.7,0.3-1.1h30.7c0,0.4,0.1,0.8,0.3,1.1
				c0.2,0.4,0.5,0.6,0.8,0.9l-15.3,26.6C250.9-312.7,250-312.7,249.2-312.2z M285.5-309l-15,26c-1.3-0.7-2.8-0.7-4.2,0l-14.4-24.9
				c1.1-0.7,1.5-2.2,0.8-3.4c-0.2-0.4-0.5-0.6-0.8-0.9l15.3-26.6c0.7,0.3,1.5,0.4,2.3,0l16,27.7c-0.1,0.1-0.2,0.2-0.3,0.4
				C284.9-310.1,285-309.4,285.5-309z M263.9-279.2h-30c0-0.4-0.3-0.7-0.6-0.9c-0.4-0.2-0.8-0.2-1.1-0.1l-16-27.7
				c0.7-0.5,1.1-1.2,1.1-2H248c0,0.4,0.1,0.8,0.3,1.1c0.7,1.2,2.2,1.6,3.4,1l14.4,24.9C264.7-282,264-280.6,263.9-279.2z M231.8-278
				l-16,27.7c-0.7-0.3-1.5-0.4-2.3,0l-15.3-26.6c1.1-0.7,1.5-2.2,0.8-3.4c-0.2-0.4-0.5-0.6-0.8-0.9l15.3-26.6c0.7,0.3,1.5,0.4,2.3,0
				l16,27.7c-0.1,0.1-0.2,0.2-0.3,0.4C231.2-279.1,231.3-278.4,231.8-278z M126.9-278.1c0.1-0.3,0.2-0.5,0.2-0.8h31.3
				c0,0.4,0.1,0.8,0.3,1.1c0.2,0.4,0.5,0.6,0.8,0.9l-14.1,24.3c-1.5-0.8-3.4-0.8-5,0.1c-1.6,0.9-2.5,2.6-2.6,4.3h-28.1
				c0-0.4-0.1-0.8-0.3-1.1c-0.2-0.4-0.5-0.6-0.8-0.9l15.7-27.1C125.3-276.9,126.4-277.2,126.9-278.1z M73.8-246.8
				c0.2-0.4,0.3-0.7,0.3-1.1h30.7c0,0.4,0.1,0.8,0.3,1.1c0.2,0.4,0.5,0.6,0.8,0.9l-16,27.7c-0.4-0.1-0.8-0.1-1.1,0.1
				c-0.4,0.2-0.6,0.6-0.6,0.9h-32c0-0.4-0.1-0.8-0.3-1.1c-0.2-0.4-0.5-0.6-0.8-0.9l15.3-26.6C71.6-245.2,73.1-245.6,73.8-246.8z
				 M109.9-247.9H138c0,0.8,0.2,1.6,0.7,2.4c1.4,2.4,4.4,3.3,6.9,1.9l14.7,25.5c-0.3,0.2-0.4,0.5-0.5,0.9h-32
				c-0.1-0.8-0.5-1.6-1.3-2.1c-0.8-0.4-1.7-0.4-2.4-0.1L108.8-246C109.5-246.4,109.9-247.1,109.9-247.9z M195.6-219.3
				c-0.8,0.4-1.2,1.2-1.3,2.1h-32c0-0.2-0.1-0.3-0.2-0.5c-0.1-0.2-0.2-0.3-0.3-0.4l16-27.7c1.2,0.6,2.7,0.2,3.4-1
				c0.2-0.4,0.3-0.7,0.3-1.1h30.7c0,0.4,0.1,0.8,0.3,1.1c0.2,0.4,0.5,0.6,0.8,0.9L198-219.3C197.2-219.7,196.3-219.7,195.6-219.3z
				 M147.6-250.6c-0.4-0.8-1-1.4-1.7-1.8l14.1-24.3c0.7,0.3,1.5,0.4,2.3,0l15.3,26.6c-0.3,0.2-0.6,0.5-0.8,0.9
				c-0.7,1.2-0.3,2.7,0.8,3.4l-16,27.7c-0.3-0.1-0.7-0.1-1,0l-14.7-25.5C148.2-245.1,149-248.2,147.6-250.6z M163.6-278.9h30.7
				c0,0.4,0.1,0.8,0.3,1.1c0.7,1.2,2.2,1.6,3.4,1l15.3,26.6c-0.7,0.5-1.1,1.2-1.1,2h-30.7c-0.1-0.8-0.5-1.6-1.3-2.1
				c-0.8-0.4-1.7-0.4-2.4-0.1L162.5-277C163.1-277.4,163.6-278.1,163.6-278.9z M249.2-250.3c-0.8,0.4-1.2,1.2-1.3,2.1h-30.7
				c0-0.4-0.1-0.8-0.3-1.1c-0.2-0.4-0.5-0.6-0.8-0.9l16-27.7c0.6,0.2,1.3,0,1.6-0.5c0.1-0.2,0.1-0.3,0.2-0.5h30
				c0,0.7,0.2,1.4,0.6,2.1s0.9,1.2,1.5,1.6l-14.4,24.9C250.9-250.7,250-250.7,249.2-250.3z M284.9-245.9l-16,27.7
				c-0.3-0.1-0.7-0.1-1,0l-16-27.7c1.1-0.7,1.5-2.2,0.8-3.4c-0.2-0.4-0.5-0.6-0.8-0.9l14.4-24.9c1.3,0.7,2.8,0.7,4.2,0l14.4,24.9
				c-0.3,0.2-0.6,0.5-0.8,0.9C283.4-248.1,283.8-246.7,284.9-245.9z M267.1-217.2h-30.7c-0.1-1.3-0.7-2.5-1.9-3.2s-2.6-0.7-3.7-0.1
				L216.1-246c0.7-0.5,1.1-1.2,1.1-2h30.7c0,0.4,0.1,0.8,0.3,1.1c0.7,1.2,2.2,1.6,3.4,1l16,27.7
				C267.4-217.8,267.2-217.5,267.1-217.2z M230.6-213.8l-15.3,26.6c-0.3-0.1-0.7-0.1-1,0l-16-27.7c1.1-0.7,1.5-2.2,0.8-3.4
				c-0.2-0.4-0.5-0.6-0.8-0.9l15.3-26.6c0.7,0.3,1.5,0.4,2.3,0l14.7,25.5c-0.5,0.3-0.9,0.8-1.3,1.3
				C228.3-217.2,228.8-214.9,230.6-213.8z M127.5-215.8c0.2-0.4,0.3-0.7,0.3-1.1h32c0,0.2,0.1,0.3,0.2,0.5c0.1,0.2,0.2,0.3,0.3,0.4
				l-16,27.7c-0.7-0.4-1.6-0.4-2.4,0.1c-0.8,0.4-1.2,1.2-1.3,2.1h-30.7c0-0.4-0.1-0.8-0.3-1.1c-0.2-0.4-0.5-0.6-0.8-0.9l15.3-26.6
				C125.3-214.2,126.8-214.6,127.5-215.8z M73.8-184.8c0.2-0.4,0.3-0.7,0.3-1.1h30.7c0,0.4,0.1,0.8,0.3,1.1c0.2,0.4,0.5,0.6,0.8,0.9
				l-16,27.7c-0.4-0.1-0.8-0.1-1.1,0.1c-0.4,0.2-0.6,0.6-0.6,0.9h-32c0-0.4-0.1-0.8-0.3-1.1c-0.2-0.4-0.5-0.6-0.8-0.9l15.3-26.6
				C71.6-183.2,73.1-183.6,73.8-184.8z M109.9-185.9h30.7c0,0.4,0.1,0.8,0.3,1.1c0.7,1.2,2.2,1.6,3.4,1l14.4,24.9
				c-1.3,0.8-2,2.2-2.1,3.6h-28.8c-0.1-0.8-0.5-1.6-1.3-2.1c-0.8-0.4-1.7-0.4-2.4-0.1l-15.3-26.6
				C109.5-184.4,109.9-185.1,109.9-185.9z M195.6-157.3c-0.8,0.4-1.2,1.2-1.3,2.1h-28.8c0-0.7-0.2-1.4-0.6-2.1
				c-0.4-0.7-0.9-1.2-1.5-1.6l14.4-24.9c1.2,0.6,2.7,0.2,3.4-1c0.2-0.4,0.3-0.7,0.3-1.1h32c0,0.2,0.1,0.3,0.2,0.5
				c0.1,0.2,0.2,0.3,0.3,0.4l-16,27.7C197.2-157.7,196.3-157.7,195.6-157.3z M145.4-187.3c-0.2-0.4-0.5-0.6-0.8-0.9l16-27.7
				c0.3,0.1,0.7,0.1,1,0l16,27.7c-0.3,0.2-0.6,0.5-0.8,0.9c-0.7,1.2-0.3,2.7,0.8,3.4L163.1-159c-1.3-0.7-2.8-0.7-4.2,0l-14.4-24.9
				C145.7-184.7,146-186.2,145.4-187.3z M162.3-216.9h32c0,0.4,0.1,0.8,0.3,1.1c0.7,1.2,2.2,1.6,3.4,1l16,27.7
				c-0.3,0.2-0.4,0.5-0.5,0.9h-32c-0.1-0.8-0.5-1.6-1.3-2.1c-0.8-0.4-1.7-0.4-2.4-0.1l-16-27.7C162.1-216.2,162.3-216.6,162.3-216.9
				z M249.2-188.3c-0.8,0.4-1.2,1.2-1.3,2.1h-32c0-0.2-0.1-0.3-0.2-0.5s-0.2-0.3-0.3-0.4l15.3-26.6c1.8,0.9,4.1,0.3,5.1-1.5
				c0.3-0.6,0.5-1.2,0.5-1.8H267c0,0.2,0.1,0.3,0.2,0.5s0.2,0.3,0.3,0.4l-16,27.7C250.9-188.7,250-188.7,249.2-188.3z M285.5-185
				l-16,27.7c-0.7-0.3-1.5-0.4-2.3,0l-15.3-26.6c1.1-0.7,1.5-2.2,0.8-3.4c-0.2-0.4-0.5-0.6-0.8-0.9l16-27.7c0.3,0.1,0.7,0.1,1,0
				l16.6,28.8c-0.1,0.1-0.2,0.2-0.3,0.4C284.9-186.1,285-185.4,285.5-185z M265.9-155.2h-28.8c-0.1-1.5-0.8-2.9-2.2-3.7
				c-1.4-0.8-3-0.8-4.3-0.1l-15-26c0.3-0.2,0.4-0.5,0.5-0.9h32c0,0.4,0.1,0.8,0.3,1.1c0.7,1.2,2.2,1.6,3.4,1l15.3,26.6
				C266.3-156.7,265.9-156,265.9-155.2z M230.2-151.3l-14.4,24.9c-0.7-0.3-1.5-0.4-2.3,0L198.2-153c1.1-0.7,1.5-2.2,0.8-3.4
				c-0.2-0.4-0.5-0.6-0.8-0.9l16-27.7c0.3,0.1,0.7,0.1,1,0l15,26c-0.6,0.4-1.1,0.9-1.5,1.6C227.5-155.2,228.2-152.5,230.2-151.3z
				 M127.5-153.8c0.2-0.4,0.3-0.7,0.3-1.1h28.8c0,0.7,0.2,1.4,0.6,2.1c0.4,0.7,0.9,1.2,1.5,1.6l-14.4,24.9c-0.7-0.4-1.6-0.4-2.4,0.1
				c-0.8,0.4-1.2,1.2-1.3,2.1h-28.1c0-0.8-0.2-1.6-0.7-2.4c-0.4-0.8-1-1.4-1.7-1.8l14.1-24.3C125.3-152.2,126.8-152.6,127.5-153.8z
				 M73.8-122.8c0.2-0.4,0.3-0.7,0.3-1.1h28.1c0,0.8,0.2,1.6,0.7,2.4c0.4,0.8,1,1.4,1.7,1.8L90.2-94.8c-0.5-0.3-1.2-0.3-1.8,0.1
				c-0.6,0.3-0.9,0.9-1,1.5H56.2c0-0.4-0.1-0.8-0.3-1.1c-0.2-0.4-0.5-0.6-0.8-0.9l15.3-26.6C71.6-121.2,73.1-121.6,73.8-122.8z
				 M112.5-123.9h28.1c0,0.4,0.1,0.8,0.3,1.1c0.7,1.2,2.2,1.6,3.4,1l15.3,26.6c-0.7,0.5-1.1,1.2-1.1,2h-30.7
				c-0.1-0.8-0.5-1.6-1.3-2.1c-0.8-0.4-1.7-0.4-2.4-0.1L110-119.7C111.6-120.7,112.4-122.2,112.5-123.9z M196.2-94.2
				c-0.4,0.2-0.6,0.6-0.6,0.9h-32c0-0.4-0.1-0.8-0.3-1.1c-0.2-0.4-0.5-0.6-0.8-0.9l15.3-26.6c1.2,0.6,2.7,0.2,3.4-1
				c0.2-0.4,0.3-0.7,0.3-1.1h30.7c0,0.4,0.1,0.8,0.3,1.1c0.2,0.4,0.5,0.6,0.8,0.9l-16,27.7C197-94.4,196.6-94.4,196.2-94.2z
				 M145.4-125.3c-0.2-0.4-0.5-0.6-0.8-0.9l14.4-24.9c1.3,0.7,2.8,0.7,4.2,0l14.4,24.9c-0.3,0.2-0.6,0.5-0.8,0.9
				c-0.7,1.2-0.3,2.7,0.8,3.4l-15.3,26.6c-0.7-0.3-1.5-0.4-2.3,0l-15.3-26.6C145.7-122.7,146-124.2,145.4-125.3z M165.5-154.9h28.8
				c0,0.4,0.1,0.8,0.3,1.1c0.7,1.2,2.2,1.6,3.4,1l15.3,26.6c-0.7,0.5-1.1,1.2-1.1,2h-30.7c-0.1-0.8-0.5-1.6-1.3-2.1
				c-0.8-0.4-1.7-0.4-2.4-0.1l-14.4-24.9C164.7-152.1,165.5-153.5,165.5-154.9z M249.2-126.3c-0.8,0.4-1.2,1.2-1.3,2.1h-30.7
				c0-0.4-0.1-0.8-0.3-1.1c-0.2-0.4-0.5-0.6-0.8-0.9l14.4-24.9c2.1,1.1,4.8,0.4,6-1.7c0.4-0.7,0.6-1.4,0.6-2.1h28.8
				c0,0.4,0.1,0.8,0.3,1.1c0.2,0.4,0.5,0.6,0.8,0.9l-15.3,26.6C250.9-126.7,250-126.7,249.2-126.3z M283.6-119.7l-14.1,24.3
				c-0.7-0.3-1.5-0.4-2.3,0L251.9-122c1.1-0.7,1.5-2.2,0.8-3.4c-0.2-0.4-0.5-0.6-0.8-0.9l15.3-26.6c0.7,0.3,1.5,0.4,2.3,0l14.1,24.3
				c-0.7,0.4-1.3,1-1.7,1.8C280.5-124.2,281.3-121.2,283.6-119.7z M265.9-93.2h-30.7c-0.1-0.8-0.5-1.6-1.3-2.1
				c-0.8-0.4-1.7-0.4-2.4-0.1L216.2-122c0.7-0.5,1.1-1.2,1.1-2H248c0,0.4,0.1,0.8,0.3,1.1c0.7,1.2,2.2,1.6,3.4,1L267-95.3
				C266.3-94.7,265.9-94,265.9-93.2z M231.2-90.9l-14.7,25.5c-1.1-0.6-2.4-0.6-3.6,0L197.6-92c0.5-0.4,0.7-1.1,0.3-1.7
				c-0.1-0.2-0.2-0.3-0.3-0.4l16-27.7c0.7,0.3,1.5,0.4,2.3,0l15.3,26.6c-0.3,0.2-0.6,0.5-0.8,0.9C229.7-93.2,230.1-91.7,231.2-90.9z
				 M127.5-91.8c0.2-0.4,0.3-0.7,0.3-1.1h30.7c0,0.4,0.1,0.8,0.3,1.1c0.2,0.4,0.5,0.6,0.8,0.9l-16,27.7c-0.4-0.1-0.8-0.1-1.1,0.1
				c-0.4,0.2-0.6,0.6-0.6,0.9h-32c0-0.4-0.1-0.8-0.3-1.1c-0.2-0.4-0.5-0.6-0.8-0.9l15.3-26.6C125.3-90.2,126.8-90.6,127.5-91.8z
				 M75.5-59.8c0.4-0.7,0.6-1.4,0.6-2.1h28.8c0,0.4,0.1,0.8,0.3,1.1c0.2,0.4,0.5,0.6,0.8,0.9L90.7-33.3c-0.7-0.4-1.6-0.4-2.4,0.1
				c-0.8,0.4-1.2,1.2-1.3,2.1H56.2c0-0.4-0.1-0.8-0.3-1.1c-0.2-0.4-0.5-0.6-0.8-0.9L69.5-58C71.6-57,74.2-57.7,75.5-59.8z
				 M109.9-61.9h32c0,0.2,0.1,0.3,0.2,0.5c0.3,0.6,1,0.8,1.6,0.5l16,27.7c-0.7,0.5-1.1,1.2-1.1,2h-31.3c-0.1-0.6-0.4-1.2-1-1.5
				s-1.2-0.3-1.8-0.1L108.8-60C109.5-60.4,109.9-61.1,109.9-61.9z M195.6-33.3c-0.8,0.4-1.2,1.2-1.3,2.1h-30.7
				c0-0.4-0.1-0.8-0.3-1.1c-0.2-0.4-0.5-0.6-0.8-0.9l15.3-26.6c1.2,0.6,2.7,0.2,3.4-1c0.2-0.4,0.3-0.7,0.3-1.1h29.4
				c0,0.6,0.2,1.2,0.5,1.8c0.3,0.6,0.8,1,1.3,1.3L198-33.4C197.2-33.7,196.3-33.8,195.6-33.3z M144.3-62.7c-0.1-0.2-0.2-0.3-0.3-0.4
				l16-27.7c0.7,0.3,1.5,0.4,2.3,0l15.3,26.6c-0.3,0.2-0.6,0.5-0.8,0.9c-0.7,1.2-0.3,2.7,0.8,3.4l-15.3,26.6c-0.7-0.3-1.5-0.4-2.3,0
				L144-61C144.4-61.5,144.6-62.2,144.3-62.7z M163.6-92.9h32c0,0.2,0.1,0.3,0.2,0.5c0.3,0.6,1,0.8,1.6,0.5l15.3,26.6
				c-1.1,0.7-1.7,1.9-1.8,3.1h-29.4c-0.1-0.8-0.5-1.6-1.3-2.1c-0.8-0.4-1.7-0.4-2.4-0.1L162.5-91C163.1-91.4,163.6-92.1,163.6-92.9z
				 M249.2-64.3c-0.8,0.4-1.2,1.2-1.3,2.1h-29.4c0-0.6-0.2-1.2-0.5-1.8c-0.3-0.6-0.8-1-1.3-1.3l14.7-25.5c1.2,0.6,2.7,0.2,3.4-1
				c0.2-0.4,0.3-0.7,0.3-1.1h30.7c0,0.4,0.1,0.8,0.3,1.1c0.2,0.4,0.5,0.6,0.8,0.9l-15.3,26.6C250.9-64.7,250-64.7,249.2-64.3z
				 M285.5-61.1l-16,27.7c-0.7-0.3-1.5-0.4-2.3,0L251.9-60c1.1-0.7,1.5-2.2,0.8-3.4c-0.2-0.4-0.5-0.6-0.8-0.9l15.3-26.6
				c0.7,0.3,1.5,0.4,2.3,0l16,27.7c-0.1,0.1-0.2,0.2-0.3,0.4C284.9-62.2,285-61.5,285.5-61.1z M265.9-31.3h-30.7
				c-0.1-0.8-0.5-1.6-1.3-2.1c-0.8-0.4-1.7-0.4-2.4-0.1L216.8-59c1.1-0.7,1.7-1.9,1.8-3.1H248c0,0.4,0.1,0.8,0.3,1.1
				c0.7,1.2,2.2,1.6,3.4,1L267-33.4C266.3-32.8,265.9-32,265.9-31.3z M33.2-61.9c0,0.4,0.1,0.8,0.3,1.1c0.7,1.2,2.2,1.6,3.4,1
				l15.3,26.6c-0.7,0.5-1.1,1.2-1.1,2H20.5c-0.1-0.8-0.5-1.6-1.3-2.1c-0.8-0.4-1.7-0.4-2.4-0.1L1.4-60c0.7-0.5,1.1-1.2,1.1-2
				L33.2-61.9z M38-63.4c-0.2-0.4-0.5-0.6-0.8-0.9l15.3-26.6c0.7,0.3,1.5,0.4,2.3,0L69.2-66c-0.6,0.4-1.1,0.9-1.5,1.6
				c-1.2,2.1-0.5,4.8,1.5,6L54.8-33.5c-0.7-0.3-1.5-0.4-2.3,0L37.2-60C38.3-60.7,38.7-62.2,38-63.4z M51.1-92.9
				c0,0.4,0.1,0.8,0.3,1.1c0.2,0.4,0.5,0.6,0.8,0.9L36.9-64.3c-0.7-0.4-1.6-0.4-2.4,0.1c-0.8,0.4-1.2,1.2-1.3,2.1H2.5
				c0-0.4-0.1-0.8-0.3-1.1c-0.2-0.4-0.5-0.6-0.8-0.9l14.1-24.3c2.4,1.3,5.5,0.5,6.9-2c0.4-0.8,0.7-1.6,0.7-2.4h28V-92.9z M87.6-92.9
				c0,0.3,0.1,0.5,0.2,0.8c0.5,0.9,1.6,1.2,2.5,0.8L106-64.2c-0.7,0.5-1.1,1.2-1.1,2H76.1c-0.1-1.5-0.8-2.9-2.2-3.7
				c-1.4-0.8-3-0.8-4.3-0.1L55.2-90.9c0.7-0.5,1.1-1.2,1.1-2L87.6-92.9L87.6-92.9z M91.1-94c-0.1-0.3-0.3-0.5-0.6-0.6l14.4-24.9
				c1.5,0.8,3.3,0.8,4.8,0l14.1,24.4c-0.3,0.2-0.6,0.5-0.8,0.9c-0.7,1.2-0.3,2.7,0.8,3.4l-15.3,26.6c-0.7-0.3-1.5-0.4-2.3,0
				L90.5-91.3C91.4-92.1,91.6-93.2,91.1-94z M33.2-123.9c0,0.4,0.1,0.8,0.3,1.1c0.7,1.2,2.2,1.6,3.4,1l15.3,26.6
				c-0.7,0.5-1.1,1.2-1.1,2H23c-0.1-1.7-1-3.4-2.6-4.3s-3.5-0.9-5-0.1l-14-24.3c0.7-0.5,1.1-1.2,1.1-2H33.2z M38-125.3
				c-0.2-0.4-0.5-0.6-0.8-0.9l15.3-26.6c0.7,0.3,1.5,0.4,2.3,0l15.3,26.6c-0.3,0.2-0.6,0.5-0.8,0.9c-0.7,1.2-0.3,2.7,0.8,3.4
				L54.8-95.3c-0.7-0.3-1.5-0.4-2.3,0l-15.3-26.6C38.3-122.7,38.7-124.2,38-125.3z M51.1-154.9c0,0.4,0.1,0.8,0.3,1.1
				c0.2,0.4,0.5,0.6,0.8,0.9l-15.3,26.6c-0.7-0.4-1.6-0.4-2.4,0.1c-0.8,0.4-1.2,1.2-1.3,2.1H2.5c0-0.4-0.1-0.8-0.3-1.1
				c-0.2-0.4-0.5-0.6-0.8-0.9l16-27.7c0.6,0.2,1.3,0,1.6-0.5c0.1-0.2,0.1-0.3,0.2-0.5h31.9V-154.9z M88.2-154.9
				c0,0.2,0.1,0.3,0.2,0.5c0.3,0.6,1,0.8,1.6,0.5l14.7,25.5c-1.5,0.9-2.4,2.5-2.4,4.2H74.1c-0.1-0.8-0.5-1.6-1.3-2.1
				c-0.8-0.4-1.7-0.4-2.4-0.1L55.1-153c0.7-0.5,1.1-1.2,1.1-2h32V-154.9z M90.6-155.7c-0.1-0.2-0.2-0.3-0.3-0.4l16-27.7
				c0.7,0.3,1.5,0.4,2.3,0l15.3,26.6c-0.3,0.2-0.6,0.5-0.8,0.9c-0.7,1.2-0.3,2.7,0.8,3.4l-14.1,24.3c-1.5-0.8-3.3-0.8-4.8,0
				L90.2-154C90.7-154.4,90.9-155.1,90.6-155.7z M33.2-185.9c0,0.4,0.1,0.8,0.3,1.1c0.7,1.2,2.2,1.6,3.4,1l15.3,26.6
				c-0.7,0.5-1.1,1.2-1.1,2h-32c0-0.4-0.3-0.7-0.6-0.9c-0.4-0.2-0.8-0.2-1.1-0.1l-16-27.7c0.7-0.5,1.1-1.2,1.1-2L33.2-185.9z
				 M38-187.3c-0.2-0.4-0.5-0.6-0.8-0.9l15.3-26.6c0.7,0.3,1.5,0.4,2.3,0l15.3,26.6c-0.3,0.2-0.6,0.5-0.8,0.9
				c-0.7,1.2-0.3,2.7,0.8,3.4l-15.3,26.6c-0.7-0.3-1.5-0.4-2.3,0l-15.3-26.6C38.3-184.7,38.7-186.2,38-187.3z M51.1-216.9
				c0,0.4,0.1,0.8,0.3,1.1c0.2,0.4,0.5,0.6,0.8,0.9l-15.3,26.6c-0.7-0.4-1.6-0.4-2.4,0.1c-0.8,0.4-1.2,1.2-1.3,2.1H2.5
				c0-0.4-0.1-0.8-0.3-1.1c-0.2-0.4-0.5-0.6-0.8-0.9l14.7-25.5c1.8,0.9,4.1,0.3,5.1-1.5c0.3-0.6,0.5-1.2,0.5-1.8L51.1-216.9
				L51.1-216.9z M88.2-216.9c0,0.2,0.1,0.3,0.2,0.5c0.3,0.6,1,0.8,1.6,0.5l16,27.7c-0.7,0.5-1.1,1.2-1.1,2H74.1
				c-0.1-0.8-0.5-1.6-1.3-2.1c-0.8-0.4-1.7-0.4-2.4-0.1L55.1-215c0.7-0.5,1.1-1.2,1.1-2h32V-216.9z M90.6-217.7
				c-0.1-0.2-0.2-0.3-0.3-0.4l16-27.7c0.7,0.3,1.5,0.4,2.3,0l15.3,26.6c-0.3,0.2-0.6,0.5-0.8,0.9c-0.7,1.2-0.3,2.7,0.8,3.4
				l-15.3,26.6c-0.7-0.3-1.5-0.4-2.3,0l-16-27.7C90.7-216.4,90.9-217.1,90.6-217.7z M33.2-247.9c0,0.4,0.1,0.8,0.3,1.1
				c0.7,1.2,2.2,1.6,3.4,1l15.3,26.6c-0.7,0.5-1.1,1.2-1.1,2H21.7c-0.1-1.3-0.7-2.5-1.9-3.2c-1.2-0.7-2.6-0.7-3.7-0.1L1.4-245.9
				c0.7-0.5,1.1-1.2,1.1-2H33.2z M38-249.3c-0.2-0.4-0.5-0.6-0.8-0.9l15.3-26.6c0.7,0.3,1.5,0.4,2.3,0l15.3,26.6
				c-0.3,0.2-0.6,0.5-0.8,0.9c-0.7,1.2-0.3,2.7,0.8,3.4l-15.3,26.6c-0.7-0.3-1.5-0.4-2.3,0l-15.3-26.6
				C38.3-246.7,38.7-248.1,38-249.3z M51.1-278.9c0,0.4,0.1,0.8,0.3,1.1c0.2,0.4,0.5,0.6,0.8,0.9l-15.3,26.6
				c-0.7-0.4-1.6-0.4-2.4,0.1c-0.8,0.4-1.2,1.2-1.3,2.1H2.5c0-0.4-0.1-0.8-0.3-1.1c-0.2-0.4-0.5-0.6-0.8-0.9l15.3-26.6
				c1.2,0.6,2.7,0.2,3.4-1c0.2-0.4,0.3-0.7,0.3-1.1h30.7V-278.9z M85-278.9c0,0.7,0.2,1.4,0.6,2.1c1.2,2.1,3.9,2.8,6,1.7l14.4,24.9
				c-0.7,0.5-1.1,1.2-1.1,2H74.1c-0.1-0.8-0.5-1.6-1.3-2.1c-0.8-0.4-1.7-0.4-2.4-0.1L55.1-277c0.7-0.5,1.1-1.2,1.1-2H85V-278.9z
				 M93.4-281.3c-0.4-0.7-0.9-1.2-1.5-1.6l14.4-24.9c0.7,0.3,1.5,0.4,2.3,0l15.7,27.1c-0.2,0.2-0.4,0.4-0.6,0.6
				c-0.5,0.9-0.2,2,0.6,2.5l-15.7,27.1c-0.7-0.3-1.5-0.4-2.3,0l-14.4-24.9C93.9-276.5,94.6-279.2,93.4-281.3z M34.5-309.9
				c0,0.2,0.1,0.3,0.2,0.5c0.3,0.6,1,0.8,1.6,0.5l16,27.7c-0.7,0.5-1.1,1.2-1.1,2H20.5c-0.1-0.8-0.5-1.6-1.3-2.1
				c-0.8-0.4-1.7-0.4-2.4-0.1L1.4-307.9c0.7-0.5,1.1-1.2,1.1-2H34.5z M36.9-310.7c-0.1-0.2-0.2-0.3-0.3-0.4l16.3-28.2
				c0.5,0.2,1.1,0.2,1.6,0l15.7,27.1c-0.3,0.2-0.6,0.5-0.8,0.9c-0.7,1.2-0.3,2.7,0.8,3.4l-15.3,26.6c-0.7-0.3-1.5-0.4-2.3,0
				l-16-27.7C37.1-309.4,37.2-310.1,36.9-310.7z M51.8-340.9c0,0.3,0.1,0.5,0.2,0.8c0.1,0.3,0.3,0.5,0.6,0.6l-16.3,28.2
				c-0.4-0.1-0.8-0.1-1.1,0.1c-0.4,0.2-0.6,0.6-0.6,0.9h-32c0-0.4-0.1-0.8-0.3-1.1c-0.2-0.4-0.5-0.6-0.8-0.9l15.3-26.6
				c1.2,0.6,2.7,0.2,3.4-1c0.2-0.4,0.3-0.7,0.3-1.1h31.3V-340.9z M86.9-340.9c0,0.4,0.1,0.8,0.3,1.1c0.7,1.2,2.2,1.6,3.4,1
				l15.3,26.6c-0.7,0.5-1.1,1.2-1.1,2H74.1c-0.1-0.8-0.5-1.6-1.3-2.1c-0.8-0.4-1.7-0.4-2.4-0.1l-15.6-27c0.5-0.3,0.8-0.9,0.8-1.4
				h31.3V-340.9z M91.7-342.3c-0.2-0.4-0.5-0.6-0.8-0.9l15.3-26.6c0.7,0.3,1.5,0.4,2.3,0l14.7,25.5c-0.5,0.3-0.9,0.8-1.3,1.3
				c-1,1.8-0.5,4.1,1.3,5.2l-14.7,25.5c-0.7-0.3-1.5-0.4-2.3,0l-15.3-26.6C92-339.6,92.4-341.1,91.7-342.3z M33.2-371.9
				c0,0.4,0.1,0.8,0.3,1.1c0.7,1.2,2.2,1.6,3.4,1l15.7,27.1c-0.5,0.3-0.8,0.9-0.8,1.4H20.5c-0.1-0.8-0.5-1.6-1.3-2.1
				c-0.8-0.4-1.7-0.4-2.4-0.1L1.4-369.9c0.7-0.5,1.1-1.2,1.1-2H33.2z M38-373.3c-0.2-0.4-0.5-0.6-0.8-0.9l14.1-24.3
				c1.5,0.8,3.3,0.8,4.8,0l14.1,24.3c-0.3,0.2-0.6,0.5-0.8,0.9c-0.7,1.2-0.3,2.7,0.8,3.4l-15.7,27.1c-0.5-0.2-1.1-0.2-1.6,0
				l-15.7-27.1C38.3-370.6,38.7-372.1,38-373.3z M48.6-402.8c0,0.8,0.2,1.6,0.7,2.4c0.4,0.8,1,1.4,1.7,1.8l-14.1,24.3
				c-0.7-0.4-1.6-0.4-2.4,0.1c-0.8,0.4-1.2,1.2-1.3,2.1H2.5c0-0.4-0.1-0.8-0.3-1.1c-0.2-0.4-0.5-0.6-0.8-0.9l16-27.7
				c0.6,0.2,1.3,0,1.6-0.5c0.1-0.2,0.1-0.3,0.2-0.5C19.2-402.8,48.6-402.8,48.6-402.8z M86.9-402.8c0,0.4,0.1,0.8,0.3,1.1
				c0.7,1.2,2.2,1.6,3.4,1l15.3,26.6c-0.7,0.5-1.1,1.2-1.1,2H74.1c-0.1-0.8-0.5-1.6-1.3-2.1c-0.8-0.4-1.7-0.4-2.4-0.1l-14-24.4
				c1.5-0.9,2.4-2.5,2.4-4.2h28.1V-402.8z M91.7-404.3c-0.2-0.4-0.5-0.6-0.8-0.9l15.3-26.6c0.7,0.3,1.5,0.4,2.3,0l16,27.7
				c-0.1,0.1-0.2,0.2-0.3,0.4c-0.3,0.6-0.2,1.3,0.3,1.7l-16,27.7c-0.7-0.3-1.5-0.4-2.3,0l-15.3-26.6C92-401.6,92.4-403.1,91.7-404.3
				z M51-407.4c-1.5,0.9-2.4,2.5-2.4,4.2H19.2c0-0.4-0.3-0.7-0.6-0.9c-0.4-0.2-0.8-0.2-1.1-0.1L1.4-431.9c0.7-0.5,1.1-1.2,1.1-2
				h30.7c0,0.4,0.1,0.8,0.3,1.1c0.7,1.2,2.2,1.6,3.4,1L51-407.4z M104.8-433.8c0,0.4,0.1,0.8,0.3,1.1c0.2,0.4,0.5,0.6,0.8,0.9
				l-15.3,26.5c-0.7-0.4-1.6-0.4-2.4,0.1c-0.8,0.4-1.2,1.2-1.3,2.1H58.8c0-0.8-0.2-1.6-0.7-2.4c-0.4-0.8-1-1.4-1.7-1.8l14-24.4
				c1.2,0.6,2.7,0.2,3.4-1c0.2-0.4,0.3-0.7,0.3-1.1C74.1-433.8,104.8-433.8,104.8-433.8z M159.6-405.1c-0.7,0.5-1.1,1.2-1.1,2h-32
				c0-0.4-0.3-0.7-0.6-0.9c-0.4-0.2-0.8-0.2-1.1-0.1l-16-27.7c0.7-0.5,1.1-1.2,1.1-2h30.7c0,0.4,0.1,0.8,0.3,1.1
				c0.7,1.2,2.2,1.6,3.4,1L159.6-405.1z M212.2-433.8c0,0.4,0.1,0.8,0.3,1.1c0.2,0.4,0.5,0.6,0.8,0.9l-16,27.7
				c-0.4-0.1-0.8-0.1-1.1,0.1c-0.4,0.2-0.6,0.6-0.6,0.9h-32c0-0.4-0.1-0.8-0.3-1.1c-0.2-0.4-0.5-0.6-0.8-0.9l14.1-24.3
				c2.4,1.3,5.5,0.5,6.9-2c0.4-0.8,0.7-1.6,0.7-2.4C184.2-433.8,212.2-433.8,212.2-433.8z M267-405.1c-0.7,0.5-1.1,1.2-1.1,2h-30.7
				c-0.1-0.8-0.5-1.6-1.3-2.1c-0.8-0.4-1.7-0.4-2.4-0.1l-15.4-26.6c0.7-0.5,1.1-1.2,1.1-2h32c0,0.2,0.1,0.3,0.2,0.5
				c0.3,0.6,1,0.8,1.6,0.5L267-405.1z M318.3-433.8c0,0.6,0.2,1.2,0.5,1.8s0.8,1,1.3,1.3l-14.7,25.5c-0.7-0.4-1.6-0.4-2.4,0.1
				c-0.8,0.4-1.2,1.2-1.3,2.1H271c0-0.4-0.1-0.8-0.3-1.1c-0.2-0.4-0.5-0.6-0.8-0.9l15.3-26.6c1.2,0.6,2.7,0.2,3.4-1
				c0.2-0.4,0.3-0.7,0.3-1.1L318.3-433.8L318.3-433.8z M378.3-403.2c0-0.4-0.1-0.8-0.3-1.1c-0.2-0.4-0.5-0.6-0.8-0.9l15.3-26.6
				c1.2,0.6,2.7,0.2,3.4-1c0.2-0.4,0.3-0.7,0.3-1.1h30.7c0,0.4,0.1,0.8,0.3,1.1c0.2,0.4,0.5,0.6,0.8,0.9l-14,24.4
				c-1.5-0.8-3.4-0.8-5,0.1s-2.5,2.6-2.6,4.3L378.3-403.2z M342.5-403.2c-0.1-0.8-0.5-1.6-1.3-2.1c-0.8-0.4-1.7-0.4-2.4-0.1
				l-14.7-25.4c1.1-0.7,1.7-1.9,1.8-3.1h29.4c0,0.4,0.1,0.8,0.3,1.1c0.7,1.2,2.2,1.6,3.4,1l15.3,26.6c-0.7,0.5-1.1,1.2-1.1,2
				C373.2-403.2,342.5-403.2,342.5-403.2z M338.6-400.9l-16,27.7c-0.3-0.1-0.7-0.1-1,0l-16-27.7c1.1-0.7,1.5-2.2,0.8-3.4
				c-0.2-0.4-0.5-0.6-0.8-0.9l14.7-25.5c1.1,0.6,2.4,0.6,3.6,0l14.7,25.5c-0.3,0.2-0.6,0.5-0.8,0.9
				C337.1-403.1,337.4-401.6,338.6-400.9z M394.9-372.2c0-0.4-0.3-0.7-0.6-0.9c-0.4-0.2-0.8-0.2-1.1-0.1l-16-27.7
				c0.7-0.5,1.1-1.2,1.1-2h28.1c0,0.8,0.2,1.6,0.7,2.4c1.4,2.4,4.4,3.3,6.9,2l14,24.4c-0.7,0.5-1.1,1.2-1.1,2h-32V-372.2z
				 M392.9-371l-15,26c-1.3-0.7-2.8-0.7-4.2,0l-14.4-24.9c1.1-0.7,1.5-2.2,0.8-3.4c-0.2-0.4-0.5-0.6-0.8-0.9l15.3-26.6
				c0.7,0.3,1.5,0.4,2.3,0l16,27.7c-0.1,0.1-0.2,0.2-0.3,0.4C392.2-372.1,392.4-371.4,392.9-371z M380.3-341.2
				c0-0.7-0.2-1.4-0.6-2.1c-0.4-0.7-0.9-1.2-1.5-1.6l15-26c0.6,0.2,1.3,0,1.6-0.5c0.1-0.2,0.1-0.3,0.2-0.5h32c0,0.4,0.1,0.8,0.3,1.1
				c0.2,0.4,0.5,0.6,0.8,0.9l-15.3,26.6c-0.7-0.4-1.6-0.4-2.4,0.1c-0.8,0.4-1.2,1.2-1.3,2.1L380.3-341.2z M342.5-341.2
				c-0.1-0.8-0.5-1.6-1.3-2.1c-0.8-0.4-1.7-0.4-2.4-0.1l-16-27.7c0.3-0.2,0.4-0.5,0.5-0.9h32c0,0.4,0.1,0.8,0.3,1.1
				c0.7,1.2,2.2,1.6,3.4,1l14.4,24.9c-1.3,0.8-2,2.2-2.1,3.6h-28.8V-341.2z M338.6-338.9l-15.7,27.1c-0.5-0.2-1.1-0.2-1.6,0
				l-15.7-27.1c1.1-0.7,1.5-2.2,0.8-3.4c-0.2-0.4-0.5-0.6-0.8-0.9l16-27.7c0.3,0.1,0.7,0.1,1,0l16,27.7c-0.3,0.2-0.6,0.5-0.8,0.9
				C337.1-341.1,337.4-339.6,338.6-338.9z M396.2-310.2c-0.1-0.8-0.5-1.6-1.3-2.1c-0.8-0.4-1.7-0.4-2.4-0.1l-14.4-24.9
				c1.3-0.8,2-2.2,2.1-3.6H409c0,0.4,0.1,0.8,0.3,1.1c0.7,1.2,2.2,1.6,3.4,1l15.3,26.6c-0.7,0.5-1.1,1.2-1.1,2H396.2z M392.2-307.9
				l-16,27.7c-0.3-0.1-0.7-0.1-1,0l-16-27.7c1.1-0.7,1.5-2.2,0.8-3.4c-0.2-0.4-0.5-0.6-0.8-0.9l14.4-24.9c1.3,0.7,2.8,0.7,4.2,0
				l14.4,24.9c-0.3,0.2-0.6,0.5-0.8,0.9C390.8-310.1,391.1-308.6,392.2-307.9z M377-279.2c0-0.2-0.1-0.3-0.2-0.5
				c-0.1-0.2-0.2-0.3-0.3-0.4l16-27.7c1.2,0.6,2.7,0.2,3.4-1c0.2-0.4,0.3-0.7,0.3-1.1h30.7c0,0.4,0.1,0.8,0.3,1.1
				c0.2,0.4,0.5,0.6,0.8,0.9l-15.3,26.6c-0.7-0.4-1.6-0.4-2.4,0.1c-0.8,0.4-1.2,1.2-1.3,2.1L377-279.2z M342.5-279.2
				c-0.1-0.8-0.5-1.6-1.3-2.1c-0.8-0.4-1.7-0.4-2.4-0.1l-15.7-27.1c0.5-0.3,0.8-0.9,0.8-1.4h31.3c0,0.4,0.1,0.8,0.3,1.1
				c0.7,1.2,2.2,1.6,3.4,1l16,27.7c-0.3,0.2-0.4,0.5-0.5,0.9H342.5L342.5-279.2z M338.6-276.9l-16,27.7c-0.3-0.1-0.7-0.1-1,0
				l-16.3-28.2c0.8-0.6,1.1-1.7,0.6-2.5c-0.1-0.3-0.3-0.5-0.6-0.6l16-27.7c0.5,0.2,1.1,0.2,1.6,0l15.7,27.1
				c-0.3,0.2-0.6,0.5-0.8,0.9C337.1-279.1,337.4-277.6,338.6-276.9z M396.2-248.2c-0.1-0.8-0.5-1.6-1.3-2.1
				c-0.8-0.4-1.7-0.4-2.4-0.1l-16-27.7c0.3-0.2,0.4-0.5,0.5-0.9h32c0,0.4,0.1,0.8,0.3,1.1c0.7,1.2,2.2,1.6,3.4,1l15.3,26.6
				c-0.7,0.5-1.1,1.2-1.1,2L396.2-248.2L396.2-248.2z M392.2-245.9l-15.3,26.6c-0.7-0.3-1.5-0.4-2.3,0l-14.1-24.4
				c2.3-1.5,3.1-4.5,1.7-6.9c-0.4-0.8-1-1.4-1.7-1.8l14.7-25.5c0.3,0.1,0.7,0.1,1,0l16,27.7c-0.3,0.2-0.6,0.5-0.8,0.9
				C390.8-248.1,391.1-246.7,392.2-245.9z M378.3-217.2c0-0.4-0.1-0.8-0.3-1.1c-0.2-0.4-0.5-0.6-0.8-0.9l15.3-26.6
				c1.2,0.6,2.7,0.2,3.4-1c0.2-0.4,0.3-0.7,0.3-1.1h30.7c0,0.4,0.1,0.8,0.3,1.1c0.2,0.4,0.5,0.6,0.8,0.9l-15.3,26.6
				c-0.7-0.4-1.6-0.4-2.4,0.1c-0.8,0.4-1.2,1.2-1.3,2.1L378.3-217.2z M342.5-217.2c-0.1-0.8-0.5-1.6-1.3-2.1
				c-0.8-0.4-1.7-0.4-2.4-0.1l-16-27.7c0.3-0.2,0.4-0.5,0.5-0.9h29.4c0,0.8,0.2,1.6,0.7,2.4c1.4,2.4,4.4,3.3,6.9,1.9l14.1,24.4
				c-0.7,0.5-1.1,1.2-1.1,2h-30.8V-217.2z M338.6-214.9l-15.3,26.6c-0.7-0.3-1.5-0.4-2.3,0l-15.3-26.6c1.1-0.7,1.5-2.2,0.8-3.4
				c-0.2-0.4-0.5-0.6-0.8-0.9l16-27.7c0.3,0.1,0.7,0.1,1,0l16,27.7c-0.3,0.2-0.6,0.5-0.8,0.9C337.1-217.1,337.4-215.7,338.6-214.9z
				 M397.5-186.2c-0.1-1.3-0.7-2.5-1.9-3.2c-1.2-0.7-2.6-0.7-3.7-0.1L377.2-215c0.7-0.5,1.1-1.2,1.1-2H409c0,0.4,0.1,0.8,0.3,1.1
				c0.7,1.2,2.2,1.6,3.4,1l15.3,26.6c-0.7,0.5-1.1,1.2-1.1,2L397.5-186.2L397.5-186.2z M391.6-182.8l-15.3,26.6
				c-0.3-0.1-0.7-0.1-1,0l-16-27.7c1.1-0.7,1.5-2.2,0.8-3.4c-0.2-0.4-0.5-0.6-0.8-0.9l15.3-26.6c0.7,0.3,1.5,0.4,2.3,0l14.7,25.5
				c-0.5,0.3-0.9,0.8-1.3,1.3C389.3-186.2,389.9-183.9,391.6-182.8z M377-155.2c0-0.2-0.1-0.3-0.2-0.5s-0.2-0.3-0.3-0.4l15.3-26.6
				c1.8,0.9,4.1,0.3,5.1-1.5c0.3-0.6,0.5-1.2,0.5-1.8h29.4c0,0.4,0.1,0.8,0.3,1.1c0.2,0.4,0.5,0.6,0.8,0.9l-16,27.7
				c-0.4-0.1-0.8-0.1-1.1,0.1c-0.4,0.2-0.6,0.6-0.6,0.9L377-155.2z M342.5-155.2c-0.1-0.8-0.5-1.6-1.3-2.1c-0.8-0.4-1.7-0.4-2.4-0.1
				L323.5-184c0.7-0.5,1.1-1.2,1.1-2h30.7c0,0.4,0.1,0.8,0.3,1.1c0.7,1.2,2.2,1.6,3.4,1l16,27.7c-0.3,0.2-0.4,0.5-0.5,0.9h-32
				V-155.2z M338.6-152.9l-15.3,26.6c-0.7-0.3-1.5-0.4-2.3,0l-15.3-26.6c1.1-0.7,1.5-2.2,0.8-3.4c-0.2-0.4-0.5-0.6-0.8-0.9
				l15.3-26.6c0.7,0.3,1.5,0.4,2.3,0l15.3,26.6c-0.3,0.2-0.6,0.5-0.8,0.9C337.1-155.2,337.4-153.7,338.6-152.9z M395.6-124.2
				c-0.1-0.6-0.4-1.2-1-1.5s-1.2-0.3-1.8-0.1L376.5-154c0.3-0.2,0.4-0.5,0.5-0.9h33.3c0,0.2,0.1,0.3,0.2,0.5c0.3,0.6,1,0.8,1.6,0.5
				l16,27.7c-0.7,0.5-1.1,1.2-1.1,2L395.6-124.2L395.6-124.2z M392.6-122.5l-15,26c-1.1-0.6-2.4-0.6-3.6,0L359.3-122
				c1.1-0.7,1.5-2.2,0.8-3.4c-0.2-0.4-0.5-0.6-0.8-0.9l16-27.7c0.3,0.1,0.7,0.1,1,0l16.3,28.2c-0.2,0.2-0.4,0.4-0.6,0.6
				C391.5-124.2,391.8-123.1,392.6-122.5z M379.6-93.2c0-0.6-0.2-1.2-0.5-1.8c-0.3-0.6-0.8-1-1.3-1.3l15-26c0.9,0.4,2,0.1,2.5-0.8
				c0.1-0.3,0.2-0.5,0.2-0.8h31.3c0,0.4,0.1,0.8,0.3,1.1c0.2,0.4,0.5,0.6,0.8,0.9l-15.3,26.6c-0.7-0.4-1.6-0.4-2.4,0.1
				c-0.8,0.4-1.2,1.2-1.3,2.1L379.6-93.2z M341.2-93.2c0-0.4-0.3-0.7-0.6-0.9c-0.4-0.2-0.8-0.2-1.1-0.1l-16-27.7
				c0.7-0.5,1.1-1.2,1.1-2h30.7c0,0.4,0.1,0.8,0.3,1.1c0.7,1.2,2.2,1.6,3.4,1l14.7,25.5c-1.1,0.7-1.7,1.9-1.8,3.1H341.2z
				 M339.2-92.1l-16,27.7c-0.7-0.3-1.5-0.4-2.3,0L305.6-91c1.1-0.7,1.5-2.2,0.8-3.4c-0.2-0.4-0.5-0.6-0.8-0.9l15.3-26.6
				c0.7,0.3,1.5,0.4,2.3,0l16,27.7c-0.1,0.1-0.2,0.2-0.3,0.4C338.5-93.1,338.7-92.4,339.2-92.1z M396.2-62.2
				c-0.1-0.8-0.5-1.6-1.3-2.1c-0.8-0.4-1.7-0.4-2.4-0.1l-14.7-25.5c1.1-0.7,1.7-1.9,1.8-3.1H409c0,0.4,0.1,0.8,0.3,1.1
				c0.7,1.2,2.2,1.6,3.4,1L428-64.3c-0.7,0.5-1.1,1.2-1.1,2h-30.7V-62.2z M392.2-59.9L377.9-35c-1.3-0.7-2.8-0.7-4.2,0l-14.4-24.9
				c1.1-0.7,1.5-2.2,0.8-3.4c-0.2-0.4-0.5-0.6-0.8-0.9L374-89.7c1.1,0.6,2.4,0.6,3.6,0l14.7,25.5c-0.3,0.2-0.6,0.5-0.8,0.9
				C390.8-62.2,391.1-60.7,392.2-59.9z M380.3-31.2c0-0.7-0.2-1.4-0.6-2.1s-0.9-1.2-1.5-1.6l14.4-24.9c1.2,0.6,2.7,0.2,3.4-1
				c0.2-0.4,0.3-0.7,0.3-1.1H427c0,0.4,0.1,0.8,0.3,1.1c0.2,0.4,0.5,0.6,0.8,0.9l-15.3,26.6c-0.7-0.4-1.6-0.4-2.4,0.1
				c-0.8,0.4-1.2,1.2-1.3,2.1L380.3-31.2z M341.9-31.2c-0.1-0.6-0.4-1.2-1-1.5s-1.2-0.3-1.8-0.1L323.5-60c0.7-0.5,1.1-1.2,1.1-2
				h30.7c0,0.4,0.1,0.8,0.3,1.1c0.7,1.2,2.2,1.6,3.4,1L373.4-35c-1.3,0.8-2,2.2-2.1,3.6h-29.4V-31.2z M338.9-29.5l-15,26
				c-1.1-0.6-2.4-0.6-3.6,0L305.6-29c1.1-0.7,1.5-2.2,0.8-3.4c-0.2-0.4-0.5-0.6-0.8-0.9l15.3-26.6c0.7,0.3,1.5,0.4,2.3,0l15.7,27.1
				c-0.2,0.2-0.4,0.4-0.6,0.6C337.8-31.2,338.1-30.1,338.9-29.5z M378.1-27.3c1.3-0.8,2-2.2,2.1-3.6H409c0,0.4,0.1,0.8,0.3,1.1
				c0.7,1.2,2.2,1.6,3.4,1L428-2.2c-0.7,0.5-1.1,1.2-1.1,2h-30.7c-0.1-0.8-0.5-1.6-1.3-2.1c-0.8-0.4-1.7-0.4-2.4-0.1L378.1-27.3z
				 M325.9-0.3c0-0.6-0.2-1.2-0.5-1.8c-0.3-0.6-0.8-1-1.3-1.3l15-26c0.9,0.4,2,0.1,2.5-0.8c0.1-0.3,0.2-0.5,0.2-0.8h29.4
				c0,0.7,0.2,1.4,0.6,2.1s0.9,1.2,1.5,1.6L359-2.4c-0.7-0.4-1.6-0.4-2.4,0.1c-0.8,0.4-1.2,1.2-1.3,2.1h-29.4V-0.3z M269.8-29
				c0.7-0.5,1.1-1.2,1.1-2h30.7c0,0.4,0.1,0.8,0.3,1.1c0.7,1.2,2.2,1.6,3.4,1L320-3.4c-1.1,0.7-1.7,1.9-1.8,3.1h-29.4
				c-0.1-0.8-0.5-1.6-1.3-2.1c-0.8-0.4-1.7-0.4-2.4-0.1L269.8-29z M217.3-0.3c0-0.4-0.1-0.8-0.3-1.1c-0.2-0.4-0.5-0.6-0.8-0.9
				l15.3-26.6c1.2,0.6,2.7,0.2,3.4-1c0.2-0.4,0.3-0.7,0.3-1.1h30.7c0,0.4,0.1,0.8,0.3,1.1c0.2,0.4,0.5,0.6,0.8,0.9L251-1.3
				c-0.4-0.1-0.8-0.1-1.1,0.1c-0.4,0.2-0.6,0.6-0.6,0.9H217.3z M162.5-29c0.7-0.5,1.1-1.2,1.1-2h30.7c0,0.4,0.1,0.8,0.3,1.1
				c0.7,1.2,2.2,1.6,3.4,1l15.3,26.6c-0.7,0.5-1.1,1.2-1.1,2h-28.1c-0.1-1.7-1-3.4-2.6-4.3s-3.5-0.9-5-0.1L162.5-29z M109.9-0.3
				c0-0.4-0.1-0.8-0.3-1.1c-0.2-0.4-0.5-0.6-0.8-0.9l15.7-27.1c0.9,0.4,2,0.1,2.5-0.8c0.1-0.3,0.2-0.5,0.2-0.8h31.3
				c0,0.4,0.1,0.8,0.3,1.1c0.2,0.4,0.5,0.6,0.8,0.9L144.3-2.4c-0.7-0.4-1.6-0.4-2.4,0.1c-0.8,0.4-1.2,1.2-1.3,2.1h-30.7V-0.3z
				 M55.1-29c0.7-0.5,1.1-1.2,1.1-2h30.7c0,0.4,0.1,0.8,0.3,1.1c0.7,1.2,2.2,1.6,3.4,1l15.3,26.6c-0.7,0.5-1.1,1.2-1.1,2H74.1
				c-0.1-0.8-0.5-1.6-1.3-2.1c-0.8-0.4-1.7-0.4-2.4-0.1L55.1-29z M34.5-2.3c-0.8,0.4-1.2,1.2-1.3,2.1H2.5c0-0.4-0.1-0.8-0.3-1.1
				C2-1.7,1.7-1.9,1.4-2.2l15.3-26.6c1.2,0.6,2.7,0.2,3.4-1c0.2-0.4,0.3-0.7,0.3-1.1h30.7c0,0.4,0.1,0.8,0.3,1.1
				c0.2,0.4,0.5,0.6,0.8,0.9L36.9-2.3C36.2-2.8,35.3-2.8,34.5-2.3z"/>
		</g>
	</g>
</pattern>
<rect fill="#CA6128" width="1440" height="810"/>
<pattern  id="SVGID_1_" xlink:href="#New_Pattern" patternTransform="matrix(1 0 0 -1 0 -18495.9004)">
</pattern>
<rect opacity="0.1" fill="url(#SVGID_1_)" enable-background="new    " width="1440" height="810"/>
<g>
	<g>
		<g>
			<g>
				<path fill="#F8F9F7" d="M1383.2,61.1l6.5-6.6c0.3-0.3,0.4-0.8,0.1-1.1c-0.1-0.4-0.6-0.7-1-0.7c-0.3,0-0.6,0.1-0.7,0.3l-6.5,6.5
					l-6.6-6.6c-0.1-0.1-0.4-0.3-0.7-0.3c-0.4,0-0.8,0.3-1,0.7c-0.1,0.4-0.1,0.8,0.3,1.1l6.6,6.6l-6.5,6.5c-0.3,0.3-0.4,0.8-0.3,1.1
					c0.1,0.4,0.6,0.7,1,0.7c0.3,0,0.6-0.1,0.7-0.3l6.5-6.5l6.6,6.1c0.1,0.1,0.4,0.3,0.7,0.3c0.4,0,0.8-0.3,1-0.7
					c0.1-0.4,0.1-0.8-0.3-1.3L1383.2,61.1z"/>
				<path fill="#F8F9F7" d="M1374.4,70c-0.6,0-1.3-0.4-1.4-1c-0.3-0.6-0.1-1.3,0.4-1.7l6.1-6.2l-6.2-6.4c-0.4-0.4-0.6-1.1-0.3-1.7
					c0.3-0.6,0.8-1,1.4-1c0.4,0,0.8,0.1,1.1,0.4l6.2,6.2l6.1-6.2c0.3-0.3,0.7-0.4,1.1-0.4c0.6,0,1.3,0.4,1.4,1
					c0.3,0.6,0.1,1.3-0.3,1.7l-6.2,6.2l6.2,5.7c0.4,0.6,0.6,1.1,0.3,1.8c-0.3,0.6-0.8,1-1.4,1c-0.4,0-0.8-0.1-1.1-0.4l-6.2-5.8
					l-6.2,6.2C1375.2,69.8,1374.8,70,1374.4,70z M1374.4,53.2c-0.3,0-0.4,0.1-0.6,0.4c-0.1,0.3,0,0.4,0.1,0.7l6.9,7.1l-6.8,6.9
					c-0.1,0.1-0.3,0.4-0.1,0.7c0.1,0.4,0.7,0.4,1,0.1l6.8-6.9l6.9,6.4c0.3,0.3,0.8,0.1,1-0.1c0.1-0.3,0-0.4-0.1-0.7l-6.9-6.4
					l6.9-6.9c0.1-0.1,0.1-0.4,0.1-0.6c-0.1-0.4-0.7-0.4-1-0.1l-6.8,6.9l-6.9-6.9C1374.7,53.2,1374.5,53.2,1374.4,53.2z"/>
			</g>
		</g>
		<g>
			<g>
				<g>
					<circle fill="#F8F9F7" cx="1405.8" cy="56.7" r="4.2"/>
				</g>
				<g>
					<circle fill="#F8F9F7" cx="1388.4" cy="36.2" r="4.2"/>
				</g>
				<g>
					<circle fill="#F8F9F7" cx="1377.1" cy="33.2" r="3.2"/>
				</g>
				<g>
					<circle fill="#F8F9F7" cx="1404.3" cy="67.6" r="3"/>
				</g>
				<g>
					<circle fill="#F8F9F7" cx="1396.6" cy="71.8" r="1.8"/>
				</g>
				<g>
					<circle fill="#F8F9F7" cx="1370" cy="38.2" r="2"/>
				</g>
				<g>
					<circle fill="#F8F9F7" cx="1369.3" cy="46" r="1.6"/>
				</g>
				<g>
					<path fill="#F8F9F7" d="M1393.8,45.1c0.1,3,2.5,5.2,5.5,5.2c3-0.1,5.2-2.5,5.2-5.5c0-3-2.5-5.2-5.5-5.2
						C1395.9,39.7,1393.6,42.2,1393.8,45.1z"/>
				</g>
			</g>
		</g>
		<g>
			<g>
				<g>
					<circle fill="#F8F9F7" cx="1404.3" cy="67.6" r="3"/>
				</g>
				<g>
					<circle fill="#F8F9F7" cx="1396.6" cy="71.8" r="1.8"/>
				</g>
				<g>
					<circle fill="#F8F9F7" cx="1370" cy="38.2" r="2"/>
				</g>
				<g>
					<circle fill="#F8F9F7" cx="1369.3" cy="46" r="1.6"/>
				</g>
			</g>
		</g>
		<g>
			<g>
				<path fill="#F8F9F7" d="M1212.2,52.7h-11.4c-0.7,0-1.4,0.6-1.4,1.4v14c0,0.8,0.6,1.4,1.4,1.4h11.6c2,0,4-1.8,4-3.8v-9
					C1216,54.6,1214.2,52.7,1212.2,52.7z M1212.2,67.3c-2,0-3.8,0-5.8,0h-0.6c-1.4,0-3,0-4.4,0V54.9h10.7c0.8,0,1.7,0.8,1.7,1.7v9
					C1213.9,66.5,1213,67.3,1212.2,67.3z"/>
				<path fill="#F8F9F7" d="M1212.2,70h-11.6c-1,0-1.8-0.8-1.8-2V54c0-1.1,0.8-2,1.8-2h11.4c2.3,0,4.4,2.1,4.4,4.4v9
					C1216.6,68,1214.4,70,1212.2,70z M1200.6,53.2c-0.6,0-0.8,0.4-0.8,0.8v14c0,0.6,0.4,0.8,0.8,0.8h11.6c1.8,0,3.4-1.6,3.4-3.4v-9
					c0-1.7-1.7-3.4-3.4-3.4h-11.6V53.2z M1200.9,67.9V54.4h11.2c1.1,0,2.3,1.1,2.3,2.3v9c0,1.1-1.1,2.1-2.3,2.1c-2,0-3.8,0-5.8,0
					h-0.6c-1.4,0-3,0-4.4,0H1200.9z M1201.9,55.4v11.4c1.3,0,2.7,0,4,0h0.6c2,0,3.8,0,5.8,0c0.6,0,1.1-0.6,1.1-1.1v-9
					c0-0.6-0.7-1.3-1.3-1.3C1212,55.4,1201.9,55.4,1201.9,55.4z"/>
			</g>
			<g>
				<path fill="#F8F9F7" d="M1238.2,52.7h-8.6c-2.3,0-4.1,1.7-4.1,4v11.9c0,0.6,0.4,1.1,1.1,1.1c0.6,0,1.1-0.4,1.1-1.1v-5.8h12.6
					v5.8c0,0.6,0.4,1.1,1.1,1.1c0.6,0,1.1-0.4,1.1-1.1V56.7C1242.4,54.2,1240.2,52.7,1238.2,52.7z M1240.2,56.6v4h-12.6v-4
					c0-1.1,1-1.7,2-1.7h8.6C1239.2,54.9,1240.2,55.6,1240.2,56.6z"/>
				<path fill="#F8F9F7" d="M1241.3,70.1c-0.8,0-1.6-0.7-1.6-1.6v-5.4h-11.6v5.4c0,0.8-0.7,1.6-1.6,1.6c-0.8,0-1.6-0.7-1.6-1.6V56.7
					c0-2.4,2.1-4.4,4.7-4.4h8.6c2.3,0,4.7,1.7,4.7,4.4v11.9C1242.8,69.4,1242.1,70.1,1241.3,70.1z M1227.2,62.2h13.6v6.4
					c0,0.3,0.3,0.6,0.6,0.6c0.3,0,0.6-0.3,0.6-0.6V56.7c0-2.1-1.8-3.4-3.7-3.4h-8.6c-2,0-3.7,1.6-3.7,3.4v11.9
					c0,0.3,0.3,0.6,0.6,0.6c0.3,0,0.6-0.3,0.6-0.6v-6.4H1227.2z M1240.7,61.1h-13.6v-4.5c0-1.4,1.3-2.3,2.5-2.3h8.6
					c1.3,0,2.5,0.8,2.5,2.3v4.5H1240.7z M1228.1,60.1h11.6v-3.5c0-0.7-0.8-1.3-1.6-1.3h-8.6c-0.7,0-1.6,0.4-1.6,1.3v3.5H1228.1z"/>
			</g>
			<g>
				<path fill="#F8F9F7" d="M1263.6,52.7h-12.4c-0.6,0-1.1,0.4-1.1,1.1c0,0.6,0.4,1.1,1.1,1.1h5.1c0,1.7,0,4.1,0,6.4v1.7
					c0,2.1,0,4.1,0,5.5c0,0.6,0.4,1.1,1.1,1.1c0.6,0,1.1-0.4,1.1-1.1V54.9h5.1c0.6,0,1.1-0.4,1.1-1.1
					C1264.7,53.2,1264.3,52.7,1263.6,52.7z"/>
				<path fill="#F8F9F7" d="M1257.5,70.1c-0.8,0-1.6-0.7-1.6-1.6c0-1.4,0-3.4,0-5.5V60c0-1.7,0-3.3,0-4.5h-4.7
					c-0.8,0-1.6-0.7-1.6-1.6s0.7-1.6,1.6-1.6h12.4c0.8,0,1.6,0.7,1.6,1.6s-0.7,1.6-1.6,1.6h-4.5v13.1
					C1259.1,69.4,1258.4,70.1,1257.5,70.1z M1251.3,53.2c-0.3,0-0.6,0.3-0.6,0.6c0,0.3,0.3,0.6,0.6,0.6h5.7v0.6c0,1.4,0,3.1,0,4.9
					v3.1c0,2.1,0,4.1,0,5.5c0,0.3,0.3,0.6,0.6,0.6c0.3,0,0.6-0.3,0.6-0.6V54.3h5.7c0.3,0,0.6-0.3,0.6-0.6c0-0.3-0.3-0.6-0.6-0.6
					H1251.3z"/>
			</g>
			<g>
				<path fill="#F8F9F7" d="M1285.8,52.7h-8.6c-2.3,0-4.1,1.7-4.1,4v11.9c0,0.6,0.4,1.1,1.1,1.1c0.6,0,1.1-0.4,1.1-1.1v-5.8h12.6
					v5.8c0,0.6,0.4,1.1,1.1,1.1c0.6,0,1.1-0.4,1.1-1.1V56.7C1290,54.2,1287.9,52.7,1285.8,52.7z M1287.8,56.6v4h-12.6v-4
					c0-1.1,1-1.7,2-1.7h8.6C1286.8,54.9,1287.8,55.6,1287.8,56.6z"/>
				<path fill="#F8F9F7" d="M1288.9,70.1c-0.8,0-1.6-0.7-1.6-1.6v-5.4h-11.6v5.4c0,0.8-0.7,1.6-1.6,1.6s-1.6-0.7-1.6-1.6V56.7
					c0-2.4,2.1-4.4,4.7-4.4h8.6c2.3,0,4.7,1.7,4.7,4.4v11.9C1290.5,69.4,1289.7,70.1,1288.9,70.1z M1274.8,62.2h13.6v6.4
					c0,0.3,0.3,0.6,0.6,0.6c0.3,0,0.6-0.3,0.6-0.6V56.7c0-2.1-1.8-3.4-3.7-3.4h-8.6c-2,0-3.7,1.6-3.7,3.4v11.9
					c0,0.3,0.3,0.6,0.6,0.6c0.3,0,0.6-0.3,0.6-0.6v-6.4H1274.8z M1288.3,61.1h-13.6v-4.5c0-1.4,1.3-2.3,2.5-2.3h8.6
					c1.3,0,2.5,0.8,2.5,2.3v4.5H1288.3z M1275.8,60.1h11.6v-3.5c0-0.7-0.8-1.3-1.6-1.3h-8.6c-0.7,0-1.6,0.4-1.6,1.3v3.5H1275.8z"/>
			</g>
			<g>
				<path fill="#F8F9F7" d="M1312.6,60.1h-9.5c-1.1,0-1.7-1.4-1.7-2.7c0-1.3,0.6-2.5,1.7-2.5h10.3c0.6,0,1.1-0.4,1.1-1.1
					c0-0.6-0.4-1.1-1.1-1.1h-10.3c-2.5,0-3.8,2.4-3.8,4.8c0,2.3,1.3,4.8,4,4.8h9.3c1.1,0,1.7,1.4,1.7,2.7c0,1.3-0.6,2.5-1.7,2.5h-12
					c-0.6,0-1.1,0.4-1.1,1.1c0,0.6,0.4,1.1,1.1,1.1h11.9c2.7,0,3.8-2.4,3.8-4.8C1316.5,62.4,1315.2,60.1,1312.6,60.1z"/>
				<path fill="#F8F9F7" d="M1312.6,70h-11.9c-0.8,0-1.6-0.7-1.6-1.6c0-0.8,0.7-1.6,1.6-1.6h12c0.8,0,1.1-1.1,1.1-2
					c0-0.8-0.3-2.1-1.3-2.1h-9.3c-3,0-4.4-2.7-4.4-5.2c0-2.7,1.6-5.2,4.4-5.2h10.3c0.8,0,1.6,0.7,1.6,1.6s-0.7,1.6-1.6,1.6h-10.3
					c-0.8,0-1.1,1.3-1.1,2.1s0.3,2.1,1.1,2.1h9.5c2.8,0,4.2,2.7,4.2,5.2C1316.9,67.3,1315.6,70,1312.6,70z M1300.6,67.9
					c-0.3,0-0.6,0.3-0.6,0.6c0,0.3,0.3,0.6,0.6,0.6h11.9c2.3,0,3.4-2.3,3.4-4.2c0-2.1-1.1-4.2-3.3-4.2h-9.5c-1.6,0-2.3-1.6-2.3-3.1
					c0-1.4,0.7-3.1,2.1-3.1h10.3c0.3,0,0.6-0.3,0.6-0.6c0-0.3-0.3-0.6-0.6-0.6H1303c-2.1,0-3.4,2.1-3.4,4.2c0,2.1,1.1,4.2,3.4,4.2
					h9.3c1.6,0,2.3,1.7,2.3,3.1c0,1.4-0.7,3-2.1,3h-11.9V67.9z"/>
			</g>
			<g>
				<path fill="#F8F9F7" d="M1337.8,52.7h-13.4c-0.6,0-1.1,0.4-1.1,1.1c0,0.6,0.4,1.1,1.1,1.1h6.2c0,1.7,0,4.1,0,6.4
					c0,2.8,0,5.5,0,7.2c0,0.6,0.4,1.1,1.1,1.1c0.6,0,1.1-0.4,1.1-1.1V54.9h5.1c0.6,0,1.1-0.4,1.1-1.1
					C1338.8,53.2,1338.4,52.7,1337.8,52.7z"/>
				<path fill="#F8F9F7" d="M1331.6,70.1c-0.8,0-1.6-0.7-1.6-1.6c0-1.7,0-4.5,0-7.2v-5.9h-5.7c-0.8,0-1.6-0.7-1.6-1.6
					s0.7-1.6,1.6-1.6h13.4c0.8,0,1.6,0.7,1.6,1.6s-0.7,1.6-1.6,1.6h-4.5v13.1C1333.1,69.4,1332.4,70.1,1331.6,70.1z M1324.2,53.2
					c-0.3,0-0.6,0.3-0.6,0.6c0,0.3,0.3,0.6,0.6,0.6h6.6v6.9c0,2.8,0,5.5,0,7.2c0,0.3,0.3,0.6,0.6,0.6c0.3,0,0.6-0.3,0.6-0.6V54.3
					h5.7c0.3,0,0.6-0.3,0.6-0.6c0-0.3-0.3-0.6-0.6-0.6H1324.2z"/>
			</g>
			<g>
				<path fill="#F8F9F7" d="M1360,52.7h-8.6c-2.3,0-4.1,1.7-4.1,4v11.9c0,0.6,0.4,1.1,1.1,1.1c0.6,0,1.1-0.4,1.1-1.1v-5.8h12.6v5.8
					c0,0.6,0.4,1.1,1.1,1.1c0.6,0,1.1-0.4,1.1-1.1V56.7C1364.1,54.2,1362,52.7,1360,52.7z M1362,56.6v4h-12.6v-4c0-1.1,1-1.7,2-1.7
					h8.6C1360.8,54.9,1362,55.6,1362,56.6z"/>
				<path fill="#F8F9F7" d="M1362.9,70.1c-0.8,0-1.6-0.7-1.6-1.6v-5.4h-11.6v5.4c0,0.8-0.7,1.6-1.6,1.6s-1.6-0.7-1.6-1.6V56.7
					c0-2.4,2.1-4.4,4.7-4.4h8.6c2.3,0,4.7,1.7,4.7,4.4v11.9C1364.6,69.4,1363.9,70.1,1362.9,70.1z M1348.8,62.2h13.6v6.4
					c0,0.3,0.3,0.6,0.6,0.6c0.3,0,0.6-0.3,0.6-0.6V56.7c0-2.1-1.8-3.4-3.7-3.4h-8.6c-2,0-3.7,1.6-3.7,3.4v11.9
					c0,0.3,0.3,0.6,0.6,0.6c0.3,0,0.6-0.3,0.6-0.6v-6.4H1348.8z M1362.4,61.1h-13.6v-4.5c0-1.4,1.3-2.3,2.5-2.3h8.6
					c1.3,0,2.5,0.8,2.5,2.3v4.5H1362.4z M1349.8,60.1h11.6v-3.5c0-0.7-0.8-1.3-1.6-1.3h-8.6c-0.7,0-1.6,0.4-1.6,1.3v3.5H1349.8z"/>
			</g>
		</g>
	</g>
	<g>
		<path fill="#F8F9F7" d="M1205.7,81l5.4,13.6h-1.4l-1.7-4.2h-6.2l-1.7,4.2h-1.4l5.5-13.6H1205.7z M1207.5,89.2l-2.7-6.9l-2.7,6.9
			H1207.5z"/>
		<path fill="#F8F9F7" d="M1238.7,83.7c-0.3-0.4-0.6-0.7-1-1c-0.4-0.3-0.8-0.4-1.3-0.7c-0.4-0.1-1-0.3-1.4-0.3
			c-0.8,0-1.7,0.1-2.3,0.6c-0.7,0.3-1.1,0.8-1.6,1.4c-0.4,0.6-0.7,1.3-0.8,2s-0.3,1.4-0.3,2.1c0,0.7,0.1,1.4,0.3,2.1s0.6,1.4,0.8,2
			c0.4,0.6,1,1,1.6,1.4c0.7,0.3,1.4,0.6,2.3,0.6c0.6,0,1.3-0.1,1.7-0.3c0.6-0.3,1-0.6,1.3-1c0.4-0.4,0.7-0.8,0.8-1.4
			c0.3-0.6,0.4-1.1,0.4-1.7h1.3c-0.1,0.8-0.3,1.6-0.6,2.3c-0.3,0.7-0.7,1.3-1.1,1.7c-0.4,0.4-1,0.8-1.7,1.1
			c-0.7,0.3-1.4,0.4-2.1,0.4c-1.1,0-2-0.1-2.8-0.6c-0.8-0.4-1.4-0.8-2-1.6c-0.6-0.7-1-1.4-1.1-2.3c-0.3-0.8-0.4-1.7-0.4-2.7
			c0-1,0.1-1.8,0.4-2.7c0.3-0.8,0.7-1.6,1.1-2.3c0.6-0.7,1.3-1.1,2-1.6c0.7-0.4,1.7-0.6,2.8-0.6c0.7,0,1.3,0.1,1.8,0.3
			c0.6,0.1,1.1,0.4,1.7,0.8c0.6,0.4,1,0.8,1.3,1.4c0.3,0.6,0.6,1.1,0.7,1.8h-1.3C1239.2,84.5,1239,84.1,1238.7,83.7z"/>
		<path fill="#F8F9F7" d="M1265.3,81l5.4,13.6h-1.4l-1.7-4.2h-6.2l-1.7,4.2h-1.4l5.5-13.6H1265.3z M1267.1,89.2l-2.7-6.9l-2.7,6.9
			H1267.1z"/>
		<path fill="#F8F9F7" d="M1293.6,81c2.1,0,3.7,0.6,4.7,1.7c1,1.1,1.6,2.8,1.6,5.1c0,2.3-0.6,4-1.6,5.1c-1,1.1-2.5,1.7-4.7,1.7h-4.7
			V81C1288.9,81,1293.6,81,1293.6,81z M1293,93.4c1,0,1.8-0.1,2.5-0.3s1.3-0.6,1.7-1c0.4-0.4,0.8-1,1-1.8c0.3-0.7,0.3-1.6,0.3-2.5
			c0-1-0.1-1.8-0.3-2.5c-0.3-0.7-0.6-1.3-1-1.8c-0.4-0.4-1-0.8-1.7-1s-1.6-0.3-2.5-0.3h-2.8v11.4h2.8V93.4z"/>
		<path fill="#F8F9F7" d="M1328.5,81v1.1h-8.1v4.9h7.6v1.1h-7.6v5.4h8.2v1.1h-9.5V81.2h9.3V81z"/>
		<path fill="#F8F9F7" d="M1349.2,81l4.5,11.9l4.7-11.9h1.8v13.6h-1.3V82.8l0,0l-4.7,11.7h-1.3l-4.5-11.7l0,0v11.7h-1.3V81H1349.2z"
			/>
		<path fill="#F8F9F7" d="M1378.6,81h1.6l4.5,6.9l4.5-6.9h1.6l-5.4,8.1v5.7h-1.3v-5.7L1378.6,81z"/>
	</g>
</g>
</svg>
