<?xml version="1.0" encoding="utf-8"?>
<!-- Generator: Adobe Illustrator 18.1.1, SVG Export Plug-In . SVG Version: 6.00 Build 0)  -->
<svg version="1.1" id="Layer_1" xmlns="http://www.w3.org/2000/svg" xmlns:xlink="http://www.w3.org/1999/xlink" x="0px" y="0px"
	 viewBox="0 0 1440 810" enable-background="new 0 0 1440 810" xml:space="preserve">
<pattern  y="810" width="482" height="556.6" patternUnits="userSpaceOnUse" id="New_Pattern" viewBox="0 -556.6 482 556.6" overflow="visible">
	<g>
		<polygon fill="none" points="0,0 482,0 482,-556.6 0,-556.6 		"/>
		<g>
			<polygon fill="none" points="0,0 482,0 482,-556.6 0,-556.6 			"/>
			<polygon fill="#231F20" points="257.5,-315.1 262.3,-315.1 302.4,-245.6 300.1,-241.5 			"/>
			<polygon fill="#231F20" points="276,-311.1 273.6,-315.1 342.6,-315.1 340.2,-311.1 			"/>
			<polygon fill="#231F20" points="209.3,-343 214.1,-343 286.4,-217.7 284,-213.7 			"/>
			<polygon fill="#231F20" points="297.7,-22.9 334.6,-22.9 332.2,-18.9 300.1,-18.9 			"/>
			<polygon fill="#231F20" points="305.7,-287.3 310.5,-287.3 318.5,-273.4 316.1,-269.3 			"/>
			<polygon fill="#231F20" points="249.5,-329.1 350.6,-329.1 348.3,-325 251.9,-325 			"/>
			<polygon fill="#231F20" points="281.6,-301.2 286.4,-301.2 310.5,-259.5 308.1,-255.4 			"/>
			<polygon fill="#231F20" points="206.5,-487 211.2,-487 200.8,-469 198.5,-473.1 			"/>
			<polygon fill="#231F20" points="233.4,-329.1 238.2,-329.1 294.4,-231.7 292,-227.6 			"/>
			<polygon fill="#231F20" points="206,-245.6 208.4,-241.5 139.4,-241.5 141.8,-245.6 			"/>
			<polygon fill="#231F20" points="232.5,-227.6 131.4,-227.6 133.7,-231.7 230.1,-231.7 			"/>
			<polygon fill="#231F20" points="176.3,-269.3 171.5,-269.3 163.5,-283.2 165.9,-287.3 			"/>
			<polygon fill="#231F20" points="200.4,-255.4 195.6,-255.4 171.5,-297.1 173.9,-301.2 			"/>
			<polygon fill="#231F20" points="267.9,-213.7 195.6,-338.9 198,-343 272.7,-213.7 			"/>
			<polygon fill="#231F20" points="243.4,-487 200.8,-413.4 198.5,-417.5 238.6,-487 			"/>
			<polygon fill="#231F20" points="184.3,-255.4 147.4,-255.4 149.8,-259.5 181.9,-259.5 			"/>
			<polygon fill="#231F20" points="157.8,-273.4 160.2,-269.3 155.5,-269.3 			"/>
			<polygon fill="#231F20" points="308.1,-162.1 361,-162.1 358.7,-158 310.5,-158 			"/>
			<polygon fill="#231F20" points="324.2,-134.3 324.2,-134.3 328.9,-134.3 326.5,-130.2 			"/>
			<polygon fill="#231F20" points="332.2,-120.3 348.3,-148.2 353,-148.2 334.6,-116.3 			"/>
			<polygon fill="#231F20" points="224.5,-241.5 219.7,-241.5 179.6,-311.1 181.9,-315.1 			"/>
			<polygon fill="#231F20" points="324.2,-283.2 321.8,-287.3 326.5,-287.3 			"/>
			<polygon fill="#231F20" points="377.1,-162.1 342.6,-102.3 340.2,-106.4 372.4,-162.1 			"/>
			<polygon fill="#231F20" points="273.6,-36.9 342.6,-36.9 340.2,-32.8 276,-32.8 			"/>
			<polygon fill="#231F20" points="249.5,-50.8 350.6,-50.8 348.3,-46.7 251.9,-46.7 			"/>
			<polygon fill="#231F20" points="225.4,-64.7 358.7,-64.7 356.3,-60.6 227.8,-60.6 			"/>
			<polygon fill="#231F20" points="316.1,-148.2 336.9,-148.2 334.6,-144.1 318.5,-144.1 			"/>
			<polygon fill="#231F20" points="286.8,-69.6 289.2,-73.7 291.6,-69.6 			"/>
			<polygon fill="#231F20" points="289.2,-129.4 323.7,-69.6 319,-69.6 286.8,-125.3 			"/>
			<polygon fill="#231F20" points="289.2,-157.2 339.8,-69.6 335,-69.6 286.8,-153.1 			"/>
			<polygon fill="#231F20" points="297.7,-301.2 334.6,-301.2 332.2,-297.1 300.1,-297.1 			"/>
			<polygon fill="#231F20" points="348.3,-92.5 396.5,-176 401.2,-176 350.6,-88.4 			"/>
			<polygon fill="#231F20" points="286.8,-180.9 289.2,-185 355.8,-69.6 351.1,-69.6 			"/>
			<polygon fill="#231F20" points="292,-189.9 409.2,-189.9 406.9,-185.8 294.4,-185.8 			"/>
			<polygon fill="#231F20" points="300.1,-176 385.1,-176 382.8,-171.9 302.4,-171.9 			"/>
			<polygon fill="#231F20" points="227.3,-487 200.8,-441.2 198.5,-445.3 222.6,-487 			"/>
			<polygon fill="#231F20" points="179.6,-329.1 184.3,-329.1 117.7,-213.7 115.3,-217.7 			"/>
			<polygon fill="#231F20" points="192.8,-149 158.3,-208.7 163,-208.7 195.2,-153.1 			"/>
			<polygon fill="#231F20" points="192.8,-121.2 142.2,-208.7 147,-208.7 195.2,-125.3 			"/>
			<polygon fill="#231F20" points="75.1,-287.3 95.9,-287.3 93.6,-283.2 77.5,-283.2 			"/>
			<polygon fill="#231F20" points="133.7,-185.8 85.5,-102.3 80.8,-102.3 131.4,-189.9 			"/>
			<polygon fill="#231F20" points="192.8,-176.8 174.4,-208.7 179.1,-208.7 195.2,-180.9 			"/>
			<polygon fill="#231F20" points="85.5,-269.3 83.2,-273.4 83.2,-273.4 87.9,-273.4 			"/>
			<polygon fill="#231F20" points="190,-88.4 72.8,-88.4 75.1,-92.5 187.6,-92.5 			"/>
			<polygon fill="#231F20" points="195.2,-208.7 192.8,-204.6 190.4,-208.7 			"/>
			<polygon fill="#231F20" points="195.2,-97.4 192.8,-93.3 126.2,-208.7 130.9,-208.7 			"/>
			<polygon fill="#231F20" points="43,-343 192.3,-343 190,-338.9 45.4,-338.9 			"/>
			<polygon fill="#231F20" points="51,-329.1 168.2,-329.1 165.9,-325 53.4,-325 			"/>
			<polygon fill="#231F20" points="107.3,-231.7 155.5,-315.1 160.2,-315.1 109.6,-227.6 			"/>
			<polygon fill="#231F20" points="91.2,-259.5 107.3,-287.3 112,-287.3 93.6,-255.4 			"/>
			<polygon fill="#231F20" points="195.6,-356.9 198,-352.8 48.7,-352.8 51,-356.9 			"/>
			<polygon fill="#231F20" points="59.1,-315.1 144.1,-315.1 141.8,-311.1 61.4,-311.1 			"/>
			<polygon fill="#231F20" points="136.1,-301.2 101.6,-241.5 99.2,-245.6 131.4,-301.2 			"/>
			<polygon fill="#231F20" points="67.1,-301.2 120,-301.2 117.7,-297.1 69.5,-297.1 			"/>
			<polygon fill="#231F20" points="125.7,-217.7 254.2,-217.7 256.6,-213.7 123.3,-213.7 			"/>
			<polygon fill="#231F20" points="198.5,-83.5 270.8,-208.7 275.5,-208.7 200.8,-79.4 			"/>
			<polygon fill="#231F20" points="206.5,-69.6 281.2,-198.9 283.5,-194.8 211.2,-69.6 			"/>
			<polygon fill="#231F20" points="254.7,-208.7 259.4,-208.7 200.8,-107.2 198.5,-111.3 			"/>
			<polygon fill="#231F20" points="281.2,-171.1 283.5,-167 227.3,-69.6 222.6,-69.6 			"/>
			<polygon fill="#231F20" points="275.5,-69.6 270.8,-69.6 281.2,-87.6 283.5,-83.5 			"/>
			<polygon fill="#231F20" points="181.9,-102.3 96.9,-102.3 99.2,-106.4 179.6,-106.4 			"/>
			<polygon fill="#231F20" points="238.6,-69.6 281.2,-143.3 283.5,-139.2 243.4,-69.6 			"/>
			<polygon fill="#231F20" points="238.6,-208.7 243.4,-208.7 200.8,-135.1 198.5,-139.2 			"/>
			<polygon fill="#231F20" points="254.7,-69.6 281.2,-115.4 283.5,-111.3 259.4,-69.6 			"/>
			<polygon fill="#231F20" points="104.9,-116.3 139.4,-176 141.8,-171.9 109.6,-116.3 			"/>
			<polygon fill="#231F20" points="157.8,-144.1 157.8,-144.1 153.1,-144.1 155.5,-148.2 			"/>
			<polygon fill="#231F20" points="149.8,-158 133.7,-130.2 129,-130.2 147.4,-162.1 			"/>
			<polygon fill="#231F20" points="173.9,-116.3 121,-116.3 123.3,-120.3 171.5,-120.3 			"/>
			<polygon fill="#231F20" points="222.6,-208.7 227.3,-208.7 200.8,-162.9 198.5,-167 			"/>
			<polygon fill="#231F20" points="206.5,-208.7 211.2,-208.7 200.8,-190.7 198.5,-194.8 			"/>
			<polygon fill="#231F20" points="165.9,-130.2 145.1,-130.2 147.4,-134.3 163.5,-134.3 			"/>
			<polygon fill="#231F20" points="248.6,-227.6 243.8,-227.6 187.6,-325 190,-329.1 			"/>
			<polygon fill="#231F20" points="8.5,-189.9 109.6,-189.9 107.3,-185.8 10.9,-185.8 			"/>
			<polygon fill="#231F20" points="433.8,-260.3 383.2,-347.9 388,-347.9 436.2,-264.4 			"/>
			<polygon fill="#231F20" points="433.8,-232.5 367.2,-347.9 371.9,-347.9 436.2,-236.6 			"/>
			<polygon fill="#231F20" points="425.3,-394.5 388.4,-394.5 390.8,-398.6 422.9,-398.6 			"/>
			<polygon fill="#231F20" points="398.8,-412.5 401.2,-408.5 396.5,-408.5 			"/>
			<polygon fill="#231F20" points="465.5,-102.3 460.7,-102.3 420.6,-171.9 422.9,-176 			"/>
			<polygon fill="#231F20" points="473.5,-88.4 372.4,-88.4 374.7,-92.5 471.1,-92.5 			"/>
			<polygon fill="#231F20" points="356.3,-78.6 420.6,-189.9 425.3,-189.9 358.7,-74.5 			"/>
			<polygon fill="#231F20" points="433.8,-316 415.4,-347.9 420.1,-347.9 436.2,-320.1 			"/>
			<polygon fill="#231F20" points="436.2,-347.9 433.8,-343.8 431.4,-347.9 			"/>
			<polygon fill="#231F20" points="433.8,-288.1 399.3,-347.9 404,-347.9 436.2,-292.2 			"/>
			<polygon fill="#231F20" points="356.3,-356.9 420.6,-468.2 425.3,-468.2 358.7,-352.8 			"/>
			<polygon fill="#231F20" points="292,-496 436.6,-496 439,-491.9 289.7,-491.9 			"/>
			<polygon fill="#231F20" points="473.5,-366.7 372.4,-366.7 374.7,-370.8 471.1,-370.8 			"/>
			<polygon fill="#231F20" points="388.4,-551.7 404.5,-551.7 406.9,-547.6 386.1,-547.6 			"/>
			<polygon fill="#231F20" points="441.4,-394.5 436.6,-394.5 412.5,-436.3 414.9,-440.4 			"/>
			<polygon fill="#231F20" points="417.3,-408.5 412.5,-408.5 404.5,-422.4 406.9,-426.5 			"/>
			<polygon fill="#231F20" points="449.4,-380.6 380.4,-380.6 382.8,-384.7 447,-384.7 			"/>
			<polygon fill="#231F20" points="465.5,-380.6 460.7,-380.6 420.6,-450.2 422.9,-454.3 			"/>
			<polygon fill="#231F20" points="374.7,-46.7 347.8,0 343.1,0 372.4,-50.8 			"/>
			<polygon fill="#231F20" points="436.2,-69.6 433.8,-65.5 431.4,-69.6 			"/>
			<polygon fill="#231F20" points="433.8,-9.8 399.3,-69.6 404,-69.6 436.2,-13.9 			"/>
			<polygon fill="#231F20" points="433.8,-37.7 415.4,-69.6 420.1,-69.6 436.2,-41.8 			"/>
			<polygon fill="#231F20" points="371.9,-69.6 412.1,0 407.3,0 367.2,-69.6 			"/>
			<polygon fill="#231F20" points="398.8,-4.9 398.8,-4.9 394.1,-4.9 396.5,-9 			"/>
			<polygon fill="#231F20" points="447.5,-69.6 452.2,-69.6 441.8,-51.6 439.5,-55.7 			"/>
			<polygon fill="#231F20" points="388,-69.6 428.1,0 423.4,0 383.2,-69.6 			"/>
			<polygon fill="#231F20" points="468.3,-69.6 441.8,-23.8 439.5,-27.9 463.6,-69.6 			"/>
			<polygon fill="#231F20" points="398.8,-134.3 401.2,-130.2 396.5,-130.2 			"/>
			<polygon fill="#231F20" points="390.8,-18.9 379.9,0 375.2,0 388.4,-22.9 			"/>
			<polygon fill="#231F20" points="425.3,-116.3 388.4,-116.3 390.8,-120.3 422.9,-120.3 			"/>
			<polygon fill="#231F20" points="449.4,-102.3 380.4,-102.3 382.8,-106.4 447,-106.4 			"/>
			<polygon fill="#231F20" points="417.3,-130.2 412.5,-130.2 404.5,-144.1 406.9,-148.2 			"/>
			<polygon fill="#231F20" points="441.4,-116.3 436.6,-116.3 412.5,-158 414.9,-162.1 			"/>
			<polygon fill="#231F20" points="382.8,-32.8 363.9,0 359.1,0 380.4,-36.9 			"/>
			<polygon fill="#231F20" points="414.9,-533.7 362,-533.7 364.3,-537.8 412.5,-537.8 			"/>
			<polygon fill="#231F20" points="366.7,-60.6 331.7,0 327,0 364.3,-64.7 			"/>
			<polygon fill="#231F20" points="48.2,-268.5 82.7,-208.7 78,-208.7 45.8,-264.4 			"/>
			<polygon fill="#231F20" points="32.6,-176 101.6,-176 99.2,-171.9 35,-171.9 			"/>
			<polygon fill="#231F20" points="64.7,-148.2 69.5,-148.2 77.5,-134.3 75.1,-130.2 			"/>
			<polygon fill="#231F20" points="16.5,-176 21.3,-176 61.4,-106.4 59.1,-102.3 			"/>
			<polygon fill="#231F20" points="40.6,-162.1 45.4,-162.1 69.5,-120.3 67.1,-116.3 			"/>
			<polygon fill="#231F20" points="83.2,-144.1 80.8,-148.2 85.5,-148.2 			"/>
			<polygon fill="#231F20" points="48.2,-296.3 98.8,-208.7 94,-208.7 45.8,-292.2 			"/>
			<polygon fill="#231F20" points="56.7,-162.1 93.6,-162.1 91.2,-158 59.1,-158 			"/>
			<polygon fill="#231F20" points="48.2,-324.2 114.8,-208.7 110.1,-208.7 45.8,-320.1 			"/>
			<polygon fill="#231F20" points="195.2,-487 192.8,-482.9 190.4,-487 			"/>
			<polygon fill="#231F20" points="67.1,-22.9 120,-22.9 117.7,-18.9 69.5,-18.9 			"/>
			<polygon fill="#231F20" points="59.1,-36.9 144.1,-36.9 141.8,-32.8 61.4,-32.8 			"/>
			<polygon fill="#231F20" points="51,-50.8 168.2,-50.8 165.9,-46.7 53.4,-46.7 			"/>
			<polygon fill="#231F20" points="195.6,-78.6 198,-74.5 48.7,-74.5 51,-78.6 			"/>
			<polygon fill="#231F20" points="125.7,-199.7 61.4,-88.4 56.7,-88.4 123.3,-203.8 			"/>
			<polygon fill="#231F20" points="324.2,-4.9 324.2,-4.9 321.8,-9 326.5,-9 			"/>
			<polygon fill="#231F20" points="93.6,-4.9 77.5,-4.9 75.1,-9 95.9,-9 			"/>
			<polygon fill="#231F20" points="190,-60.6 45.4,-60.6 43,-64.7 192.3,-64.7 			"/>
			<polygon fill="#231F20" points="184.3,-533.7 147.4,-533.7 149.8,-537.8 181.9,-537.8 			"/>
			<polygon fill="#231F20" points="232.5,-505.9 131.4,-505.9 133.7,-509.9 230.1,-509.9 			"/>
			<polygon fill="#231F20" points="422.9,-519.8 337.9,-519.8 340.2,-523.9 420.6,-523.9 			"/>
			<polygon fill="#231F20" points="208.4,-519.8 139.4,-519.8 141.8,-523.9 206,-523.9 			"/>
			<polygon fill="#231F20" points="56.7,-440.4 93.6,-440.4 91.2,-436.3 59.1,-436.3 			"/>
			<polygon fill="#231F20" points="256.6,-491.9 123.3,-491.9 125.7,-496 254.2,-496 			"/>
			<polygon fill="#231F20" points="431,-505.9 313.8,-505.9 316.1,-509.9 428.6,-509.9 			"/>
			<polygon fill="#231F20" points="157.8,-551.7 157.8,-551.7 160.2,-547.6 155.5,-547.6 			"/>
			<polygon fill="#231F20" points="48.2,-240.7 66.6,-208.7 61.9,-208.7 45.8,-236.6 			"/>
			<polygon fill="#231F20" points="286.4,-478 284,-482.1 433.3,-482.1 431,-478 			"/>
			<polygon fill="#231F20" points="83.2,-422.4 80.8,-426.5 85.5,-426.5 			"/>
			<polygon fill="#231F20" points="8.5,-468.2 109.6,-468.2 107.3,-464.1 10.9,-464.1 			"/>
			<polygon fill="#231F20" points="45.8,-208.7 48.2,-212.8 50.6,-208.7 			"/>
			<polygon fill="#231F20" points="16.5,-454.3 21.3,-454.3 61.4,-384.7 59.1,-380.6 			"/>
			<polygon fill="#231F20" points="125.7,-478 61.4,-366.7 56.7,-366.7 123.3,-482.1 			"/>
			<polygon fill="#231F20" points="32.6,-454.3 101.6,-454.3 99.2,-450.2 35,-450.2 			"/>
			<polygon fill="#231F20" points="40.6,-440.4 45.4,-440.4 69.5,-398.6 67.1,-394.5 			"/>
			<polygon fill="#231F20" points="64.7,-426.5 69.5,-426.5 77.5,-412.5 75.1,-408.5 			"/>
			<polygon fill="#231F20" points="289.2,-101.5 307.6,-69.6 302.9,-69.6 286.8,-97.4 			"/>
			<polygon fill="#231F20" points="115.3,-496 150.3,-556.6 155,-556.6 117.7,-491.9 			"/>
			<polygon fill="#231F20" points="99.2,-523.9 118.1,-556.6 122.9,-556.6 101.6,-519.8 			"/>
			<polygon fill="#231F20" points="107.3,-509.9 134.2,-556.6 138.9,-556.6 109.6,-505.9 			"/>
			<polygon fill="#231F20" points="83.2,-551.7 83.2,-551.7 87.9,-551.7 85.5,-547.6 			"/>
			<polygon fill="#231F20" points="91.2,-537.8 102.1,-556.6 106.8,-556.6 93.6,-533.7 			"/>
			<polygon fill="#231F20" points="308.1,-533.7 294.9,-556.6 299.6,-556.6 310.5,-537.8 			"/>
			<polygon fill="#231F20" points="110.1,-487 69.9,-556.6 74.7,-556.6 114.8,-487 			"/>
			<polygon fill="#231F20" points="0,-519 21.7,-556.6 26.5,-556.6 0,-510.8 			"/>
			<polygon fill="#231F20" points="94,-487 53.9,-556.6 58.6,-556.6 98.8,-487 			"/>
			<polygon fill="#231F20" points="0,-487 0,-491.1 37.8,-556.6 42.5,-556.6 2.4,-487 			"/>
			<polygon fill="#231F20" points="284,-491.9 246.7,-556.6 251.4,-556.6 286.4,-496 			"/>
			<polygon fill="#231F20" points="292,-505.9 262.7,-556.6 267.5,-556.6 294.4,-509.9 			"/>
			<polygon fill="#231F20" points="171.5,-547.6 166.3,-556.6 171.1,-556.6 176.3,-547.6 			"/>
			<polygon fill="#231F20" points="300.1,-519.8 278.8,-556.6 283.5,-556.6 302.4,-523.9 			"/>
			<polygon fill="#231F20" points="267.9,-491.9 230.6,-556.6 235.3,-556.6 272.7,-491.9 			"/>
			<polygon fill="#231F20" points="195.6,-533.7 182.4,-556.6 187.1,-556.6 200.4,-533.7 			"/>
			<polygon fill="#231F20" points="219.7,-519.8 198.5,-556.6 203.2,-556.6 224.5,-519.8 			"/>
			<polygon fill="#231F20" points="243.8,-505.9 214.5,-556.6 219.3,-556.6 248.6,-505.9 			"/>
			<polygon fill="#231F20" points="0,-546.8 5.7,-556.6 10.4,-556.6 0,-538.6 			"/>
			<polygon fill="#231F20" points="0,-343.8 0,-347.9 2.4,-347.9 			"/>
			<polygon fill="#231F20" points="13.7,-487 40.2,-532.9 42.5,-528.8 18.4,-487 			"/>
			<polygon fill="#231F20" points="15.6,-352.8 0,-352.8 0,-356.9 13.2,-356.9 			"/>
			<polygon fill="#231F20" points="34.5,-347.9 0,-288.1 0,-296.3 29.8,-347.9 			"/>
			<polygon fill="#231F20" points="13.7,-208.7 40.2,-254.6 42.5,-250.5 18.4,-208.7 			"/>
			<polygon fill="#231F20" points="42.5,-278.3 2.4,-208.7 0,-208.7 0,-212.8 40.2,-282.4 			"/>
			<polygon fill="#231F20" points="2.8,-366.7 0,-371.6 0,-379.8 7.6,-366.7 			"/>
			<polygon fill="#231F20" points="42.5,-306.1 0,-232.5 0,-240.7 40.2,-310.2 			"/>
			<polygon fill="#231F20" points="18.4,-347.9 0,-316 0,-324.2 13.7,-347.9 			"/>
			<polygon fill="#231F20" points="45.8,-487 48.2,-491.1 50.6,-487 			"/>
			<polygon fill="#231F20" points="48.2,-519 66.6,-487 61.9,-487 45.8,-514.9 			"/>
			<polygon fill="#231F20" points="26.9,-352.8 0,-399.4 0,-407.6 31.7,-352.8 			"/>
			<polygon fill="#231F20" points="78,-487 45.8,-542.7 48.2,-546.8 82.7,-487 			"/>
			<polygon fill="#231F20" points="34.5,-487 29.8,-487 40.2,-505 42.5,-500.9 			"/>
			<polygon fill="#231F20" points="43,-352.8 0,-427.3 0,-435.5 45.4,-356.9 			"/>
			<polygon fill="#231F20" points="51,-366.7 0,-455.1 0,-463.3 53.4,-370.8 			"/>
			<polygon fill="#231F20" points="115.3,-478 0,-478 0,-482.1 117.7,-482.1 			"/>
			<polygon fill="#231F20" points="42.5,-334 0,-260.3 0,-268.5 40.2,-338.1 			"/>
			<polygon fill="#231F20" points="439.5,-222.7 482,-296.3 482,-288.1 441.8,-218.6 			"/>
			<polygon fill="#231F20" points="447.5,-208.7 482,-268.5 482,-260.3 452.2,-208.7 			"/>
			<polygon fill="#231F20" points="463.6,-208.7 482,-240.7 482,-232.5 468.3,-208.7 			"/>
			<polygon fill="#231F20" points="482,-212.8 482,-208.7 479.6,-208.7 			"/>
			<polygon fill="#231F20" points="447.5,-347.9 452.2,-347.9 441.8,-329.9 439.5,-334 			"/>
			<polygon fill="#231F20" points="439.5,-250.5 482,-324.2 482,-316 441.8,-246.4 			"/>
			<polygon fill="#231F20" points="468.3,-347.9 441.8,-302 439.5,-306.1 463.6,-347.9 			"/>
			<polygon fill="#231F20" points="466.4,-203.8 482,-203.8 482,-199.7 468.8,-199.7 			"/>
			<polygon fill="#231F20" points="439.5,-278.3 479.6,-347.9 482,-347.9 482,-343.8 441.8,-274.2 			"/>
			<polygon fill="#231F20" points="439.5,0 439.5,0 479.6,-69.6 482,-69.6 482,-65.5 444.2,0 			"/>
			<polygon fill="#231F20" points="366.7,-356.9 482,-356.9 482,-352.8 364.3,-352.8 			"/>
			<polygon fill="#231F20" points="366.7,-78.6 482,-78.6 482,-74.5 364.3,-74.5 			"/>
			<polygon fill="#231F20" points="455.5,0 482,-45.9 482,-37.7 460.3,0 			"/>
			<polygon fill="#231F20" points="471.6,0 482,-18 482,-9.8 476.3,0 			"/>
			<polygon fill="#231F20" points="439,-203.8 482,-129.4 482,-121.2 436.6,-199.7 			"/>
			<polygon fill="#231F20" points="455.1,-203.8 482,-157.2 482,-149 450.3,-203.8 			"/>
			<polygon fill="#231F20" points="431,-189.9 482,-101.5 482,-93.3 428.6,-185.8 			"/>
			<polygon fill="#231F20" points="479.2,-189.9 482,-185 482,-176.8 474.4,-189.9 			"/>
			<polygon fill="#231F20" points="463.6,-487 482,-519 482,-510.8 468.3,-487 			"/>
			<polygon fill="#231F20" points="433.8,-510.8 407.3,-556.6 412.1,-556.6 436.2,-514.9 			"/>
			<polygon fill="#231F20" points="192.8,-455.1 174.4,-487 179.1,-487 195.2,-459.2 			"/>
			<polygon fill="#231F20" points="433.8,-538.6 423.4,-556.6 428.1,-556.6 436.2,-542.7 			"/>
			<polygon fill="#231F20" points="439.5,-556.6 439.5,-556.6 444.2,-556.6 441.8,-552.5 			"/>
			<polygon fill="#231F20" points="297.7,-505.9 327,-556.6 331.7,-556.6 302.4,-505.9 			"/>
			<polygon fill="#231F20" points="439.5,-528.8 455.5,-556.6 460.3,-556.6 441.8,-524.7 			"/>
			<polygon fill="#231F20" points="321.8,-519.8 343.1,-556.6 347.8,-556.6 326.5,-519.8 			"/>
			<polygon fill="#231F20" points="345.9,-533.7 359.1,-556.6 363.9,-556.6 350.6,-533.7 			"/>
			<polygon fill="#231F20" points="439.5,-500.9 471.6,-556.6 476.3,-556.6 441.8,-496.8 			"/>
			<polygon fill="#231F20" points="455.1,-482.1 482,-435.5 482,-427.3 450.3,-482.1 			"/>
			<polygon fill="#231F20" points="466.4,-482.1 482,-482.1 482,-478 468.8,-478 			"/>
			<polygon fill="#231F20" points="479.2,-468.2 482,-463.3 482,-455.1 474.4,-468.2 			"/>
			<polygon fill="#231F20" points="439,-482.1 482,-407.6 482,-399.4 436.6,-478 			"/>
			<polygon fill="#231F20" points="316.1,-547.6 310.9,-556.6 315.7,-556.6 318.5,-551.7 			"/>
			<polygon fill="#231F20" points="447.5,-487 482,-546.8 482,-538.6 452.2,-487 			"/>
			<polygon fill="#231F20" points="482,-491.1 482,-487 479.6,-487 			"/>
			<polygon fill="#231F20" points="431,-468.2 482,-379.8 482,-371.6 428.6,-464.1 			"/>
			<polygon fill="#231F20" points="370,-547.6 375.2,-556.6 379.9,-556.6 374.7,-547.6 			"/>
			<polygon fill="#231F20" points="300.1,-454.3 385.1,-454.3 382.8,-450.2 302.4,-450.2 			"/>
			<polygon fill="#231F20" points="308.1,-440.4 361,-440.4 358.7,-436.3 310.5,-436.3 			"/>
			<polygon fill="#231F20" points="377.1,-440.4 342.6,-380.6 340.2,-384.7 372.4,-440.4 			"/>
			<polygon fill="#231F20" points="292,-468.2 409.2,-468.2 406.9,-464.1 294.4,-464.1 			"/>
			<polygon fill="#231F20" points="348.3,-370.8 396.5,-454.3 401.2,-454.3 350.6,-366.7 			"/>
			<polygon fill="#231F20" points="356.3,-338.9 227.8,-338.9 225.4,-343 358.7,-343 			"/>
			<polygon fill="#231F20" points="316.1,-426.5 336.9,-426.5 334.6,-422.4 318.5,-422.4 			"/>
			<polygon fill="#231F20" points="324.2,-412.5 328.9,-412.5 326.5,-408.5 			"/>
			<polygon fill="#231F20" points="332.2,-398.6 348.3,-426.5 353,-426.5 334.6,-394.5 			"/>
			<polygon fill="#231F20" points="289.2,-435.5 339.8,-347.9 335,-347.9 286.8,-431.4 			"/>
			<polygon fill="#231F20" points="302.4,-227.6 297.7,-227.6 364.3,-343 366.7,-338.9 			"/>
			<polygon fill="#231F20" points="406.9,-269.3 386.1,-269.3 388.4,-273.4 404.5,-273.4 			"/>
			<polygon fill="#231F20" points="275.5,-347.9 270.8,-347.9 281.2,-365.9 283.5,-361.8 			"/>
			<polygon fill="#231F20" points="398.8,-283.2 398.8,-283.2 394.1,-283.2 396.5,-287.3 			"/>
			<polygon fill="#231F20" points="286.8,-347.9 289.2,-352 291.6,-347.9 			"/>
			<polygon fill="#231F20" points="286.8,-459.2 289.2,-463.3 355.8,-347.9 351.1,-347.9 			"/>
			<polygon fill="#231F20" points="289.2,-379.8 307.6,-347.9 302.9,-347.9 286.8,-375.7 			"/>
			<polygon fill="#231F20" points="289.2,-407.6 323.7,-347.9 319,-347.9 286.8,-403.5 			"/>
			<polygon fill="#231F20" points="173.9,-394.5 121,-394.5 123.3,-398.6 171.5,-398.6 			"/>
			<polygon fill="#231F20" points="157.8,-422.4 157.8,-422.4 153.1,-422.4 155.5,-426.5 			"/>
			<polygon fill="#231F20" points="149.8,-436.3 133.7,-408.5 129,-408.5 147.4,-440.4 			"/>
			<polygon fill="#231F20" points="390.8,-297.1 374.7,-269.3 370,-269.3 388.4,-301.2 			"/>
			<polygon fill="#231F20" points="165.9,-408.5 145.1,-408.5 147.4,-412.5 163.5,-412.5 			"/>
			<polygon fill="#231F20" points="34.5,-208.7 29.8,-208.7 40.2,-226.8 42.5,-222.7 			"/>
			<polygon fill="#231F20" points="192.8,-371.6 126.2,-487 130.9,-487 195.2,-375.7 			"/>
			<polygon fill="#231F20" points="192.8,-427.3 158.3,-487 163,-487 195.2,-431.4 			"/>
			<polygon fill="#231F20" points="192.8,-399.4 142.2,-487 147,-487 195.2,-403.5 			"/>
			<polygon fill="#231F20" points="227.3,-347.9 222.6,-347.9 281.2,-449.4 283.5,-445.3 			"/>
			<polygon fill="#231F20" points="254.7,-347.9 281.2,-393.7 283.5,-389.6 259.4,-347.9 			"/>
			<polygon fill="#231F20" points="181.9,-380.6 96.9,-380.6 99.2,-384.7 179.6,-384.7 			"/>
			<polygon fill="#231F20" points="243.4,-347.9 238.6,-347.9 281.2,-421.6 283.5,-417.5 			"/>
			<polygon fill="#231F20" points="275.5,-487 200.8,-357.7 198.5,-361.8 270.8,-487 			"/>
			<polygon fill="#231F20" points="283.5,-473.1 211.2,-347.9 206.5,-347.9 281.2,-477.2 			"/>
			<polygon fill="#231F20" points="190,-366.7 72.8,-366.7 75.1,-370.8 187.6,-370.8 			"/>
			<polygon fill="#231F20" points="133.7,-464.1 85.5,-380.6 80.8,-380.6 131.4,-468.2 			"/>
			<polygon fill="#231F20" points="200.8,-385.5 198.5,-389.6 254.7,-487 259.4,-487 			"/>
			<polygon fill="#231F20" points="104.9,-394.5 139.4,-454.3 141.8,-450.2 109.6,-394.5 			"/>
			<polygon fill="#231F20" points="42.5,0 42.5,0 37.8,0 40.2,-4.1 			"/>
			<polygon fill="#231F20" points="34.5,-69.6 0,-9.8 0,-18 29.8,-69.6 			"/>
			<polygon fill="#231F20" points="42.5,-27.9 26.5,0 21.7,0 40.2,-32 			"/>
			<polygon fill="#231F20" points="42.5,-55.7 10.4,0 5.7,0 40.2,-59.8 			"/>
			<polygon fill="#231F20" points="48.2,-18 58.6,0 53.9,0 45.8,-13.9 			"/>
			<polygon fill="#231F20" points="136.1,-22.9 122.9,0 118.1,0 131.4,-22.9 			"/>
			<polygon fill="#231F20" points="112,-9 106.8,0 102.1,0 107.3,-9 			"/>
			<polygon fill="#231F20" points="48.2,-45.9 74.7,0 69.9,0 45.8,-41.8 			"/>
			<polygon fill="#231F20" points="0,-65.5 0,-69.6 2.4,-69.6 			"/>
			<polygon fill="#231F20" points="18.4,-69.6 0,-37.7 0,-45.9 13.7,-69.6 			"/>
			<polygon fill="#231F20" points="26.9,-74.5 0,-121.2 0,-129.4 31.7,-74.5 			"/>
			<polygon fill="#231F20" points="43,-74.5 0,-149 0,-157.2 45.4,-78.6 			"/>
			<polygon fill="#231F20" points="115.3,-199.7 0,-199.7 0,-203.8 117.7,-203.8 			"/>
			<polygon fill="#231F20" points="51,-88.4 0,-176.8 0,-185 53.4,-92.5 			"/>
			<polygon fill="#231F20" points="160.2,-36.9 138.9,0 134.2,0 155.5,-36.9 			"/>
			<polygon fill="#231F20" points="15.6,-74.5 0,-74.5 0,-78.6 13.2,-78.6 			"/>
			<polygon fill="#231F20" points="2.8,-88.4 0,-93.3 0,-101.5 7.6,-88.4 			"/>
			<polygon fill="#231F20" points="190,-50.8 219.3,0 214.5,0 187.6,-46.7 			"/>
			<polygon fill="#231F20" points="286.4,-22.9 299.6,0 294.9,0 281.6,-22.9 			"/>
			<polygon fill="#231F20" points="184.3,-50.8 155,0 150.3,0 179.6,-50.8 			"/>
			<polygon fill="#231F20" points="374.7,-325 326.5,-241.5 321.8,-241.5 372.4,-329.1 			"/>
			<polygon fill="#231F20" points="310.5,-9 315.7,0 310.9,0 305.7,-9 			"/>
			<polygon fill="#231F20" points="286.4,-199.7 284,-203.8 433.3,-203.8 431,-199.7 			"/>
			<polygon fill="#231F20" points="414.9,-255.4 362,-255.4 364.3,-259.5 412.5,-259.5 			"/>
			<polygon fill="#231F20" points="422.9,-241.5 337.9,-241.5 340.2,-245.6 420.6,-245.6 			"/>
			<polygon fill="#231F20" points="431,-227.6 313.8,-227.6 316.1,-231.7 428.6,-231.7 			"/>
			<polygon fill="#231F20" points="439,-213.7 289.7,-213.7 292,-217.7 436.6,-217.7 			"/>
			<polygon fill="#231F20" points="173.9,-22.9 187.1,0 182.4,0 171.5,-18.8 			"/>
			<polygon fill="#231F20" points="345.9,-255.4 380.4,-315.1 382.8,-311.1 350.6,-255.4 			"/>
			<polygon fill="#231F20" points="181.9,-36.9 203.2,0 198.5,0 179.6,-32.8 			"/>
			<polygon fill="#231F20" points="165.9,-9 171.1,0 166.3,0 163.5,-4.9 			"/>
			<polygon fill="#231F20" points="198,-64.7 235.3,0 230.6,0 195.6,-60.6 			"/>
			<polygon fill="#231F20" points="238.2,-50.8 267.5,0 262.7,0 233.4,-50.8 			"/>
			<polygon fill="#231F20" points="262.3,-36.9 283.5,0 278.8,0 257.5,-36.9 			"/>
			<polygon fill="#231F20" points="214.1,-64.7 251.4,0 246.7,0 209.3,-64.7 			"/>
		</g>
	</g>
</pattern>
<rect fill="#A3CD3A" width="1440" height="810"/>
<pattern  id="SVGID_1_" xlink:href="#New_Pattern" patternTransform="matrix(1 0 0 -1 0 -18863.7988)">
</pattern>
<rect opacity="5.000000e-02" fill="url(#SVGID_1_)" enable-background="new    " width="1440" height="810"/>
<g>
	<g>
		<g>
			<g>
				<path fill="#F8F9F7" d="M1383.2,61.1l6.5-6.6c0.3-0.3,0.4-0.8,0.1-1.1c-0.1-0.4-0.6-0.7-1-0.7c-0.3,0-0.6,0.1-0.7,0.3l-6.5,6.5
					l-6.6-6.6c-0.1-0.1-0.4-0.3-0.7-0.3c-0.4,0-0.8,0.3-1,0.7c-0.1,0.4-0.1,0.8,0.3,1.1l6.6,6.6l-6.5,6.5c-0.3,0.3-0.4,0.8-0.3,1.1
					c0.1,0.4,0.6,0.7,1,0.7c0.3,0,0.6-0.1,0.7-0.3l6.5-6.5l6.6,6.1c0.1,0.1,0.4,0.3,0.7,0.3c0.4,0,0.8-0.3,1-0.7
					c0.1-0.4,0.1-0.8-0.3-1.3L1383.2,61.1z"/>
				<path fill="#F8F9F7" d="M1374.4,70c-0.6,0-1.3-0.4-1.4-1c-0.3-0.6-0.1-1.3,0.4-1.7l6.1-6.2l-6.2-6.4c-0.4-0.4-0.6-1.1-0.3-1.7
					c0.3-0.6,0.8-1,1.4-1c0.4,0,0.8,0.1,1.1,0.4l6.2,6.2l6.1-6.2c0.3-0.3,0.7-0.4,1.1-0.4c0.6,0,1.3,0.4,1.4,1
					c0.3,0.6,0.1,1.3-0.3,1.7l-6.2,6.2l6.2,5.7c0.4,0.6,0.6,1.1,0.3,1.8c-0.3,0.6-0.8,1-1.4,1c-0.4,0-0.8-0.1-1.1-0.4l-6.2-5.8
					l-6.2,6.2C1375.2,69.8,1374.8,70,1374.4,70z M1374.4,53.2c-0.3,0-0.4,0.1-0.6,0.4c-0.1,0.3,0,0.4,0.1,0.7l6.9,7.1l-6.8,6.9
					c-0.1,0.1-0.3,0.4-0.1,0.7c0.1,0.4,0.7,0.4,1,0.1l6.8-6.9l6.9,6.4c0.3,0.3,0.8,0.1,1-0.1c0.1-0.3,0-0.4-0.1-0.7l-6.9-6.4
					l6.9-6.9c0.1-0.1,0.1-0.4,0.1-0.6c-0.1-0.4-0.7-0.4-1-0.1l-6.8,6.9l-6.9-6.9C1374.7,53.2,1374.5,53.2,1374.4,53.2z"/>
			</g>
		</g>
		<g>
			<g>
				<g>
					<circle fill="#F8F9F7" cx="1405.8" cy="56.7" r="4.2"/>
				</g>
				<g>
					<circle fill="#F8F9F7" cx="1388.4" cy="36.2" r="4.2"/>
				</g>
				<g>
					<circle fill="#F8F9F7" cx="1377.1" cy="33.2" r="3.2"/>
				</g>
				<g>
					<circle fill="#F8F9F7" cx="1404.3" cy="67.6" r="3"/>
				</g>
				<g>
					<circle fill="#F8F9F7" cx="1396.6" cy="71.8" r="1.8"/>
				</g>
				<g>
					<circle fill="#F8F9F7" cx="1370" cy="38.2" r="2"/>
				</g>
				<g>
					<circle fill="#F8F9F7" cx="1369.3" cy="46" r="1.6"/>
				</g>
				<g>
					<path fill="#F8F9F7" d="M1393.8,45.1c0.1,3,2.5,5.2,5.5,5.2c3-0.1,5.2-2.5,5.2-5.5c0-3-2.5-5.2-5.5-5.2
						C1395.9,39.7,1393.6,42.2,1393.8,45.1z"/>
				</g>
			</g>
		</g>
		<g>
			<g>
				<g>
					<circle fill="#F8F9F7" cx="1404.3" cy="67.6" r="3"/>
				</g>
				<g>
					<circle fill="#F8F9F7" cx="1396.6" cy="71.8" r="1.8"/>
				</g>
				<g>
					<circle fill="#F8F9F7" cx="1370" cy="38.2" r="2"/>
				</g>
				<g>
					<circle fill="#F8F9F7" cx="1369.3" cy="46" r="1.6"/>
				</g>
			</g>
		</g>
		<g>
			<g>
				<path fill="#F8F9F7" d="M1212.2,52.7h-11.4c-0.7,0-1.4,0.6-1.4,1.4v14c0,0.8,0.6,1.4,1.4,1.4h11.6c2,0,4-1.8,4-3.8v-9
					C1216,54.6,1214.2,52.7,1212.2,52.7z M1212.2,67.3c-2,0-3.8,0-5.8,0h-0.6c-1.4,0-3,0-4.4,0V54.9h10.7c0.8,0,1.7,0.8,1.7,1.7v9
					C1213.9,66.5,1213,67.3,1212.2,67.3z"/>
				<path fill="#F8F9F7" d="M1212.2,70h-11.6c-1,0-1.8-0.8-1.8-2V54c0-1.1,0.8-2,1.8-2h11.4c2.3,0,4.4,2.1,4.4,4.4v9
					C1216.6,68,1214.4,70,1212.2,70z M1200.6,53.2c-0.6,0-0.8,0.4-0.8,0.8v14c0,0.6,0.4,0.8,0.8,0.8h11.6c1.8,0,3.4-1.6,3.4-3.4v-9
					c0-1.7-1.7-3.4-3.4-3.4h-11.6V53.2z M1200.9,67.9V54.4h11.2c1.1,0,2.3,1.1,2.3,2.3v9c0,1.1-1.1,2.1-2.3,2.1c-2,0-3.8,0-5.8,0
					h-0.6c-1.4,0-3,0-4.4,0H1200.9z M1201.9,55.4v11.4c1.3,0,2.7,0,4,0h0.6c2,0,3.8,0,5.8,0c0.6,0,1.1-0.6,1.1-1.1v-9
					c0-0.6-0.7-1.3-1.3-1.3C1212,55.4,1201.9,55.4,1201.9,55.4z"/>
			</g>
			<g>
				<path fill="#F8F9F7" d="M1238.2,52.7h-8.6c-2.3,0-4.1,1.7-4.1,4v11.9c0,0.6,0.4,1.1,1.1,1.1c0.6,0,1.1-0.4,1.1-1.1v-5.8h12.6
					v5.8c0,0.6,0.4,1.1,1.1,1.1c0.6,0,1.1-0.4,1.1-1.1V56.7C1242.4,54.2,1240.2,52.7,1238.2,52.7z M1240.2,56.6v4h-12.6v-4
					c0-1.1,1-1.7,2-1.7h8.6C1239.2,54.9,1240.2,55.6,1240.2,56.6z"/>
				<path fill="#F8F9F7" d="M1241.3,70.1c-0.8,0-1.6-0.7-1.6-1.6v-5.4h-11.6v5.4c0,0.8-0.7,1.6-1.6,1.6c-0.8,0-1.6-0.7-1.6-1.6V56.7
					c0-2.4,2.1-4.4,4.7-4.4h8.6c2.3,0,4.7,1.7,4.7,4.4v11.9C1242.8,69.4,1242.1,70.1,1241.3,70.1z M1227.2,62.2h13.6v6.4
					c0,0.3,0.3,0.6,0.6,0.6c0.3,0,0.6-0.3,0.6-0.6V56.7c0-2.1-1.8-3.4-3.7-3.4h-8.6c-2,0-3.7,1.6-3.7,3.4v11.9
					c0,0.3,0.3,0.6,0.6,0.6c0.3,0,0.6-0.3,0.6-0.6v-6.4H1227.2z M1240.7,61.1h-13.6v-4.5c0-1.4,1.3-2.3,2.5-2.3h8.6
					c1.3,0,2.5,0.8,2.5,2.3v4.5H1240.7z M1228.1,60.1h11.6v-3.5c0-0.7-0.8-1.3-1.6-1.3h-8.6c-0.7,0-1.6,0.4-1.6,1.3v3.5H1228.1z"/>
			</g>
			<g>
				<path fill="#F8F9F7" d="M1263.6,52.7h-12.4c-0.6,0-1.1,0.4-1.1,1.1c0,0.6,0.4,1.1,1.1,1.1h5.1c0,1.7,0,4.1,0,6.4v1.7
					c0,2.1,0,4.1,0,5.5c0,0.6,0.4,1.1,1.1,1.1c0.6,0,1.1-0.4,1.1-1.1V54.9h5.1c0.6,0,1.1-0.4,1.1-1.1
					C1264.7,53.2,1264.3,52.7,1263.6,52.7z"/>
				<path fill="#F8F9F7" d="M1257.5,70.1c-0.8,0-1.6-0.7-1.6-1.6c0-1.4,0-3.4,0-5.5V60c0-1.7,0-3.3,0-4.5h-4.7
					c-0.8,0-1.6-0.7-1.6-1.6s0.7-1.6,1.6-1.6h12.4c0.8,0,1.6,0.7,1.6,1.6s-0.7,1.6-1.6,1.6h-4.5v13.1
					C1259.1,69.4,1258.4,70.1,1257.5,70.1z M1251.3,53.2c-0.3,0-0.6,0.3-0.6,0.6c0,0.3,0.3,0.6,0.6,0.6h5.7v0.6c0,1.4,0,3.1,0,4.9
					v3.1c0,2.1,0,4.1,0,5.5c0,0.3,0.3,0.6,0.6,0.6c0.3,0,0.6-0.3,0.6-0.6V54.3h5.7c0.3,0,0.6-0.3,0.6-0.6c0-0.3-0.3-0.6-0.6-0.6
					H1251.3z"/>
			</g>
			<g>
				<path fill="#F8F9F7" d="M1285.8,52.7h-8.6c-2.3,0-4.1,1.7-4.1,4v11.9c0,0.6,0.4,1.1,1.1,1.1c0.6,0,1.1-0.4,1.1-1.1v-5.8h12.6
					v5.8c0,0.6,0.4,1.1,1.1,1.1c0.6,0,1.1-0.4,1.1-1.1V56.7C1290,54.2,1287.9,52.7,1285.8,52.7z M1287.8,56.6v4h-12.6v-4
					c0-1.1,1-1.7,2-1.7h8.6C1286.8,54.9,1287.8,55.6,1287.8,56.6z"/>
				<path fill="#F8F9F7" d="M1288.9,70.1c-0.8,0-1.6-0.7-1.6-1.6v-5.4h-11.6v5.4c0,0.8-0.7,1.6-1.6,1.6s-1.6-0.7-1.6-1.6V56.7
					c0-2.4,2.1-4.4,4.7-4.4h8.6c2.3,0,4.7,1.7,4.7,4.4v11.9C1290.5,69.4,1289.7,70.1,1288.9,70.1z M1274.8,62.2h13.6v6.4
					c0,0.3,0.3,0.6,0.6,0.6c0.3,0,0.6-0.3,0.6-0.6V56.7c0-2.1-1.8-3.4-3.7-3.4h-8.6c-2,0-3.7,1.6-3.7,3.4v11.9
					c0,0.3,0.3,0.6,0.6,0.6c0.3,0,0.6-0.3,0.6-0.6v-6.4H1274.8z M1288.3,61.1h-13.6v-4.5c0-1.4,1.3-2.3,2.5-2.3h8.6
					c1.3,0,2.5,0.8,2.5,2.3v4.5H1288.3z M1275.8,60.1h11.6v-3.5c0-0.7-0.8-1.3-1.6-1.3h-8.6c-0.7,0-1.6,0.4-1.6,1.3v3.5H1275.8z"/>
			</g>
			<g>
				<path fill="#F8F9F7" d="M1312.6,60.1h-9.5c-1.1,0-1.7-1.4-1.7-2.7c0-1.3,0.6-2.5,1.7-2.5h10.3c0.6,0,1.1-0.4,1.1-1.1
					c0-0.6-0.4-1.1-1.1-1.1h-10.3c-2.5,0-3.8,2.4-3.8,4.8c0,2.3,1.3,4.8,4,4.8h9.3c1.1,0,1.7,1.4,1.7,2.7c0,1.3-0.6,2.5-1.7,2.5h-12
					c-0.6,0-1.1,0.4-1.1,1.1c0,0.6,0.4,1.1,1.1,1.1h11.9c2.7,0,3.8-2.4,3.8-4.8C1316.5,62.4,1315.2,60.1,1312.6,60.1z"/>
				<path fill="#F8F9F7" d="M1312.6,70h-11.9c-0.8,0-1.6-0.7-1.6-1.6c0-0.8,0.7-1.6,1.6-1.6h12c0.8,0,1.1-1.1,1.1-2
					c0-0.8-0.3-2.1-1.3-2.1h-9.3c-3,0-4.4-2.7-4.4-5.2c0-2.7,1.6-5.2,4.4-5.2h10.3c0.8,0,1.6,0.7,1.6,1.6s-0.7,1.6-1.6,1.6h-10.3
					c-0.8,0-1.1,1.3-1.1,2.1s0.3,2.1,1.1,2.1h9.5c2.8,0,4.2,2.7,4.2,5.2C1316.9,67.3,1315.6,70,1312.6,70z M1300.6,67.9
					c-0.3,0-0.6,0.3-0.6,0.6c0,0.3,0.3,0.6,0.6,0.6h11.9c2.3,0,3.4-2.3,3.4-4.2c0-2.1-1.1-4.2-3.3-4.2h-9.5c-1.6,0-2.3-1.6-2.3-3.1
					c0-1.4,0.7-3.1,2.1-3.1h10.3c0.3,0,0.6-0.3,0.6-0.6c0-0.3-0.3-0.6-0.6-0.6H1303c-2.1,0-3.4,2.1-3.4,4.2c0,2.1,1.1,4.2,3.4,4.2
					h9.3c1.6,0,2.3,1.7,2.3,3.1c0,1.4-0.7,3-2.1,3h-11.9V67.9z"/>
			</g>
			<g>
				<path fill="#F8F9F7" d="M1337.8,52.7h-13.4c-0.6,0-1.1,0.4-1.1,1.1c0,0.6,0.4,1.1,1.1,1.1h6.2c0,1.7,0,4.1,0,6.4
					c0,2.8,0,5.5,0,7.2c0,0.6,0.4,1.1,1.1,1.1c0.6,0,1.1-0.4,1.1-1.1V54.9h5.1c0.6,0,1.1-0.4,1.1-1.1
					C1338.8,53.2,1338.4,52.7,1337.8,52.7z"/>
				<path fill="#F8F9F7" d="M1331.6,70.1c-0.8,0-1.6-0.7-1.6-1.6c0-1.7,0-4.5,0-7.2v-5.9h-5.7c-0.8,0-1.6-0.7-1.6-1.6
					s0.7-1.6,1.6-1.6h13.4c0.8,0,1.6,0.7,1.6,1.6s-0.7,1.6-1.6,1.6h-4.5v13.1C1333.1,69.4,1332.4,70.1,1331.6,70.1z M1324.2,53.2
					c-0.3,0-0.6,0.3-0.6,0.6c0,0.3,0.3,0.6,0.6,0.6h6.6v6.9c0,2.8,0,5.5,0,7.2c0,0.3,0.3,0.6,0.6,0.6c0.3,0,0.6-0.3,0.6-0.6V54.3
					h5.7c0.3,0,0.6-0.3,0.6-0.6c0-0.3-0.3-0.6-0.6-0.6H1324.2z"/>
			</g>
			<g>
				<path fill="#F8F9F7" d="M1360,52.7h-8.6c-2.3,0-4.1,1.7-4.1,4v11.9c0,0.6,0.4,1.1,1.1,1.1c0.6,0,1.1-0.4,1.1-1.1v-5.8h12.6v5.8
					c0,0.6,0.4,1.1,1.1,1.1c0.6,0,1.1-0.4,1.1-1.1V56.7C1364.1,54.2,1362,52.7,1360,52.7z M1362,56.6v4h-12.6v-4c0-1.1,1-1.7,2-1.7
					h8.6C1360.8,54.9,1362,55.6,1362,56.6z"/>
				<path fill="#F8F9F7" d="M1362.9,70.1c-0.8,0-1.6-0.7-1.6-1.6v-5.4h-11.6v5.4c0,0.8-0.7,1.6-1.6,1.6s-1.6-0.7-1.6-1.6V56.7
					c0-2.4,2.1-4.4,4.7-4.4h8.6c2.3,0,4.7,1.7,4.7,4.4v11.9C1364.6,69.4,1363.9,70.1,1362.9,70.1z M1348.8,62.2h13.6v6.4
					c0,0.3,0.3,0.6,0.6,0.6c0.3,0,0.6-0.3,0.6-0.6V56.7c0-2.1-1.8-3.4-3.7-3.4h-8.6c-2,0-3.7,1.6-3.7,3.4v11.9
					c0,0.3,0.3,0.6,0.6,0.6c0.3,0,0.6-0.3,0.6-0.6v-6.4H1348.8z M1362.4,61.1h-13.6v-4.5c0-1.4,1.3-2.3,2.5-2.3h8.6
					c1.3,0,2.5,0.8,2.5,2.3v4.5H1362.4z M1349.8,60.1h11.6v-3.5c0-0.7-0.8-1.3-1.6-1.3h-8.6c-0.7,0-1.6,0.4-1.6,1.3v3.5H1349.8z"/>
			</g>
		</g>
	</g>
	<g>
		<path fill="#F8F9F7" d="M1205.7,81l5.4,13.6h-1.4l-1.7-4.2h-6.2l-1.7,4.2h-1.4l5.5-13.6H1205.7z M1207.5,89.2l-2.7-6.9l-2.7,6.9
			H1207.5z"/>
		<path fill="#F8F9F7" d="M1238.7,83.7c-0.3-0.4-0.6-0.7-1-1c-0.4-0.3-0.8-0.4-1.3-0.7c-0.4-0.1-1-0.3-1.4-0.3
			c-0.8,0-1.7,0.1-2.3,0.6c-0.7,0.3-1.1,0.8-1.6,1.4c-0.4,0.6-0.7,1.3-0.8,2s-0.3,1.4-0.3,2.1c0,0.7,0.1,1.4,0.3,2.1s0.6,1.4,0.8,2
			c0.4,0.6,1,1,1.6,1.4c0.7,0.3,1.4,0.6,2.3,0.6c0.6,0,1.3-0.1,1.7-0.3c0.6-0.3,1-0.6,1.3-1c0.4-0.4,0.7-0.8,0.8-1.4
			c0.3-0.6,0.4-1.1,0.4-1.7h1.3c-0.1,0.8-0.3,1.6-0.6,2.3c-0.3,0.7-0.7,1.3-1.1,1.7c-0.4,0.4-1,0.8-1.7,1.1
			c-0.7,0.3-1.4,0.4-2.1,0.4c-1.1,0-2-0.1-2.8-0.6c-0.8-0.4-1.4-0.8-2-1.6c-0.6-0.7-1-1.4-1.1-2.3c-0.3-0.8-0.4-1.7-0.4-2.7
			c0-1,0.1-1.8,0.4-2.7c0.3-0.8,0.7-1.6,1.1-2.3c0.6-0.7,1.3-1.1,2-1.6c0.7-0.4,1.7-0.6,2.8-0.6c0.7,0,1.3,0.1,1.8,0.3
			c0.6,0.1,1.1,0.4,1.7,0.8c0.6,0.4,1,0.8,1.3,1.4c0.3,0.6,0.6,1.1,0.7,1.8h-1.3C1239.2,84.5,1239,84.1,1238.7,83.7z"/>
		<path fill="#F8F9F7" d="M1265.3,81l5.4,13.6h-1.4l-1.7-4.2h-6.2l-1.7,4.2h-1.4l5.5-13.6H1265.3z M1267.1,89.2l-2.7-6.9l-2.7,6.9
			H1267.1z"/>
		<path fill="#F8F9F7" d="M1293.6,81c2.1,0,3.7,0.6,4.7,1.7c1,1.1,1.6,2.8,1.6,5.1c0,2.3-0.6,4-1.6,5.1c-1,1.1-2.5,1.7-4.7,1.7h-4.7
			V81C1288.9,81,1293.6,81,1293.6,81z M1293,93.4c1,0,1.8-0.1,2.5-0.3s1.3-0.6,1.7-1c0.4-0.4,0.8-1,1-1.8c0.3-0.7,0.3-1.6,0.3-2.5
			c0-1-0.1-1.8-0.3-2.5c-0.3-0.7-0.6-1.3-1-1.8c-0.4-0.4-1-0.8-1.7-1s-1.6-0.3-2.5-0.3h-2.8v11.4h2.8V93.4z"/>
		<path fill="#F8F9F7" d="M1328.5,81v1.1h-8.1v4.9h7.6v1.1h-7.6v5.4h8.2v1.1h-9.5V81.2h9.3V81z"/>
		<path fill="#F8F9F7" d="M1349.2,81l4.5,11.9l4.7-11.9h1.8v13.6h-1.3V82.8l0,0l-4.7,11.7h-1.3l-4.5-11.7l0,0v11.7h-1.3V81H1349.2z"
			/>
		<path fill="#F8F9F7" d="M1378.6,81h1.6l4.5,6.9l4.5-6.9h1.6l-5.4,8.1v5.7h-1.3v-5.7L1378.6,81z"/>
	</g>
</g>
</svg>
