<?xml version="1.0" encoding="utf-8"?>
<!-- Generator: Adobe Illustrator 18.1.1, SVG Export Plug-In . SVG Version: 6.00 Build 0)  -->
<svg version="1.1" id="Layer_1" xmlns="http://www.w3.org/2000/svg" xmlns:xlink="http://www.w3.org/1999/xlink" x="0px" y="0px"
	 viewBox="0 0 1440 810" enable-background="new 0 0 1440 810" xml:space="preserve">
<pattern  y="810" width="563.6" height="563.6" patternUnits="userSpaceOnUse" id="New_Pattern" viewBox="0 -563.6 563.6 563.6" overflow="visible">
	<g>
		<polygon fill="none" points="0,0 563.6,0 563.6,-563.6 0,-563.6 		"/>
		<g>
			<polygon fill="none" points="0,0 563.6,0 563.6,-563.6 0,-563.6 			"/>
			<path fill="#FFFFFF" d="M181.7-197.4c0.6,1.1,0.8,2.4,0.5,3.6s-1.1,2.2-2.2,2.9c-0.7,0.4-1.6,0.7-2.4,0.7c-1.7,0-3.2-0.9-4.1-2.3
				c-0.6-1.1-0.8-2.4-0.5-3.6s1.1-2.2,2.2-2.9c0.7-0.4,1.6-0.7,2.4-0.7C179.2-199.7,180.8-198.8,181.7-197.4z"/>
			<path fill="#FFFFFF" d="M169.2-263.4c-1.1,0-2-0.9-2-2s0.9-2,2-2s2,0.9,2,2S170.3-263.4,169.2-263.4z"/>
			<path fill="#FFFFFF" d="M182.2-17.4c2.6,0,4.7,2.1,4.7,4.7c0,2.6-2.1,4.7-4.7,4.7c-2.6,0-4.7-2.1-4.7-4.7
				C177.5-15.2,179.6-17.4,182.2-17.4z"/>
			<path fill="#FFFFFF" d="M155.1-164.4c-0.4,0.2-0.8,0.4-1.3,0.4c-0.9,0-1.7-0.5-2.2-1.3c-0.3-0.6-0.4-1.3-0.3-1.9
				c0.2-0.7,0.6-1.2,1.2-1.6c0.4-0.2,0.8-0.4,1.3-0.4c0.9,0,1.7,0.5,2.2,1.3c0.3,0.6,0.4,1.3,0.3,1.9
				C156.1-165.3,155.7-164.8,155.1-164.4z"/>
			<path fill="#FFFFFF" d="M164.8-67.6c1.4,0,2.5,1.1,2.5,2.5s-1.1,2.5-2.5,2.5s-2.5-1.1-2.5-2.5C162.2-66.4,163.4-67.6,164.8-67.6z
				"/>
			<path fill="#FFFFFF" d="M158.1-7.1c-0.4,0-0.6-0.3-0.6-0.6c0-0.4,0.3-0.6,0.6-0.6c0.4,0,0.6,0.3,0.6,0.6
				C158.7-7.4,158.4-7.1,158.1-7.1z"/>
			<path fill="#FFFFFF" d="M193.3-138.6c-1.1,0-2.3-0.4-3.1-1.2c-2-1.7-2.1-4.7-0.4-6.7c0.9-1,2.2-1.6,3.5-1.6
				c1.1,0,2.3,0.4,3.1,1.2c0.9,0.8,1.5,2,1.6,3.2c0.1,1.3-0.3,2.5-1.2,3.4C195.9-139.1,194.6-138.6,193.3-138.6z"/>
			<path fill="#FFFFFF" d="M186.4-42c-0.5-0.8-0.6-1.7-0.4-2.6c0.2-0.9,0.8-1.6,1.6-2.1c0.5-0.3,1.1-0.5,1.7-0.5
				c1.2,0,2.3,0.6,2.9,1.7c0.5,0.8,0.6,1.7,0.4,2.6c-0.2,0.9-0.8,1.6-1.6,2.1c-0.5,0.3-1.1,0.5-1.7,0.5C188.1-40.3,187-41,186.4-42z
				"/>
			<path fill="#FFFFFF" d="M162.1-227.4c0.4,0,0.8,0.1,1.1,0.4s0.5,0.7,0.5,1.1s-0.1,0.8-0.4,1.2c-0.3,0.3-0.7,0.5-1.2,0.5
				c-0.4,0-0.8-0.1-1.1-0.4c-0.7-0.6-0.7-1.6-0.1-2.3C161.2-227.2,161.7-227.4,162.1-227.4z"/>
			<path fill="#FFFFFF" d="M166.3-130.3c0,0.5-0.1,1.1-0.5,1.5s-0.9,0.7-1.5,0.7c-0.5,0-1-0.2-1.3-0.5c-0.4-0.4-0.6-0.9-0.7-1.4
				c0-0.5,0.1-1.1,0.5-1.5s0.9-0.7,1.5-0.7c0.5,0,1,0.2,1.3,0.5C166-131.3,166.3-130.8,166.3-130.3z"/>
			<path fill="#FFFFFF" d="M154.4-196.6c0.6,0,1.1,0.3,1.4,0.8c0.4,0.8,0.2,1.7-0.6,2.2c-0.2,0.1-0.5,0.2-0.8,0.2
				c-0.6,0-1.1-0.3-1.4-0.8c-0.4-0.8-0.2-1.7,0.6-2.2C153.8-196.5,154.1-196.6,154.4-196.6z"/>
			<path fill="#FFFFFF" d="M166.3-108.7c0.3-0.3,0.7-0.5,1.2-0.5c0.4,0,0.8,0.1,1.1,0.4c0.7,0.6,0.7,1.6,0.1,2.3
				c-0.3,0.3-0.7,0.5-1.2,0.5c-0.4,0-0.8-0.1-1.1-0.4C165.8-107.1,165.7-108.1,166.3-108.7z"/>
			<path fill="#FFFFFF" d="M124-45.9c0.2-0.3,0.7-0.3,0.9-0.1c0.1,0.1,0.2,0.3,0.2,0.4c0,0.2,0,0.3-0.2,0.5
				c-0.1,0.1-0.3,0.2-0.5,0.2s-0.3-0.1-0.4-0.2C123.8-45.2,123.8-45.6,124-45.9z"/>
			<path fill="#FFFFFF" d="M130.3-220c0.3-0.2,0.7-0.1,0.9,0.2c0.1,0.2,0.1,0.3,0.1,0.5s-0.2,0.3-0.3,0.4s-0.2,0.1-0.3,0.1
				c-0.2,0-0.4-0.1-0.6-0.3c-0.1-0.2-0.1-0.3-0.1-0.5C130-219.8,130.1-219.9,130.3-220z"/>
			<path fill="#FFFFFF" d="M121.4-76.2c-0.9-0.8-1.5-2-1.6-3.2c-0.1-1.3,0.3-2.5,1.2-3.4c0.9-1,2.2-1.6,3.5-1.6
				c1.1,0,2.3,0.4,3.1,1.2c2,1.7,2.1,4.7,0.4,6.7c-0.9,1-2.2,1.6-3.5,1.6C123.3-75,122.2-75.4,121.4-76.2z"/>
			<path fill="#FFFFFF" d="M265.7-67.7c0.8,0,1.6,0.3,2.2,0.8c1.4,1.2,1.5,3.4,0.3,4.7c-0.6,0.7-1.6,1.1-2.5,1.1
				c-0.8,0-1.6-0.3-2.2-0.8c-0.7-0.6-1.1-1.4-1.1-2.3c-0.1-0.9,0.2-1.8,0.8-2.4C263.8-67.3,264.7-67.7,265.7-67.7z"/>
			<path fill="#FFFFFF" d="M127.4-145.6c0.5,0.4,0.5,1.2,0.1,1.7c-0.2,0.3-0.6,0.4-0.9,0.4s-0.6-0.1-0.8-0.3
				c-0.5-0.4-0.5-1.2-0.1-1.7c0.2-0.3,0.6-0.4,0.9-0.4S127.2-145.8,127.4-145.6z"/>
			<path fill="#FFFFFF" d="M141.8-50.7c0.6,0,1.2,0.2,1.7,0.6c0.5,0.4,0.8,1.1,0.9,1.8c0,0.7-0.2,1.3-0.6,1.8
				c-0.5,0.6-1.2,0.9-1.9,0.9c-0.6,0-1.2-0.2-1.7-0.6c-1.1-0.9-1.2-2.5-0.2-3.6C140.3-50.4,141-50.7,141.8-50.7z"/>
			<path fill="#FFFFFF" d="M131.2-252.7c0.7,0,1.2,0.5,1.2,1.2s-0.5,1.2-1.2,1.2s-1.2-0.5-1.2-1.2S130.5-252.7,131.2-252.7z"/>
			<path fill="#FFFFFF" d="M135.5-21.3c-0.4,0-0.8-0.1-1.1-0.4c-0.7-0.6-0.7-1.6-0.1-2.3c0.3-0.3,0.7-0.5,1.2-0.5
				c0.4,0,0.8,0.1,1.1,0.4c0.3,0.3,0.5,0.7,0.5,1.1c0,0.4-0.1,0.8-0.4,1.2C136.4-21.5,135.9-21.3,135.5-21.3z"/>
			<path fill="#FFFFFF" d="M146-128c-0.6,0-1.2-0.2-1.7-0.6c-1.1-0.9-1.2-2.5-0.2-3.6c0.5-0.6,1.2-0.9,1.9-0.9
				c0.6,0,1.2,0.2,1.7,0.6c1.1,0.9,1.2,2.5,0.2,3.6C147.4-128.4,146.7-128,146-128z"/>
			<path fill="#FFFFFF" d="M131.5-230.4c-0.5,0.3-1.1,0.5-1.7,0.5c-1.2,0-2.3-0.6-2.9-1.7c-0.9-1.6-0.4-3.7,1.2-4.6
				c0.5-0.3,1.1-0.5,1.7-0.5c1.2,0,2.3,0.6,2.9,1.7C133.7-233.4,133.1-231.3,131.5-230.4z"/>
			<path fill="#FFFFFF" d="M134-266.9c0.2-0.1,0.4-0.2,0.6-0.2c0.4,0,0.8,0.2,1,0.6c0.2,0.3,0.2,0.6,0.1,0.9
				c-0.1,0.3-0.3,0.6-0.6,0.7c-0.2,0.1-0.4,0.2-0.6,0.2c-0.4,0-0.8-0.2-1-0.6C133.2-265.8,133.4-266.5,134-266.9z"/>
			<path fill="#FFFFFF" d="M172.3-156c0.3,0.2,0.3,0.6,0.1,0.9c-0.1,0.1-0.3,0.2-0.5,0.2s-0.3-0.1-0.4-0.2c-0.3-0.2-0.3-0.6-0.1-0.9
				C171.6-156.2,172.1-156.3,172.3-156z"/>
			<path fill="#FFFFFF" d="M250.3-67.2c-0.2,0.3-0.6,0.4-0.9,0.4c-0.3,0-0.6-0.1-0.8-0.3c-0.2-0.2-0.4-0.5-0.4-0.8s0.1-0.6,0.3-0.9
				s0.6-0.4,0.9-0.4c0.3,0,0.6,0.1,0.8,0.3C250.7-68.4,250.8-67.7,250.3-67.2z"/>
			<path fill="#FFFFFF" d="M254-173.6c-0.7,0-1.2-0.5-1.2-1.2s0.5-1.2,1.2-1.2s1.2,0.5,1.2,1.2S254.7-173.6,254-173.6z"/>
			<path fill="#FFFFFF" d="M228-260.6c0.9,0,1.6,0.7,1.6,1.6s-0.7,1.6-1.6,1.6c-0.9,0-1.6-0.7-1.6-1.6S227.1-260.6,228-260.6z"/>
			<path fill="#FFFFFF" d="M229.7-216.9c1.9,0,3.4,1.5,3.4,3.4s-1.5,3.4-3.4,3.4s-3.4-1.5-3.4-3.4
				C226.4-215.4,227.9-216.9,229.7-216.9z"/>
			<path fill="#FFFFFF" d="M250.3-62.9c0.5,0,1,0.2,1.3,0.5c0.4,0.4,0.6,0.9,0.7,1.4c0,0.5-0.1,1.1-0.5,1.5s-0.9,0.7-1.5,0.7
				c-0.5,0-1-0.2-1.3-0.5c-0.4-0.4-0.6-0.9-0.7-1.4c0-0.5,0.1-1.1,0.5-1.5C249.1-62.7,249.7-62.9,250.3-62.9z"/>
			<path fill="#FFFFFF" d="M255.9-155.7c-0.2,0.9-0.8,1.6-1.6,2.1c-0.5,0.3-1.1,0.5-1.7,0.5c-1.2,0-2.3-0.6-2.9-1.7
				c-0.9-1.6-0.4-3.7,1.2-4.6c0.5-0.3,1.1-0.5,1.7-0.5c1.2,0,2.3,0.6,2.9,1.7C256-157.5,256.2-156.6,255.9-155.7z"/>
			<path fill="#FFFFFF" d="M268.8-2c0.7-0.4,1.5-0.7,2.4-0.7c1.7,0,3.2,0.9,4.1,2.3c0.1,0.1,0.1,0.2,0.2,0.4H267
				C267.3-0.8,268-1.6,268.8-2z"/>
			<path fill="#FFFFFF" d="M259-265.9c0.6-0.7,1.6-1.1,2.5-1.1c0.8,0,1.6,0.3,2.2,0.8c0.7,0.6,1.1,1.4,1.1,2.3
				c0.1,0.9-0.2,1.8-0.8,2.4c-0.6,0.7-1.6,1.1-2.5,1.1c-0.8,0-1.6-0.3-2.2-0.8c-0.7-0.6-1.1-1.4-1.1-2.3
				C258.1-264.4,258.4-265.3,259-265.9z"/>
			<path fill="#FFFFFF" d="M262.5-169.2c0.3,0.2,0.3,0.6,0.1,0.9c-0.1,0.1-0.3,0.2-0.5,0.2s-0.3-0.1-0.4-0.2
				c-0.3-0.2-0.3-0.6-0.1-0.9C261.8-169.4,262.2-169.5,262.5-169.2z"/>
			<path fill="#FFFFFF" d="M258.3-86.8c0.1,0.1,0.2,0.3,0.2,0.4c0,0.2,0,0.3-0.2,0.5c-0.1,0.1-0.3,0.2-0.5,0.2s-0.3-0.1-0.4-0.2
				s-0.2-0.3-0.2-0.4c0-0.2,0-0.3,0.2-0.5C257.6-87,258-87.1,258.3-86.8z"/>
			<path fill="#FFFFFF" d="M254.5-141.3c-0.5,0-1-0.2-1.3-0.5c-0.4-0.4-0.6-0.9-0.7-1.4c0-0.5,0.1-1.1,0.5-1.5s0.9-0.7,1.5-0.7
				c0.5,0,1,0.2,1.3,0.5c0.4,0.4,0.6,0.9,0.7,1.4v0.1l-0.3-0.5l-0.1,0.1l-0.1,0.1l0.3,0.5l0.1-0.1l0.1-0.1c0,0.5-0.2,1-0.5,1.4
				C255.6-141.6,255.1-141.3,254.5-141.3z"/>
			<path fill="#FFFFFF" d="M266.8-31.3c0.3-0.2,0.7-0.3,1-0.3c0.7,0,1.4,0.4,1.8,1c0.3,0.5,0.4,1,0.2,1.5c-0.1,0.5-0.5,1-0.9,1.2
				c-0.3,0.2-0.7,0.3-1,0.3c-0.7,0-1.4-0.4-1.7-1C265.5-29.5,265.8-30.8,266.8-31.3z"/>
			<path fill="#FFFFFF" d="M216.8-156.8c-0.3,0-0.6-0.1-0.8-0.3c-0.2-0.2-0.4-0.5-0.4-0.8s0.1-0.6,0.3-0.9s0.6-0.4,0.9-0.4
				c0.3,0,0.6,0.1,0.8,0.3c0.5,0.4,0.5,1.2,0.1,1.7C217.4-156.9,217.1-156.8,216.8-156.8z"/>
			<path fill="#FFFFFF" d="M216.6-192.5c-0.5,0.6-1.2,0.9-1.9,0.9c-0.6,0-1.2-0.2-1.7-0.6c-1.1-0.9-1.2-2.5-0.2-3.6
				c0.5-0.6,1.2-0.9,1.9-0.9c0.6,0,1.2,0.2,1.7,0.6C217.5-195.1,217.6-193.5,216.6-192.5z"/>
			<path fill="#FFFFFF" d="M204.2-84.9c-0.4,0-0.8-0.1-1.1-0.4c-0.7-0.6-0.7-1.6-0.1-2.3c0.3-0.3,0.7-0.5,1.2-0.5
				c0.4,0,0.8,0.1,1.1,0.4c0.7,0.6,0.7,1.6,0.1,2.3C205.1-85.1,204.7-84.9,204.2-84.9z"/>
			<path fill="#FFFFFF" d="M213-6.8c0.2-0.1,0.5-0.2,0.8-0.2c0.6,0,1.1,0.3,1.4,0.8c0.2,0.4,0.3,0.8,0.2,1.2s-0.4,0.8-0.7,1
				c-0.2,0.1-0.5,0.2-0.8,0.2c-0.6,0-1.1-0.3-1.4-0.8C212-5.3,212.2-6.3,213-6.8z"/>
			<path fill="#FFFFFF" d="M175.5-54.5c0.8,0,1.6,0.3,2.2,0.8c0.7,0.6,1.1,1.4,1.1,2.3c0.1,0.9-0.2,1.8-0.8,2.4
				c-0.6,0.7-1.6,1.1-2.5,1.1c-0.8,0-1.6-0.3-2.2-0.8c-0.7-0.6-1.1-1.4-1.1-2.3c-0.1-0.9,0.2-1.8,0.8-2.4
				C173.7-54.1,174.6-54.5,175.5-54.5z"/>
			<path fill="#FFFFFF" d="M234.7-249.4c-0.2,0.1-0.4,0.2-0.6,0.2c-0.4,0-0.8-0.2-1-0.6c-0.3-0.6-0.1-1.3,0.4-1.6
				c0.2-0.1,0.4-0.2,0.6-0.2c0.4,0,0.8,0.2,1,0.6C235.4-250.4,235.2-249.7,234.7-249.4z"/>
			<path fill="#FFFFFF" d="M229.8-204.6c0.3-0.2,0.7-0.1,0.9,0.2c0.1,0.2,0.1,0.3,0.1,0.5s-0.2,0.3-0.3,0.4s-0.2,0.1-0.3,0.1
				c-0.2,0-0.4-0.1-0.6-0.3C229.4-204,229.5-204.4,229.8-204.6z"/>
			<path fill="#FFFFFF" d="M212.6-76.7c0.3,0,0.6,0.1,0.8,0.3c0.5,0.4,0.5,1.2,0.1,1.7c-0.2,0.3-0.6,0.4-0.9,0.4
				c-0.3,0-0.6-0.1-0.8-0.3c-0.2-0.2-0.4-0.5-0.4-0.8s0.1-0.6,0.3-0.9C211.9-76.6,212.2-76.7,212.6-76.7z"/>
			<path fill="#FFFFFF" d="M210.5-132.3c0.4-0.2,0.8-0.4,1.3-0.4c0.9,0,1.7,0.5,2.2,1.3c0.3,0.6,0.4,1.3,0.3,1.9
				c-0.2,0.7-0.6,1.2-1.2,1.6c-0.4,0.2-0.8,0.4-1.3,0.4c-0.9,0-1.7-0.5-2.2-1.3c-0.3-0.6-0.4-1.3-0.3-1.9
				C209.5-131.4,209.9-132,210.5-132.3z"/>
			<path fill="#FFFFFF" d="M207.3-220.9c0.3-0.2,0.7-0.3,1-0.3c0.7,0,1.4,0.4,1.8,1c0.6,1,0.2,2.2-0.7,2.8c-0.3,0.2-0.7,0.3-1,0.3
				c-0.7,0-1.4-0.4-1.7-1C206-219.1,206.4-220.4,207.3-220.9z"/>
			<path fill="#FFFFFF" d="M281.6-212.8c0,0.4-0.3,0.6-0.6,0.6c-0.4,0-0.6-0.3-0.6-0.6c0-0.4,0.3-0.6,0.6-0.6
				C281.3-213.4,281.6-213.1,281.6-212.8z"/>
			<path fill="#FFFFFF" d="M21.2-209c0.5-0.6,1.2-0.9,1.9-0.9c0.6,0,1.2,0.2,1.7,0.6c1.1,0.9,1.2,2.5,0.2,3.6
				c-0.5,0.6-1.2,0.9-1.9,0.9c-0.6,0-1.2-0.2-1.7-0.6C20.4-206.4,20.3-208,21.2-209z"/>
			<path fill="#FFFFFF" d="M120.3-2c1.1,0,2.3,0.4,3.1,1.2c0.3,0.2,0.5,0.5,0.7,0.8h-7.7c0.1-0.1,0.2-0.3,0.3-0.4
				C117.6-1.4,118.9-2,120.3-2z"/>
			<path fill="#FFFFFF" d="M18.6-217.7c0-2.6,2.1-4.7,4.7-4.7s4.7,2.1,4.7,4.7s-2.1,4.7-4.7,4.7C20.7-212.9,18.6-215.1,18.6-217.7z"
				/>
			<path fill="#FFFFFF" d="M27.1-249.6c0.2-0.9,0.8-1.6,1.6-2.1c0.5-0.3,1.1-0.5,1.7-0.5c1.2,0,2.3,0.6,2.9,1.7
				c0.5,0.8,0.6,1.7,0.4,2.6c-0.2,0.9-0.8,1.6-1.6,2.1c-0.5,0.3-1.1,0.5-1.7,0.5c-1.2,0-2.3-0.6-2.9-1.7
				C27-247.8,26.8-248.7,27.1-249.6z"/>
			<path fill="#FFFFFF" d="M13.2-255.9c-0.1-0.9,0.2-1.8,0.8-2.4c0.6-0.7,1.6-1.1,2.5-1.1c0.8,0,1.6,0.3,2.2,0.8
				c0.7,0.6,1.1,1.4,1.1,2.3c0.1,0.9-0.2,1.8-0.8,2.4c-0.6,0.7-1.6,1.1-2.5,1.1c-0.8,0-1.6-0.3-2.2-0.8
				C13.7-254.2,13.3-255,13.2-255.9z"/>
			<path fill="#FFFFFF" d="M12.3-78.7c0-0.2,0-0.3,0.2-0.5c0.2-0.3,0.7-0.3,0.9-0.1c0.1,0.1,0.2,0.3,0.2,0.4c0,0.2,0,0.3-0.2,0.5
				c-0.1,0.1-0.3,0.2-0.5,0.2s-0.3-0.1-0.4-0.2C12.4-78.4,12.3-78.6,12.3-78.7z"/>
			<path fill="#FFFFFF" d="M7.4-15c0.3-0.2,0.7-0.1,0.9,0.2c0.1,0.1,0.1,0.3,0.1,0.5S8.2-14,8.1-13.9c-0.1,0.1-0.2,0.1-0.3,0.1
				c-0.2,0-0.4-0.1-0.6-0.3C7-14.4,7.1-14.8,7.4-15z"/>
			<path fill="#FFFFFF" d="M8.2-188.7c0-1.1,0.9-2,2-2s2,0.9,2,2s-0.9,2-2,2C9.1-186.6,8.2-187.6,8.2-188.7z"/>
			<path fill="#FFFFFF" d="M11.6-98.5c-0.3-0.3-0.5-0.7-0.5-1.1s0.1-0.8,0.4-1.2c0.3-0.3,0.7-0.5,1.2-0.5c0.4,0,0.8,0.1,1.1,0.4
				s0.5,0.7,0.5,1.1s-0.1,0.8-0.4,1.2c-0.3,0.3-0.7,0.5-1.2,0.5C12.2-98.1,11.9-98.2,11.6-98.5z"/>
			<path fill="#FFFFFF" d="M34.3-61.8c-1.1,0-2.3-0.4-3.1-1.2c-2-1.7-2.1-4.7-0.4-6.7c0.9-1,2.2-1.6,3.5-1.6c1.1,0,2.3,0.4,3.1,1.2
				c2,1.7,2.1,4.7,0.4,6.7C37-62.4,35.7-61.8,34.3-61.8z"/>
			<path fill="#FFFFFF" d="M11.1-61.8c0.2-0.1,0.4-0.2,0.6-0.2c0.4,0,0.8,0.2,1,0.6c0.2,0.3,0.2,0.6,0.1,0.9
				c-0.1,0.3-0.3,0.6-0.6,0.7c-0.2,0.1-0.4,0.2-0.6,0.2c-0.4,0-0.8-0.2-1-0.6c-0.2-0.3-0.2-0.6-0.1-0.9
				C10.6-61.4,10.8-61.7,11.1-61.8z"/>
			<path fill="#FFFFFF" d="M2.2-74.4C2.3-73.1,1.9-71.9,1-71c-0.3,0.3-0.6,0.6-1,0.8v-7.9c0.2,0.1,0.4,0.3,0.6,0.4
				C1.5-76.8,2.1-75.6,2.2-74.4z"/>
			<path fill="#FFFFFF" d="M5.4-55.4c0.5,0,1,0.2,1.3,0.5c0.8,0.7,0.9,2,0.2,2.9c-0.4,0.4-0.9,0.7-1.5,0.7c-0.5,0-1-0.2-1.3-0.5
				c-0.4-0.4-0.6-0.9-0.7-1.4c0-0.5,0.1-1.1,0.5-1.5C4.2-55.1,4.8-55.4,5.4-55.4z"/>
			<path fill="#FFFFFF" d="M123.8-276c0.8-0.9,1.2-2.2,1.2-3.4c-0.1-0.9-0.4-1.7-0.9-2.4c-0.2-0.3-0.5-0.6-0.7-0.8
				c-0.9-0.8-2-1.2-3.1-1.2c-1.4,0-2.7,0.6-3.5,1.6c-0.1,0.1-0.2,0.3-0.3,0.4l0,0c-1.4,1.9-1.1,4.7,0.7,6.3c0.9,0.8,2,1.2,3.1,1.2
				C121.6-274.4,122.9-275,123.8-276z M117.7-276.7l0.4-0.4l0.1,0.1l0.1,0.1l-0.4,0.4l-0.1-0.1L117.7-276.7z"/>
			<path fill="#FFFFFF" d="M276.1-70.5c0.9,0.8,2,1.2,3.1,1.2c0.9,0,1.8-0.3,2.6-0.8l0,0c0.4-0.2,0.7-0.5,1-0.8
				c0.8-0.9,1.2-2.2,1.2-3.4c-0.1-1.3-0.6-2.4-1.6-3.2c-0.2-0.2-0.4-0.3-0.6-0.4l0,0c-0.8-0.5-1.6-0.8-2.6-0.8
				c-1.4,0-2.7,0.6-3.5,1.6C274-75.2,274.2-72.2,276.1-70.5z M276.7-71.7l0.4-0.4l0.1,0.1l0.1,0.1l-0.4,0.4l-0.1-0.1L276.7-71.7z"/>
			<path fill="#FFFFFF" d="M276.4-119.6c0.2-0.1,0.5-0.2,0.8-0.2c0.6,0,1.1,0.3,1.4,0.8c0.2,0.4,0.3,0.8,0.2,1.2
				c-0.1,0.4-0.4,0.8-0.7,1c-0.2,0.1-0.5,0.2-0.8,0.2c-0.6,0-1.1-0.3-1.4-0.8c-0.2-0.4-0.3-0.8-0.2-1.2
				C275.8-119,276-119.4,276.4-119.6z"/>
			<path fill="#FFFFFF" d="M5.8-267.5c-1.4,0-2.5-1.1-2.5-2.5s1.1-2.5,2.5-2.5s2.5,1.1,2.5,2.5C8.4-268.7,7.2-267.5,5.8-267.5z"/>
			<path fill="#FFFFFF" d="M109.9-207.1c0.7-0.4,1.6-0.7,2.4-0.7c1.7,0,3.2,0.9,4.1,2.3c0.6,1.1,0.8,2.4,0.5,3.6s-1.1,2.2-2.2,2.9
				c-0.7,0.4-1.5,0.7-2.4,0.7c-1.7,0-3.2-0.9-4.1-2.3c-0.6-1.1-0.8-2.4-0.5-3.6C108-205.4,108.8-206.4,109.9-207.1z"/>
			<path fill="#FFFFFF" d="M8.4-18.9c0.4,0,0.8,0.1,1.1,0.4c0.7,0.6,0.7,1.6,0.1,2.3c-0.3,0.3-0.7,0.5-1.2,0.5
				c-0.4,0-0.8-0.1-1.1-0.4c-0.7-0.6-0.7-1.6-0.1-2.3C7.5-18.7,8-18.9,8.4-18.9z"/>
			<path fill="#FFFFFF" d="M4.8-160c2,1.7,2.1,4.7,0.4,6.7c-0.9,1-2.2,1.6-3.5,1.6c-0.6,0-1.1-0.1-1.6-0.3v-8.8
				c0.5-0.2,1.1-0.3,1.6-0.3C2.8-161.2,3.9-160.8,4.8-160z"/>
			<path fill="#FFFFFF" d="M18.9-127.5c0.6,0,1.2,0.2,1.7,0.6s0.8,1.1,0.9,1.8c0,0.7-0.2,1.3-0.6,1.8c-0.5,0.6-1.2,0.9-1.9,0.9
				c-0.6,0-1.2-0.2-1.7-0.6s-0.8-1.1-0.9-1.8c0-0.7,0.2-1.3,0.6-1.8C17.5-127.2,18.2-127.5,18.9-127.5z"/>
			<path fill="#FFFFFF" d="M103.4-269.1c-0.1-0.9,0.2-1.8,0.8-2.4c0.6-0.7,1.6-1.1,2.5-1.1c0.8,0,1.6,0.3,2.2,0.8
				c1.4,1.2,1.5,3.4,0.3,4.7c-0.6,0.7-1.6,1.1-2.5,1.1c-0.8,0-1.6-0.3-2.2-0.8C103.9-267.4,103.5-268.2,103.4-269.1z"/>
			<path fill="#FFFFFF" d="M107.8-236.4c0.3-0.2,0.7-0.3,1-0.3c0.7,0,1.4,0.4,1.8,1c0.3,0.5,0.3,1,0.2,1.5c-0.1,0.5-0.5,1-0.9,1.2
				c-0.3,0.2-0.7,0.3-1,0.3c-0.7,0-1.4-0.4-1.8-1c-0.3-0.5-0.3-1-0.2-1.5C107-235.7,107.4-236.1,107.8-236.4z"/>
			<path fill="#FFFFFF" d="M63.3-229.8c0.4-0.2,0.8-0.4,1.3-0.4c0.9,0,1.7,0.5,2.2,1.3c0.3,0.6,0.4,1.3,0.3,1.9
				c-0.2,0.7-0.6,1.2-1.2,1.6c-0.4,0.2-0.8,0.4-1.3,0.4c-0.9,0-1.7-0.5-2.2-1.3C61.6-227.5,62-229.1,63.3-229.8z"/>
			<path fill="#FFFFFF" d="M91.3-268c0.5,0,1,0.2,1.3,0.5c0.4,0.4,0.7,0.9,0.7,1.4s-0.1,1.1-0.5,1.5s-0.9,0.7-1.5,0.7
				c-0.5,0-1-0.2-1.3-0.5c-0.4-0.4-0.6-0.9-0.7-1.4c0-0.5,0.1-1.1,0.5-1.5C90.2-267.7,90.7-268,91.3-268z"/>
			<path fill="#FFFFFF" d="M67.3-120.8c0.6,0,1.2,0.2,1.7,0.6c1.1,0.9,1.2,2.5,0.2,3.6c-0.5,0.6-1.2,0.9-1.9,0.9
				c-0.6,0-1.2-0.2-1.7-0.6c-1.1-0.9-1.2-2.5-0.2-3.6C65.8-120.4,66.5-120.8,67.3-120.8z"/>
			<path fill="#FFFFFF" d="M95.7-72.3c-0.4,0.2-0.8,0.4-1.3,0.4c-0.9,0-1.7-0.5-2.2-1.3c-0.3-0.6-0.4-1.3-0.3-1.9
				c0.2-0.7,0.6-1.2,1.2-1.6c0.4-0.2,0.8-0.4,1.3-0.4c0.9,0,1.7,0.5,2.2,1.3c0.3,0.6,0.4,1.3,0.3,1.9C96.7-73.1,96.3-72.6,95.7-72.3
				z"/>
			<path fill="#FFFFFF" d="M100-189.2c0.6-0.7,1.6-1.1,2.5-1.1c0.8,0,1.6,0.3,2.2,0.8c1.4,1.2,1.5,3.4,0.3,4.7
				c-0.6,0.7-1.6,1.1-2.5,1.1c-0.8,0-1.6-0.3-2.2-0.8C99-185.6,98.8-187.8,100-189.2z"/>
			<path fill="#FFFFFF" d="M99.3-10.1c0.1,0.1,0.2,0.3,0.2,0.4s0,0.3-0.2,0.5C99.2-9.1,99-9,98.8-9s-0.3-0.1-0.4-0.2
				c-0.3-0.2-0.3-0.6-0.1-0.9C98.7-10.3,99.1-10.3,99.3-10.1z"/>
			<path fill="#FFFFFF" d="M103.5-92.5c0.3,0.2,0.3,0.6,0.1,0.9c-0.1,0.1-0.3,0.2-0.5,0.2s-0.3-0.1-0.4-0.2
				c-0.3-0.2-0.3-0.6-0.1-0.9C102.8-92.7,103.3-92.7,103.5-92.5z"/>
			<path fill="#FFFFFF" d="M102.7-130.6c0.1,0.1,0.2,0.3,0.2,0.4c0,0.2,0,0.3-0.2,0.5c-0.1,0.1-0.3,0.2-0.5,0.2s-0.3-0.1-0.4-0.2
				c-0.3-0.2-0.3-0.6-0.1-0.9C102-130.8,102.5-130.8,102.7-130.6z"/>
			<path fill="#FFFFFF" d="M52.8-279.7c-0.5-0.4-0.5-1.2-0.1-1.7c0.2-0.3,0.6-0.4,0.9-0.4c0.3,0,0.6,0.1,0.8,0.3
				c0.2,0.2,0.4,0.5,0.4,0.8s-0.1,0.6-0.3,0.9s-0.6,0.4-0.9,0.4C53.3-279.4,53.1-279.5,52.8-279.7z"/>
			<path fill="#FFFFFF" d="M45.3-8.1c-0.4,0-0.8-0.1-1.1-0.4c-0.3-0.3-0.5-0.7-0.5-1.1c0-0.4,0.1-0.8,0.4-1.2
				c0.3-0.3,0.7-0.5,1.2-0.5c0.4,0,0.8,0.1,1.1,0.4c0.3,0.3,0.5,0.7,0.5,1.1c0,0.4-0.1,0.8-0.4,1.2C46.2-8.3,45.7-8.1,45.3-8.1z"/>
			<path fill="#FFFFFF" d="M50.4-114.9c0.7-0.4,1.5-0.7,2.4-0.7c1.7,0,3.2,0.9,4.1,2.3c0.6,1.1,0.8,2.4,0.5,3.6s-1.1,2.2-2.2,2.9
				c-0.7,0.4-1.6,0.7-2.4,0.7c-1.7,0-3.2-0.9-4.1-2.3C47.4-110.7,48.2-113.6,50.4-114.9z"/>
			<path fill="#FFFFFF" d="M56.2-211.2c0.2,0.4,0.3,0.8,0.2,1.2c-0.1,0.4-0.4,0.8-0.7,1c-0.2,0.1-0.5,0.2-0.8,0.2
				c-0.6,0-1.1-0.3-1.4-0.8c-0.2-0.4-0.3-0.8-0.2-1.2c0.1-0.4,0.4-0.8,0.7-1c0.2-0.1,0.5-0.2,0.8-0.2C55.4-212,56-211.7,56.2-211.2z
				"/>
			<path fill="#FFFFFF" d="M57.8-80c-0.3,0-0.6-0.1-0.8-0.3c-0.2-0.2-0.4-0.5-0.4-0.8s0.1-0.6,0.3-0.9s0.6-0.4,0.9-0.4
				c0.3,0,0.6,0.1,0.8,0.3c0.5,0.4,0.5,1.2,0.1,1.7C58.5-80.1,58.2-80,57.8-80z"/>
			<path fill="#FFFFFF" d="M67.4-136.8c0-1.9,1.5-3.4,3.4-3.4s3.4,1.5,3.4,3.4s-1.5,3.4-3.4,3.4C68.9-133.4,67.4-134.9,67.4-136.8z"
				/>
			<path fill="#FFFFFF" d="M48.4-144.2c0.3-0.2,0.7-0.3,1-0.3c0.7,0,1.4,0.4,1.8,1c0.3,0.5,0.4,1,0.2,1.5c-0.1,0.5-0.5,1-0.9,1.2
				c-0.3,0.2-0.7,0.3-1,0.3c-0.7,0-1.4-0.4-1.8-1c-0.3-0.5-0.4-1-0.2-1.5C47.6-143.5,47.9-143.9,48.4-144.2z"/>
			<path fill="#FFFFFF" d="M69-180.6c-0.9,0-1.6-0.7-1.6-1.6s0.7-1.6,1.6-1.6s1.6,0.7,1.6,1.6S69.9-180.6,69-180.6z"/>
			<path fill="#FFFFFF" d="M70.8-127.8c0.3-0.2,0.7-0.1,0.9,0.2c0.1,0.1,0.1,0.3,0.1,0.5s-0.2,0.3-0.3,0.4c-0.1,0.1-0.2,0.1-0.3,0.1
				c-0.2,0-0.4-0.1-0.6-0.3c-0.1-0.1-0.1-0.3-0.1-0.5C70.6-127.6,70.7-127.7,70.8-127.8z"/>
			<path fill="#FFFFFF" d="M78.3-51.3c-0.5,0-1-0.2-1.3-0.5c-0.4-0.4-0.6-0.9-0.7-1.4c0-0.5,0.1-1.1,0.5-1.5s0.9-0.7,1.5-0.7
				c0.5,0,1,0.2,1.3,0.5c0.4,0.4,0.6,0.9,0.7,1.4c0,0.5-0.1,1.1-0.5,1.5C79.4-51.6,78.8-51.3,78.3-51.3z"/>
			<path fill="#FFFFFF" d="M74.5-174.7c0.2-0.1,0.4-0.2,0.6-0.2c0.4,0,0.8,0.2,1,0.6c0.3,0.6,0.1,1.3-0.4,1.6
				c-0.2,0.1-0.4,0.2-0.6,0.2c-0.4,0-0.8-0.2-1-0.6C73.8-173.6,73.9-174.3,74.5-174.7z"/>
			<path fill="#FFFFFF" d="M463.5-197.4c0.6,1.1,0.8,2.4,0.5,3.6s-1.1,2.2-2.2,2.9c-0.7,0.4-1.5,0.7-2.4,0.7c-1.7,0-3.2-0.9-4.1-2.3
				c-0.6-1.1-0.8-2.4-0.5-3.6s1.1-2.2,2.2-2.9c0.7-0.4,1.5-0.7,2.4-0.7C461-199.7,462.6-198.8,463.5-197.4z"/>
			<path fill="#FFFFFF" d="M450.9-263.4c-1.1,0-2-0.9-2-2s0.9-2,2-2s2,0.9,2,2S452.1-263.4,450.9-263.4z"/>
			<path fill="#FFFFFF" d="M464-17.4c2.6,0,4.7,2.1,4.7,4.7c0,2.6-2.1,4.7-4.7,4.7s-4.7-2.1-4.7-4.7C459.3-15.2,461.4-17.4,464-17.4
				z"/>
			<path fill="#FFFFFF" d="M436.9-164.4c-0.4,0.2-0.8,0.4-1.3,0.4c-0.9,0-1.7-0.5-2.2-1.3c-0.3-0.6-0.4-1.3-0.3-1.9
				c0.2-0.7,0.6-1.2,1.2-1.6c0.4-0.2,0.8-0.4,1.3-0.4c0.9,0,1.7,0.5,2.2,1.3c0.3,0.6,0.4,1.3,0.3,1.9
				C437.9-165.3,437.5-164.8,436.9-164.4z"/>
			<path fill="#FFFFFF" d="M446.6-67.6c1.4,0,2.5,1.1,2.5,2.5s-1.1,2.5-2.5,2.5s-2.5-1.1-2.5-2.5C444-66.4,445.2-67.6,446.6-67.6z"
				/>
			<path fill="#FFFFFF" d="M439.9-7.1c-0.4,0-0.6-0.3-0.6-0.6c0-0.4,0.3-0.6,0.6-0.6c0.4,0,0.6,0.3,0.6,0.6S440.2-7.1,439.9-7.1z"/>
			<path fill="#FFFFFF" d="M475.1-138.6c-1.1,0-2.3-0.4-3.1-1.2c-2-1.7-2.1-4.7-0.4-6.7c0.9-1,2.2-1.6,3.5-1.6
				c1.1,0,2.3,0.4,3.1,1.2c0.9,0.8,1.5,2,1.6,3.2c0.1,1.3-0.3,2.5-1.2,3.4C477.7-139.1,476.4-138.6,475.1-138.6z"/>
			<path fill="#FFFFFF" d="M468.2-42c-0.5-0.8-0.6-1.7-0.4-2.6c0.2-0.9,0.8-1.6,1.6-2.1c0.5-0.3,1.1-0.5,1.7-0.5
				c1.2,0,2.3,0.6,2.9,1.7c0.5,0.8,0.6,1.7,0.4,2.6c-0.2,0.9-0.8,1.6-1.6,2.1c-0.5,0.3-1.1,0.5-1.7,0.5
				C469.9-40.3,468.8-41,468.2-42z"/>
			<path fill="#FFFFFF" d="M443.9-227.4c0.4,0,0.8,0.1,1.1,0.4c0.3,0.3,0.5,0.7,0.5,1.1s-0.1,0.8-0.4,1.2c-0.3,0.3-0.7,0.5-1.2,0.5
				c-0.4,0-0.8-0.1-1.1-0.4c-0.7-0.6-0.7-1.6-0.1-2.3C443-227.2,443.4-227.4,443.9-227.4z"/>
			<path fill="#FFFFFF" d="M448.1-130.3c0,0.5-0.1,1.1-0.5,1.5s-0.9,0.7-1.5,0.7c-0.5,0-1-0.2-1.3-0.5c-0.4-0.4-0.6-0.9-0.7-1.4
				c0-0.5,0.1-1.1,0.5-1.5s0.9-0.7,1.5-0.7c0.5,0,1,0.2,1.3,0.5C447.8-131.3,448.1-130.8,448.1-130.3z"/>
			<path fill="#FFFFFF" d="M436.2-196.6c0.6,0,1.1,0.3,1.4,0.8c0.4,0.8,0.2,1.7-0.6,2.2c-0.2,0.1-0.5,0.2-0.8,0.2
				c-0.6,0-1.1-0.3-1.4-0.8c-0.4-0.8-0.2-1.7,0.6-2.2C435.6-196.5,435.9-196.6,436.2-196.6z"/>
			<path fill="#FFFFFF" d="M448.1-108.7c0.3-0.3,0.7-0.5,1.2-0.5c0.4,0,0.8,0.1,1.1,0.4c0.7,0.6,0.7,1.6,0.1,2.3
				c-0.3,0.3-0.7,0.5-1.2,0.5c-0.4,0-0.8-0.1-1.1-0.4C447.6-107.1,447.5-108.1,448.1-108.7z"/>
			<path fill="#FFFFFF" d="M405.8-45.9c0.2-0.3,0.7-0.3,0.9-0.1c0.1,0.1,0.2,0.3,0.2,0.4c0,0.2,0,0.3-0.2,0.5
				c-0.1,0.1-0.3,0.2-0.5,0.2s-0.3-0.1-0.4-0.2C405.6-45.2,405.6-45.6,405.8-45.9z"/>
			<path fill="#FFFFFF" d="M412.1-220c0.3-0.2,0.7-0.1,0.9,0.2c0.1,0.2,0.1,0.3,0.1,0.5s-0.2,0.3-0.3,0.4c-0.1,0.1-0.2,0.1-0.3,0.1
				c-0.2,0-0.4-0.1-0.6-0.3c-0.1-0.2-0.1-0.3-0.1-0.5C411.8-219.8,411.9-219.9,412.1-220z"/>
			<path fill="#FFFFFF" d="M403.2-76.2c-0.9-0.8-1.5-2-1.6-3.2c-0.1-1.3,0.3-2.5,1.2-3.4c0.9-1,2.2-1.6,3.5-1.6
				c1.1,0,2.3,0.4,3.1,1.2c2,1.7,2.1,4.7,0.4,6.7c-0.9,1-2.2,1.6-3.5,1.6C405.1-75,404-75.4,403.2-76.2z"/>
			<path fill="#FFFFFF" d="M547.5-67.7c0.8,0,1.6,0.3,2.2,0.8c1.4,1.2,1.5,3.4,0.3,4.7c-0.6,0.7-1.6,1.1-2.5,1.1
				c-0.8,0-1.6-0.3-2.2-0.8c-0.7-0.6-1.1-1.4-1.1-2.3c-0.1-0.9,0.2-1.8,0.8-2.4C545.6-67.3,546.5-67.7,547.5-67.7z"/>
			<path fill="#FFFFFF" d="M409.2-145.6c0.5,0.4,0.5,1.2,0.1,1.7c-0.2,0.3-0.6,0.4-0.9,0.4s-0.6-0.1-0.8-0.3
				c-0.5-0.4-0.5-1.2-0.1-1.7c0.2-0.3,0.6-0.4,0.9-0.4S409-145.8,409.2-145.6z"/>
			<path fill="#FFFFFF" d="M423.6-50.7c0.6,0,1.2,0.2,1.7,0.6c0.5,0.4,0.8,1.1,0.9,1.8c0,0.7-0.2,1.3-0.6,1.8
				c-0.5,0.6-1.2,0.9-1.9,0.9c-0.6,0-1.2-0.2-1.7-0.6c-1.1-0.9-1.2-2.5-0.2-3.6C422.1-50.4,422.8-50.7,423.6-50.7z"/>
			<path fill="#FFFFFF" d="M413-252.7c0.7,0,1.2,0.5,1.2,1.2s-0.5,1.2-1.2,1.2s-1.2-0.5-1.2-1.2S412.3-252.7,413-252.7z"/>
			<path fill="#FFFFFF" d="M417.3-21.3c-0.4,0-0.8-0.1-1.1-0.4c-0.7-0.6-0.7-1.6-0.1-2.3c0.3-0.3,0.7-0.5,1.2-0.5
				c0.4,0,0.8,0.1,1.1,0.4c0.3,0.3,0.5,0.7,0.5,1.1c0,0.4-0.1,0.8-0.4,1.2C418.2-21.5,417.7-21.3,417.3-21.3z"/>
			<path fill="#FFFFFF" d="M427.8-128c-0.6,0-1.2-0.2-1.7-0.6c-1.1-0.9-1.2-2.5-0.2-3.6c0.5-0.6,1.2-0.9,1.9-0.9
				c0.6,0,1.2,0.2,1.7,0.6c1.1,0.9,1.2,2.5,0.2,3.6C429.2-128.4,428.5-128,427.8-128z"/>
			<path fill="#FFFFFF" d="M413.3-230.4c-0.5,0.3-1.1,0.5-1.7,0.5c-1.2,0-2.3-0.6-2.9-1.7c-0.9-1.6-0.4-3.7,1.2-4.6
				c0.5-0.3,1.1-0.5,1.7-0.5c1.2,0,2.3,0.6,2.9,1.7C415.5-233.4,414.9-231.3,413.3-230.4z"/>
			<path fill="#FFFFFF" d="M415.8-266.9c0.2-0.1,0.4-0.2,0.6-0.2c0.4,0,0.8,0.2,1,0.6c0.2,0.3,0.2,0.6,0.1,0.9s-0.3,0.6-0.6,0.7
				c-0.2,0.1-0.4,0.2-0.6,0.2c-0.4,0-0.8-0.2-1-0.6C415-265.8,415.2-266.5,415.8-266.9z"/>
			<path fill="#FFFFFF" d="M454.1-156c0.3,0.2,0.3,0.6,0.1,0.9c-0.1,0.1-0.3,0.2-0.5,0.2s-0.3-0.1-0.4-0.2c-0.3-0.2-0.3-0.6-0.1-0.9
				C453.4-156.2,453.8-156.3,454.1-156z"/>
			<path fill="#FFFFFF" d="M532.1-67.2c-0.2,0.3-0.6,0.4-0.9,0.4c-0.3,0-0.6-0.1-0.8-0.3c-0.2-0.2-0.4-0.5-0.4-0.8s0.1-0.6,0.3-0.9
				s0.6-0.4,0.9-0.4c0.3,0,0.6,0.1,0.8,0.3C532.5-68.4,532.6-67.7,532.1-67.2z"/>
			<path fill="#FFFFFF" d="M535.8-173.6c-0.7,0-1.2-0.5-1.2-1.2s0.5-1.2,1.2-1.2s1.2,0.5,1.2,1.2S536.5-173.6,535.8-173.6z"/>
			<path fill="#FFFFFF" d="M509.8-260.6c0.9,0,1.6,0.7,1.6,1.6s-0.7,1.6-1.6,1.6s-1.6-0.7-1.6-1.6
				C508.2-259.9,508.9-260.6,509.8-260.6z"/>
			<path fill="#FFFFFF" d="M511.5-216.9c1.9,0,3.4,1.5,3.4,3.4s-1.5,3.4-3.4,3.4s-3.4-1.5-3.4-3.4
				C508.2-215.4,509.7-216.9,511.5-216.9z"/>
			<path fill="#FFFFFF" d="M532.1-62.9c0.5,0,1,0.2,1.3,0.5c0.4,0.4,0.6,0.9,0.7,1.4c0,0.5-0.1,1.1-0.5,1.5s-0.9,0.7-1.5,0.7
				c-0.5,0-1-0.2-1.3-0.5c-0.4-0.4-0.6-0.9-0.7-1.4c0-0.5,0.1-1.1,0.5-1.5C530.9-62.7,531.5-62.9,532.1-62.9z"/>
			<path fill="#FFFFFF" d="M537.7-155.7c-0.2,0.9-0.8,1.6-1.6,2.1c-0.5,0.3-1.1,0.5-1.7,0.5c-1.2,0-2.3-0.6-2.9-1.7
				c-0.9-1.6-0.4-3.7,1.2-4.6c0.5-0.3,1.1-0.5,1.7-0.5c1.2,0,2.3,0.6,2.9,1.7C537.8-157.5,538-156.6,537.7-155.7z"/>
			<path fill="#FFFFFF" d="M550.6-2c0.7-0.4,1.5-0.7,2.4-0.7c1.7,0,3.2,0.9,4.1,2.3c0.1,0.1,0.1,0.2,0.2,0.4h-8.5
				C549.1-0.8,549.8-1.6,550.6-2z"/>
			<path fill="#FFFFFF" d="M540.8-265.9c0.6-0.7,1.6-1.1,2.5-1.1c0.8,0,1.6,0.3,2.2,0.8c0.7,0.6,1.1,1.4,1.1,2.3
				c0.1,0.9-0.2,1.8-0.8,2.4c-0.6,0.7-1.6,1.1-2.5,1.1c-0.8,0-1.6-0.3-2.2-0.8c-0.7-0.6-1.1-1.4-1.1-2.3
				C539.9-264.4,540.2-265.3,540.8-265.9z"/>
			<path fill="#FFFFFF" d="M544.3-169.2c0.3,0.2,0.3,0.6,0.1,0.9c-0.1,0.1-0.3,0.2-0.5,0.2s-0.3-0.1-0.4-0.2
				c-0.3-0.2-0.3-0.6-0.1-0.9C543.6-169.4,544-169.5,544.3-169.2z"/>
			<path fill="#FFFFFF" d="M540.1-86.8c0.1,0.1,0.2,0.3,0.2,0.4c0,0.2,0,0.3-0.2,0.5c-0.1,0.1-0.3,0.2-0.5,0.2s-0.3-0.1-0.4-0.2
				c-0.1-0.1-0.2-0.3-0.2-0.4c0-0.2,0-0.3,0.2-0.5C539.4-87,539.8-87.1,540.1-86.8z"/>
			<path fill="#FFFFFF" d="M536.3-141.3c-0.5,0-1-0.2-1.3-0.5c-0.4-0.4-0.6-0.9-0.7-1.4c0-0.5,0.1-1.1,0.5-1.5s0.9-0.7,1.5-0.7
				c0.5,0,1,0.2,1.3,0.5c0.4,0.4,0.6,0.9,0.7,1.4v0.1l-0.3-0.5l-0.1,0.1l-0.1,0.1l0.3,0.5l0.1-0.1l0.1-0.1c0,0.5-0.2,1-0.5,1.4
				C537.4-141.6,536.9-141.3,536.3-141.3z"/>
			<path fill="#FFFFFF" d="M548.6-31.3c0.3-0.2,0.7-0.3,1-0.3c0.7,0,1.4,0.4,1.8,1c0.3,0.5,0.3,1,0.2,1.5s-0.5,1-0.9,1.2
				c-0.3,0.2-0.7,0.3-1,0.3c-0.7,0-1.4-0.4-1.7-1C547.3-29.5,547.6-30.8,548.6-31.3z"/>
			<path fill="#FFFFFF" d="M498.6-156.8c-0.3,0-0.6-0.1-0.8-0.3c-0.2-0.2-0.4-0.5-0.4-0.8s0.1-0.6,0.3-0.9c0.2-0.3,0.6-0.4,0.9-0.4
				s0.6,0.1,0.8,0.3c0.5,0.4,0.5,1.2,0.1,1.7C499.2-156.9,498.9-156.8,498.6-156.8z"/>
			<path fill="#FFFFFF" d="M498.4-192.5c-0.5,0.6-1.2,0.9-1.9,0.9c-0.6,0-1.2-0.2-1.7-0.6c-1.1-0.9-1.2-2.5-0.2-3.6
				c0.5-0.6,1.2-0.9,1.9-0.9c0.6,0,1.2,0.2,1.7,0.6C499.3-195.1,499.4-193.5,498.4-192.5z"/>
			<path fill="#FFFFFF" d="M486-84.9c-0.4,0-0.8-0.1-1.1-0.4c-0.7-0.6-0.7-1.6-0.1-2.3c0.3-0.3,0.7-0.5,1.2-0.5
				c0.4,0,0.8,0.1,1.1,0.4c0.7,0.6,0.7,1.6,0.1,2.3C486.9-85.1,486.5-84.9,486-84.9z"/>
			<path fill="#FFFFFF" d="M494.8-6.8c0.2-0.1,0.5-0.2,0.8-0.2c0.6,0,1.1,0.3,1.4,0.8c0.2,0.4,0.3,0.8,0.2,1.2
				c-0.1,0.4-0.4,0.8-0.7,1c-0.2,0.1-0.5,0.2-0.8,0.2c-0.6,0-1.1-0.3-1.4-0.8C493.8-5.3,494-6.3,494.8-6.8z"/>
			<path fill="#FFFFFF" d="M457.3-54.5c0.8,0,1.6,0.3,2.2,0.8c0.7,0.6,1.1,1.4,1.1,2.3c0.1,0.9-0.2,1.8-0.8,2.4
				c-0.6,0.7-1.6,1.1-2.5,1.1c-0.8,0-1.6-0.3-2.2-0.8c-0.7-0.6-1.1-1.4-1.1-2.3c-0.1-0.9,0.2-1.8,0.8-2.4
				C455.4-54.1,456.4-54.5,457.3-54.5z"/>
			<path fill="#FFFFFF" d="M516.5-249.4c-0.2,0.1-0.4,0.2-0.6,0.2c-0.4,0-0.8-0.2-1-0.6c-0.3-0.6-0.1-1.3,0.4-1.6
				c0.2-0.1,0.4-0.2,0.6-0.2c0.4,0,0.8,0.2,1,0.6C517.2-250.4,517-249.7,516.5-249.4z"/>
			<path fill="#FFFFFF" d="M511.6-204.6c0.3-0.2,0.7-0.1,0.9,0.2c0.1,0.2,0.1,0.3,0.1,0.5s-0.2,0.3-0.3,0.4s-0.2,0.1-0.3,0.1
				c-0.2,0-0.4-0.1-0.6-0.3C511.2-204,511.3-204.4,511.6-204.6z"/>
			<path fill="#FFFFFF" d="M494.4-76.7c0.3,0,0.6,0.1,0.8,0.3c0.5,0.4,0.5,1.2,0.1,1.7c-0.2,0.3-0.6,0.4-0.9,0.4s-0.6-0.1-0.8-0.3
				c-0.2-0.2-0.4-0.5-0.4-0.8s0.1-0.6,0.3-0.9C493.7-76.6,494-76.7,494.4-76.7z"/>
			<path fill="#FFFFFF" d="M492.3-132.3c0.4-0.2,0.8-0.4,1.3-0.4c0.9,0,1.7,0.5,2.2,1.3c0.3,0.6,0.4,1.3,0.3,1.9
				c-0.2,0.7-0.6,1.2-1.2,1.6c-0.4,0.2-0.8,0.4-1.3,0.4c-0.9,0-1.7-0.5-2.2-1.3c-0.3-0.6-0.4-1.3-0.3-1.9
				C491.3-131.4,491.7-132,492.3-132.3z"/>
			<path fill="#FFFFFF" d="M489.1-220.9c0.3-0.2,0.7-0.3,1-0.3c0.7,0,1.4,0.4,1.8,1c0.6,1,0.2,2.2-0.7,2.8c-0.3,0.2-0.7,0.3-1,0.3
				c-0.7,0-1.4-0.4-1.7-1C487.8-219.1,488.2-220.4,489.1-220.9z"/>
			<path fill="#FFFFFF" d="M563.4-212.8c0,0.4-0.3,0.6-0.6,0.6c-0.4,0-0.6-0.3-0.6-0.6c0-0.4,0.3-0.6,0.6-0.6
				C563.1-213.4,563.4-213.1,563.4-212.8z"/>
			<path fill="#FFFFFF" d="M303-209c0.5-0.6,1.2-0.9,1.9-0.9c0.6,0,1.2,0.2,1.7,0.6c1.1,0.9,1.2,2.5,0.2,3.6
				c-0.5,0.6-1.2,0.9-1.9,0.9c-0.6,0-1.2-0.2-1.7-0.6C302.2-206.4,302.1-208,303-209z"/>
			<path fill="#FFFFFF" d="M402.1-2c1.1,0,2.3,0.4,3.1,1.2c0.3,0.2,0.5,0.5,0.7,0.8h-7.7c0.1-0.1,0.2-0.3,0.3-0.4
				C399.4-1.4,400.7-2,402.1-2z"/>
			<path fill="#FFFFFF" d="M300.4-217.7c0-2.6,2.1-4.7,4.7-4.7s4.7,2.1,4.7,4.7s-2.1,4.7-4.7,4.7
				C302.5-212.9,300.4-215.1,300.4-217.7z"/>
			<path fill="#FFFFFF" d="M308.9-249.6c0.2-0.9,0.8-1.6,1.6-2.1c0.5-0.3,1.1-0.5,1.7-0.5c1.2,0,2.3,0.6,2.9,1.7
				c0.5,0.8,0.6,1.7,0.4,2.6s-0.8,1.6-1.6,2.1c-0.5,0.3-1.1,0.5-1.7,0.5c-1.2,0-2.3-0.6-2.9-1.7
				C308.8-247.8,308.6-248.7,308.9-249.6z"/>
			<path fill="#FFFFFF" d="M295-255.9c-0.1-0.9,0.2-1.8,0.8-2.4c0.6-0.7,1.6-1.1,2.5-1.1c0.8,0,1.6,0.3,2.2,0.8
				c0.7,0.6,1.1,1.4,1.1,2.3c0.1,0.9-0.2,1.8-0.8,2.4c-0.6,0.7-1.6,1.1-2.5,1.1c-0.8,0-1.6-0.3-2.2-0.8
				C295.5-254.2,295.1-255,295-255.9z"/>
			<path fill="#FFFFFF" d="M294.1-78.7c0-0.2,0-0.3,0.2-0.5c0.2-0.3,0.7-0.3,0.9-0.1c0.1,0.1,0.2,0.3,0.2,0.4c0,0.2,0,0.3-0.2,0.5
				c-0.1,0.1-0.3,0.2-0.5,0.2s-0.3-0.1-0.4-0.2C294.2-78.4,294.1-78.6,294.1-78.7z"/>
			<path fill="#FFFFFF" d="M289.2-15c0.3-0.2,0.7-0.1,0.9,0.2c0.1,0.1,0.1,0.3,0.1,0.5s-0.2,0.3-0.3,0.4c-0.1,0.1-0.2,0.1-0.3,0.1
				c-0.2,0-0.4-0.1-0.6-0.3C288.8-14.4,288.9-14.8,289.2-15z"/>
			<path fill="#FFFFFF" d="M290-188.7c0-1.1,0.9-2,2-2s2,0.9,2,2s-0.9,2-2,2C290.9-186.6,290-187.6,290-188.7z"/>
			<path fill="#FFFFFF" d="M293.4-98.5c-0.3-0.3-0.5-0.7-0.5-1.1s0.1-0.8,0.4-1.2c0.3-0.3,0.7-0.5,1.2-0.5c0.4,0,0.8,0.1,1.1,0.4
				c0.3,0.3,0.5,0.7,0.5,1.1s-0.1,0.8-0.4,1.2c-0.3,0.3-0.7,0.5-1.2,0.5S293.6-98.2,293.4-98.5z"/>
			<path fill="#FFFFFF" d="M316.1-61.8c-1.1,0-2.3-0.4-3.1-1.2c-2-1.7-2.1-4.7-0.4-6.7c0.9-1,2.2-1.6,3.5-1.6c1.1,0,2.3,0.4,3.1,1.2
				c2,1.7,2.1,4.7,0.4,6.7C318.8-62.4,317.5-61.8,316.1-61.8z"/>
			<path fill="#FFFFFF" d="M292.9-61.8c0.2-0.1,0.4-0.2,0.6-0.2c0.4,0,0.8,0.2,1,0.6c0.2,0.3,0.2,0.6,0.1,0.9s-0.3,0.6-0.6,0.7
				c-0.2,0.1-0.4,0.2-0.6,0.2c-0.4,0-0.8-0.2-1-0.6c-0.2-0.3-0.2-0.6-0.1-0.9S292.6-61.7,292.9-61.8z"/>
			<path fill="#FFFFFF" d="M555.4-275.7c-0.7,0.4-1.6,0.7-2.4,0.7c-1.7,0-3.2-0.9-4.1-2.3c-0.6-1.1-0.8-2.4-0.5-3.6
				c0.1-0.3,0.2-0.6,0.3-0.8l0,0c0.4-0.8,1-1.5,1.9-2c0.7-0.4,1.5-0.6,2.4-0.6c1.7,0,3.2,0.9,4.1,2.3c0.1,0.1,0.1,0.2,0.2,0.4
				C558.3-279.6,557.5-276.9,555.4-275.7z"/>
			<path fill="#FFFFFF" d="M287.1-55.4c0.5,0,1,0.2,1.3,0.5c0.8,0.7,0.9,2,0.2,2.9c-0.4,0.4-0.9,0.7-1.5,0.7c-0.5,0-1-0.2-1.3-0.5
				c-0.4-0.4-0.6-0.9-0.7-1.4c0-0.5,0.1-1.1,0.5-1.5S286.6-55.4,287.1-55.4z"/>
			<path fill="#FFFFFF" d="M405.6-276c0.8-0.9,1.2-2.2,1.2-3.4c-0.1-0.9-0.4-1.7-0.9-2.4c-0.2-0.3-0.5-0.6-0.7-0.8
				c-0.9-0.8-2-1.2-3.1-1.2c-1.4,0-2.7,0.6-3.5,1.6c-0.1,0.1-0.2,0.3-0.3,0.4l0,0c-1.4,1.9-1.1,4.7,0.7,6.3c0.9,0.8,2,1.2,3.1,1.2
				C403.4-274.4,404.7-275,405.6-276z M399.5-276.7l0.4-0.4l0.1,0.1l0.1,0.1l-0.4,0.4l-0.1-0.1L399.5-276.7z"/>
			<path fill="#FFFFFF" d="M561.7-159.6c0.5-0.6,1.2-1,1.9-1.3v8.8c-0.5-0.2-1-0.5-1.5-0.9C560.2-154.6,560-157.6,561.7-159.6z"/>
			<path fill="#FFFFFF" d="M563.6-70.1V-78c-0.8-0.5-1.6-0.8-2.6-0.8c-1.4,0-2.7,0.6-3.5,1.6c-1.7,2-1.5,4.9,0.4,6.7
				c0.9,0.8,2,1.2,3.1,1.2C561.9-69.3,562.8-69.6,563.6-70.1z M559.1-71.9l-0.4,0.4l-0.1-0.1l-0.1-0.1l0.4-0.4L559-72L559.1-71.9z"
				/>
			<path fill="#FFFFFF" d="M558.2-119.6c0.2-0.1,0.5-0.2,0.8-0.2c0.6,0,1.1,0.3,1.4,0.8c0.2,0.4,0.3,0.8,0.2,1.2
				c-0.1,0.4-0.4,0.8-0.7,1c-0.2,0.1-0.5,0.2-0.8,0.2c-0.6,0-1.1-0.3-1.4-0.8c-0.2-0.4-0.3-0.8-0.2-1.2
				C557.6-119,557.8-119.4,558.2-119.6z"/>
			<path fill="#FFFFFF" d="M287.6-272.6c1.4,0,2.5,1.1,2.5,2.5s-1.1,2.5-2.5,2.5s-2.5-1.1-2.5-2.5S286.2-272.6,287.6-272.6z"/>
			<path fill="#FFFFFF" d="M391.7-207.1c0.7-0.4,1.5-0.7,2.4-0.7c1.7,0,3.2,0.9,4.1,2.3c0.6,1.1,0.8,2.4,0.5,3.6s-1.1,2.2-2.2,2.9
				c-0.7,0.4-1.5,0.7-2.4,0.7c-1.7,0-3.2-0.9-4.1-2.3c-0.6-1.1-0.8-2.4-0.5-3.6C389.8-205.4,390.6-206.4,391.7-207.1z"/>
			<path fill="#FFFFFF" d="M290.2-18.9c0.4,0,0.8,0.1,1.1,0.4c0.7,0.6,0.7,1.6,0.1,2.3c-0.3,0.3-0.7,0.5-1.2,0.5
				c-0.4,0-0.8-0.1-1.1-0.4c-0.7-0.6-0.7-1.6-0.1-2.3C289.3-18.7,289.8-18.9,290.2-18.9z"/>
			<path fill="#FFFFFF" d="M287-153.4c-0.9,1-2.2,1.6-3.5,1.6c-0.6,0-1.1-0.1-1.6-0.3l0,0c-0.5-0.2-1-0.5-1.5-0.9
				c-2-1.7-2.1-4.7-0.4-6.7c0.5-0.6,1.2-1,1.9-1.3c0.5-0.2,1.1-0.3,1.6-0.3c1.1,0,2.3,0.4,3.1,1.2
				C288.5-158.3,288.7-155.3,287-153.4z"/>
			<path fill="#FFFFFF" d="M300.7-127.5c0.6,0,1.2,0.2,1.7,0.6s0.8,1.1,0.9,1.8c0,0.7-0.2,1.3-0.6,1.8c-0.5,0.6-1.2,0.9-1.9,0.9
				c-0.6,0-1.2-0.2-1.7-0.6s-0.8-1.1-0.9-1.8c0-0.7,0.2-1.3,0.6-1.8C299.3-127.2,300-127.5,300.7-127.5z"/>
			<path fill="#FFFFFF" d="M385.2-269.1c-0.1-0.9,0.2-1.8,0.8-2.4c0.6-0.7,1.6-1.1,2.5-1.1c0.8,0,1.6,0.3,2.2,0.8
				c1.4,1.2,1.5,3.4,0.3,4.7c-0.6,0.7-1.6,1.1-2.5,1.1c-0.8,0-1.6-0.3-2.2-0.8C385.7-267.4,385.3-268.2,385.2-269.1z"/>
			<path fill="#FFFFFF" d="M389.6-236.4c0.3-0.2,0.7-0.3,1-0.3c0.7,0,1.4,0.4,1.8,1c0.3,0.5,0.3,1,0.2,1.5c-0.1,0.5-0.5,1-0.9,1.2
				c-0.3,0.2-0.7,0.3-1,0.3c-0.7,0-1.4-0.4-1.8-1c-0.3-0.5-0.3-1-0.2-1.5C388.8-235.7,389.2-236.1,389.6-236.4z"/>
			<path fill="#FFFFFF" d="M345.1-229.8c0.4-0.2,0.8-0.4,1.3-0.4c0.9,0,1.7,0.5,2.2,1.3c0.3,0.6,0.4,1.3,0.3,1.9
				c-0.2,0.7-0.6,1.2-1.2,1.6c-0.4,0.2-0.8,0.4-1.3,0.4c-0.9,0-1.7-0.5-2.2-1.3C343.4-227.5,343.8-229.1,345.1-229.8z"/>
			<path fill="#FFFFFF" d="M373.1-268c0.5,0,1,0.2,1.3,0.5c0.4,0.4,0.7,0.9,0.7,1.4s-0.1,1.1-0.5,1.5s-0.9,0.7-1.5,0.7
				c-0.5,0-1-0.2-1.3-0.5c-0.4-0.4-0.6-0.9-0.7-1.4c0-0.5,0.1-1.1,0.5-1.5C372-267.7,372.5-268,373.1-268z"/>
			<path fill="#FFFFFF" d="M349.1-120.8c0.6,0,1.2,0.2,1.7,0.6c1.1,0.9,1.2,2.5,0.2,3.6c-0.5,0.6-1.2,0.9-1.9,0.9
				c-0.6,0-1.2-0.2-1.7-0.6c-1.1-0.9-1.2-2.5-0.2-3.6C347.6-120.4,348.3-120.8,349.1-120.8z"/>
			<path fill="#FFFFFF" d="M377.5-72.3c-0.4,0.2-0.8,0.4-1.3,0.4c-0.9,0-1.7-0.5-2.2-1.3c-0.3-0.6-0.4-1.3-0.3-1.9
				c0.2-0.7,0.6-1.2,1.2-1.6c0.4-0.2,0.8-0.4,1.3-0.4c0.9,0,1.7,0.5,2.2,1.3c0.3,0.6,0.4,1.3,0.3,1.9
				C378.5-73.1,378.1-72.6,377.5-72.3z"/>
			<path fill="#FFFFFF" d="M381.8-189.2c0.6-0.7,1.6-1.1,2.5-1.1c0.8,0,1.6,0.3,2.2,0.8c1.4,1.2,1.5,3.4,0.3,4.7
				c-0.6,0.7-1.6,1.1-2.5,1.1c-0.8,0-1.6-0.3-2.2-0.8C380.8-185.6,380.6-187.8,381.8-189.2z"/>
			<path fill="#FFFFFF" d="M381.1-10.1c0.1,0.1,0.2,0.3,0.2,0.4c0,0.2,0,0.3-0.2,0.5C381-9.1,380.8-9,380.6-9s-0.3-0.1-0.4-0.2
				c-0.3-0.2-0.3-0.6-0.1-0.9C380.4-10.3,380.9-10.3,381.1-10.1z"/>
			<path fill="#FFFFFF" d="M385.3-92.5c0.3,0.2,0.3,0.6,0.1,0.9c-0.1,0.1-0.3,0.2-0.5,0.2s-0.3-0.1-0.4-0.2
				c-0.3-0.2-0.3-0.6-0.1-0.9C384.6-92.7,385.1-92.7,385.3-92.5z"/>
			<path fill="#FFFFFF" d="M384.5-130.6c0.1,0.1,0.2,0.3,0.2,0.4c0,0.2,0,0.3-0.2,0.5c-0.1,0.1-0.3,0.2-0.5,0.2s-0.3-0.1-0.4-0.2
				c-0.3-0.2-0.3-0.6-0.1-0.9C383.8-130.8,384.3-130.8,384.5-130.6z"/>
			<path fill="#FFFFFF" d="M334.6-279.7c-0.5-0.4-0.5-1.2-0.1-1.7c0.2-0.3,0.6-0.4,0.9-0.4s0.6,0.1,0.8,0.3c0.2,0.2,0.4,0.5,0.4,0.8
				s-0.1,0.6-0.3,0.9c-0.2,0.3-0.6,0.4-0.9,0.4C335.1-279.4,334.9-279.5,334.6-279.7z"/>
			<path fill="#FFFFFF" d="M327.1-8.1c-0.4,0-0.8-0.1-1.1-0.4c-0.3-0.3-0.5-0.7-0.5-1.1c0-0.4,0.1-0.8,0.4-1.2
				c0.3-0.3,0.7-0.5,1.2-0.5c0.4,0,0.8,0.1,1.1,0.4c0.3,0.3,0.5,0.7,0.5,1.1c0,0.4-0.1,0.8-0.4,1.2C328-8.3,327.5-8.1,327.1-8.1z"/>
			<path fill="#FFFFFF" d="M332.2-114.9c0.7-0.4,1.5-0.7,2.4-0.7c1.7,0,3.2,0.9,4.1,2.3c0.6,1.1,0.8,2.4,0.5,3.6s-1.1,2.2-2.2,2.9
				c-0.7,0.4-1.6,0.7-2.4,0.7c-1.7,0-3.2-0.9-4.1-2.3C329.2-110.7,330-113.6,332.2-114.9z"/>
			<path fill="#FFFFFF" d="M338-211.2c0.2,0.4,0.3,0.8,0.2,1.2c-0.1,0.4-0.4,0.8-0.7,1c-0.2,0.1-0.5,0.2-0.8,0.2
				c-0.6,0-1.1-0.3-1.4-0.8c-0.2-0.4-0.3-0.8-0.2-1.2c0.1-0.4,0.4-0.8,0.7-1c0.2-0.1,0.5-0.2,0.8-0.2
				C337.2-212,337.8-211.7,338-211.2z"/>
			<path fill="#FFFFFF" d="M339.6-80c-0.3,0-0.6-0.1-0.8-0.3c-0.2-0.2-0.4-0.5-0.4-0.8s0.1-0.6,0.3-0.9c0.2-0.3,0.6-0.4,0.9-0.4
				s0.6,0.1,0.8,0.3c0.5,0.4,0.5,1.2,0.1,1.7C340.3-80.1,340-80,339.6-80z"/>
			<path fill="#FFFFFF" d="M349.2-136.8c0-1.9,1.5-3.4,3.4-3.4s3.4,1.5,3.4,3.4s-1.5,3.4-3.4,3.4
				C350.7-133.4,349.2-134.9,349.2-136.8z"/>
			<path fill="#FFFFFF" d="M330.2-144.2c0.3-0.2,0.7-0.3,1-0.3c0.7,0,1.4,0.4,1.8,1c0.3,0.5,0.3,1,0.2,1.5c-0.1,0.5-0.5,1-0.9,1.2
				c-0.3,0.2-0.7,0.3-1,0.3c-0.7,0-1.4-0.4-1.8-1c-0.3-0.5-0.4-1-0.2-1.5C329.4-143.5,329.7-143.9,330.2-144.2z"/>
			<path fill="#FFFFFF" d="M350.8-180.6c-0.9,0-1.6-0.7-1.6-1.6s0.7-1.6,1.6-1.6s1.6,0.7,1.6,1.6S351.7-180.6,350.8-180.6z"/>
			<path fill="#FFFFFF" d="M352.6-127.8c0.3-0.2,0.7-0.1,0.9,0.2c0.1,0.1,0.1,0.3,0.1,0.5s-0.2,0.3-0.3,0.4
				c-0.1,0.1-0.2,0.1-0.3,0.1c-0.2,0-0.4-0.1-0.6-0.3c-0.1-0.1-0.1-0.3-0.1-0.5C352.4-127.6,352.5-127.7,352.6-127.8z"/>
			<path fill="#FFFFFF" d="M360.1-51.3c-0.5,0-1-0.2-1.3-0.5c-0.4-0.4-0.6-0.9-0.7-1.4c0-0.5,0.1-1.1,0.5-1.5s0.9-0.7,1.5-0.7
				c0.5,0,1,0.2,1.3,0.5c0.4,0.4,0.6,0.9,0.7,1.4c0,0.5-0.1,1.1-0.5,1.5C361.2-51.6,360.6-51.3,360.1-51.3z"/>
			<path fill="#FFFFFF" d="M356.3-174.7c0.2-0.1,0.4-0.2,0.6-0.2c0.4,0,0.8,0.2,1,0.6c0.3,0.6,0.1,1.3-0.4,1.6
				c-0.2,0.1-0.4,0.2-0.6,0.2c-0.4,0-0.8-0.2-1-0.6C355.5-173.6,355.7-174.3,356.3-174.7z"/>
			<path fill="#FFFFFF" d="M180-472.7c-0.7,0.4-1.6,0.7-2.4,0.7c-1.7,0-3.2-0.9-4.1-2.3c-0.6-1.1-0.8-2.4-0.5-3.6
				c0.3-1.2,1.1-2.2,2.2-2.9c0.7-0.4,1.6-0.6,2.4-0.6c1.7,0,3.2,0.9,4.1,2.3c0.6,1.1,0.8,2.4,0.5,3.6
				C181.8-474.4,181.1-473.3,180-472.7z"/>
			<path fill="#FFFFFF" d="M169.2-545.2c-1.1,0-2-0.9-2-2c0-1.1,0.9-2,2-2s2,0.9,2,2C171.2-546.1,170.3-545.2,169.2-545.2z"/>
			<path fill="#FFFFFF" d="M182.2-289.7c-2.6,0-4.7-2.1-4.7-4.7s2.1-4.7,4.7-4.7c2.6,0,4.7,2.1,4.7,4.7S184.8-289.7,182.2-289.7z"/>
			<path fill="#FFFFFF" d="M155.1-446.2c-0.4,0.2-0.8,0.4-1.3,0.4c-0.9,0-1.7-0.5-2.2-1.3c-0.3-0.6-0.4-1.3-0.3-1.9
				c0.2-0.7,0.6-1.2,1.2-1.6c0.4-0.2,0.8-0.4,1.3-0.4c0.9,0,1.7,0.5,2.2,1.3c0.3,0.6,0.4,1.3,0.3,1.9
				C156.1-447.1,155.7-446.6,155.1-446.2z"/>
			<path fill="#FFFFFF" d="M164.8-344.3c-1.4,0-2.5-1.1-2.5-2.5c0-1.4,1.1-2.6,2.5-2.6s2.5,1.1,2.5,2.6
				C167.3-345.4,166.2-344.3,164.8-344.3z"/>
			<path fill="#FFFFFF" d="M158.1-288.9c-0.4,0-0.6-0.3-0.6-0.6s0.3-0.6,0.6-0.6c0.4,0,0.6,0.3,0.6,0.6S158.4-288.9,158.1-288.9z"/>
			<path fill="#FFFFFF" d="M193.3-420.3c-1.1,0-2.3-0.4-3.1-1.2c-2-1.7-2.1-4.7-0.4-6.7c0.9-1,2.2-1.6,3.5-1.6
				c1.1,0,2.3,0.4,3.1,1.2c0.9,0.8,1.5,2,1.6,3.2c0.1,1.3-0.3,2.5-1.2,3.4C195.9-420.9,194.6-420.3,193.3-420.3z"/>
			<path fill="#FFFFFF" d="M192.2-327.2c0.5,0.8,0.6,1.7,0.4,2.6c-0.2,0.9-0.8,1.6-1.6,2.1c-0.5,0.3-1.1,0.5-1.7,0.5
				c-1.2,0-2.3-0.6-2.9-1.7c-0.5-0.8-0.6-1.7-0.4-2.6c0.2-0.9,0.8-1.6,1.6-2.1c0.5-0.3,1.1-0.5,1.7-0.5
				C190.5-328.9,191.6-328.2,192.2-327.2z"/>
			<path fill="#FFFFFF" d="M162.1-506c-0.4,0-0.8-0.1-1.1-0.4c-0.7-0.6-0.7-1.6-0.1-2.3c0.3-0.3,0.7-0.5,1.2-0.5
				c0.4,0,0.8,0.1,1.1,0.4c0.3,0.3,0.5,0.7,0.5,1.1s-0.1,0.8-0.4,1.2C163-506.2,162.6-506,162.1-506z"/>
			<path fill="#FFFFFF" d="M164.3-409.9c-0.5,0-1-0.2-1.3-0.5c-0.4-0.4-0.6-0.9-0.7-1.4c0-0.5,0.1-1.1,0.5-1.5
				c0.4-0.4,0.9-0.7,1.5-0.7c0.5,0,1,0.2,1.3,0.5c0.4,0.4,0.6,0.9,0.7,1.4c0,0.5-0.1,1.1-0.5,1.5
				C165.4-410.1,164.9-409.9,164.3-409.9z"/>
			<path fill="#FFFFFF" d="M155.2-475.4c-0.2,0.1-0.5,0.2-0.8,0.2c-0.6,0-1.1-0.3-1.4-0.8c-0.4-0.8-0.2-1.7,0.6-2.2
				c0.2-0.1,0.5-0.2,0.8-0.2c0.6,0,1.1,0.3,1.4,0.8C156.2-476.8,155.9-475.8,155.2-475.4z"/>
			<path fill="#FFFFFF" d="M166.3-390.5c0.3-0.3,0.7-0.5,1.2-0.5c0.4,0,0.8,0.1,1.1,0.4c0.7,0.6,0.7,1.6,0.1,2.3
				c-0.3,0.3-0.7,0.5-1.2,0.5c-0.4,0-0.8-0.1-1.1-0.4C165.8-388.9,165.7-389.9,166.3-390.5z"/>
			<path fill="#FFFFFF" d="M124.5-326.6c-0.2,0-0.3-0.1-0.4-0.2c-0.3-0.2-0.3-0.6-0.1-0.9c0.2-0.3,0.7-0.3,0.9-0.1
				c0.1,0.1,0.2,0.3,0.2,0.4c0,0.2,0,0.3-0.2,0.5C124.8-326.7,124.7-326.6,124.5-326.6z"/>
			<path fill="#FFFFFF" d="M130-501.4c0-0.2,0.2-0.3,0.3-0.4c0.3-0.2,0.7-0.1,0.9,0.2c0.1,0.1,0.1,0.3,0.1,0.5s-0.2,0.3-0.3,0.4
				s-0.2,0.1-0.3,0.1c-0.2,0-0.4-0.1-0.6-0.3C130-501.1,130-501.2,130-501.4z"/>
			<path fill="#FFFFFF" d="M124.5-366.2c1.1,0,2.3,0.4,3.1,1.2c2,1.7,2.1,4.7,0.4,6.7c-0.9,1-2.2,1.6-3.5,1.6
				c-1.1,0-2.3-0.4-3.1-1.2c-0.9-0.8-1.5-2-1.6-3.2c-0.1-1.3,0.3-2.5,1.2-3.4C121.8-365.6,123.1-366.2,124.5-366.2z"/>
			<path fill="#FFFFFF" d="M268.2-343.9c-0.6,0.7-1.6,1.1-2.5,1.1c-0.8,0-1.6-0.3-2.2-0.8c-0.7-0.6-1.1-1.4-1.1-2.3
				c-0.1-0.9,0.2-1.8,0.8-2.4c0.6-0.7,1.6-1.1,2.5-1.1c0.8,0,1.6,0.3,2.2,0.8C269.3-347.4,269.5-345.3,268.2-343.9z"/>
			<path fill="#FFFFFF" d="M127.4-427.4c0.5,0.4,0.5,1.2,0.1,1.7c-0.2,0.3-0.6,0.4-0.9,0.4s-0.6-0.1-0.8-0.3
				c-0.5-0.4-0.5-1.2-0.1-1.7c0.2-0.3,0.6-0.4,0.9-0.4S127.2-427.6,127.4-427.4z"/>
			<path fill="#FFFFFF" d="M144.3-330.1c0,0.7-0.2,1.3-0.6,1.8c-0.5,0.6-1.2,0.9-1.9,0.9c-0.6,0-1.2-0.2-1.7-0.6
				c-1.1-0.9-1.2-2.5-0.2-3.6c0.5-0.6,1.2-0.9,1.9-0.9c0.6,0,1.2,0.2,1.7,0.6C144-331.4,144.3-330.8,144.3-330.1z"/>
			<path fill="#FFFFFF" d="M131.2-532.1c-0.7,0-1.2-0.5-1.2-1.2s0.5-1.2,1.2-1.2s1.2,0.5,1.2,1.2
				C132.4-532.7,131.8-532.1,131.2-532.1z"/>
			<path fill="#FFFFFF" d="M135.5-303.1c-0.4,0-0.8-0.1-1.1-0.4c-0.7-0.6-0.7-1.6-0.1-2.3c0.3-0.3,0.7-0.5,1.2-0.5
				c0.4,0,0.8,0.1,1.1,0.4s0.5,0.7,0.5,1.1s-0.1,0.8-0.4,1.2C136.4-303.3,135.9-303.1,135.5-303.1z"/>
			<path fill="#FFFFFF" d="M146-409.8c-0.6,0-1.2-0.2-1.7-0.6c-1.1-0.9-1.2-2.5-0.2-3.6c0.5-0.6,1.2-0.9,1.9-0.9
				c0.6,0,1.2,0.2,1.7,0.6c1.1,0.9,1.2,2.5,0.2,3.6C147.4-410.2,146.7-409.8,146-409.8z"/>
			<path fill="#FFFFFF" d="M131.5-512.2c-0.5,0.3-1.1,0.5-1.7,0.5c-1.2,0-2.3-0.6-2.9-1.7c-0.9-1.6-0.4-3.7,1.2-4.6
				c0.5-0.3,1.1-0.5,1.7-0.5c1.2,0,2.3,0.6,2.9,1.7C133.7-515.2,133.1-513.1,131.5-512.2z"/>
			<path fill="#FFFFFF" d="M135.2-546.6c-0.2,0.1-0.4,0.2-0.6,0.2c-0.4,0-0.8-0.2-1-0.6c-0.3-0.6-0.1-1.3,0.4-1.6
				c0.2-0.1,0.4-0.2,0.6-0.2c0.4,0,0.8,0.2,1,0.6c0.2,0.3,0.2,0.6,0.1,0.9S135.4-546.8,135.2-546.6z"/>
			<path fill="#FFFFFF" d="M171.9-436.7c-0.2,0-0.3-0.1-0.4-0.2c-0.3-0.2-0.3-0.6-0.1-0.9c0.2-0.3,0.7-0.3,0.9-0.1
				c0.3,0.2,0.3,0.6,0.1,0.9C172.2-436.8,172.1-436.7,171.9-436.7z"/>
			<path fill="#FFFFFF" d="M250.2-350.7c0.5,0.4,0.5,1.2,0.1,1.7c-0.2,0.3-0.6,0.4-0.9,0.4c-0.3,0-0.6-0.1-0.8-0.3s-0.4-0.5-0.4-0.8
				c0-0.3,0.1-0.6,0.3-0.9c0.2-0.3,0.6-0.4,0.9-0.4C249.7-351,250-350.9,250.2-350.7z"/>
			<path fill="#FFFFFF" d="M254-455.4c-0.7,0-1.2-0.5-1.2-1.2s0.5-1.2,1.2-1.2s1.2,0.5,1.2,1.2S254.7-455.4,254-455.4z"/>
			<path fill="#FFFFFF" d="M228-539.2c-0.9,0-1.6-0.7-1.6-1.6c0-0.9,0.7-1.6,1.6-1.6c0.9,0,1.6,0.7,1.6,1.6
				C229.6-539.9,228.9-539.2,228-539.2z"/>
			<path fill="#FFFFFF" d="M229.7-492c-1.9,0-3.4-1.5-3.4-3.4c0-1.9,1.5-3.4,3.4-3.4s3.4,1.5,3.4,3.4
				C233.1-493.5,231.6-492,229.7-492z"/>
			<path fill="#FFFFFF" d="M250.3-344.7c0.5,0,1,0.2,1.3,0.5c0.4,0.4,0.6,0.9,0.7,1.4c0,0.5-0.1,1.1-0.5,1.5s-0.9,0.7-1.5,0.7
				c-0.5,0-1-0.2-1.3-0.5c-0.4-0.4-0.6-0.9-0.7-1.4c0-0.5,0.1-1.1,0.5-1.5C249.1-344.5,249.7-344.7,250.3-344.7z"/>
			<path fill="#FFFFFF" d="M254.4-435.4c-0.5,0.3-1.1,0.5-1.7,0.5c-1.2,0-2.3-0.6-2.9-1.7c-0.9-1.6-0.4-3.7,1.2-4.6
				c0.5-0.3,1.1-0.5,1.7-0.5c1.2,0,2.3,0.6,2.9,1.7c0.5,0.8,0.6,1.7,0.4,2.6C255.7-436.6,255.2-435.9,254.4-435.4z"/>
			<path fill="#FFFFFF" d="M275.3-282.2c0.1,0.1,0.1,0.2,0.2,0.4c1,2.2,0.3,4.9-1.9,6.1c-0.7,0.4-1.6,0.7-2.4,0.7
				c-1.7,0-3.2-0.9-4.1-2.3c-0.6-1.1-0.8-2.4-0.5-3.6c0.1-0.3,0.2-0.6,0.3-0.8l0,0c0.4-0.8,1-1.5,1.9-2c0.7-0.4,1.5-0.6,2.4-0.6
				C272.9-284.5,274.4-283.6,275.3-282.2z"/>
			<path fill="#FFFFFF" d="M261.5-542.2c-0.8,0-1.6-0.3-2.2-0.8c-0.7-0.6-1.1-1.4-1.1-2.3c-0.1-0.9,0.2-1.8,0.8-2.4
				c0.6-0.7,1.6-1.1,2.5-1.1c0.8,0,1.6,0.3,2.2,0.8c0.7,0.6,1.1,1.4,1.1,2.3c0.1,0.9-0.2,1.8-0.8,2.4
				C263.4-542.6,262.5-542.2,261.5-542.2z"/>
			<path fill="#FFFFFF" d="M261.6-451c0.2-0.3,0.7-0.3,0.9-0.1c0.3,0.2,0.3,0.6,0.1,0.9c-0.1,0.1-0.3,0.2-0.5,0.2s-0.3-0.1-0.4-0.2
				C261.4-450.3,261.3-450.7,261.6-451z"/>
			<path fill="#FFFFFF" d="M258.5-368.2c0,0.2,0,0.3-0.2,0.5c-0.1,0.1-0.3,0.2-0.5,0.2s-0.3-0.1-0.4-0.2s-0.2-0.3-0.2-0.4
				c0-0.2,0-0.3,0.2-0.5c0.2-0.3,0.7-0.3,0.9-0.1C258.4-368.5,258.5-368.4,258.5-368.2z"/>
			<path fill="#FFFFFF" d="M256.4-425.1l0.1-0.1c0,0.5-0.2,1-0.5,1.4c-0.4,0.4-0.9,0.7-1.5,0.7c-0.5,0-1-0.2-1.3-0.5
				c-0.4-0.4-0.6-0.9-0.7-1.4c0-0.5,0.1-1.1,0.5-1.5c0.4-0.4,0.9-0.7,1.5-0.7c0.5,0,1,0.2,1.3,0.5c0.4,0.4,0.6,0.9,0.7,1.4v0.1
				l-0.3-0.5l-0.1,0.1l-0.1,0.1l0.3,0.5L256.4-425.1z"/>
			<path fill="#FFFFFF" d="M268.8-309.6c-0.3,0.2-0.7,0.3-1,0.3c-0.7,0-1.4-0.4-1.7-1c-0.6-1-0.2-2.2,0.7-2.8c0.3-0.2,0.7-0.3,1-0.3
				c0.7,0,1.4,0.4,1.8,1c0.3,0.5,0.4,1,0.2,1.5S269.3-309.9,268.8-309.6z"/>
			<path fill="#FFFFFF" d="M216.8-438.6c-0.3,0-0.6-0.1-0.8-0.3c-0.2-0.2-0.4-0.5-0.4-0.8s0.1-0.6,0.3-0.9c0.2-0.3,0.6-0.4,0.9-0.4
				c0.3,0,0.6,0.1,0.8,0.3c0.5,0.4,0.5,1.2,0.1,1.7C217.4-438.7,217.1-438.6,216.8-438.6z"/>
			<path fill="#FFFFFF" d="M214.7-473.4c-0.6,0-1.2-0.2-1.7-0.6c-1.1-0.9-1.2-2.5-0.2-3.6c0.5-0.6,1.2-0.9,1.9-0.9
				c0.6,0,1.2,0.2,1.7,0.6c1.1,0.9,1.2,2.5,0.2,3.6C216.2-473.7,215.5-473.4,214.7-473.4z"/>
			<path fill="#FFFFFF" d="M204.2-366.7c-0.4,0-0.8-0.1-1.1-0.4c-0.7-0.6-0.7-1.6-0.1-2.3c0.3-0.3,0.7-0.5,1.2-0.5
				c0.4,0,0.8,0.1,1.1,0.4c0.7,0.6,0.7,1.6,0.1,2.3C205.1-366.9,204.7-366.7,204.2-366.7z"/>
			<path fill="#FFFFFF" d="M215.2-288c0.2,0.4,0.3,0.8,0.2,1.2c-0.1,0.4-0.4,0.8-0.7,1c-0.2,0.1-0.5,0.2-0.8,0.2
				c-0.6,0-1.1-0.3-1.4-0.8c-0.4-0.8-0.2-1.7,0.6-2.2c0.2-0.1,0.5-0.2,0.8-0.2C214.4-288.8,214.9-288.5,215.2-288z"/>
			<path fill="#FFFFFF" d="M172.2-332.7c-0.1-0.9,0.2-1.8,0.8-2.4c0.6-0.7,1.6-1.1,2.5-1.1c0.8,0,1.6,0.3,2.2,0.8
				c0.7,0.6,1.1,1.4,1.1,2.3c0.1,0.9-0.2,1.8-0.8,2.4c-0.6,0.7-1.6,1.1-2.5,1.1c-0.8,0-1.6-0.3-2.2-0.8
				C172.6-331,172.2-331.8,172.2-332.7z"/>
			<path fill="#FFFFFF" d="M234.7-531.2c-0.2,0.1-0.4,0.2-0.6,0.2c-0.4,0-0.8-0.2-1-0.6c-0.3-0.6-0.1-1.3,0.4-1.6
				c0.2-0.1,0.4-0.2,0.6-0.2c0.4,0,0.8,0.2,1,0.6C235.4-532.2,235.2-531.5,234.7-531.2z"/>
			<path fill="#FFFFFF" d="M230.5-485.3c-0.1,0.1-0.2,0.1-0.3,0.1c-0.2,0-0.4-0.1-0.6-0.3c-0.2-0.3-0.1-0.7,0.2-0.9
				c0.3-0.2,0.7-0.1,0.9,0.2c0.1,0.1,0.1,0.3,0.1,0.5C230.7-485.5,230.6-485.3,230.5-485.3z"/>
			<path fill="#FFFFFF" d="M211.8-356.4c-0.2-0.2-0.4-0.5-0.4-0.8s0.1-0.6,0.3-0.9s0.6-0.4,0.9-0.4c0.3,0,0.6,0.1,0.8,0.3
				c0.5,0.4,0.5,1.2,0.1,1.7c-0.2,0.3-0.6,0.4-0.9,0.4C212.3-356.1,212-356.2,211.8-356.4z"/>
			<path fill="#FFFFFF" d="M214-413.2c0.3,0.6,0.4,1.3,0.3,1.9c-0.2,0.7-0.6,1.2-1.2,1.6c-0.4,0.2-0.8,0.4-1.3,0.4
				c-0.9,0-1.7-0.5-2.2-1.3c-0.3-0.6-0.4-1.3-0.3-1.9c0.2-0.7,0.6-1.2,1.2-1.6c0.4-0.2,0.8-0.4,1.3-0.4
				C212.7-414.5,213.5-414,214-413.2z"/>
			<path fill="#FFFFFF" d="M209.4-499.2c-0.3,0.2-0.7,0.3-1,0.3c-0.7,0-1.4-0.4-1.7-1c-0.6-1-0.2-2.2,0.7-2.8c0.3-0.2,0.7-0.3,1-0.3
				c0.7,0,1.4,0.4,1.8,1C210.7-501.1,210.3-499.8,209.4-499.2z"/>
			<path fill="#FFFFFF" d="M280.9-493.9c-0.4,0-0.6-0.3-0.6-0.6c0-0.4,0.3-0.6,0.6-0.6c0.4,0,0.6,0.3,0.6,0.6
				C281.6-494.2,281.3-493.9,280.9-493.9z"/>
			<path fill="#FFFFFF" d="M23.1-491.7c0.6,0,1.2,0.2,1.7,0.6c1.1,0.9,1.2,2.5,0.2,3.6c-0.5,0.6-1.2,0.9-1.9,0.9
				c-0.6,0-1.2-0.2-1.7-0.6c-1.1-0.9-1.2-2.5-0.2-3.6C21.7-491.4,22.4-491.7,23.1-491.7z"/>
			<path fill="#FFFFFF" d="M23.3-494.7c-2.6,0-4.7-2.1-4.7-4.7c0-2.6,2.1-4.7,4.7-4.7s4.7,2.1,4.7,4.7
				C28-496.9,25.9-494.7,23.3-494.7z"/>
			<path fill="#FFFFFF" d="M32-527.6c-0.5,0.3-1.1,0.5-1.7,0.5c-1.2,0-2.3-0.6-2.9-1.7c-0.5-0.8-0.6-1.7-0.4-2.6
				c0.2-0.9,0.8-1.6,1.6-2.1c0.5-0.3,1.1-0.5,1.7-0.5c1.2,0,2.3,0.6,2.9,1.7c0.5,0.8,0.6,1.7,0.4,2.5
				C33.4-528.8,32.8-528.1,32-527.6z"/>
			<path fill="#FFFFFF" d="M16.6-534.6c-0.8,0-1.6-0.3-2.2-0.8c-0.7-0.6-1.1-1.4-1.1-2.3c-0.1-0.9,0.2-1.8,0.8-2.4
				c0.6-0.7,1.6-1.1,2.5-1.1c0.8,0,1.6,0.3,2.2,0.8c0.7,0.6,1.1,1.4,1.1,2.3c0.1,0.9-0.2,1.8-0.8,2.4
				C18.5-535,17.6-534.6,16.6-534.6z"/>
			<path fill="#FFFFFF" d="M13.4-361.1c0.1,0.1,0.2,0.3,0.2,0.4c0,0.2,0,0.3-0.2,0.5c-0.1,0.1-0.3,0.2-0.5,0.2s-0.3-0.1-0.4-0.2
				c-0.1-0.1-0.2-0.3-0.2-0.4c0-0.2,0-0.3,0.2-0.5S13.1-361.3,13.4-361.1z"/>
			<path fill="#FFFFFF" d="M7.8-295.6c-0.2,0-0.4-0.1-0.6-0.3c-0.2-0.3-0.1-0.7,0.2-0.9c0.3-0.2,0.7-0.1,0.9,0.2
				c0.1,0.1,0.1,0.3,0.1,0.5s-0.2,0.3-0.3,0.4C8-295.6,7.9-295.6,7.8-295.6z"/>
			<path fill="#FFFFFF" d="M10.2-468.4c-1.1,0-2-0.9-2-2c0-1.1,0.9-2,2-2s2,0.9,2,2C12.2-469.3,11.3-468.4,10.2-468.4z"/>
			<path fill="#FFFFFF" d="M14.2-381.6c0,0.4-0.1,0.8-0.4,1.2c-0.3,0.3-0.7,0.5-1.2,0.5c-0.4,0-0.8-0.1-1.1-0.4S11-381,11-381.4
				c0-0.4,0.1-0.8,0.4-1.2c0.3-0.3,0.7-0.5,1.2-0.5c0.4,0,0.8,0.1,1.1,0.4C14-382.4,14.2-382,14.2-381.6z"/>
			<path fill="#FFFFFF" d="M34.3-343.6c-1.1,0-2.3-0.4-3.1-1.2c-2-1.7-2.1-4.7-0.4-6.7c0.9-1,2.2-1.6,3.5-1.6c1.1,0,2.3,0.4,3.1,1.2
				c2,1.7,2.1,4.7,0.4,6.7C37-344.2,35.7-343.6,34.3-343.6z"/>
			<path fill="#FFFFFF" d="M12.7-343.2c0.2,0.3,0.2,0.6,0.1,0.9c-0.1,0.3-0.3,0.6-0.6,0.7c-0.2,0.1-0.4,0.2-0.6,0.2
				c-0.4,0-0.8-0.2-1-0.6c-0.2-0.3-0.2-0.6-0.1-0.9c0.1-0.3,0.3-0.6,0.6-0.7c0.2-0.1,0.4-0.2,0.6-0.2
				C12.1-343.8,12.5-343.6,12.7-343.2z"/>
			<path fill="#FFFFFF" d="M2.2-356.2c0.1,1.3-0.3,2.5-1.2,3.4c-0.3,0.3-0.6,0.6-1,0.8v-7.9c0.2,0.1,0.4,0.3,0.6,0.4
				C1.5-358.6,2.1-357.4,2.2-356.2z"/>
			<path fill="#FFFFFF" d="M273.6-557.5c-0.7,0.4-1.6,0.7-2.4,0.7c-1.7,0-3.2-0.9-4.1-2.3c-0.6-1.1-0.8-2.4-0.5-3.6
				c0.1-0.3,0.2-0.6,0.3-0.8h8.5C276.5-561.4,275.7-558.7,273.6-557.5z"/>
			<path fill="#FFFFFF" d="M5.4-337.2c0.5,0,1,0.2,1.3,0.5c0.8,0.7,0.9,2,0.2,2.9c-0.4,0.4-0.9,0.7-1.5,0.7c-0.5,0-1-0.2-1.3-0.5
				c-0.4-0.4-0.6-0.9-0.7-1.4c0-0.5,0.1-1.1,0.5-1.5C4.2-336.9,4.8-337.2,5.4-337.2z"/>
			<path fill="#FFFFFF" d="M123.8-557.8c0.8-0.9,1.2-2.2,1.2-3.4c-0.1-0.9-0.4-1.7-0.9-2.4h-7.7c-1.4,1.9-1.1,4.7,0.7,6.3
				c0.9,0.8,2,1.2,3.1,1.2C121.6-556.2,122.9-556.8,123.8-557.8z"/>
			<path fill="#FFFFFF" d="M278.8-399.6c-0.1,0.4-0.4,0.8-0.7,1c-0.2,0.1-0.5,0.2-0.8,0.2c-0.6,0-1.1-0.3-1.4-0.8
				c-0.2-0.4-0.3-0.8-0.2-1.2c0.1-0.4,0.4-0.8,0.7-1c0.2-0.1,0.5-0.2,0.8-0.2c0.6,0,1.1,0.3,1.4,0.8
				C278.8-400.4,278.9-400,278.8-399.6z"/>
			<path fill="#FFFFFF" d="M5.8-549.3c-1.4,0-2.5-1.1-2.5-2.5c0-1.4,1.1-2.6,2.5-2.6s2.5,1.1,2.5,2.6C8.4-550.4,7.2-549.3,5.8-549.3
				z"/>
			<path fill="#FFFFFF" d="M116.8-483.6c-0.3,1.2-1.1,2.2-2.2,2.9c-0.7,0.4-1.5,0.7-2.4,0.7c-1.7,0-3.2-0.9-4.1-2.3
				c-0.6-1.1-0.8-2.4-0.5-3.6c0.3-1.2,1.1-2.2,2.2-2.9c0.7-0.4,1.6-0.6,2.4-0.6c1.7,0,3.2,0.9,4.1,2.3
				C117-486.1,117.1-484.8,116.8-483.6z"/>
			<path fill="#FFFFFF" d="M9.5-300.3c0.7,0.6,0.7,1.6,0.1,2.3c-0.3,0.3-0.7,0.5-1.2,0.5c-0.4,0-0.8-0.1-1.1-0.4
				c-0.7-0.6-0.7-1.6-0.1-2.3c0.3-0.3,0.7-0.5,1.2-0.5C8.8-300.7,9.2-300.5,9.5-300.3z"/>
			<path fill="#FFFFFF" d="M5.2-435.2c-0.9,1-2.2,1.6-3.5,1.6c-0.6,0-1.1-0.1-1.6-0.3v-8.8c0.5-0.2,1.1-0.3,1.6-0.3
				c1.1,0,2.3,0.4,3.1,1.2C6.7-440.1,6.9-437.1,5.2-435.2z"/>
			<path fill="#FFFFFF" d="M21.5-406.9c0,0.7-0.2,1.3-0.6,1.8c-0.5,0.6-1.2,0.9-1.9,0.9c-0.6,0-1.2-0.2-1.7-0.6
				c-0.5-0.4-0.8-1.1-0.9-1.8c0-0.7,0.2-1.3,0.6-1.8c0.5-0.6,1.2-0.9,1.9-0.9c0.6,0,1.2,0.2,1.7,0.6
				C21.1-408.2,21.4-407.6,21.5-406.9z"/>
			<path fill="#FFFFFF" d="M106.8-547.8c-0.8,0-1.6-0.3-2.2-0.8c-0.7-0.6-1.1-1.4-1.1-2.3c-0.1-0.9,0.2-1.8,0.8-2.4
				c0.6-0.7,1.6-1.1,2.5-1.1c0.8,0,1.6,0.3,2.2,0.8c1.4,1.2,1.5,3.4,0.3,4.7C108.7-548.2,107.7-547.8,106.8-547.8z"/>
			<path fill="#FFFFFF" d="M109.9-514.7c-0.3,0.2-0.7,0.3-1,0.3c-0.7,0-1.4-0.4-1.8-1c-0.3-0.5-0.3-1-0.2-1.5c0.1-0.5,0.5-1,0.9-1.2
				c0.3-0.2,0.7-0.3,1-0.3c0.7,0,1.4,0.4,1.8,1c0.3,0.5,0.3,1,0.2,1.5S110.4-514.9,109.9-514.7z"/>
			<path fill="#FFFFFF" d="M65.8-507.2c-0.4,0.2-0.8,0.4-1.3,0.4c-0.9,0-1.7-0.5-2.2-1.3c-0.7-1.2-0.3-2.8,0.9-3.5
				c0.4-0.2,0.8-0.4,1.3-0.4c0.9,0,1.7,0.5,2.2,1.3c0.3,0.6,0.4,1.3,0.3,1.9C66.8-508.1,66.4-507.5,65.8-507.2z"/>
			<path fill="#FFFFFF" d="M91.3-545.7c-0.5,0-1-0.2-1.3-0.5c-0.4-0.4-0.6-0.9-0.7-1.4c0-0.5,0.1-1.1,0.5-1.5s0.9-0.7,1.5-0.7
				c0.5,0,1,0.2,1.3,0.5c0.4,0.4,0.7,0.9,0.7,1.4s-0.1,1.1-0.5,1.5C92.5-546,91.9-545.7,91.3-545.7z"/>
			<path fill="#FFFFFF" d="M69.2-398.3c-0.5,0.6-1.2,0.9-1.9,0.9c-0.6,0-1.2-0.2-1.7-0.6c-1.1-0.9-1.2-2.5-0.2-3.6
				c0.5-0.6,1.2-0.9,1.9-0.9c0.6,0,1.2,0.2,1.7,0.6C70-401,70.1-399.4,69.2-398.3z"/>
			<path fill="#FFFFFF" d="M95.7-354c-0.4,0.2-0.8,0.4-1.3,0.4c-0.9,0-1.7-0.5-2.2-1.3c-0.3-0.6-0.4-1.3-0.3-1.9
				c0.2-0.7,0.6-1.2,1.2-1.6c0.4-0.2,0.8-0.4,1.3-0.4c0.9,0,1.7,0.5,2.2,1.3c0.3,0.6,0.4,1.3,0.3,1.9
				C96.7-354.9,96.3-354.4,95.7-354z"/>
			<path fill="#FFFFFF" d="M105.1-466.5c-0.6,0.7-1.6,1.1-2.5,1.1c-0.8,0-1.6-0.3-2.2-0.8c-1.4-1.2-1.5-3.4-0.3-4.7
				c0.6-0.7,1.6-1.1,2.5-1.1c0.8,0,1.6,0.3,2.2,0.8C106.2-470.1,106.3-467.9,105.1-466.5z"/>
			<path fill="#FFFFFF" d="M99.6-291.4c0,0.2,0,0.3-0.2,0.5c-0.1,0.1-0.3,0.2-0.5,0.2s-0.3-0.1-0.4-0.2c-0.3-0.2-0.3-0.6-0.1-0.9
				c0.2-0.3,0.7-0.3,0.9-0.1C99.5-291.7,99.5-291.6,99.6-291.4z"/>
			<path fill="#FFFFFF" d="M103.5-374.3c0.3,0.2,0.3,0.6,0.1,0.9c-0.1,0.1-0.3,0.2-0.5,0.2s-0.3-0.1-0.4-0.2
				c-0.3-0.2-0.3-0.6-0.1-0.9C102.8-374.5,103.3-374.5,103.5-374.3z"/>
			<path fill="#FFFFFF" d="M101.9-411.4c-0.3-0.2-0.3-0.6-0.1-0.9c0.2-0.3,0.7-0.3,0.9-0.1c0.1,0.1,0.2,0.3,0.2,0.4
				c0,0.2,0,0.3-0.2,0.5c-0.1,0.1-0.3,0.2-0.5,0.2C102.1-411.3,102-411.3,101.9-411.4z"/>
			<path fill="#FFFFFF" d="M53.6-561.2c-0.3,0-0.6-0.1-0.8-0.3c-0.5-0.4-0.5-1.2-0.1-1.7c0.2-0.3,0.6-0.4,0.9-0.4
				c0.3,0,0.6,0.1,0.8,0.3s0.4,0.5,0.4,0.8c0,0.3-0.1,0.6-0.3,0.9C54.3-561.3,54-561.2,53.6-561.2z"/>
			<path fill="#FFFFFF" d="M45.3-289.9c-0.4,0-0.8-0.1-1.1-0.4s-0.5-0.7-0.5-1.1s0.1-0.8,0.4-1.2c0.3-0.3,0.7-0.5,1.2-0.5
				c0.4,0,0.8,0.1,1.1,0.4s0.5,0.7,0.5,1.1s-0.1,0.8-0.4,1.2C46.2-290.1,45.7-289.9,45.3-289.9z"/>
			<path fill="#FFFFFF" d="M55.2-388.5c-0.7,0.4-1.6,0.7-2.4,0.7c-1.7,0-3.2-0.9-4.1-2.3c-1.3-2.2-0.6-5.1,1.7-6.5
				c0.7-0.4,1.5-0.7,2.4-0.7c1.7,0,3.2,0.9,4.1,2.3c0.6,1.1,0.8,2.4,0.5,3.6C57.1-390.2,56.3-389.2,55.2-388.5z"/>
			<path fill="#FFFFFF" d="M55.7-490.8c-0.2,0.1-0.5,0.2-0.8,0.2c-0.6,0-1.1-0.3-1.4-0.8c-0.2-0.4-0.3-0.8-0.2-1.2s0.4-0.8,0.7-1
				c0.2-0.1,0.5-0.2,0.8-0.2c0.6,0,1.1,0.3,1.4,0.8c0.2,0.4,0.3,0.8,0.2,1.2C56.3-491.4,56-491,55.7-490.8z"/>
			<path fill="#FFFFFF" d="M57.8-361.8c-0.3,0-0.6-0.1-0.8-0.3s-0.4-0.5-0.4-0.8c0-0.3,0.1-0.6,0.3-0.9s0.6-0.4,0.9-0.4
				c0.3,0,0.6,0.1,0.8,0.3c0.5,0.4,0.5,1.2,0.1,1.7C58.5-361.9,58.2-361.8,57.8-361.8z"/>
			<path fill="#FFFFFF" d="M70.8-415.2c-1.9,0-3.4-1.5-3.4-3.4s1.5-3.4,3.4-3.4s3.4,1.5,3.4,3.4C74.2-416.7,72.6-415.2,70.8-415.2z"
				/>
			<path fill="#FFFFFF" d="M50.4-422.5c-0.3,0.2-0.7,0.3-1,0.3c-0.7,0-1.4-0.4-1.8-1c-0.3-0.5-0.4-1-0.2-1.5c0.1-0.5,0.5-1,0.9-1.2
				c0.3-0.2,0.7-0.3,1-0.3c0.7,0,1.4,0.4,1.8,1c0.3,0.5,0.4,1,0.2,1.5C51.2-423.2,50.9-422.7,50.4-422.5z"/>
			<path fill="#FFFFFF" d="M69-462.4c-0.9,0-1.6-0.7-1.6-1.6s0.7-1.6,1.6-1.6s1.6,0.7,1.6,1.6S69.9-462.4,69-462.4z"/>
			<path fill="#FFFFFF" d="M70.8-409.6c0.3-0.2,0.7-0.1,0.9,0.2c0.1,0.2,0.1,0.3,0.1,0.5c0,0.2-0.2,0.3-0.3,0.4
				c-0.1,0.1-0.2,0.1-0.3,0.1c-0.2,0-0.4-0.1-0.6-0.3c-0.1-0.1-0.1-0.3-0.1-0.5C70.6-409.4,70.7-409.5,70.8-409.6z"/>
			<path fill="#FFFFFF" d="M78.3-333.1c-0.5,0-1-0.2-1.3-0.5c-0.4-0.4-0.6-0.9-0.7-1.4c0-0.5,0.1-1.1,0.5-1.5s0.9-0.7,1.5-0.7
				c0.5,0,1,0.2,1.3,0.5c0.4,0.4,0.6,0.9,0.7,1.4c0,0.5-0.1,1.1-0.5,1.5C79.4-333.4,78.8-333.1,78.3-333.1z"/>
			<path fill="#FFFFFF" d="M75.7-454.4c-0.2,0.1-0.4,0.2-0.6,0.2c-0.4,0-0.8-0.2-1-0.6c-0.3-0.6-0.1-1.3,0.4-1.6
				c0.2-0.1,0.4-0.2,0.6-0.2c0.4,0,0.8,0.2,1,0.6C76.5-455.5,76.3-454.7,75.7-454.4z"/>
			<path fill="#FFFFFF" d="M461.8-472.7c-0.7,0.4-1.5,0.7-2.4,0.7c-1.7,0-3.2-0.9-4.1-2.3c-0.6-1.1-0.8-2.4-0.5-3.6
				c0.3-1.2,1.1-2.2,2.2-2.9c0.7-0.4,1.5-0.6,2.4-0.6c1.7,0,3.2,0.9,4.1,2.3c0.6,1.1,0.8,2.4,0.5,3.6
				C463.6-474.4,462.9-473.3,461.8-472.7z"/>
			<path fill="#FFFFFF" d="M450.9-545.2c-1.1,0-2-0.9-2-2c0-1.1,0.9-2,2-2s2,0.9,2,2C453-546.1,452.1-545.2,450.9-545.2z"/>
			<path fill="#FFFFFF" d="M464-289.7c-2.6,0-4.7-2.1-4.7-4.7s2.1-4.7,4.7-4.7s4.7,2.1,4.7,4.7S466.6-289.7,464-289.7z"/>
			<path fill="#FFFFFF" d="M436.9-446.2c-0.4,0.2-0.8,0.4-1.3,0.4c-0.9,0-1.7-0.5-2.2-1.3c-0.3-0.6-0.4-1.3-0.3-1.9
				c0.2-0.7,0.6-1.2,1.2-1.6c0.4-0.2,0.8-0.4,1.3-0.4c0.9,0,1.7,0.5,2.2,1.3c0.3,0.6,0.4,1.3,0.3,1.9
				C437.9-447.1,437.5-446.6,436.9-446.2z"/>
			<path fill="#FFFFFF" d="M446.6-344.3c-1.4,0-2.5-1.1-2.5-2.5c0-1.4,1.1-2.6,2.5-2.6s2.5,1.1,2.5,2.6
				C449.1-345.4,448-344.3,446.6-344.3z"/>
			<path fill="#FFFFFF" d="M439.9-288.9c-0.4,0-0.6-0.3-0.6-0.6s0.3-0.6,0.6-0.6c0.4,0,0.6,0.3,0.6,0.6S440.2-288.9,439.9-288.9z"/>
			<path fill="#FFFFFF" d="M475.1-420.3c-1.1,0-2.3-0.4-3.1-1.2c-2-1.7-2.1-4.7-0.4-6.7c0.9-1,2.2-1.6,3.5-1.6
				c1.1,0,2.3,0.4,3.1,1.2c0.9,0.8,1.5,2,1.6,3.2c0.1,1.3-0.3,2.5-1.2,3.4C477.7-420.9,476.4-420.3,475.1-420.3z"/>
			<path fill="#FFFFFF" d="M474-327.2c0.5,0.8,0.6,1.7,0.4,2.6c-0.2,0.9-0.8,1.6-1.6,2.1c-0.5,0.3-1.1,0.5-1.7,0.5
				c-1.2,0-2.3-0.6-2.9-1.7c-0.5-0.8-0.6-1.7-0.4-2.6c0.2-0.9,0.8-1.6,1.6-2.1c0.5-0.3,1.1-0.5,1.7-0.5
				C472.3-328.9,473.4-328.2,474-327.2z"/>
			<path fill="#FFFFFF" d="M443.9-506c-0.4,0-0.8-0.1-1.1-0.4c-0.7-0.6-0.7-1.6-0.1-2.3c0.3-0.3,0.7-0.5,1.2-0.5
				c0.4,0,0.8,0.1,1.1,0.4c0.3,0.3,0.5,0.7,0.5,1.1s-0.1,0.8-0.4,1.2C444.8-506.2,444.4-506,443.9-506z"/>
			<path fill="#FFFFFF" d="M446.1-409.9c-0.5,0-1-0.2-1.3-0.5c-0.4-0.4-0.6-0.9-0.7-1.4c0-0.5,0.1-1.1,0.5-1.5
				c0.4-0.4,0.9-0.7,1.5-0.7c0.5,0,1,0.2,1.3,0.5c0.4,0.4,0.6,0.9,0.7,1.4c0,0.5-0.1,1.1-0.5,1.5
				C447.2-410.1,446.7-409.9,446.1-409.9z"/>
			<path fill="#FFFFFF" d="M437-475.4c-0.2,0.1-0.5,0.2-0.8,0.2c-0.6,0-1.1-0.3-1.4-0.8c-0.4-0.8-0.2-1.7,0.6-2.2
				c0.2-0.1,0.5-0.2,0.8-0.2c0.6,0,1.1,0.3,1.4,0.8C438-476.8,437.7-475.8,437-475.4z"/>
			<path fill="#FFFFFF" d="M448.1-390.5c0.3-0.3,0.7-0.5,1.2-0.5c0.4,0,0.8,0.1,1.1,0.4c0.7,0.6,0.7,1.6,0.1,2.3
				c-0.3,0.3-0.7,0.5-1.2,0.5c-0.4,0-0.8-0.1-1.1-0.4C447.6-388.9,447.5-389.9,448.1-390.5z"/>
			<path fill="#FFFFFF" d="M406.3-326.6c-0.2,0-0.3-0.1-0.4-0.2c-0.3-0.2-0.3-0.6-0.1-0.9c0.2-0.3,0.7-0.3,0.9-0.1
				c0.1,0.1,0.2,0.3,0.2,0.4c0,0.2,0,0.3-0.2,0.5C406.6-326.7,406.5-326.6,406.3-326.6z"/>
			<path fill="#FFFFFF" d="M411.8-501.4c0-0.2,0.2-0.3,0.3-0.4c0.3-0.2,0.7-0.1,0.9,0.2c0.1,0.1,0.1,0.3,0.1,0.5s-0.2,0.3-0.3,0.4
				c-0.1,0.1-0.2,0.1-0.3,0.1c-0.2,0-0.4-0.1-0.6-0.3C411.8-501.1,411.7-501.2,411.8-501.4z"/>
			<path fill="#FFFFFF" d="M406.3-366.2c1.1,0,2.3,0.4,3.1,1.2c2,1.7,2.1,4.7,0.4,6.7c-0.9,1-2.2,1.6-3.5,1.6
				c-1.1,0-2.3-0.4-3.1-1.2c-0.9-0.8-1.5-2-1.6-3.2c-0.1-1.3,0.3-2.5,1.2-3.4C403.6-365.6,404.9-366.2,406.3-366.2z"/>
			<path fill="#FFFFFF" d="M550-343.9c-0.6,0.7-1.6,1.1-2.5,1.1c-0.8,0-1.6-0.3-2.2-0.8c-0.7-0.6-1.1-1.4-1.1-2.3
				c-0.1-0.9,0.2-1.8,0.8-2.4c0.6-0.7,1.6-1.1,2.5-1.1c0.8,0,1.6,0.3,2.2,0.8C551.1-347.4,551.3-345.3,550-343.9z"/>
			<path fill="#FFFFFF" d="M409.2-427.4c0.5,0.4,0.5,1.2,0.1,1.7c-0.2,0.3-0.6,0.4-0.9,0.4s-0.6-0.1-0.8-0.3
				c-0.5-0.4-0.5-1.2-0.1-1.7c0.2-0.3,0.6-0.4,0.9-0.4S409-427.6,409.2-427.4z"/>
			<path fill="#FFFFFF" d="M426.1-330.1c0,0.7-0.2,1.3-0.6,1.8c-0.5,0.6-1.2,0.9-1.9,0.9c-0.6,0-1.2-0.2-1.7-0.6
				c-1.1-0.9-1.2-2.5-0.2-3.6c0.5-0.6,1.2-0.9,1.9-0.9c0.6,0,1.2,0.2,1.7,0.6C425.8-331.4,426.1-330.8,426.1-330.1z"/>
			<path fill="#FFFFFF" d="M413-532.1c-0.7,0-1.2-0.5-1.2-1.2s0.5-1.2,1.2-1.2s1.2,0.5,1.2,1.2C414.2-532.7,413.6-532.1,413-532.1z"
				/>
			<path fill="#FFFFFF" d="M417.3-303.1c-0.4,0-0.8-0.1-1.1-0.4c-0.7-0.6-0.7-1.6-0.1-2.3c0.3-0.3,0.7-0.5,1.2-0.5
				c0.4,0,0.8,0.1,1.1,0.4c0.3,0.3,0.5,0.7,0.5,1.1s-0.1,0.8-0.4,1.2C418.2-303.3,417.7-303.1,417.3-303.1z"/>
			<path fill="#FFFFFF" d="M427.8-409.8c-0.6,0-1.2-0.2-1.7-0.6c-1.1-0.9-1.2-2.5-0.2-3.6c0.5-0.6,1.2-0.9,1.9-0.9
				c0.6,0,1.2,0.2,1.7,0.6c1.1,0.9,1.2,2.5,0.2,3.6C429.2-410.2,428.5-409.8,427.8-409.8z"/>
			<path fill="#FFFFFF" d="M413.3-512.2c-0.5,0.3-1.1,0.5-1.7,0.5c-1.2,0-2.3-0.6-2.9-1.7c-0.9-1.6-0.4-3.7,1.2-4.6
				c0.5-0.3,1.1-0.5,1.7-0.5c1.2,0,2.3,0.6,2.9,1.7C415.5-515.2,414.9-513.1,413.3-512.2z"/>
			<path fill="#FFFFFF" d="M417-546.6c-0.2,0.1-0.4,0.2-0.6,0.2c-0.4,0-0.8-0.2-1-0.6c-0.3-0.6-0.1-1.3,0.4-1.6
				c0.2-0.1,0.4-0.2,0.6-0.2c0.4,0,0.8,0.2,1,0.6c0.2,0.3,0.2,0.6,0.1,0.9S417.2-546.8,417-546.6z"/>
			<path fill="#FFFFFF" d="M453.7-436.7c-0.2,0-0.3-0.1-0.4-0.2c-0.3-0.2-0.3-0.6-0.1-0.9c0.2-0.3,0.7-0.3,0.9-0.1
				c0.3,0.2,0.3,0.6,0.1,0.9C454-436.8,453.9-436.7,453.7-436.7z"/>
			<path fill="#FFFFFF" d="M532-350.7c0.5,0.4,0.5,1.2,0.1,1.7c-0.2,0.3-0.6,0.4-0.9,0.4c-0.3,0-0.6-0.1-0.8-0.3s-0.4-0.5-0.4-0.8
				c0-0.3,0.1-0.6,0.3-0.9c0.2-0.3,0.6-0.4,0.9-0.4C531.5-351,531.8-350.9,532-350.7z"/>
			<path fill="#FFFFFF" d="M535.8-455.4c-0.7,0-1.2-0.5-1.2-1.2s0.5-1.2,1.2-1.2s1.2,0.5,1.2,1.2S536.5-455.4,535.8-455.4z"/>
			<path fill="#FFFFFF" d="M509.8-539.2c-0.9,0-1.6-0.7-1.6-1.6c0-0.9,0.7-1.6,1.6-1.6s1.6,0.7,1.6,1.6
				C511.4-539.9,510.7-539.2,509.8-539.2z"/>
			<path fill="#FFFFFF" d="M511.5-492c-1.9,0-3.4-1.5-3.4-3.4c0-1.9,1.5-3.4,3.4-3.4c1.9,0,3.4,1.5,3.4,3.4
				C514.9-493.5,513.4-492,511.5-492z"/>
			<path fill="#FFFFFF" d="M532.1-344.7c0.5,0,1,0.2,1.3,0.5c0.4,0.4,0.6,0.9,0.7,1.4c0,0.5-0.1,1.1-0.5,1.5s-0.9,0.7-1.5,0.7
				c-0.5,0-1-0.2-1.3-0.5c-0.4-0.4-0.6-0.9-0.7-1.4c0-0.5,0.1-1.1,0.5-1.5C530.9-344.5,531.5-344.7,532.1-344.7z"/>
			<path fill="#FFFFFF" d="M536.2-435.4c-0.5,0.3-1.1,0.5-1.7,0.5c-1.2,0-2.3-0.6-2.9-1.7c-0.9-1.6-0.4-3.7,1.2-4.6
				c0.5-0.3,1.1-0.5,1.7-0.5c1.2,0,2.3,0.6,2.9,1.7c0.5,0.8,0.6,1.7,0.4,2.6C537.5-436.6,536.9-435.9,536.2-435.4z"/>
			<path fill="#FFFFFF" d="M543.3-542.2c-0.8,0-1.6-0.3-2.2-0.8c-0.7-0.6-1.1-1.4-1.1-2.3c-0.1-0.9,0.2-1.8,0.8-2.4
				c0.6-0.7,1.6-1.1,2.5-1.1c0.8,0,1.6,0.3,2.2,0.8c0.7,0.6,1.1,1.4,1.1,2.3c0.1,0.9-0.2,1.8-0.8,2.4
				C545.2-542.6,544.3-542.2,543.3-542.2z"/>
			<path fill="#FFFFFF" d="M543.4-451c0.2-0.3,0.7-0.3,0.9-0.1c0.3,0.2,0.3,0.6,0.1,0.9c-0.1,0.1-0.3,0.2-0.5,0.2s-0.3-0.1-0.4-0.2
				C543.2-450.3,543.1-450.7,543.4-451z"/>
			<path fill="#FFFFFF" d="M540.3-368.2c0,0.2,0,0.3-0.2,0.5c-0.1,0.1-0.3,0.2-0.5,0.2s-0.3-0.1-0.4-0.2c-0.1-0.1-0.2-0.3-0.2-0.4
				c0-0.2,0-0.3,0.2-0.5c0.2-0.3,0.7-0.3,0.9-0.1C540.2-368.5,540.3-368.4,540.3-368.2z"/>
			<path fill="#FFFFFF" d="M538.2-425.1l0.1-0.1c0,0.5-0.2,1-0.5,1.4c-0.4,0.4-0.9,0.7-1.5,0.7c-0.5,0-1-0.2-1.3-0.5
				c-0.4-0.4-0.6-0.9-0.7-1.4c0-0.5,0.1-1.1,0.5-1.5c0.4-0.4,0.9-0.7,1.5-0.7c0.5,0,1,0.2,1.3,0.5c0.4,0.4,0.6,0.9,0.7,1.4v0.1
				l-0.3-0.4l-0.1,0.1l-0.1,0.1l0.3,0.5L538.2-425.1z"/>
			<path fill="#FFFFFF" d="M550.6-309.6c-0.3,0.2-0.7,0.3-1,0.3c-0.7,0-1.4-0.4-1.7-1c-0.6-1-0.2-2.2,0.7-2.8c0.3-0.2,0.7-0.3,1-0.3
				c0.7,0,1.4,0.4,1.8,1c0.3,0.5,0.3,1,0.2,1.5C551.4-310.4,551.1-309.9,550.6-309.6z"/>
			<path fill="#FFFFFF" d="M498.6-438.6c-0.3,0-0.6-0.1-0.8-0.3c-0.2-0.2-0.4-0.5-0.4-0.8s0.1-0.6,0.3-0.9c0.2-0.3,0.6-0.4,0.9-0.4
				s0.6,0.1,0.8,0.3c0.5,0.4,0.5,1.2,0.1,1.7C499.2-438.7,498.9-438.6,498.6-438.6z"/>
			<path fill="#FFFFFF" d="M496.5-473.4c-0.6,0-1.2-0.2-1.7-0.6c-1.1-0.9-1.2-2.5-0.2-3.6c0.5-0.6,1.2-0.9,1.9-0.9
				c0.6,0,1.2,0.2,1.7,0.6c1.1,0.9,1.2,2.5,0.2,3.6C498-473.7,497.3-473.4,496.5-473.4z"/>
			<path fill="#FFFFFF" d="M486-366.7c-0.4,0-0.8-0.1-1.1-0.4c-0.7-0.6-0.7-1.6-0.1-2.3c0.3-0.3,0.7-0.5,1.2-0.5
				c0.4,0,0.8,0.1,1.1,0.4c0.7,0.6,0.7,1.6,0.1,2.3C486.9-366.9,486.5-366.7,486-366.7z"/>
			<path fill="#FFFFFF" d="M497-288c0.2,0.4,0.3,0.8,0.2,1.2c-0.1,0.4-0.4,0.8-0.7,1c-0.2,0.1-0.5,0.2-0.8,0.2
				c-0.6,0-1.1-0.3-1.4-0.8c-0.4-0.8-0.2-1.7,0.6-2.2c0.2-0.1,0.5-0.2,0.8-0.2C496.2-288.8,496.7-288.5,497-288z"/>
			<path fill="#FFFFFF" d="M454-332.7c-0.1-0.9,0.2-1.8,0.8-2.4c0.6-0.7,1.6-1.1,2.5-1.1c0.8,0,1.6,0.3,2.2,0.8
				c0.7,0.6,1.1,1.4,1.1,2.3c0.1,0.9-0.2,1.8-0.8,2.4c-0.6,0.7-1.6,1.1-2.5,1.1c-0.8,0-1.6-0.3-2.2-0.8
				C454.4-331,454-331.8,454-332.7z"/>
			<path fill="#FFFFFF" d="M516.5-531.2c-0.2,0.1-0.4,0.2-0.6,0.2c-0.4,0-0.8-0.2-1-0.6c-0.3-0.6-0.1-1.3,0.4-1.6
				c0.2-0.1,0.4-0.2,0.6-0.2c0.4,0,0.8,0.2,1,0.6C517.2-532.2,517-531.5,516.5-531.2z"/>
			<path fill="#FFFFFF" d="M512.2-485.3c-0.1,0.1-0.2,0.1-0.3,0.1c-0.2,0-0.4-0.1-0.6-0.3c-0.2-0.3-0.1-0.7,0.2-0.9
				c0.3-0.2,0.7-0.1,0.9,0.2c0.1,0.1,0.1,0.3,0.1,0.5C512.5-485.5,512.4-485.3,512.2-485.3z"/>
			<path fill="#FFFFFF" d="M493.6-356.4c-0.2-0.2-0.4-0.5-0.4-0.8s0.1-0.6,0.3-0.9c0.2-0.3,0.6-0.4,0.9-0.4s0.6,0.1,0.8,0.3
				c0.5,0.4,0.5,1.2,0.1,1.7c-0.2,0.3-0.6,0.4-0.9,0.4S493.8-356.2,493.6-356.4z"/>
			<path fill="#FFFFFF" d="M495.8-413.2c0.3,0.6,0.4,1.3,0.3,1.9c-0.2,0.7-0.6,1.2-1.2,1.6c-0.4,0.2-0.8,0.4-1.3,0.4
				c-0.9,0-1.7-0.5-2.2-1.3c-0.3-0.6-0.4-1.3-0.3-1.9c0.2-0.7,0.6-1.2,1.2-1.6c0.4-0.2,0.8-0.4,1.3-0.4
				C494.5-414.5,495.3-414,495.8-413.2z"/>
			<path fill="#FFFFFF" d="M491.2-499.2c-0.3,0.2-0.7,0.3-1,0.3c-0.7,0-1.4-0.4-1.7-1c-0.6-1-0.2-2.2,0.7-2.8c0.3-0.2,0.7-0.3,1-0.3
				c0.7,0,1.4,0.4,1.8,1C492.5-501.1,492.1-499.8,491.2-499.2z"/>
			<path fill="#FFFFFF" d="M562.7-493.9c-0.4,0-0.6-0.3-0.6-0.6c0-0.4,0.3-0.6,0.6-0.6c0.4,0,0.6,0.3,0.6,0.6
				C563.4-494.2,563.1-493.9,562.7-493.9z"/>
			<path fill="#FFFFFF" d="M304.9-491.7c0.6,0,1.2,0.2,1.7,0.6c1.1,0.9,1.2,2.5,0.2,3.6c-0.5,0.6-1.2,0.9-1.9,0.9
				c-0.6,0-1.2-0.2-1.7-0.6c-1.1-0.9-1.2-2.5-0.2-3.6C303.5-491.4,304.2-491.7,304.9-491.7z"/>
			<path fill="#FFFFFF" d="M305.1-494.7c-2.6,0-4.7-2.1-4.7-4.7c0-2.6,2.1-4.7,4.7-4.7s4.7,2.1,4.7,4.7
				C309.8-496.9,307.7-494.7,305.1-494.7z"/>
			<path fill="#FFFFFF" d="M313.8-527.6c-0.5,0.3-1.1,0.5-1.7,0.5c-1.2,0-2.3-0.6-2.9-1.7c-0.5-0.8-0.6-1.7-0.4-2.6
				c0.2-0.9,0.8-1.6,1.6-2.1c0.5-0.3,1.1-0.5,1.7-0.5c1.2,0,2.3,0.6,2.9,1.7c0.5,0.8,0.6,1.7,0.4,2.5
				C315.2-528.8,314.6-528.1,313.8-527.6z"/>
			<path fill="#FFFFFF" d="M298.4-534.6c-0.8,0-1.6-0.3-2.2-0.8c-0.7-0.6-1.1-1.4-1.1-2.3c-0.1-0.9,0.2-1.8,0.8-2.4
				c0.6-0.7,1.6-1.1,2.5-1.1c0.8,0,1.6,0.3,2.2,0.8c0.7,0.6,1.1,1.4,1.1,2.3c0.1,0.9-0.2,1.8-0.8,2.4
				C300.3-535,299.4-534.6,298.4-534.6z"/>
			<path fill="#FFFFFF" d="M295.2-361.1c0.1,0.1,0.2,0.3,0.2,0.4c0,0.2,0,0.3-0.2,0.5c-0.1,0.1-0.3,0.2-0.5,0.2s-0.3-0.1-0.4-0.2
				s-0.2-0.3-0.2-0.4c0-0.2,0-0.3,0.2-0.5C294.5-361.3,294.9-361.3,295.2-361.1z"/>
			<path fill="#FFFFFF" d="M289.6-295.6c-0.2,0-0.4-0.1-0.6-0.3c-0.2-0.3-0.1-0.7,0.2-0.9c0.3-0.2,0.7-0.1,0.9,0.2
				c0.1,0.1,0.1,0.3,0.1,0.5s-0.2,0.3-0.3,0.4C289.8-295.6,289.7-295.6,289.6-295.6z"/>
			<path fill="#FFFFFF" d="M292-468.4c-1.1,0-2-0.9-2-2c0-1.1,0.9-2,2-2s2,0.9,2,2C294-469.3,293.1-468.4,292-468.4z"/>
			<path fill="#FFFFFF" d="M296-381.6c0,0.4-0.1,0.8-0.4,1.2c-0.3,0.3-0.7,0.5-1.2,0.5c-0.4,0-0.8-0.1-1.1-0.4
				c-0.3-0.3-0.5-0.7-0.5-1.1c0-0.4,0.1-0.8,0.4-1.2c0.3-0.3,0.7-0.5,1.2-0.5c0.4,0,0.8,0.1,1.1,0.4C295.8-382.4,296-382,296-381.6z
				"/>
			<path fill="#FFFFFF" d="M316.1-343.6c-1.1,0-2.3-0.4-3.1-1.2c-2-1.7-2.1-4.7-0.4-6.7c0.9-1,2.2-1.6,3.5-1.6
				c1.1,0,2.3,0.4,3.1,1.2c2,1.7,2.1,4.7,0.4,6.7C318.8-344.2,317.5-343.6,316.1-343.6z"/>
			<path fill="#FFFFFF" d="M294.5-343.2c0.2,0.3,0.2,0.6,0.1,0.9s-0.3,0.6-0.6,0.7c-0.2,0.1-0.4,0.2-0.6,0.2c-0.4,0-0.8-0.2-1-0.6
				c-0.2-0.3-0.2-0.6-0.1-0.9c0.1-0.3,0.3-0.6,0.6-0.7c0.2-0.1,0.4-0.2,0.6-0.2C293.9-343.8,294.3-343.6,294.5-343.2z"/>
			<path fill="#FFFFFF" d="M281.8-359.8L281.8-359.8c-0.8-0.5-1.6-0.8-2.6-0.8c-1.4,0-2.7,0.6-3.5,1.6c-1.7,2-1.5,4.9,0.4,6.7
				c0.9,0.8,2,1.2,3.1,1.2c0.9,0,1.8-0.3,2.6-0.8c0.4-0.2,0.7-0.5,1-0.8c0.8-0.9,1.2-2.2,1.2-3.4c-0.1-1.3-0.6-2.4-1.6-3.2
				C282.2-359.6,282-359.7,281.8-359.8z"/>
			<path fill="#FFFFFF" d="M555.4-557.5c-0.7,0.4-1.6,0.7-2.4,0.7c-1.7,0-3.2-0.9-4.1-2.3c-0.6-1.1-0.8-2.4-0.5-3.6
				c0.1-0.3,0.2-0.6,0.3-0.8h8.5C558.3-561.4,557.5-558.7,555.4-557.5z"/>
			<path fill="#FFFFFF" d="M287.1-337.2c0.5,0,1,0.2,1.3,0.5c0.8,0.7,0.9,2,0.2,2.9c-0.4,0.4-0.9,0.7-1.5,0.7c-0.5,0-1-0.2-1.3-0.5
				c-0.4-0.4-0.6-0.9-0.7-1.4c0-0.5,0.1-1.1,0.5-1.5C286-336.9,286.6-337.2,287.1-337.2z"/>
			<path fill="#FFFFFF" d="M405.6-557.8c0.8-0.9,1.2-2.2,1.2-3.4c-0.1-0.9-0.4-1.7-0.9-2.4h-7.7c-1.4,1.9-1.1,4.7,0.7,6.3
				c0.9,0.8,2,1.2,3.1,1.2C403.4-556.2,404.7-556.8,405.6-557.8z"/>
			<path fill="#FFFFFF" d="M561.7-441.4c0.5-0.6,1.2-1,1.9-1.3v8.8c-0.5-0.2-1-0.5-1.5-0.9C560.2-436.4,560-439.4,561.7-441.4z"/>
			<path fill="#FFFFFF" d="M561-351.1c0.9,0,1.8-0.3,2.6-0.8v-7.9c-0.8-0.5-1.6-0.8-2.6-0.8c-1.4,0-2.7,0.6-3.5,1.6
				c-1.7,2-1.5,4.9,0.4,6.7C558.8-351.6,559.9-351.1,561-351.1z"/>
			<path fill="#FFFFFF" d="M560.6-399.6c-0.1,0.4-0.4,0.8-0.7,1c-0.2,0.1-0.5,0.2-0.8,0.2c-0.6,0-1.1-0.3-1.4-0.8
				c-0.2-0.4-0.3-0.8-0.2-1.2c0.1-0.4,0.4-0.8,0.7-1c0.2-0.1,0.5-0.2,0.8-0.2c0.6,0,1.1,0.3,1.4,0.8
				C560.6-400.4,560.7-400,560.6-399.6z"/>
			<path fill="#FFFFFF" d="M287.6-549.3c-1.4,0-2.5-1.1-2.5-2.5c0-1.4,1.1-2.6,2.5-2.6s2.5,1.1,2.5,2.6
				C290.2-550.4,289-549.3,287.6-549.3z"/>
			<path fill="#FFFFFF" d="M398.6-483.6c-0.3,1.2-1.1,2.2-2.2,2.9c-0.7,0.4-1.5,0.7-2.4,0.7c-1.7,0-3.2-0.9-4.1-2.3
				c-0.6-1.1-0.8-2.4-0.5-3.6c0.3-1.2,1.1-2.2,2.2-2.9c0.7-0.4,1.5-0.6,2.4-0.6c1.7,0,3.2,0.9,4.1,2.3
				C398.8-486.1,398.9-484.8,398.6-483.6z"/>
			<path fill="#FFFFFF" d="M291.3-300.3c0.7,0.6,0.7,1.6,0.1,2.3c-0.3,0.3-0.7,0.5-1.2,0.5c-0.4,0-0.8-0.1-1.1-0.4
				c-0.7-0.6-0.7-1.6-0.1-2.3c0.3-0.3,0.7-0.5,1.2-0.5C290.6-300.7,291-300.5,291.3-300.3z"/>
			<path fill="#FFFFFF" d="M287-435.2c-0.9,1-2.2,1.6-3.5,1.6c-0.6,0-1.1-0.1-1.6-0.3l0,0c-0.5-0.2-1-0.5-1.5-0.9
				c-2-1.7-2.1-4.7-0.4-6.7c0.5-0.6,1.2-1,1.9-1.3c0.5-0.2,1.1-0.3,1.6-0.3c1.1,0,2.3,0.4,3.1,1.2
				C288.5-440.1,288.7-437.1,287-435.2z"/>
			<path fill="#FFFFFF" d="M303.3-406.9c0,0.7-0.2,1.3-0.6,1.8c-0.5,0.6-1.2,0.9-1.9,0.9c-0.6,0-1.2-0.2-1.7-0.6
				c-0.5-0.4-0.8-1.1-0.9-1.8c0-0.7,0.2-1.3,0.6-1.8c0.5-0.6,1.2-0.9,1.9-0.9c0.6,0,1.2,0.2,1.7,0.6
				C302.9-408.2,303.2-407.6,303.3-406.9z"/>
			<path fill="#FFFFFF" d="M388.6-547.8c-0.8,0-1.6-0.3-2.2-0.8c-0.7-0.6-1.1-1.4-1.1-2.3c-0.1-0.9,0.2-1.8,0.8-2.4
				c0.6-0.7,1.6-1.1,2.5-1.1c0.8,0,1.6,0.3,2.2,0.8c1.4,1.2,1.5,3.4,0.3,4.7C390.5-548.2,389.5-547.8,388.6-547.8z"/>
			<path fill="#FFFFFF" d="M391.7-514.7c-0.3,0.2-0.7,0.3-1,0.3c-0.7,0-1.4-0.4-1.8-1c-0.3-0.5-0.3-1-0.2-1.5c0.1-0.5,0.5-1,0.9-1.2
				c0.3-0.2,0.7-0.3,1-0.3c0.7,0,1.4,0.4,1.8,1c0.3,0.5,0.3,1,0.2,1.5C392.5-515.4,392.1-514.9,391.7-514.7z"/>
			<path fill="#FFFFFF" d="M347.6-507.2c-0.4,0.2-0.8,0.4-1.3,0.4c-0.9,0-1.7-0.5-2.2-1.3c-0.7-1.2-0.3-2.8,0.9-3.5
				c0.4-0.2,0.8-0.4,1.3-0.4c0.9,0,1.7,0.5,2.2,1.3c0.3,0.6,0.4,1.3,0.3,1.9C348.6-508.1,348.2-507.5,347.6-507.2z"/>
			<path fill="#FFFFFF" d="M373.1-545.7c-0.5,0-1-0.2-1.3-0.5c-0.4-0.4-0.6-0.9-0.7-1.4c0-0.5,0.1-1.1,0.5-1.5s0.9-0.7,1.5-0.7
				c0.5,0,1,0.2,1.3,0.5c0.4,0.4,0.7,0.9,0.7,1.4s-0.1,1.1-0.5,1.5C374.3-546,373.7-545.7,373.1-545.7z"/>
			<path fill="#FFFFFF" d="M351-398.3c-0.5,0.6-1.2,0.9-1.9,0.9c-0.6,0-1.2-0.2-1.7-0.6c-1.1-0.9-1.2-2.5-0.2-3.6
				c0.5-0.6,1.2-0.9,1.9-0.9c0.6,0,1.2,0.2,1.7,0.6C351.8-401,351.9-399.4,351-398.3z"/>
			<path fill="#FFFFFF" d="M377.5-354c-0.4,0.2-0.8,0.4-1.3,0.4c-0.9,0-1.7-0.5-2.2-1.3c-0.3-0.6-0.4-1.3-0.3-1.9
				c0.2-0.7,0.6-1.2,1.2-1.6c0.4-0.2,0.8-0.4,1.3-0.4c0.9,0,1.7,0.5,2.2,1.3c0.3,0.6,0.4,1.3,0.3,1.9
				C378.5-354.9,378.1-354.4,377.5-354z"/>
			<path fill="#FFFFFF" d="M386.9-466.5c-0.6,0.7-1.6,1.1-2.5,1.1c-0.8,0-1.6-0.3-2.2-0.8c-1.4-1.2-1.5-3.4-0.3-4.7
				c0.6-0.7,1.6-1.1,2.5-1.1c0.8,0,1.6,0.3,2.2,0.8C388-470.1,388.1-467.9,386.9-466.5z"/>
			<path fill="#FFFFFF" d="M381.4-291.4c0,0.2,0,0.3-0.2,0.5c-0.1,0.1-0.3,0.2-0.5,0.2s-0.3-0.1-0.4-0.2c-0.3-0.2-0.3-0.6-0.1-0.9
				c0.2-0.3,0.7-0.3,0.9-0.1C381.3-291.7,381.3-291.6,381.4-291.4z"/>
			<path fill="#FFFFFF" d="M385.3-374.3c0.3,0.2,0.3,0.6,0.1,0.9c-0.1,0.1-0.3,0.2-0.5,0.2s-0.3-0.1-0.4-0.2
				c-0.3-0.2-0.3-0.6-0.1-0.9C384.6-374.5,385.1-374.5,385.3-374.3z"/>
			<path fill="#FFFFFF" d="M383.7-411.4c-0.3-0.2-0.3-0.6-0.1-0.9c0.2-0.3,0.7-0.3,0.9-0.1c0.1,0.1,0.2,0.3,0.2,0.4
				c0,0.2,0,0.3-0.2,0.5c-0.1,0.1-0.3,0.2-0.5,0.2C383.9-411.3,383.8-411.3,383.7-411.4z"/>
			<path fill="#FFFFFF" d="M335.4-561.2c-0.3,0-0.6-0.1-0.8-0.3c-0.5-0.4-0.5-1.2-0.1-1.7c0.2-0.3,0.6-0.4,0.9-0.4s0.6,0.1,0.8,0.3
				c0.2,0.2,0.4,0.5,0.4,0.8c0,0.3-0.1,0.6-0.3,0.9S335.8-561.2,335.4-561.2z"/>
			<path fill="#FFFFFF" d="M327.1-289.9c-0.4,0-0.8-0.1-1.1-0.4c-0.3-0.3-0.5-0.7-0.5-1.1s0.1-0.8,0.4-1.2c0.3-0.3,0.7-0.5,1.2-0.5
				c0.4,0,0.8,0.1,1.1,0.4c0.3,0.3,0.5,0.7,0.5,1.1s-0.1,0.8-0.4,1.2C328-290.1,327.5-289.9,327.1-289.9z"/>
			<path fill="#FFFFFF" d="M337-388.5c-0.7,0.4-1.6,0.7-2.4,0.7c-1.7,0-3.2-0.9-4.1-2.3c-1.3-2.2-0.6-5.1,1.7-6.5
				c0.7-0.4,1.5-0.7,2.4-0.7c1.7,0,3.2,0.9,4.1,2.3c0.6,1.1,0.8,2.4,0.5,3.6C338.9-390.2,338.1-389.2,337-388.5z"/>
			<path fill="#FFFFFF" d="M337.5-490.8c-0.2,0.1-0.5,0.2-0.8,0.2c-0.6,0-1.1-0.3-1.4-0.8c-0.2-0.4-0.3-0.8-0.2-1.2
				c0.1-0.4,0.4-0.8,0.7-1c0.2-0.1,0.5-0.2,0.8-0.2c0.6,0,1.1,0.3,1.4,0.8c0.2,0.4,0.3,0.8,0.2,1.2
				C338.1-491.4,337.8-491,337.5-490.8z"/>
			<path fill="#FFFFFF" d="M339.6-361.8c-0.3,0-0.6-0.1-0.8-0.3c-0.2-0.2-0.4-0.5-0.4-0.8c0-0.3,0.1-0.6,0.3-0.9
				c0.2-0.3,0.6-0.4,0.9-0.4s0.6,0.1,0.8,0.3c0.5,0.4,0.5,1.2,0.1,1.7C340.3-361.9,340-361.8,339.6-361.8z"/>
			<path fill="#FFFFFF" d="M352.6-415.2c-1.9,0-3.4-1.5-3.4-3.4s1.5-3.4,3.4-3.4s3.4,1.5,3.4,3.4S354.4-415.2,352.6-415.2z"/>
			<path fill="#FFFFFF" d="M332.2-422.5c-0.3,0.2-0.7,0.3-1,0.3c-0.7,0-1.4-0.4-1.8-1c-0.3-0.5-0.4-1-0.2-1.5c0.1-0.5,0.5-1,0.9-1.2
				c0.3-0.2,0.7-0.3,1-0.3c0.7,0,1.4,0.4,1.8,1c0.3,0.5,0.3,1,0.2,1.5C333-423.2,332.7-422.7,332.2-422.5z"/>
			<path fill="#FFFFFF" d="M350.8-462.4c-0.9,0-1.6-0.7-1.6-1.6s0.7-1.6,1.6-1.6s1.6,0.7,1.6,1.6S351.7-462.4,350.8-462.4z"/>
			<path fill="#FFFFFF" d="M352.6-409.6c0.3-0.2,0.7-0.1,0.9,0.2c0.1,0.2,0.1,0.3,0.1,0.5c0,0.2-0.2,0.3-0.3,0.4
				c-0.1,0.1-0.2,0.1-0.3,0.1c-0.2,0-0.4-0.1-0.6-0.3c-0.1-0.1-0.1-0.3-0.1-0.5C352.4-409.4,352.5-409.5,352.6-409.6z"/>
			<path fill="#FFFFFF" d="M360.1-333.1c-0.5,0-1-0.2-1.3-0.5c-0.4-0.4-0.6-0.9-0.7-1.4c0-0.5,0.1-1.1,0.5-1.5s0.9-0.7,1.5-0.7
				c0.5,0,1,0.2,1.3,0.5c0.4,0.4,0.6,0.9,0.7,1.4c0,0.5-0.1,1.1-0.5,1.5C361.2-333.4,360.6-333.1,360.1-333.1z"/>
			<path fill="#FFFFFF" d="M357.5-454.4c-0.2,0.1-0.4,0.2-0.6,0.2c-0.4,0-0.8-0.2-1-0.6c-0.3-0.6-0.1-1.3,0.4-1.6
				c0.2-0.1,0.4-0.2,0.6-0.2c0.4,0,0.8,0.2,1,0.6C358.3-455.5,358.1-454.7,357.5-454.4z"/>
		</g>
	</g>
</pattern>
<rect fill="#F3C915" width="1440" height="810"/>
<pattern  id="SVGID_1_" xlink:href="#New_Pattern" patternTransform="matrix(1 0 0 -1 0 -18884.7988)">
</pattern>
<rect opacity="0.2" fill="url(#SVGID_1_)" enable-background="new    " width="1440" height="810"/>
<g>
	<g>
		<g>
			<g>
				<path fill="#F8F9F7" d="M1383.2,61.1l6.5-6.6c0.3-0.3,0.4-0.8,0.1-1.1c-0.1-0.4-0.6-0.7-1-0.7c-0.3,0-0.6,0.1-0.7,0.3l-6.5,6.5
					l-6.6-6.6c-0.1-0.1-0.4-0.3-0.7-0.3c-0.4,0-0.8,0.3-1,0.7c-0.1,0.4-0.1,0.8,0.3,1.1l6.6,6.6l-6.5,6.5c-0.3,0.3-0.4,0.8-0.3,1.1
					c0.1,0.4,0.6,0.7,1,0.7c0.3,0,0.6-0.1,0.7-0.3l6.5-6.5l6.6,6.1c0.1,0.1,0.4,0.3,0.7,0.3c0.4,0,0.8-0.3,1-0.7
					c0.1-0.4,0.1-0.8-0.3-1.3L1383.2,61.1z"/>
				<path fill="#F8F9F7" d="M1374.4,70c-0.6,0-1.3-0.4-1.4-1c-0.3-0.6-0.1-1.3,0.4-1.7l6.1-6.2l-6.2-6.4c-0.4-0.4-0.6-1.1-0.3-1.7
					c0.3-0.6,0.8-1,1.4-1c0.4,0,0.8,0.1,1.1,0.4l6.2,6.2l6.1-6.2c0.3-0.3,0.7-0.4,1.1-0.4c0.6,0,1.3,0.4,1.4,1
					c0.3,0.6,0.1,1.3-0.3,1.7l-6.2,6.2l6.2,5.7c0.4,0.6,0.6,1.1,0.3,1.8c-0.3,0.6-0.8,1-1.4,1c-0.4,0-0.8-0.1-1.1-0.4l-6.2-5.8
					l-6.2,6.2C1375.2,69.8,1374.8,70,1374.4,70z M1374.4,53.2c-0.3,0-0.4,0.1-0.6,0.4c-0.1,0.3,0,0.4,0.1,0.7l6.9,7.1l-6.8,6.9
					c-0.1,0.1-0.3,0.4-0.1,0.7c0.1,0.4,0.7,0.4,1,0.1l6.8-6.9l6.9,6.4c0.3,0.3,0.8,0.1,1-0.1c0.1-0.3,0-0.4-0.1-0.7l-6.9-6.4
					l6.9-6.9c0.1-0.1,0.1-0.4,0.1-0.6c-0.1-0.4-0.7-0.4-1-0.1l-6.8,6.9l-6.9-6.9C1374.7,53.2,1374.5,53.2,1374.4,53.2z"/>
			</g>
		</g>
		<g>
			<g>
				<g>
					<circle fill="#F8F9F7" cx="1405.8" cy="56.7" r="4.2"/>
				</g>
				<g>
					<circle fill="#F8F9F7" cx="1388.4" cy="36.2" r="4.2"/>
				</g>
				<g>
					<circle fill="#F8F9F7" cx="1377.1" cy="33.2" r="3.2"/>
				</g>
				<g>
					<circle fill="#F8F9F7" cx="1404.3" cy="67.6" r="3"/>
				</g>
				<g>
					<circle fill="#F8F9F7" cx="1396.6" cy="71.8" r="1.8"/>
				</g>
				<g>
					<circle fill="#F8F9F7" cx="1370" cy="38.2" r="2"/>
				</g>
				<g>
					<circle fill="#F8F9F7" cx="1369.3" cy="46" r="1.6"/>
				</g>
				<g>
					<path fill="#F8F9F7" d="M1393.8,45.1c0.1,3,2.5,5.2,5.5,5.2c3-0.1,5.2-2.5,5.2-5.5c0-3-2.5-5.2-5.5-5.2
						C1395.9,39.7,1393.6,42.2,1393.8,45.1z"/>
				</g>
			</g>
		</g>
		<g>
			<g>
				<g>
					<circle fill="#F8F9F7" cx="1404.3" cy="67.6" r="3"/>
				</g>
				<g>
					<circle fill="#F8F9F7" cx="1396.6" cy="71.8" r="1.8"/>
				</g>
				<g>
					<circle fill="#F8F9F7" cx="1370" cy="38.2" r="2"/>
				</g>
				<g>
					<circle fill="#F8F9F7" cx="1369.3" cy="46" r="1.6"/>
				</g>
			</g>
		</g>
		<g>
			<g>
				<path fill="#F8F9F7" d="M1212.2,52.7h-11.4c-0.7,0-1.4,0.6-1.4,1.4v14c0,0.8,0.6,1.4,1.4,1.4h11.6c2,0,4-1.8,4-3.8v-9
					C1216,54.6,1214.2,52.7,1212.2,52.7z M1212.2,67.3c-2,0-3.8,0-5.8,0h-0.6c-1.4,0-3,0-4.4,0V54.9h10.7c0.8,0,1.7,0.8,1.7,1.7v9
					C1213.9,66.5,1213,67.3,1212.2,67.3z"/>
				<path fill="#F8F9F7" d="M1212.2,70h-11.6c-1,0-1.8-0.8-1.8-2V54c0-1.1,0.8-2,1.8-2h11.4c2.3,0,4.4,2.1,4.4,4.4v9
					C1216.6,68,1214.4,70,1212.2,70z M1200.6,53.2c-0.6,0-0.8,0.4-0.8,0.8v14c0,0.6,0.4,0.8,0.8,0.8h11.6c1.8,0,3.4-1.6,3.4-3.4v-9
					c0-1.7-1.7-3.4-3.4-3.4h-11.6V53.2z M1200.9,67.9V54.4h11.2c1.1,0,2.3,1.1,2.3,2.3v9c0,1.1-1.1,2.1-2.3,2.1c-2,0-3.8,0-5.8,0
					h-0.6c-1.4,0-3,0-4.4,0H1200.9z M1201.9,55.4v11.4c1.3,0,2.7,0,4,0h0.6c2,0,3.8,0,5.8,0c0.6,0,1.1-0.6,1.1-1.1v-9
					c0-0.6-0.7-1.3-1.3-1.3C1212,55.4,1201.9,55.4,1201.9,55.4z"/>
			</g>
			<g>
				<path fill="#F8F9F7" d="M1238.2,52.7h-8.6c-2.3,0-4.1,1.7-4.1,4v11.9c0,0.6,0.4,1.1,1.1,1.1c0.6,0,1.1-0.4,1.1-1.1v-5.8h12.6
					v5.8c0,0.6,0.4,1.1,1.1,1.1c0.6,0,1.1-0.4,1.1-1.1V56.7C1242.4,54.2,1240.2,52.7,1238.2,52.7z M1240.2,56.6v4h-12.6v-4
					c0-1.1,1-1.7,2-1.7h8.6C1239.2,54.9,1240.2,55.6,1240.2,56.6z"/>
				<path fill="#F8F9F7" d="M1241.3,70.1c-0.8,0-1.6-0.7-1.6-1.6v-5.4h-11.6v5.4c0,0.8-0.7,1.6-1.6,1.6c-0.8,0-1.6-0.7-1.6-1.6V56.7
					c0-2.4,2.1-4.4,4.7-4.4h8.6c2.3,0,4.7,1.7,4.7,4.4v11.9C1242.8,69.4,1242.1,70.1,1241.3,70.1z M1227.2,62.2h13.6v6.4
					c0,0.3,0.3,0.6,0.6,0.6c0.3,0,0.6-0.3,0.6-0.6V56.7c0-2.1-1.8-3.4-3.7-3.4h-8.6c-2,0-3.7,1.6-3.7,3.4v11.9
					c0,0.3,0.3,0.6,0.6,0.6c0.3,0,0.6-0.3,0.6-0.6v-6.4H1227.2z M1240.7,61.1h-13.6v-4.5c0-1.4,1.3-2.3,2.5-2.3h8.6
					c1.3,0,2.5,0.8,2.5,2.3v4.5H1240.7z M1228.1,60.1h11.6v-3.5c0-0.7-0.8-1.3-1.6-1.3h-8.6c-0.7,0-1.6,0.4-1.6,1.3v3.5H1228.1z"/>
			</g>
			<g>
				<path fill="#F8F9F7" d="M1263.6,52.7h-12.4c-0.6,0-1.1,0.4-1.1,1.1c0,0.6,0.4,1.1,1.1,1.1h5.1c0,1.7,0,4.1,0,6.4v1.7
					c0,2.1,0,4.1,0,5.5c0,0.6,0.4,1.1,1.1,1.1c0.6,0,1.1-0.4,1.1-1.1V54.9h5.1c0.6,0,1.1-0.4,1.1-1.1
					C1264.7,53.2,1264.3,52.7,1263.6,52.7z"/>
				<path fill="#F8F9F7" d="M1257.5,70.1c-0.8,0-1.6-0.7-1.6-1.6c0-1.4,0-3.4,0-5.5V60c0-1.7,0-3.3,0-4.5h-4.7
					c-0.8,0-1.6-0.7-1.6-1.6s0.7-1.6,1.6-1.6h12.4c0.8,0,1.6,0.7,1.6,1.6s-0.7,1.6-1.6,1.6h-4.5v13.1
					C1259.1,69.4,1258.4,70.1,1257.5,70.1z M1251.3,53.2c-0.3,0-0.6,0.3-0.6,0.6c0,0.3,0.3,0.6,0.6,0.6h5.7v0.6c0,1.4,0,3.1,0,4.9
					v3.1c0,2.1,0,4.1,0,5.5c0,0.3,0.3,0.6,0.6,0.6c0.3,0,0.6-0.3,0.6-0.6V54.3h5.7c0.3,0,0.6-0.3,0.6-0.6c0-0.3-0.3-0.6-0.6-0.6
					H1251.3z"/>
			</g>
			<g>
				<path fill="#F8F9F7" d="M1285.8,52.7h-8.6c-2.3,0-4.1,1.7-4.1,4v11.9c0,0.6,0.4,1.1,1.1,1.1c0.6,0,1.1-0.4,1.1-1.1v-5.8h12.6
					v5.8c0,0.6,0.4,1.1,1.1,1.1c0.6,0,1.1-0.4,1.1-1.1V56.7C1290,54.2,1287.9,52.7,1285.8,52.7z M1287.8,56.6v4h-12.6v-4
					c0-1.1,1-1.7,2-1.7h8.6C1286.8,54.9,1287.8,55.6,1287.8,56.6z"/>
				<path fill="#F8F9F7" d="M1288.9,70.1c-0.8,0-1.6-0.7-1.6-1.6v-5.4h-11.6v5.4c0,0.8-0.7,1.6-1.6,1.6s-1.6-0.7-1.6-1.6V56.7
					c0-2.4,2.1-4.4,4.7-4.4h8.6c2.3,0,4.7,1.7,4.7,4.4v11.9C1290.5,69.4,1289.7,70.1,1288.9,70.1z M1274.8,62.2h13.6v6.4
					c0,0.3,0.3,0.6,0.6,0.6c0.3,0,0.6-0.3,0.6-0.6V56.7c0-2.1-1.8-3.4-3.7-3.4h-8.6c-2,0-3.7,1.6-3.7,3.4v11.9
					c0,0.3,0.3,0.6,0.6,0.6c0.3,0,0.6-0.3,0.6-0.6v-6.4H1274.8z M1288.3,61.1h-13.6v-4.5c0-1.4,1.3-2.3,2.5-2.3h8.6
					c1.3,0,2.5,0.8,2.5,2.3v4.5H1288.3z M1275.8,60.1h11.6v-3.5c0-0.7-0.8-1.3-1.6-1.3h-8.6c-0.7,0-1.6,0.4-1.6,1.3v3.5H1275.8z"/>
			</g>
			<g>
				<path fill="#F8F9F7" d="M1312.6,60.1h-9.5c-1.1,0-1.7-1.4-1.7-2.7c0-1.3,0.6-2.5,1.7-2.5h10.3c0.6,0,1.1-0.4,1.1-1.1
					c0-0.6-0.4-1.1-1.1-1.1h-10.3c-2.5,0-3.8,2.4-3.8,4.8c0,2.3,1.3,4.8,4,4.8h9.3c1.1,0,1.7,1.4,1.7,2.7c0,1.3-0.6,2.5-1.7,2.5h-12
					c-0.6,0-1.1,0.4-1.1,1.1c0,0.6,0.4,1.1,1.1,1.1h11.9c2.7,0,3.8-2.4,3.8-4.8C1316.5,62.4,1315.2,60.1,1312.6,60.1z"/>
				<path fill="#F8F9F7" d="M1312.6,70h-11.9c-0.8,0-1.6-0.7-1.6-1.6c0-0.8,0.7-1.6,1.6-1.6h12c0.8,0,1.1-1.1,1.1-2
					c0-0.8-0.3-2.1-1.3-2.1h-9.3c-3,0-4.4-2.7-4.4-5.2c0-2.7,1.6-5.2,4.4-5.2h10.3c0.8,0,1.6,0.7,1.6,1.6s-0.7,1.6-1.6,1.6h-10.3
					c-0.8,0-1.1,1.3-1.1,2.1s0.3,2.1,1.1,2.1h9.5c2.8,0,4.2,2.7,4.2,5.2C1316.9,67.3,1315.6,70,1312.6,70z M1300.6,67.9
					c-0.3,0-0.6,0.3-0.6,0.6c0,0.3,0.3,0.6,0.6,0.6h11.9c2.3,0,3.4-2.3,3.4-4.2c0-2.1-1.1-4.2-3.3-4.2h-9.5c-1.6,0-2.3-1.6-2.3-3.1
					c0-1.4,0.7-3.1,2.1-3.1h10.3c0.3,0,0.6-0.3,0.6-0.6c0-0.3-0.3-0.6-0.6-0.6H1303c-2.1,0-3.4,2.1-3.4,4.2c0,2.1,1.1,4.2,3.4,4.2
					h9.3c1.6,0,2.3,1.7,2.3,3.1c0,1.4-0.7,3-2.1,3h-11.9V67.9z"/>
			</g>
			<g>
				<path fill="#F8F9F7" d="M1337.8,52.7h-13.4c-0.6,0-1.1,0.4-1.1,1.1c0,0.6,0.4,1.1,1.1,1.1h6.2c0,1.7,0,4.1,0,6.4
					c0,2.8,0,5.5,0,7.2c0,0.6,0.4,1.1,1.1,1.1c0.6,0,1.1-0.4,1.1-1.1V54.9h5.1c0.6,0,1.1-0.4,1.1-1.1
					C1338.8,53.2,1338.4,52.7,1337.8,52.7z"/>
				<path fill="#F8F9F7" d="M1331.6,70.1c-0.8,0-1.6-0.7-1.6-1.6c0-1.7,0-4.5,0-7.2v-5.9h-5.7c-0.8,0-1.6-0.7-1.6-1.6
					s0.7-1.6,1.6-1.6h13.4c0.8,0,1.6,0.7,1.6,1.6s-0.7,1.6-1.6,1.6h-4.5v13.1C1333.1,69.4,1332.4,70.1,1331.6,70.1z M1324.2,53.2
					c-0.3,0-0.6,0.3-0.6,0.6c0,0.3,0.3,0.6,0.6,0.6h6.6v6.9c0,2.8,0,5.5,0,7.2c0,0.3,0.3,0.6,0.6,0.6c0.3,0,0.6-0.3,0.6-0.6V54.3
					h5.7c0.3,0,0.6-0.3,0.6-0.6c0-0.3-0.3-0.6-0.6-0.6H1324.2z"/>
			</g>
			<g>
				<path fill="#F8F9F7" d="M1360,52.7h-8.6c-2.3,0-4.1,1.7-4.1,4v11.9c0,0.6,0.4,1.1,1.1,1.1c0.6,0,1.1-0.4,1.1-1.1v-5.8h12.6v5.8
					c0,0.6,0.4,1.1,1.1,1.1c0.6,0,1.1-0.4,1.1-1.1V56.7C1364.1,54.2,1362,52.7,1360,52.7z M1362,56.6v4h-12.6v-4c0-1.1,1-1.7,2-1.7
					h8.6C1360.8,54.9,1362,55.6,1362,56.6z"/>
				<path fill="#F8F9F7" d="M1362.9,70.1c-0.8,0-1.6-0.7-1.6-1.6v-5.4h-11.6v5.4c0,0.8-0.7,1.6-1.6,1.6s-1.6-0.7-1.6-1.6V56.7
					c0-2.4,2.1-4.4,4.7-4.4h8.6c2.3,0,4.7,1.7,4.7,4.4v11.9C1364.6,69.4,1363.9,70.1,1362.9,70.1z M1348.8,62.2h13.6v6.4
					c0,0.3,0.3,0.6,0.6,0.6c0.3,0,0.6-0.3,0.6-0.6V56.7c0-2.1-1.8-3.4-3.7-3.4h-8.6c-2,0-3.7,1.6-3.7,3.4v11.9
					c0,0.3,0.3,0.6,0.6,0.6c0.3,0,0.6-0.3,0.6-0.6v-6.4H1348.8z M1362.4,61.1h-13.6v-4.5c0-1.4,1.3-2.3,2.5-2.3h8.6
					c1.3,0,2.5,0.8,2.5,2.3v4.5H1362.4z M1349.8,60.1h11.6v-3.5c0-0.7-0.8-1.3-1.6-1.3h-8.6c-0.7,0-1.6,0.4-1.6,1.3v3.5H1349.8z"/>
			</g>
		</g>
	</g>
	<g>
		<path fill="#F8F9F7" d="M1205.7,81l5.4,13.6h-1.4l-1.7-4.2h-6.2l-1.7,4.2h-1.4l5.5-13.6H1205.7z M1207.5,89.2l-2.7-6.9l-2.7,6.9
			H1207.5z"/>
		<path fill="#F8F9F7" d="M1238.7,83.7c-0.3-0.4-0.6-0.7-1-1c-0.4-0.3-0.8-0.4-1.3-0.7c-0.4-0.1-1-0.3-1.4-0.3
			c-0.8,0-1.7,0.1-2.3,0.6c-0.7,0.3-1.1,0.8-1.6,1.4c-0.4,0.6-0.7,1.3-0.8,2s-0.3,1.4-0.3,2.1c0,0.7,0.1,1.4,0.3,2.1s0.6,1.4,0.8,2
			c0.4,0.6,1,1,1.6,1.4c0.7,0.3,1.4,0.6,2.3,0.6c0.6,0,1.3-0.1,1.7-0.3c0.6-0.3,1-0.6,1.3-1c0.4-0.4,0.7-0.8,0.8-1.4
			c0.3-0.6,0.4-1.1,0.4-1.7h1.3c-0.1,0.8-0.3,1.6-0.6,2.3c-0.3,0.7-0.7,1.3-1.1,1.7c-0.4,0.4-1,0.8-1.7,1.1
			c-0.7,0.3-1.4,0.4-2.1,0.4c-1.1,0-2-0.1-2.8-0.6c-0.8-0.4-1.4-0.8-2-1.6c-0.6-0.7-1-1.4-1.1-2.3c-0.3-0.8-0.4-1.7-0.4-2.7
			c0-1,0.1-1.8,0.4-2.7c0.3-0.8,0.7-1.6,1.1-2.3c0.6-0.7,1.3-1.1,2-1.6c0.7-0.4,1.7-0.6,2.8-0.6c0.7,0,1.3,0.1,1.8,0.3
			c0.6,0.1,1.1,0.4,1.7,0.8c0.6,0.4,1,0.8,1.3,1.4c0.3,0.6,0.6,1.1,0.7,1.8h-1.3C1239.2,84.5,1239,84.1,1238.7,83.7z"/>
		<path fill="#F8F9F7" d="M1265.3,81l5.4,13.6h-1.4l-1.7-4.2h-6.2l-1.7,4.2h-1.4l5.5-13.6H1265.3z M1267.1,89.2l-2.7-6.9l-2.7,6.9
			H1267.1z"/>
		<path fill="#F8F9F7" d="M1293.6,81c2.1,0,3.7,0.6,4.7,1.7c1,1.1,1.6,2.8,1.6,5.1c0,2.3-0.6,4-1.6,5.1c-1,1.1-2.5,1.7-4.7,1.7h-4.7
			V81C1288.9,81,1293.6,81,1293.6,81z M1293,93.4c1,0,1.8-0.1,2.5-0.3s1.3-0.6,1.7-1c0.4-0.4,0.8-1,1-1.8c0.3-0.7,0.3-1.6,0.3-2.5
			c0-1-0.1-1.8-0.3-2.5c-0.3-0.7-0.6-1.3-1-1.8c-0.4-0.4-1-0.8-1.7-1s-1.6-0.3-2.5-0.3h-2.8v11.4h2.8V93.4z"/>
		<path fill="#F8F9F7" d="M1328.5,81v1.1h-8.1v4.9h7.6v1.1h-7.6v5.4h8.2v1.1h-9.5V81.2h9.3V81z"/>
		<path fill="#F8F9F7" d="M1349.2,81l4.5,11.9l4.7-11.9h1.8v13.6h-1.3V82.8l0,0l-4.7,11.7h-1.3l-4.5-11.7l0,0v11.7h-1.3V81H1349.2z"
			/>
		<path fill="#F8F9F7" d="M1378.6,81h1.6l4.5,6.9l4.5-6.9h1.6l-5.4,8.1v5.7h-1.3v-5.7L1378.6,81z"/>
	</g>
</g>
</svg>
