<?xml version="1.0" encoding="utf-8"?>
<!-- Generator: Adobe Illustrator 18.1.1, SVG Export Plug-In . SVG Version: 6.00 Build 0)  -->
<svg version="1.1" id="Layer_1" xmlns="http://www.w3.org/2000/svg" xmlns:xlink="http://www.w3.org/1999/xlink" x="0px" y="0px"
	 viewBox="0 0 1440 810" enable-background="new 0 0 1440 810" xml:space="preserve">
<rect fill="#F8F9F7" width="1440" height="810"/>
<g>
	<path fill="#58595B" d="M1270,71c-0.7-0.8-1.7-1.3-2.9-1.3c-2.6,0-4.5,2.1-4.5,5c0,2.9,1.9,4.9,4.3,4.9c1.4,0,2.5-0.6,3.2-1.6
		l2.8,2.1c-1.3,1.8-3.5,2.7-5.6,2.7c-4.8,0-8.3-3.1-8.3-8.1c0-4.9,3.5-8.1,8.3-8.1c1.7,0,3.9,0.6,5.2,2.3L1270,71z"/>
	<path fill="#58595B" d="M1279.6,67h2.8l6.7,15.4h-3.8l-1.3-3.3h-6l-1.3,3.3h-3.7L1279.6,67z M1280.9,71.5l-1.9,4.8h3.8L1280.9,71.5
		z"/>
	<path fill="#58595B" d="M1298.1,70.8c-0.5-0.7-1.6-1-2.5-1c-1,0-2.3,0.4-2.3,1.6c0,2.8,7.1,1,7.1,6.4c0,3.4-2.8,5.1-5.9,5.1
		c-2,0-3.7-0.6-5.2-1.9l2.4-2.6c0.7,0.9,1.8,1.5,3,1.5c1.1,0,2.3-0.5,2.3-1.6c0-2.8-7.2-1.3-7.2-6.4c0-3.3,2.8-5,5.9-5
		c1.7,0,3.4,0.5,4.7,1.6L1298.1,70.8z"/>
	<path fill="#58595B" d="M1309.7,70.8c-0.5-0.7-1.6-1-2.5-1c-1,0-2.3,0.4-2.3,1.6c0,2.8,7.1,1,7.1,6.4c0,3.4-2.8,5.1-5.9,5.1
		c-2,0-3.7-0.6-5.2-1.9l2.4-2.6c0.7,0.9,1.8,1.5,3,1.5c1.1,0,2.3-0.5,2.3-1.6c0-2.8-7.2-1.3-7.2-6.4c0-3.3,2.8-5,5.9-5
		c1.7,0,3.4,0.5,4.7,1.6L1309.7,70.8z"/>
	<path fill="#58595B" d="M1318.8,67h2.8l6.7,15.4h-3.8l-1.3-3.3h-6l-1.3,3.3h-3.7L1318.8,67z M1320.1,71.5l-1.9,4.8h3.8L1320.1,71.5
		z"/>
	<polygon fill="#58595B" points="1329.3,67 1333.9,67 1340.5,77.7 1340.5,77.7 1340.5,67 1343.9,67 1343.9,82.4 1339.5,82.4 
		1332.8,71.4 1332.7,71.4 1332.7,82.4 1329.3,82.4 	"/>
	<path fill="#58595B" d="M1346.5,67h5.1c5,0,9.1,2.1,9.1,7.7c0,5-4.1,7.6-8.6,7.6h-5.5V67z M1349.9,79.2h1.8c3.1,0,5.5-1.2,5.5-4.7
		c0-3-2.4-4.4-5.3-4.4h-2V79.2z"/>
	<path fill="#58595B" d="M1362.5,67h5.9c3.1,0,5.8,1.1,5.8,4.7c0,2.1-1.2,3.8-3.3,4.2l3.9,6.5h-4.1l-3.2-6.1h-1.7v6.1h-3.4V67z
		 M1365.9,73.4h2c1.2,0,2.8,0,2.8-1.7c0-1.5-1.4-1.8-2.6-1.8h-2.2V73.4z"/>
	<path fill="#58595B" d="M1381.8,67h2.8l6.7,15.4h-3.8l-1.3-3.3h-6l-1.3,3.3h-3.7L1381.8,67z M1383.2,71.5l-1.9,4.8h3.8L1383.2,71.5
		z"/>
	<path fill="#58595B" d="M1260.4,99.5c0.8,1.3,2,2,3.6,2c2,0,3.5-1.2,3.5-3.1c0-4.4-8.1-1.8-8.1-7.8c0-2.8,2.4-4.3,5-4.3
		c1.7,0,3.2,0.6,4.3,2l-1.3,0.9c-0.7-1-1.7-1.6-3.1-1.6c-1.9,0-3.5,1-3.5,3c0,4.7,8.1,1.9,8.1,7.8c0,2.8-2.3,4.4-4.9,4.4
		c-2.1,0-3.9-0.7-5.1-2.4L1260.4,99.5z"/>
	<path fill="#58595B" d="M1283,96.4c0,3.4-1.4,6.4-5.7,6.4s-5.7-3.1-5.7-6.4v-9.7h1.5V96c0,2.2,0.6,5.5,4.3,5.5s4.3-3.2,4.3-5.5
		v-9.3h1.5V96.4z"/>
	<polygon fill="#58595B" points="1286.8,86.7 1289,86.7 1294.7,99.9 1300.5,86.7 1302.6,86.7 1302.6,102.4 1301.1,102.4 
		1301.1,88.6 1301.1,88.6 1295.1,102.4 1294.4,102.4 1288.3,88.6 1288.3,88.6 1288.3,102.4 1286.8,102.4 	"/>
	<polygon fill="#58595B" points="1306.5,86.7 1308.7,86.7 1314.4,99.9 1320.1,86.7 1322.2,86.7 1322.2,102.4 1320.7,102.4 
		1320.7,88.6 1320.7,88.6 1314.7,102.4 1314.1,102.4 1308,88.6 1307.9,88.6 1307.9,102.4 1306.5,102.4 	"/>
	<rect x="1326.2" y="86.7" fill="#58595B" width="1.5" height="15.7"/>
	<polygon fill="#58595B" points="1335.3,88 1329.9,88 1329.9,86.7 1342.1,86.7 1342.1,88 1336.7,88 1336.7,102.4 1335.3,102.4 	"/>
	<path fill="#CA6128" d="M1297.7,51.8c0,1.2-1,2.2-2.2,2.3c-1.2,0-2.2-1-2.3-2.2c0-1.2,1-2.2,2.2-2.3
		C1296.7,49.5,1297.7,50.5,1297.7,51.8"/>
	<path fill="#CA6128" d="M1304.1,40c1.7,0,3,1.3,3.1,3c0,1.7-1.3,3-3,3.1c-1.7,0-3-1.3-3.1-3C1301.1,41.4,1302.4,40,1304.1,40"/>
	<path fill="#CA6128" d="M1319.3,33.3c2.1,0,3.8,1.6,3.8,3.7c0,2.1-1.6,3.8-3.7,3.8c-2.1,0-3.8-1.6-3.8-3.7
		C1315.6,35,1317.2,33.3,1319.3,33.3"/>
	<path fill="#CA6128" d="M1336.6,33.9c2.4,0,4.4,1.9,4.4,4.3c0,2.4-1.9,4.4-4.3,4.4c-2.4,0-4.4-1.9-4.4-4.3
		C1332.3,35.9,1334.2,33.9,1336.6,33.9"/>
	<path fill="#CA6128" d="M1357.5,48.8c0,3.1-2.4,5.6-5.5,5.6c-3.1,0-5.6-2.4-5.6-5.5c0-3.1,2.4-5.6,5.5-5.6
		C1354.9,43.3,1357.5,45.8,1357.5,48.8"/>
	<g>
		<path fill="#58595B" d="M1343.2,98.8l6.2-5.6c0.3-0.3,0.6-0.6,0.9-1c0.3-0.4,0.5-0.8,0.5-1.3c0-0.5-0.2-1-0.6-1.3
			c-0.4-0.3-0.9-0.5-1.4-0.5c-0.6,0-1.1,0.2-1.5,0.6c-0.4,0.4-0.6,0.9-0.6,1.4l-3.4-0.2c0-0.8,0.2-1.5,0.5-2.2
			c0.3-0.6,0.7-1.1,1.2-1.5c0.5-0.4,1.1-0.7,1.7-0.9c0.7-0.2,1.4-0.3,2.2-0.3c0.7,0,1.4,0.1,2,0.3c0.6,0.2,1.2,0.5,1.6,0.9
			c0.5,0.4,0.8,0.9,1.1,1.5c0.3,0.6,0.4,1.3,0.4,2.1c0,0.5-0.1,1-0.2,1.4c-0.1,0.4-0.3,0.8-0.4,1.1c-0.2,0.3-0.4,0.7-0.7,0.9
			c-0.3,0.3-0.5,0.6-0.8,0.8l-4.9,4.2h7.1v3h-11.2V98.8z"/>
		<path fill="#58595B" d="M1355.8,94.4c0-0.9,0.1-1.9,0.3-2.9c0.2-1,0.5-1.9,0.9-2.7c0.4-0.8,1.1-1.4,1.8-2c0.8-0.5,1.7-0.8,2.9-0.8
			c1.2,0,2.2,0.3,2.9,0.8c0.8,0.5,1.4,1.2,1.8,2c0.4,0.8,0.8,1.7,0.9,2.7c0.2,1,0.3,1.9,0.3,2.9c0,0.9-0.1,1.9-0.3,2.9
			c-0.2,1-0.5,1.9-0.9,2.7c-0.4,0.8-1.1,1.4-1.8,2c-0.8,0.5-1.7,0.8-2.9,0.8c-1.2,0-2.2-0.3-2.9-0.8c-0.8-0.5-1.4-1.2-1.8-2
			c-0.4-0.8-0.8-1.7-0.9-2.7C1355.9,96.3,1355.8,95.4,1355.8,94.4z M1359.2,94.4c0,0.4,0,0.9,0.1,1.5c0,0.6,0.1,1.2,0.3,1.7
			c0.2,0.5,0.4,1,0.8,1.4c0.3,0.4,0.8,0.6,1.4,0.6c0.6,0,1.1-0.2,1.4-0.6c0.3-0.4,0.6-0.8,0.8-1.4c0.2-0.5,0.3-1.1,0.3-1.7
			c0-0.6,0.1-1.1,0.1-1.5c0-0.4,0-0.9-0.1-1.5c0-0.6-0.1-1.2-0.3-1.7c-0.2-0.5-0.4-1-0.8-1.4c-0.3-0.4-0.8-0.6-1.4-0.6
			c-0.6,0-1.1,0.2-1.4,0.6c-0.3,0.4-0.6,0.8-0.8,1.4c-0.2,0.5-0.3,1.1-0.3,1.7C1359.2,93.5,1359.2,94,1359.2,94.4z"/>
		<path fill="#58595B" d="M1374,90.2l-3.2,2.8l-1.9-2.2l5.2-4.4h3.2v16h-3.3V90.2z"/>
		<path fill="#58595B" d="M1390.7,89.4h-6.3l-0.1,2.5c0.3-0.1,0.8-0.2,1.4-0.2c0.8,0,1.6,0.1,2.2,0.4c0.7,0.2,1.3,0.6,1.7,1.1
			c0.5,0.5,0.9,1,1.1,1.7c0.3,0.7,0.4,1.4,0.4,2.2c0,0.9-0.2,1.7-0.5,2.4c-0.3,0.7-0.7,1.3-1.3,1.8c-0.5,0.5-1.2,0.9-1.9,1.1
			c-0.7,0.3-1.6,0.4-2.4,0.4c-1.4,0-2.5-0.3-3.5-1c-0.9-0.7-1.6-1.7-1.9-3.1l3.5-0.8c0.1,0.6,0.3,1,0.7,1.4c0.4,0.4,0.9,0.5,1.5,0.5
			c0.7,0,1.3-0.2,1.7-0.7c0.4-0.5,0.6-1,0.6-1.7c0-0.5-0.1-1-0.3-1.3c-0.2-0.3-0.5-0.6-0.9-0.8c-0.4-0.2-0.7-0.3-1.2-0.4
			c-0.4-0.1-0.9-0.1-1.3-0.1c-0.6,0-1.1,0.1-1.7,0.2c-0.6,0.1-1.1,0.2-1.6,0.4l0.2-8.8h9.7V89.4z"/>
	</g>
</g>
</svg>
