<?xml version="1.0" encoding="utf-8"?>
<!-- Generator: Adobe Illustrator 18.1.1, SVG Export Plug-In . SVG Version: 6.00 Build 0)  -->
<svg version="1.1" id="Layer_1" xmlns="http://www.w3.org/2000/svg" xmlns:xlink="http://www.w3.org/1999/xlink" x="0px" y="0px"
	 viewBox="0 0 1440 810" enable-background="new 0 0 1440 810" xml:space="preserve">
<rect fill="#FFFFFF" width="1440" height="810"/>
<g>
	<g>
		<g>
			<g>
				<path fill="#231F20" d="M1383.2,61.1l6.5-6.6c0.3-0.3,0.4-0.8,0.1-1.1c-0.1-0.4-0.6-0.7-1-0.7c-0.3,0-0.6,0.1-0.7,0.3l-6.5,6.5
					l-6.6-6.6c-0.1-0.1-0.4-0.3-0.7-0.3c-0.4,0-0.8,0.3-1,0.7c-0.1,0.4-0.1,0.8,0.3,1.1l6.6,6.6l-6.5,6.5c-0.3,0.3-0.4,0.8-0.3,1.1
					c0.1,0.4,0.6,0.7,1,0.7c0.3,0,0.6-0.1,0.7-0.3l6.5-6.5l6.6,6.1c0.1,0.1,0.4,0.3,0.7,0.3c0.4,0,0.8-0.3,1-0.7
					c0.1-0.4,0.1-0.8-0.3-1.3L1383.2,61.1z"/>
				<path fill="#231F20" d="M1374.4,70c-0.6,0-1.3-0.4-1.4-1c-0.3-0.6-0.1-1.3,0.4-1.7l6.1-6.2l-6.2-6.4c-0.4-0.4-0.6-1.1-0.3-1.7
					c0.3-0.6,0.8-1,1.4-1c0.4,0,0.8,0.1,1.1,0.4l6.2,6.2l6.1-6.2c0.3-0.3,0.7-0.4,1.1-0.4c0.6,0,1.3,0.4,1.4,1
					c0.3,0.6,0.1,1.3-0.3,1.7l-6.2,6.2l6.2,5.7c0.4,0.6,0.6,1.1,0.3,1.8c-0.3,0.6-0.8,1-1.4,1c-0.4,0-0.8-0.1-1.1-0.4l-6.2-5.8
					l-6.2,6.2C1375.2,69.8,1374.8,70,1374.4,70z M1374.4,53.2c-0.3,0-0.4,0.1-0.6,0.4c-0.1,0.3,0,0.4,0.1,0.7l6.9,7.1l-6.8,6.9
					c-0.1,0.1-0.3,0.4-0.1,0.7c0.1,0.4,0.7,0.4,1,0.1l6.8-6.9l6.9,6.4c0.3,0.3,0.8,0.1,1-0.1c0.1-0.3,0-0.4-0.1-0.7l-6.9-6.4
					l6.9-6.9c0.1-0.1,0.1-0.4,0.1-0.6c-0.1-0.4-0.7-0.4-1-0.1l-6.8,6.9l-6.9-6.9C1374.7,53.2,1374.5,53.2,1374.4,53.2z"/>
			</g>
		</g>
		<g>
			<g>
				<g>
					<circle fill="#087A96" cx="1405.8" cy="56.7" r="4.2"/>
				</g>
				<g>
					<circle fill="#087A96" cx="1388.4" cy="36.2" r="4.2"/>
				</g>
				<g>
					<circle fill="#087A96" cx="1377.1" cy="33.2" r="3.2"/>
				</g>
				<g>
					<circle fill="#087A96" cx="1404.3" cy="67.6" r="3"/>
				</g>
				<g>
					<circle fill="#087A96" cx="1396.6" cy="71.8" r="1.8"/>
				</g>
				<g>
					<circle fill="#087A96" cx="1370" cy="38.2" r="2"/>
				</g>
				<g>
					<circle fill="#087A96" cx="1369.3" cy="46" r="1.6"/>
				</g>
				<g>
					<path fill="#087A96" d="M1393.8,45.1c0.1,3,2.5,5.2,5.5,5.2c3-0.1,5.2-2.5,5.2-5.5c0-3-2.5-5.2-5.5-5.2
						C1395.9,39.7,1393.6,42.2,1393.8,45.1z"/>
				</g>
			</g>
		</g>
		<g>
			<g>
				<path fill="#231F20" d="M1212.2,52.7h-11.4c-0.7,0-1.4,0.6-1.4,1.4v14c0,0.8,0.6,1.4,1.4,1.4h11.6c2,0,4-1.8,4-3.8v-9
					C1216,54.6,1214.2,52.7,1212.2,52.7z M1212.2,67.3c-2,0-3.8,0-5.8,0h-0.6c-1.4,0-3,0-4.4,0V54.9h10.7c0.8,0,1.7,0.8,1.7,1.7v9
					C1213.9,66.5,1213,67.3,1212.2,67.3z"/>
				<path fill="#231F20" d="M1212.2,70h-11.6c-1,0-1.8-0.8-1.8-2V54c0-1.1,0.8-2,1.8-2h11.4c2.3,0,4.4,2.1,4.4,4.4v9
					C1216.6,68,1214.4,70,1212.2,70z M1200.6,53.2c-0.6,0-0.8,0.4-0.8,0.8v14c0,0.6,0.4,0.8,0.8,0.8h11.6c1.8,0,3.4-1.6,3.4-3.4v-9
					c0-1.7-1.7-3.4-3.4-3.4h-11.6V53.2z M1200.9,67.9V54.4h11.2c1.1,0,2.3,1.1,2.3,2.3v9c0,1.1-1.1,2.1-2.3,2.1c-2,0-3.8,0-5.8,0
					h-0.6c-1.4,0-3,0-4.4,0H1200.9z M1201.9,55.4v11.4c1.3,0,2.7,0,4,0h0.6c2,0,3.8,0,5.8,0c0.6,0,1.1-0.6,1.1-1.1v-9
					c0-0.6-0.7-1.3-1.3-1.3C1212,55.4,1201.9,55.4,1201.9,55.4z"/>
			</g>
			<g>
				<path fill="#231F20" d="M1238.2,52.7h-8.6c-2.3,0-4.1,1.7-4.1,4v11.9c0,0.6,0.4,1.1,1.1,1.1c0.6,0,1.1-0.4,1.1-1.1v-5.8h12.6
					v5.8c0,0.6,0.4,1.1,1.1,1.1c0.6,0,1.1-0.4,1.1-1.1V56.7C1242.4,54.2,1240.2,52.7,1238.2,52.7z M1240.2,56.6v4h-12.6v-4
					c0-1.1,1-1.7,2-1.7h8.6C1239.2,54.9,1240.2,55.6,1240.2,56.6z"/>
				<path fill="#231F20" d="M1241.3,70.1c-0.8,0-1.6-0.7-1.6-1.6v-5.4h-11.6v5.4c0,0.8-0.7,1.6-1.6,1.6c-0.8,0-1.6-0.7-1.6-1.6V56.7
					c0-2.4,2.1-4.4,4.7-4.4h8.6c2.3,0,4.7,1.7,4.7,4.4v11.9C1242.8,69.4,1242.1,70.1,1241.3,70.1z M1227.2,62.2h13.6v6.4
					c0,0.3,0.3,0.6,0.6,0.6c0.3,0,0.6-0.3,0.6-0.6V56.7c0-2.1-1.8-3.4-3.7-3.4h-8.6c-2,0-3.7,1.6-3.7,3.4v11.9
					c0,0.3,0.3,0.6,0.6,0.6c0.3,0,0.6-0.3,0.6-0.6v-6.4H1227.2z M1240.7,61.1h-13.6v-4.5c0-1.4,1.3-2.3,2.5-2.3h8.6
					c1.3,0,2.5,0.8,2.5,2.3v4.5H1240.7z M1228.1,60.1h11.6v-3.5c0-0.7-0.8-1.3-1.6-1.3h-8.6c-0.7,0-1.6,0.4-1.6,1.3v3.5H1228.1z"/>
			</g>
			<g>
				<path fill="#231F20" d="M1263.6,52.7h-12.4c-0.6,0-1.1,0.4-1.1,1.1c0,0.6,0.4,1.1,1.1,1.1h5.1c0,1.7,0,4.1,0,6.4v1.7
					c0,2.1,0,4.1,0,5.5c0,0.6,0.4,1.1,1.1,1.1c0.6,0,1.1-0.4,1.1-1.1V54.9h5.1c0.6,0,1.1-0.4,1.1-1.1
					C1264.7,53.2,1264.3,52.7,1263.6,52.7z"/>
				<path fill="#231F20" d="M1257.5,70.1c-0.8,0-1.6-0.7-1.6-1.6c0-1.4,0-3.4,0-5.5V60c0-1.7,0-3.3,0-4.5h-4.7
					c-0.8,0-1.6-0.7-1.6-1.6s0.7-1.6,1.6-1.6h12.4c0.8,0,1.6,0.7,1.6,1.6s-0.7,1.6-1.6,1.6h-4.5v13.1
					C1259.1,69.4,1258.4,70.1,1257.5,70.1z M1251.3,53.2c-0.3,0-0.6,0.3-0.6,0.6c0,0.3,0.3,0.6,0.6,0.6h5.7v0.6c0,1.4,0,3.1,0,4.9
					v3.1c0,2.1,0,4.1,0,5.5c0,0.3,0.3,0.6,0.6,0.6c0.3,0,0.6-0.3,0.6-0.6V54.3h5.7c0.3,0,0.6-0.3,0.6-0.6c0-0.3-0.3-0.6-0.6-0.6
					H1251.3z"/>
			</g>
			<g>
				<path fill="#231F20" d="M1285.8,52.7h-8.6c-2.3,0-4.1,1.7-4.1,4v11.9c0,0.6,0.4,1.1,1.1,1.1c0.6,0,1.1-0.4,1.1-1.1v-5.8h12.6
					v5.8c0,0.6,0.4,1.1,1.1,1.1c0.6,0,1.1-0.4,1.1-1.1V56.7C1290,54.2,1287.9,52.7,1285.8,52.7z M1287.8,56.6v4h-12.6v-4
					c0-1.1,1-1.7,2-1.7h8.6C1286.8,54.9,1287.8,55.6,1287.8,56.6z"/>
				<path fill="#231F20" d="M1288.9,70.1c-0.8,0-1.6-0.7-1.6-1.6v-5.4h-11.6v5.4c0,0.8-0.7,1.6-1.6,1.6s-1.6-0.7-1.6-1.6V56.7
					c0-2.4,2.1-4.4,4.7-4.4h8.6c2.3,0,4.7,1.7,4.7,4.4v11.9C1290.5,69.4,1289.7,70.1,1288.9,70.1z M1274.8,62.2h13.6v6.4
					c0,0.3,0.3,0.6,0.6,0.6c0.3,0,0.6-0.3,0.6-0.6V56.7c0-2.1-1.8-3.4-3.7-3.4h-8.6c-2,0-3.7,1.6-3.7,3.4v11.9
					c0,0.3,0.3,0.6,0.6,0.6c0.3,0,0.6-0.3,0.6-0.6v-6.4H1274.8z M1288.3,61.1h-13.6v-4.5c0-1.4,1.3-2.3,2.5-2.3h8.6
					c1.3,0,2.5,0.8,2.5,2.3v4.5H1288.3z M1275.8,60.1h11.6v-3.5c0-0.7-0.8-1.3-1.6-1.3h-8.6c-0.7,0-1.6,0.4-1.6,1.3v3.5H1275.8z"/>
			</g>
			<g>
				<path fill="#231F20" d="M1312.6,60.1h-9.5c-1.1,0-1.7-1.4-1.7-2.7c0-1.3,0.6-2.5,1.7-2.5h10.3c0.6,0,1.1-0.4,1.1-1.1
					c0-0.6-0.4-1.1-1.1-1.1h-10.3c-2.5,0-3.8,2.4-3.8,4.8c0,2.3,1.3,4.8,4,4.8h9.3c1.1,0,1.7,1.4,1.7,2.7c0,1.3-0.6,2.5-1.7,2.5h-12
					c-0.6,0-1.1,0.4-1.1,1.1c0,0.6,0.4,1.1,1.1,1.1h11.9c2.7,0,3.8-2.4,3.8-4.8C1316.5,62.4,1315.2,60.1,1312.6,60.1z"/>
				<path fill="#231F20" d="M1312.6,70h-11.9c-0.8,0-1.6-0.7-1.6-1.6c0-0.8,0.7-1.6,1.6-1.6h12c0.8,0,1.1-1.1,1.1-2
					c0-0.8-0.3-2.1-1.3-2.1h-9.3c-3,0-4.4-2.7-4.4-5.2c0-2.7,1.6-5.2,4.4-5.2h10.3c0.8,0,1.6,0.7,1.6,1.6s-0.7,1.6-1.6,1.6h-10.3
					c-0.8,0-1.1,1.3-1.1,2.1s0.3,2.1,1.1,2.1h9.5c2.8,0,4.2,2.7,4.2,5.2C1316.9,67.3,1315.6,70,1312.6,70z M1300.6,67.9
					c-0.3,0-0.6,0.3-0.6,0.6c0,0.3,0.3,0.6,0.6,0.6h11.9c2.3,0,3.4-2.3,3.4-4.2c0-2.1-1.1-4.2-3.3-4.2h-9.5c-1.6,0-2.3-1.6-2.3-3.1
					c0-1.4,0.7-3.1,2.1-3.1h10.3c0.3,0,0.6-0.3,0.6-0.6c0-0.3-0.3-0.6-0.6-0.6H1303c-2.1,0-3.4,2.1-3.4,4.2c0,2.1,1.1,4.2,3.4,4.2
					h9.3c1.6,0,2.3,1.7,2.3,3.1c0,1.4-0.7,3-2.1,3h-11.9V67.9z"/>
			</g>
			<g>
				<path fill="#231F20" d="M1337.8,52.7h-13.4c-0.6,0-1.1,0.4-1.1,1.1c0,0.6,0.4,1.1,1.1,1.1h6.2c0,1.7,0,4.1,0,6.4
					c0,2.8,0,5.5,0,7.2c0,0.6,0.4,1.1,1.1,1.1c0.6,0,1.1-0.4,1.1-1.1V54.9h5.1c0.6,0,1.1-0.4,1.1-1.1
					C1338.8,53.2,1338.4,52.7,1337.8,52.7z"/>
				<path fill="#231F20" d="M1331.6,70.1c-0.8,0-1.6-0.7-1.6-1.6c0-1.7,0-4.5,0-7.2v-5.9h-5.7c-0.8,0-1.6-0.7-1.6-1.6
					s0.7-1.6,1.6-1.6h13.4c0.8,0,1.6,0.7,1.6,1.6s-0.7,1.6-1.6,1.6h-4.5v13.1C1333.1,69.4,1332.4,70.1,1331.6,70.1z M1324.2,53.2
					c-0.3,0-0.6,0.3-0.6,0.6c0,0.3,0.3,0.6,0.6,0.6h6.6v6.9c0,2.8,0,5.5,0,7.2c0,0.3,0.3,0.6,0.6,0.6c0.3,0,0.6-0.3,0.6-0.6V54.3
					h5.7c0.3,0,0.6-0.3,0.6-0.6c0-0.3-0.3-0.6-0.6-0.6H1324.2z"/>
			</g>
			<g>
				<path fill="#231F20" d="M1360,52.7h-8.6c-2.3,0-4.1,1.7-4.1,4v11.9c0,0.6,0.4,1.1,1.1,1.1c0.6,0,1.1-0.4,1.1-1.1v-5.8h12.6v5.8
					c0,0.6,0.4,1.1,1.1,1.1c0.6,0,1.1-0.4,1.1-1.1V56.7C1364.1,54.2,1362,52.7,1360,52.7z M1362,56.6v4h-12.6v-4c0-1.1,1-1.7,2-1.7
					h8.6C1360.8,54.9,1362,55.6,1362,56.6z"/>
				<path fill="#231F20" d="M1362.9,70.1c-0.8,0-1.6-0.7-1.6-1.6v-5.4h-11.6v5.4c0,0.8-0.7,1.6-1.6,1.6s-1.6-0.7-1.6-1.6V56.7
					c0-2.4,2.1-4.4,4.7-4.4h8.6c2.3,0,4.7,1.7,4.7,4.4v11.9C1364.6,69.4,1363.9,70.1,1362.9,70.1z M1348.8,62.2h13.6v6.4
					c0,0.3,0.3,0.6,0.6,0.6c0.3,0,0.6-0.3,0.6-0.6V56.7c0-2.1-1.8-3.4-3.7-3.4h-8.6c-2,0-3.7,1.6-3.7,3.4v11.9
					c0,0.3,0.3,0.6,0.6,0.6c0.3,0,0.6-0.3,0.6-0.6v-6.4H1348.8z M1362.4,61.1h-13.6v-4.5c0-1.4,1.3-2.3,2.5-2.3h8.6
					c1.3,0,2.5,0.8,2.5,2.3v4.5H1362.4z M1349.8,60.1h11.6v-3.5c0-0.7-0.8-1.3-1.6-1.3h-8.6c-0.7,0-1.6,0.4-1.6,1.3v3.5H1349.8z"/>
			</g>
		</g>
	</g>
	<g>
		<path fill="#231F20" d="M1205.7,81l5.4,13.6h-1.4l-1.7-4.2h-6.2l-1.7,4.2h-1.4l5.5-13.6H1205.7z M1207.5,89.2l-2.7-6.9l-2.7,6.9
			H1207.5z"/>
		<path fill="#231F20" d="M1238.7,83.7c-0.3-0.4-0.6-0.7-1-1c-0.4-0.3-0.8-0.4-1.3-0.7c-0.4-0.1-1-0.3-1.4-0.3
			c-0.8,0-1.7,0.1-2.3,0.6c-0.7,0.3-1.1,0.8-1.6,1.4c-0.4,0.6-0.7,1.3-0.8,2s-0.3,1.4-0.3,2.1c0,0.7,0.1,1.4,0.3,2.1s0.6,1.4,0.8,2
			c0.4,0.6,1,1,1.6,1.4c0.7,0.3,1.4,0.6,2.3,0.6c0.6,0,1.3-0.1,1.7-0.3c0.6-0.3,1-0.6,1.3-1c0.4-0.4,0.7-0.8,0.8-1.4
			c0.3-0.6,0.4-1.1,0.4-1.7h1.3c-0.1,0.8-0.3,1.6-0.6,2.3c-0.3,0.7-0.7,1.3-1.1,1.7c-0.4,0.4-1,0.8-1.7,1.1
			c-0.7,0.3-1.4,0.4-2.1,0.4c-1.1,0-2-0.1-2.8-0.6c-0.8-0.4-1.4-0.8-2-1.6c-0.6-0.7-1-1.4-1.1-2.3c-0.3-0.8-0.4-1.7-0.4-2.7
			c0-1,0.1-1.8,0.4-2.7c0.3-0.8,0.7-1.6,1.1-2.3c0.6-0.7,1.3-1.1,2-1.6c0.7-0.4,1.7-0.6,2.8-0.6c0.7,0,1.3,0.1,1.8,0.3
			c0.6,0.1,1.1,0.4,1.7,0.8c0.6,0.4,1,0.8,1.3,1.4c0.3,0.6,0.6,1.1,0.7,1.8h-1.3C1239.2,84.5,1239,84.1,1238.7,83.7z"/>
		<path fill="#231F20" d="M1265.3,81l5.4,13.6h-1.4l-1.7-4.2h-6.2l-1.7,4.2h-1.4l5.5-13.6H1265.3z M1267.1,89.2l-2.7-6.9l-2.7,6.9
			H1267.1z"/>
		<path fill="#231F20" d="M1293.6,81c2.1,0,3.7,0.6,4.7,1.7c1,1.1,1.6,2.8,1.6,5.1c0,2.3-0.6,4-1.6,5.1c-1,1.1-2.5,1.7-4.7,1.7h-4.7
			V81C1288.9,81,1293.6,81,1293.6,81z M1293,93.4c1,0,1.8-0.1,2.5-0.3s1.3-0.6,1.7-1c0.4-0.4,0.8-1,1-1.8c0.3-0.7,0.3-1.6,0.3-2.5
			c0-1-0.1-1.8-0.3-2.5c-0.3-0.7-0.6-1.3-1-1.8c-0.4-0.4-1-0.8-1.7-1s-1.6-0.3-2.5-0.3h-2.8v11.4h2.8V93.4z"/>
		<path fill="#231F20" d="M1328.5,81v1.1h-8.1v4.9h7.6v1.1h-7.6v5.4h8.2v1.1h-9.5V81.2h9.3V81z"/>
		<path fill="#231F20" d="M1349.2,81l4.5,11.9l4.7-11.9h1.8v13.6h-1.3V82.8l0,0l-4.7,11.7h-1.3l-4.5-11.7l0,0v11.7h-1.3V81H1349.2z"
			/>
		<path fill="#231F20" d="M1378.6,81h1.6l4.5,6.9l4.5-6.9h1.6l-5.4,8.1v5.7h-1.3v-5.7L1378.6,81z"/>
	</g>
</g>
</svg>
