<?xml version="1.0" encoding="utf-8"?>
<!-- Generator: Adobe Illustrator 18.1.1, SVG Export Plug-In . SVG Version: 6.00 Build 0)  -->
<svg version="1.1" id="Layer_1" xmlns="http://www.w3.org/2000/svg" xmlns:xlink="http://www.w3.org/1999/xlink" x="0px" y="0px"
	 viewBox="0 0 2560 1440" enable-background="new 0 0 2560 1440" xml:space="preserve">
<g display="none">
	<defs>
		<rect id="SVGID_3_" x="-1.3" width="2561.3" height="1440"/>
	</defs>
	<clipPath id="SVGID_2_" display="inline">
		<use xlink:href="#SVGID_3_"  overflow="visible"/>
	</clipPath>
	<g display="inline" clip-path="url(#SVGID_2_)">
		<path fill="none" d="M1889.7,821c-29.1,50.3-83.2,81.6-141.4,81.6c-12.5,0-25-1.5-37.2-4.3c-10.7,43.7-16.3,89-16.3,135.1
			c0,46.1,5.5,91.4,16.3,135.1c12.2-2.9,24.6-4.3,37.2-4.3c58.2,0,112.3,31.3,141.4,81.6c36.7,63.7,25.6,142-22.3,193.1
			c66.8,64.4,146.8,110.3,233.9,135.3c20.2-67.1,82.6-116.1,156.2-116.1s135.9,49,156.2,116.1c87-25,167-70.9,233.9-135.3
			c-47.8-51.1-59-129.4-22.3-193.1c29.1-50.3,83.2-81.6,141.4-81.6c12.5,0,25,1.5,37.2,4.3c10.7-43.7,16.3-89,16.3-135.1
			c0-46.1-5.5-91.4-16.3-135.1c-12.2,2.9-24.6,4.3-37.2,4.3c-58.2,0-112.3-31.3-141.4-81.6c-21.8-37.7-27.6-81.7-16.3-123.8
			c7.1-26.4,20.3-50,38.5-69.4c-66.8-64.3-146.8-110.2-233.8-135.2c-20.2,67.1-82.6,116.1-156.2,116.1s-135.9-49-156.2-116.1
			c-87,25-167,70.9-233.8,135.2c18.2,19.4,31.4,43,38.5,69.4C1917.2,739.3,1911.4,783.2,1889.7,821z"/>
		<path fill="#FFFFFF" d="M1664,878.9c-12.9,49.8-19.5,101.6-19.5,154.4c0,52.8,6.7,104.6,19.5,154.4
			c-75.7,45.7-101.3,144.2-56.9,221.1c29.1,50.3,83.2,81.6,141.4,81.6c27.5,0,54.6-7.1,78.8-20.4c75.6,74.6,167.3,127.1,267.1,154.5
			c1.8,88.4,74.2,159.8,163,159.8s161.2-71.4,163-159.8c99.8-27.4,191.4-80,267.1-154.5c24.1,13.3,51.3,20.4,78.8,20.4
			c58.2,0,112.3-31.3,141.4-81.6c44.4-76.9,18.8-175.3-56.9-221.1c12.9-49.8,19.5-101.6,19.5-154.4c0-52.8-6.7-104.6-19.5-154.4
			c75.7-45.7,101.3-144.2,56.9-221.1c-29.1-50.3-83.2-81.6-141.4-81.6c-27.5,0-54.6,7.1-78.8,20.4
			c-75.6-74.6-167.3-127.1-267.1-154.5c-1.8-88.4-74.2-159.8-163-159.8s-161.2,71.4-163,159.8c-99.8,27.4-191.4,80-267.1,154.5
			c-24.1-13.3-51.3-20.4-78.8-20.4c-58.2,0-112.3,31.3-141.4,81.6C1562.7,734.8,1588.4,833.2,1664,878.9z M1748.5,626.6
			c14.7,0,29.3,2.9,42.9,8.5c4.6,1.9,9.1,4.1,13.4,6.6c10.6,6.1,19.9,13.8,27.8,22.6c11.6,13,20.1,28.6,24.7,45.8
			c7.8,29.1,3.8,59.5-11.3,85.6c-20.1,34.8-57.6,56.4-97.8,56.4c-7.7,0-15.4-0.8-23-2.4c-11.6-2.4-22.9-6.7-33.3-12.7
			c-4.5-2.6-8.7-5.4-12.6-8.5c-43.9-34-57.2-96.2-28.6-145.6C1670.8,648.2,1708.3,626.6,1748.5,626.6z M1832.6,1402.2
			c-7.8,8.8-17.1,16.5-27.8,22.7c-4.3,2.5-8.8,4.7-13.4,6.6c-13.6,5.6-28.2,8.5-42.9,8.5c-40.2,0-77.7-21.6-97.8-56.4
			c-15.1-26.1-19.1-56.5-11.3-85.6c6.5-24.1,20.4-45,39.9-60c4-3.1,8.2-5.9,12.6-8.5c10.4-6,21.7-10.3,33.3-12.7
			c7.5-1.6,15.2-2.4,23-2.4c40.2,0,77.7,21.6,97.8,56.4C1871,1313.9,1864,1366.8,1832.6,1402.2z M2369.2,1636.1
			c-7.4,55.1-54.7,97.8-111.8,97.8c-57.1,0-104.4-42.7-111.8-97.8c-0.7-4.9-1-9.9-1-15c0-12.3,2-24.2,5.7-35.3
			c14.9-44.9,57.2-77.5,107.1-77.5s92.2,32.5,107.1,77.5c3.7,11.1,5.7,23,5.7,35.3C2370.2,1626.2,2369.8,1631.2,2369.2,1636.1z
			 M2710.1,641.7c4.3-2.5,8.8-4.7,13.4-6.6c13.6-5.6,28.2-8.5,42.9-8.5c40.2,0,77.7,21.6,97.8,56.4c15.1,26.1,19.1,56.5,11.3,85.6
			c-6.5,24.1-20.4,45-39.9,60c-4,3.1-8.2,5.9-12.6,8.5c-10.4,6-21.7,10.3-33.3,12.7c-7.5,1.6-15.2,2.4-23,2.4
			c-40.2,0-77.7-21.6-97.8-56.4c-15.1-26.1-19.1-56.5-11.3-85.6c4.6-17.3,13.1-32.9,24.7-45.8
			C2690.1,655.5,2699.5,647.9,2710.1,641.7z M2766.3,1440c-14.7,0-29.3-2.9-42.9-8.5c-4.6-1.9-9.1-4.1-13.4-6.6
			c-10.7-6.2-20-13.9-27.8-22.7c-31.4-35.3-38.4-88.2-13.5-131.4c20.1-34.8,57.6-56.4,97.8-56.4c7.7,0,15.4,0.8,23,2.4
			c11.6,2.4,22.9,6.7,33.3,12.7c4.5,2.6,8.7,5.4,12.6,8.5c43.9,34,57.2,96.2,28.6,145.6C2844,1418.4,2806.5,1440,2766.3,1440z
			 M2145.7,430.5c7.4-55.1,54.7-97.8,111.8-97.8c57.1,0,104.4,42.7,111.8,97.8c0.7,4.9,1,9.9,1,15c0,12.3-2,24.2-5.7,35.3
			c-14.9,44.9-57.2,77.5-107.1,77.5s-92.2-32.5-107.1-77.5c-3.7-11.1-5.7-23-5.7-35.3C2144.6,440.4,2145,435.4,2145.7,430.5z
			 M2101.3,492.6c20.2,67.1,82.6,116.1,156.2,116.1s135.9-49,156.2-116.1c87,25,167,70.9,233.8,135.2c-18.2,19.4-31.4,43-38.5,69.4
			c-11.3,42.1-5.5,86,16.3,123.8c29.1,50.3,83.2,81.6,141.4,81.6c12.5,0,25-1.5,37.2-4.3c10.7,43.7,16.3,89,16.3,135.1
			c0,46.1-5.5,91.4-16.3,135.1c-12.2-2.9-24.6-4.3-37.2-4.3c-58.2,0-112.3,31.3-141.4,81.6c-36.7,63.7-25.6,142,22.3,193.1
			c-66.8,64.4-146.8,110.3-233.9,135.3c-20.2-67.1-82.6-116.1-156.2-116.1s-135.9,49-156.2,116.1c-87-25-167-70.9-233.9-135.3
			c47.8-51.1,59-129.4,22.3-193.1c-29.1-50.3-83.2-81.6-141.4-81.6c-12.5,0-25,1.5-37.2,4.3c-10.7-43.7-16.3-89-16.3-135.1
			c0-46.1,5.5-91.4,16.3-135.1c12.2,2.9,24.6,4.3,37.2,4.3c58.2,0,112.3-31.3,141.4-81.6c21.8-37.7,27.6-81.7,16.3-123.8
			c-7.1-26.4-20.3-50-38.5-69.4C1934.3,563.5,2014.3,517.6,2101.3,492.6z"/>
	</g>
</g>
<g>
	<defs>
		<rect id="SVGID_5_" width="2561.3" height="1446.2"/>
	</defs>
	<clipPath id="SVGID_4_">
		<use xlink:href="#SVGID_5_"  overflow="visible"/>
	</clipPath>
	<g clip-path="url(#SVGID_4_)">
		<g>
			<polygon fill="#0082A0" points="-225.4,173.7 -74.1,-64.6 77.1,173.7 			"/>
			<polygon fill="#037590" points="228.3,-64.6 77.1,173.7 -74.1,-64.6 			"/>
			<polygon fill="#037B98" points="77.1,173.7 228.3,-64.6 379.5,173.7 			"/>
			<polygon fill="#005A70" points="530.7,-64.6 379.5,173.7 228.3,-64.6 			"/>
			<polygon fill="#037590" points="379.5,173.7 530.7,-64.6 681.9,173.7 			"/>
			<polygon fill="#03708A" points="833.1,-64.6 681.9,173.7 530.7,-64.6 			"/>
			<polygon fill="#037B98" points="681.9,173.7 833.1,-64.6 984.4,173.7 			"/>
			<polygon fill="#0088A7" points="1135.6,-64.6 984.4,173.7 833.1,-64.6 			"/>
			<polygon fill="#03708A" points="984.4,173.7 1135.6,-64.6 1286.8,173.7 			"/>
			<polygon fill="#005A70" points="1438,-64.6 1286.8,173.7 1135.6,-64.6 			"/>
			<polygon fill="#037B98" points="77.1,173.7 -74.1,412 -225.4,173.7 			"/>
			<polygon fill="#0082A0" points="-74.1,412 77.1,173.7 228.3,412 			"/>
			<polygon fill="#037590" points="379.5,173.7 228.3,412 77.1,173.7 			"/>
			<polygon fill="#006780" points="228.3,412 379.5,173.7 530.7,412 			"/>
			<polygon fill="#0082A0" points="681.9,173.7 530.7,412 379.5,173.7 			"/>
			<polygon fill="#037590" points="530.7,412 681.9,173.7 833.1,412 			"/>
			<polygon fill="#0088A7" points="984.4,173.7 833.1,412 681.9,173.7 			"/>
			<polygon fill="#03708A" points="833.1,412 984.4,173.7 1135.6,412 			"/>
			<polygon fill="#005A70" points="1286.8,173.7 1135.6,412 984.4,173.7 			"/>
			<polygon fill="#037B98" points="1135.6,412 1286.8,173.7 1438,412 			"/>
			<polygon fill="#037590" points="-225.4,650.4 -74.1,412 77.1,650.4 			"/>
			<polygon fill="#037B98" points="228.3,412 77.1,650.4 -74.1,412 			"/>
			<polygon fill="#037B98" points="77.1,650.4 228.3,412 379.5,650.4 			"/>
			<polygon fill="#03708A" points="530.7,412 379.5,650.4 228.3,412 			"/>
			<polygon fill="#006780" points="379.5,650.4 530.7,412 681.9,650.4 			"/>
			<polygon fill="#006780" points="833.1,412 681.9,650.4 530.7,412 			"/>
			<polygon fill="#037B98" points="681.9,650.4 833.1,412 984.4,650.4 			"/>
			<polygon fill="#03708A" points="1135.6,412 984.4,650.4 833.1,412 			"/>
			<polygon fill="#03708A" points="984.4,650.4 1135.6,412 1286.8,650.4 			"/>
			<polygon fill="#006780" points="1438,412 1286.8,650.4 1135.6,412 			"/>
			<polygon fill="#005A70" points="77.1,650.4 -74.1,888.7 -225.4,650.4 			"/>
			<polygon fill="#0088A7" points="-74.1,888.7 77.1,650.4 228.3,888.7 			"/>
			<polygon fill="#03708A" points="379.5,650.4 228.3,888.7 77.1,650.4 			"/>
			<polygon fill="#006780" points="228.3,888.7 379.5,650.4 530.7,888.7 			"/>
			<polygon fill="#03708A" points="681.9,650.4 530.7,888.7 379.5,650.4 			"/>
			<polygon fill="#037590" points="530.7,888.7 681.9,650.4 833.1,888.7 			"/>
			<polygon fill="#037590" points="984.4,650.4 833.1,888.7 681.9,650.4 			"/>
			<polygon fill="#037590" points="833.1,888.7 984.4,650.4 1135.6,888.7 			"/>
			<polygon fill="#005A70" points="1286.8,650.4 1135.6,888.7 984.4,650.4 			"/>
			<polygon fill="#03708A" points="1135.6,888.7 1286.8,650.4 1438,888.7 			"/>
			<polygon fill="#03708A" points="-225.4,1127 -74.1,888.7 77.1,1127 			"/>
			<polygon fill="#006780" points="228.3,888.7 77.1,1127 -74.1,888.7 			"/>
			<polygon fill="#03708A" points="77.1,1127 228.3,888.7 379.5,1127 			"/>
			<polygon fill="#03708A" points="530.7,888.7 379.5,1127 228.3,888.7 			"/>
			<polygon fill="#037590" points="379.5,1127 530.7,888.7 681.9,1127 			"/>
			<polygon fill="#037B98" points="833.1,888.7 681.9,1127 530.7,888.7 			"/>
			<polygon fill="#037590" points="681.9,1127 833.1,888.7 984.4,1127 			"/>
			<polygon fill="#005A70" points="1135.6,888.7 984.4,1127 833.1,888.7 			"/>
			<polygon fill="#006780" points="984.4,1127 1135.6,888.7 1286.8,1127 			"/>
			<polygon fill="#03708A" points="1438,888.7 1286.8,1127 1135.6,888.7 			"/>
			<polygon fill="#006780" points="77.1,1127 -74.1,1365.3 -225.4,1127 			"/>
			<polygon fill="#03708A" points="-74.1,1365.3 77.1,1127 228.3,1365.3 			"/>
			<polygon fill="#037590" points="379.5,1127 228.3,1365.3 77.1,1127 			"/>
			<polygon fill="#0082A0" points="228.3,1365.3 379.5,1127 530.7,1365.3 			"/>
			<polygon fill="#0088A7" points="681.9,1127 530.7,1365.3 379.5,1127 			"/>
			<polygon fill="#03708A" points="530.7,1365.3 681.9,1127 833.1,1365.3 			"/>
			<polygon fill="#005A70" points="984.4,1127 833.1,1365.3 681.9,1127 			"/>
			<polygon fill="#006780" points="833.1,1365.3 984.4,1127 1135.6,1365.3 			"/>
			<polygon fill="#03708A" points="1286.8,1127 1135.6,1365.3 984.4,1127 			"/>
			<polygon fill="#006780" points="1135.6,1365.3 1286.8,1127 1438,1365.3 			"/>
			<polygon fill="#006780" points="-225.4,1603.7 -74.1,1365.3 77.1,1603.7 			"/>
			<polygon fill="#005A70" points="228.3,1365.3 77.1,1603.7 -74.1,1365.3 			"/>
			<polygon fill="#03708A" points="77.1,1603.7 228.3,1365.3 379.5,1603.7 			"/>
			<polygon fill="#03708A" points="530.7,1365.3 379.5,1603.7 228.3,1365.3 			"/>
			<polygon fill="#0082A0" points="379.5,1603.7 530.7,1365.3 681.9,1603.7 			"/>
			<polygon fill="#037590" points="833.1,1365.3 681.9,1603.7 530.7,1365.3 			"/>
			<polygon fill="#006780" points="681.9,1603.7 833.1,1365.3 984.4,1603.7 			"/>
			<polygon fill="#03708A" points="1135.6,1365.3 984.4,1603.7 833.1,1365.3 			"/>
			<polygon fill="#006780" points="984.4,1603.7 1135.6,1365.3 1286.8,1603.7 			"/>
			<polygon fill="#005A70" points="1438,1365.3 1286.8,1603.7 1135.6,1365.3 			"/>
		</g>
		<g opacity="0.3">
			<polygon fill="#037590" points="1.5,-183.8 -149.7,54.5 -301,-183.8 			"/>
			<polygon fill="#037B98" points="-149.7,54.5 1.5,-183.8 152.7,54.5 			"/>
			<polygon fill="#005A70" points="303.9,-183.8 152.7,54.5 1.5,-183.8 			"/>
			<polygon fill="#037590" points="152.7,54.5 303.9,-183.8 455.1,54.5 			"/>
			<polygon fill="#03708A" points="606.3,-183.8 455.1,54.5 303.9,-183.8 			"/>
			<polygon fill="#037B98" points="455.1,54.5 606.3,-183.8 757.5,54.5 			"/>
			<polygon fill="#0088A7" points="908.8,-183.8 757.5,54.5 606.3,-183.8 			"/>
			<polygon fill="#03708A" points="757.5,54.5 908.8,-183.8 1060,54.5 			"/>
			<polygon fill="#005A70" points="1211.2,-183.8 1060,54.5 908.8,-183.8 			"/>
			<polygon fill="#0082A0" points="-301,292.9 -149.7,54.5 1.5,292.9 			"/>
			<polygon fill="#037590" points="152.7,54.5 1.5,292.9 -149.7,54.5 			"/>
			<polygon fill="#006780" points="1.5,292.9 152.7,54.5 303.9,292.9 			"/>
			<polygon fill="#0082A0" points="455.1,54.5 303.9,292.9 152.7,54.5 			"/>
			<polygon fill="#037590" points="303.9,292.9 455.1,54.5 606.3,292.9 			"/>
			<polygon fill="#0088A7" points="757.5,54.5 606.3,292.9 455.1,54.5 			"/>
			<polygon fill="#03708A" points="606.3,292.9 757.5,54.5 908.8,292.9 			"/>
			<polygon fill="#005A70" points="1060,54.5 908.8,292.9 757.5,54.5 			"/>
			<polygon fill="#037B98" points="908.8,292.9 1060,54.5 1211.2,292.9 			"/>
			<polygon fill="#037B98" points="1.5,292.9 -149.7,531.2 -301,292.9 			"/>
			<polygon fill="#037B98" points="-149.7,531.2 1.5,292.9 152.7,531.2 			"/>
			<polygon fill="#03708A" points="303.9,292.9 152.7,531.2 1.5,292.9 			"/>
			<polygon fill="#006780" points="152.7,531.2 303.9,292.9 455.1,531.2 			"/>
			<polygon fill="#006780" points="606.3,292.9 455.1,531.2 303.9,292.9 			"/>
			<polygon fill="#037B98" points="455.1,531.2 606.3,292.9 757.5,531.2 			"/>
			<polygon fill="#03708A" points="908.8,292.9 757.5,531.2 606.3,292.9 			"/>
			<polygon fill="#03708A" points="757.5,531.2 908.8,292.9 1060,531.2 			"/>
			<polygon fill="#006780" points="1211.2,292.9 1060,531.2 908.8,292.9 			"/>
			<polygon fill="#0088A7" points="-301,769.5 -149.7,531.2 1.5,769.5 			"/>
			<polygon fill="#03708A" points="152.7,531.2 1.5,769.5 -149.7,531.2 			"/>
			<polygon fill="#006780" points="1.5,769.5 152.7,531.2 303.9,769.5 			"/>
			<polygon fill="#03708A" points="455.1,531.2 303.9,769.5 152.7,531.2 			"/>
			<polygon fill="#037590" points="303.9,769.5 455.1,531.2 606.3,769.5 			"/>
			<polygon fill="#037590" points="757.5,531.2 606.3,769.5 455.1,531.2 			"/>
			<polygon fill="#037590" points="606.3,769.5 757.5,531.2 908.8,769.5 			"/>
			<polygon fill="#005A70" points="1060,531.2 908.8,769.5 757.5,531.2 			"/>
			<polygon fill="#03708A" points="908.8,769.5 1060,531.2 1211.2,769.5 			"/>
			<polygon fill="#006780" points="1.5,769.5 -149.7,1007.9 -301,769.5 			"/>
			<polygon fill="#03708A" points="-149.7,1007.9 1.5,769.5 152.7,1007.9 			"/>
			<polygon fill="#03708A" points="303.9,769.5 152.7,1007.9 1.5,769.5 			"/>
			<polygon fill="#037590" points="152.7,1007.9 303.9,769.5 455.1,1007.9 			"/>
			<polygon fill="#037B98" points="606.3,769.5 455.1,1007.9 303.9,769.5 			"/>
			<polygon fill="#037590" points="455.1,1007.9 606.3,769.5 757.5,1007.9 			"/>
			<polygon fill="#005A70" points="908.8,769.5 757.5,1007.9 606.3,769.5 			"/>
			<polygon fill="#006780" points="757.5,1007.9 908.8,769.5 1060,1007.9 			"/>
			<polygon fill="#03708A" points="1211.2,769.5 1060,1007.9 908.8,769.5 			"/>
			<polygon fill="#03708A" points="-301,1246.2 -149.7,1007.9 1.5,1246.2 			"/>
			<polygon fill="#037590" points="152.7,1007.9 1.5,1246.2 -149.7,1007.9 			"/>
			<polygon fill="#0082A0" points="1.5,1246.2 152.7,1007.9 303.9,1246.2 			"/>
			<polygon fill="#0088A7" points="455.1,1007.9 303.9,1246.2 152.7,1007.9 			"/>
			<polygon fill="#03708A" points="303.9,1246.2 455.1,1007.9 606.3,1246.2 			"/>
			<polygon fill="#005A70" points="757.5,1007.9 606.3,1246.2 455.1,1007.9 			"/>
			<polygon fill="#006780" points="606.3,1246.2 757.5,1007.9 908.8,1246.2 			"/>
			<polygon fill="#03708A" points="1060,1007.9 908.8,1246.2 757.5,1007.9 			"/>
			<polygon fill="#006780" points="908.8,1246.2 1060,1007.9 1211.2,1246.2 			"/>
			<polygon fill="#005A70" points="1.5,1246.2 -149.7,1484.5 -301,1246.2 			"/>
			<polygon fill="#03708A" points="-149.7,1484.5 1.5,1246.2 152.7,1484.5 			"/>
			<polygon fill="#03708A" points="303.9,1246.2 152.7,1484.5 1.5,1246.2 			"/>
			<polygon fill="#0082A0" points="152.7,1484.5 303.9,1246.2 455.1,1484.5 			"/>
			<polygon fill="#037590" points="606.3,1246.2 455.1,1484.5 303.9,1246.2 			"/>
			<polygon fill="#006780" points="455.1,1484.5 606.3,1246.2 757.5,1484.5 			"/>
			<polygon fill="#03708A" points="908.8,1246.2 757.5,1484.5 606.3,1246.2 			"/>
			<polygon fill="#006780" points="757.5,1484.5 908.8,1246.2 1060,1484.5 			"/>
			<polygon fill="#005A70" points="1211.2,1246.2 1060,1484.5 908.8,1246.2 			"/>
		</g>
		<g opacity="0.5">
			<polygon fill="#03708A" points="77.1,12.2 -74.1,250.5 -225.4,12.2 			"/>
			<polygon fill="#0082A0" points="-74.1,250.5 77.1,12.2 228.3,250.5 			"/>
			<polygon fill="#037590" points="379.5,12.2 228.3,250.5 77.1,12.2 			"/>
			<polygon fill="#037B98" points="228.3,250.5 379.5,12.2 530.7,250.5 			"/>
			<polygon fill="#005A70" points="681.9,12.2 530.7,250.5 379.5,12.2 			"/>
			<polygon fill="#037590" points="530.7,250.5 681.9,12.2 833.1,250.5 			"/>
			<polygon fill="#03708A" points="984.4,12.2 833.1,250.5 681.9,12.2 			"/>
			<polygon fill="#037B98" points="833.1,250.5 984.4,12.2 1135.6,250.5 			"/>
			<polygon fill="#0088A7" points="1286.8,12.2 1135.6,250.5 984.4,12.2 			"/>
			<polygon fill="#03708A" points="1135.6,250.5 1286.8,12.2 1438,250.5 			"/>
			<polygon fill="#005A70" points="1589.2,12.2 1438,250.5 1286.8,12.2 			"/>
			<polygon fill="#0082A0" points="-225.4,488.8 -74.1,250.5 77.1,488.8 			"/>
			<polygon fill="#037B98" points="228.3,250.5 77.1,488.8 -74.1,250.5 			"/>
			<polygon fill="#0082A0" points="77.1,488.8 228.3,250.5 379.5,488.8 			"/>
			<polygon fill="#037590" points="530.7,250.5 379.5,488.8 228.3,250.5 			"/>
			<polygon fill="#006780" points="379.5,488.8 530.7,250.5 681.9,488.8 			"/>
			<polygon fill="#0082A0" points="833.1,250.5 681.9,488.8 530.7,250.5 			"/>
			<polygon fill="#037590" points="681.9,488.8 833.1,250.5 984.4,488.8 			"/>
			<polygon fill="#0088A7" points="1135.6,250.5 984.4,488.8 833.1,250.5 			"/>
			<polygon fill="#03708A" points="984.4,488.8 1135.6,250.5 1286.8,488.8 			"/>
			<polygon fill="#005A70" points="1438,250.5 1286.8,488.8 1135.6,250.5 			"/>
			<polygon fill="#037B98" points="1286.8,488.8 1438,250.5 1589.2,488.8 			"/>
			<polygon fill="#03708A" points="77.1,488.8 -74.1,727.2 -225.4,488.8 			"/>
			<polygon fill="#037590" points="-74.1,727.2 77.1,488.8 228.3,727.2 			"/>
			<polygon fill="#037B98" points="379.5,488.8 228.3,727.2 77.1,488.8 			"/>
			<polygon fill="#037B98" points="228.3,727.2 379.5,488.8 530.7,727.2 			"/>
			<polygon fill="#03708A" points="681.9,488.8 530.7,727.2 379.5,488.8 			"/>
			<polygon fill="#006780" points="530.7,727.2 681.9,488.8 833.1,727.2 			"/>
			<polygon fill="#006780" points="984.4,488.8 833.1,727.2 681.9,488.8 			"/>
			<polygon fill="#037B98" points="833.1,727.2 984.4,488.8 1135.6,727.2 			"/>
			<polygon fill="#03708A" points="1286.8,488.8 1135.6,727.2 984.4,488.8 			"/>
			<polygon fill="#03708A" points="1135.6,727.2 1286.8,488.8 1438,727.2 			"/>
			<polygon fill="#006780" points="1589.2,488.8 1438,727.2 1286.8,488.8 			"/>
			<polygon fill="#03708A" points="-225.4,965.5 -74.1,727.2 77.1,965.5 			"/>
			<polygon fill="#005A70" points="228.3,727.2 77.1,965.5 -74.1,727.2 			"/>
			<polygon fill="#0088A7" points="77.1,965.5 228.3,727.2 379.5,965.5 			"/>
			<polygon fill="#03708A" points="530.7,727.2 379.5,965.5 228.3,727.2 			"/>
			<polygon fill="#006780" points="379.5,965.5 530.7,727.2 681.9,965.5 			"/>
			<polygon fill="#03708A" points="833.1,727.2 681.9,965.5 530.7,727.2 			"/>
			<polygon fill="#037590" points="681.9,965.5 833.1,727.2 984.4,965.5 			"/>
			<polygon fill="#037590" points="1135.6,727.2 984.4,965.5 833.1,727.2 			"/>
			<polygon fill="#037590" points="984.4,965.5 1135.6,727.2 1286.8,965.5 			"/>
			<polygon fill="#005A70" points="1438,727.2 1286.8,965.5 1135.6,727.2 			"/>
			<polygon fill="#03708A" points="1286.8,965.5 1438,727.2 1589.2,965.5 			"/>
			<polygon fill="#037590" points="77.1,965.5 -74.1,1203.8 -225.4,965.5 			"/>
			<polygon fill="#03708A" points="-74.1,1203.8 77.1,965.5 228.3,1203.8 			"/>
			<polygon fill="#006780" points="379.5,965.5 228.3,1203.8 77.1,965.5 			"/>
			<polygon fill="#03708A" points="228.3,1203.8 379.5,965.5 530.7,1203.8 			"/>
			<polygon fill="#03708A" points="681.9,965.5 530.7,1203.8 379.5,965.5 			"/>
			<polygon fill="#037590" points="530.7,1203.8 681.9,965.5 833.1,1203.8 			"/>
			<polygon fill="#037B98" points="984.4,965.5 833.1,1203.8 681.9,965.5 			"/>
			<polygon fill="#037590" points="833.1,1203.8 984.4,965.5 1135.6,1203.8 			"/>
			<polygon fill="#005A70" points="1286.8,965.5 1135.6,1203.8 984.4,965.5 			"/>
			<polygon fill="#006780" points="1135.6,1203.8 1286.8,965.5 1438,1203.8 			"/>
			<polygon fill="#03708A" points="1589.2,965.5 1438,1203.8 1286.8,965.5 			"/>
			<polygon fill="#037590" points="-225.4,1442.2 -74.1,1203.8 77.1,1442.2 			"/>
			<polygon fill="#006780" points="228.3,1203.8 77.1,1442.2 -74.1,1203.8 			"/>
			<polygon fill="#03708A" points="77.1,1442.2 228.3,1203.8 379.5,1442.2 			"/>
			<polygon fill="#037590" points="530.7,1203.8 379.5,1442.2 228.3,1203.8 			"/>
			<polygon fill="#0082A0" points="379.5,1442.2 530.7,1203.8 681.9,1442.2 			"/>
			<polygon fill="#0088A7" points="833.1,1203.8 681.9,1442.2 530.7,1203.8 			"/>
			<polygon fill="#03708A" points="681.9,1442.2 833.1,1203.8 984.4,1442.2 			"/>
			<polygon fill="#005A70" points="1135.6,1203.8 984.4,1442.2 833.1,1203.8 			"/>
			<polygon fill="#006780" points="984.4,1442.2 1135.6,1203.8 1286.8,1442.2 			"/>
			<polygon fill="#03708A" points="1438,1203.8 1286.8,1442.2 1135.6,1203.8 			"/>
			<polygon fill="#006780" points="1286.8,1442.2 1438,1203.8 1589.2,1442.2 			"/>
		</g>
		<g>
			<g>
				<polygon fill="#0082A0" points="2785.4,173.7 2634.1,-64.6 2482.9,173.7 				"/>
				<polygon fill="#037590" points="2331.7,-64.6 2482.9,173.7 2634.1,-64.6 				"/>
				<polygon fill="#037B98" points="2482.9,173.7 2331.7,-64.6 2180.5,173.7 				"/>
				<polygon fill="#005A70" points="2029.3,-64.6 2180.5,173.7 2331.7,-64.6 				"/>
				<polygon fill="#037590" points="2180.5,173.7 2029.3,-64.6 1878.1,173.7 				"/>
				<polygon fill="#03708A" points="1726.9,-64.6 1878.1,173.7 2029.3,-64.6 				"/>
				<polygon fill="#037B98" points="1878.1,173.7 1726.9,-64.6 1575.6,173.7 				"/>
				<polygon fill="#0088A7" points="1424.4,-64.6 1575.6,173.7 1726.9,-64.6 				"/>
				<polygon fill="#03708A" points="1575.6,173.7 1424.4,-64.6 1273.2,173.7 				"/>
				<polygon fill="#005A70" points="1122,-64.6 1273.2,173.7 1424.4,-64.6 				"/>
				<polygon fill="#037B98" points="2482.9,173.7 2634.1,412 2785.4,173.7 				"/>
				<polygon fill="#0082A0" points="2634.1,412 2482.9,173.7 2331.7,412 				"/>
				<polygon fill="#037590" points="2180.5,173.7 2331.7,412 2482.9,173.7 				"/>
				<polygon fill="#006780" points="2331.7,412 2180.5,173.7 2029.3,412 				"/>
				<polygon fill="#0082A0" points="1878.1,173.7 2029.3,412 2180.5,173.7 				"/>
				<polygon fill="#037590" points="2029.3,412 1878.1,173.7 1726.9,412 				"/>
				<polygon fill="#0088A7" points="1575.6,173.7 1726.9,412 1878.1,173.7 				"/>
				<polygon fill="#03708A" points="1726.9,412 1575.6,173.7 1424.4,412 				"/>
				<polygon fill="#005A70" points="1273.2,173.7 1424.4,412 1575.6,173.7 				"/>
				<polygon fill="#037B98" points="1424.4,412 1273.2,173.7 1122,412 				"/>
				<polygon fill="#037590" points="2785.4,650.4 2634.1,412 2482.9,650.4 				"/>
				<polygon fill="#037B98" points="2331.7,412 2482.9,650.4 2634.1,412 				"/>
				<polygon fill="#037B98" points="2482.9,650.4 2331.7,412 2180.5,650.4 				"/>
				<polygon fill="#03708A" points="2029.3,412 2180.5,650.4 2331.7,412 				"/>
				<polygon fill="#006780" points="2180.5,650.4 2029.3,412 1878.1,650.4 				"/>
				<polygon fill="#006780" points="1726.9,412 1878.1,650.4 2029.3,412 				"/>
				<polygon fill="#037B98" points="1878.1,650.4 1726.9,412 1575.6,650.4 				"/>
				<polygon fill="#03708A" points="1424.4,412 1575.6,650.4 1726.9,412 				"/>
				<polygon fill="#03708A" points="1575.6,650.4 1424.4,412 1273.2,650.4 				"/>
				<polygon fill="#006780" points="1122,412 1273.2,650.4 1424.4,412 				"/>
				<polygon fill="#005A70" points="2482.9,650.4 2634.1,888.7 2785.4,650.4 				"/>
				<polygon fill="#0088A7" points="2634.1,888.7 2482.9,650.4 2331.7,888.7 				"/>
				<polygon fill="#03708A" points="2180.5,650.4 2331.7,888.7 2482.9,650.4 				"/>
				<polygon fill="#006780" points="2331.7,888.7 2180.5,650.4 2029.3,888.7 				"/>
				<polygon fill="#03708A" points="1878.1,650.4 2029.3,888.7 2180.5,650.4 				"/>
				<polygon fill="#037590" points="2029.3,888.7 1878.1,650.4 1726.9,888.7 				"/>
				<polygon fill="#037590" points="1575.6,650.4 1726.9,888.7 1878.1,650.4 				"/>
				<polygon fill="#037590" points="1726.9,888.7 1575.6,650.4 1424.4,888.7 				"/>
				<polygon fill="#005A70" points="1273.2,650.4 1424.4,888.7 1575.6,650.4 				"/>
				<polygon fill="#03708A" points="1424.4,888.7 1273.2,650.4 1122,888.7 				"/>
				<polygon fill="#03708A" points="2785.4,1127 2634.1,888.7 2482.9,1127 				"/>
				<polygon fill="#006780" points="2331.7,888.7 2482.9,1127 2634.1,888.7 				"/>
				<polygon fill="#03708A" points="2482.9,1127 2331.7,888.7 2180.5,1127 				"/>
				<polygon fill="#03708A" points="2029.3,888.7 2180.5,1127 2331.7,888.7 				"/>
				<polygon fill="#037590" points="2180.5,1127 2029.3,888.7 1878.1,1127 				"/>
				<polygon fill="#037B98" points="1726.9,888.7 1878.1,1127 2029.3,888.7 				"/>
				<polygon fill="#037590" points="1878.1,1127 1726.9,888.7 1575.6,1127 				"/>
				<polygon fill="#005A70" points="1424.4,888.7 1575.6,1127 1726.9,888.7 				"/>
				<polygon fill="#006780" points="1575.6,1127 1424.4,888.7 1273.2,1127 				"/>
				<polygon fill="#03708A" points="1122,888.7 1273.2,1127 1424.4,888.7 				"/>
				<polygon fill="#006780" points="2482.9,1127 2634.1,1365.3 2785.4,1127 				"/>
				<polygon fill="#03708A" points="2634.1,1365.3 2482.9,1127 2331.7,1365.3 				"/>
				<polygon fill="#037590" points="2180.5,1127 2331.7,1365.3 2482.9,1127 				"/>
				<polygon fill="#0082A0" points="2331.7,1365.3 2180.5,1127 2029.3,1365.3 				"/>
				<polygon fill="#0088A7" points="1878.1,1127 2029.3,1365.3 2180.5,1127 				"/>
				<polygon fill="#03708A" points="2029.3,1365.3 1878.1,1127 1726.9,1365.3 				"/>
				<polygon fill="#005A70" points="1575.6,1127 1726.9,1365.3 1878.1,1127 				"/>
				<polygon fill="#006780" points="1726.9,1365.3 1575.6,1127 1424.4,1365.3 				"/>
				<polygon fill="#03708A" points="1273.2,1127 1424.4,1365.3 1575.6,1127 				"/>
				<polygon fill="#006780" points="1424.4,1365.3 1273.2,1127 1122,1365.3 				"/>
				<polygon fill="#006780" points="2785.4,1603.7 2634.1,1365.3 2482.9,1603.7 				"/>
				<polygon fill="#005A70" points="2331.7,1365.3 2482.9,1603.7 2634.1,1365.3 				"/>
				<polygon fill="#03708A" points="2482.9,1603.7 2331.7,1365.3 2180.5,1603.7 				"/>
				<polygon fill="#03708A" points="2029.3,1365.3 2180.5,1603.7 2331.7,1365.3 				"/>
				<polygon fill="#0082A0" points="2180.5,1603.7 2029.3,1365.3 1878.1,1603.7 				"/>
				<polygon fill="#037590" points="1726.9,1365.3 1878.1,1603.7 2029.3,1365.3 				"/>
				<polygon fill="#006780" points="1878.1,1603.7 1726.9,1365.3 1575.6,1603.7 				"/>
				<polygon fill="#03708A" points="1424.4,1365.3 1575.6,1603.7 1726.9,1365.3 				"/>
				<polygon fill="#006780" points="1575.6,1603.7 1424.4,1365.3 1273.2,1603.7 				"/>
				<polygon fill="#005A70" points="1122,1365.3 1273.2,1603.7 1424.4,1365.3 				"/>
			</g>
			<g opacity="0.3">
				<polygon fill="#037590" points="2558.5,-183.8 2709.7,54.5 2861,-183.8 				"/>
				<polygon fill="#037B98" points="2709.7,54.5 2558.5,-183.8 2407.3,54.5 				"/>
				<polygon fill="#005A70" points="2256.1,-183.8 2407.3,54.5 2558.5,-183.8 				"/>
				<polygon fill="#037590" points="2407.3,54.5 2256.1,-183.8 2104.9,54.5 				"/>
				<polygon fill="#03708A" points="1953.7,-183.8 2104.9,54.5 2256.1,-183.8 				"/>
				<polygon fill="#037B98" points="2104.9,54.5 1953.7,-183.8 1802.5,54.5 				"/>
				<polygon fill="#0088A7" points="1651.2,-183.8 1802.5,54.5 1953.7,-183.8 				"/>
				<polygon fill="#03708A" points="1802.5,54.5 1651.2,-183.8 1500,54.5 				"/>
				<polygon fill="#005A70" points="1348.8,-183.8 1500,54.5 1651.2,-183.8 				"/>
				<polygon fill="#0082A0" points="2861,292.9 2709.7,54.5 2558.5,292.9 				"/>
				<polygon fill="#037590" points="2407.3,54.5 2558.5,292.9 2709.7,54.5 				"/>
				<polygon fill="#006780" points="2558.5,292.9 2407.3,54.5 2256.1,292.9 				"/>
				<polygon fill="#0082A0" points="2104.9,54.5 2256.1,292.9 2407.3,54.5 				"/>
				<polygon fill="#037590" points="2256.1,292.9 2104.9,54.5 1953.7,292.9 				"/>
				<polygon fill="#0088A7" points="1802.5,54.5 1953.7,292.9 2104.9,54.5 				"/>
				<polygon fill="#03708A" points="1953.7,292.9 1802.5,54.5 1651.2,292.9 				"/>
				<polygon fill="#005A70" points="1500,54.5 1651.2,292.9 1802.5,54.5 				"/>
				<polygon fill="#037B98" points="1651.2,292.9 1500,54.5 1348.8,292.9 				"/>
				<polygon fill="#037B98" points="2558.5,292.9 2709.7,531.2 2861,292.9 				"/>
				<polygon fill="#037B98" points="2709.7,531.2 2558.5,292.9 2407.3,531.2 				"/>
				<polygon fill="#03708A" points="2256.1,292.9 2407.3,531.2 2558.5,292.9 				"/>
				<polygon fill="#006780" points="2407.3,531.2 2256.1,292.9 2104.9,531.2 				"/>
				<polygon fill="#006780" points="1953.7,292.9 2104.9,531.2 2256.1,292.9 				"/>
				<polygon fill="#037B98" points="2104.9,531.2 1953.7,292.9 1802.5,531.2 				"/>
				<polygon fill="#03708A" points="1651.2,292.9 1802.5,531.2 1953.7,292.9 				"/>
				<polygon fill="#03708A" points="1802.5,531.2 1651.2,292.9 1500,531.2 				"/>
				<polygon fill="#006780" points="1348.8,292.9 1500,531.2 1651.2,292.9 				"/>
				<polygon fill="#0088A7" points="2861,769.5 2709.7,531.2 2558.5,769.5 				"/>
				<polygon fill="#03708A" points="2407.3,531.2 2558.5,769.5 2709.7,531.2 				"/>
				<polygon fill="#006780" points="2558.5,769.5 2407.3,531.2 2256.1,769.5 				"/>
				<polygon fill="#03708A" points="2104.9,531.2 2256.1,769.5 2407.3,531.2 				"/>
				<polygon fill="#037590" points="2256.1,769.5 2104.9,531.2 1953.7,769.5 				"/>
				<polygon fill="#037590" points="1802.5,531.2 1953.7,769.5 2104.9,531.2 				"/>
				<polygon fill="#037590" points="1953.7,769.5 1802.5,531.2 1651.2,769.5 				"/>
				<polygon fill="#005A70" points="1500,531.2 1651.2,769.5 1802.5,531.2 				"/>
				<polygon fill="#03708A" points="1651.2,769.5 1500,531.2 1348.8,769.5 				"/>
				<polygon fill="#006780" points="2558.5,769.5 2709.7,1007.9 2861,769.5 				"/>
				<polygon fill="#03708A" points="2709.7,1007.9 2558.5,769.5 2407.3,1007.9 				"/>
				<polygon fill="#03708A" points="2256.1,769.5 2407.3,1007.9 2558.5,769.5 				"/>
				<polygon fill="#037590" points="2407.3,1007.9 2256.1,769.5 2104.9,1007.9 				"/>
				<polygon fill="#037B98" points="1953.7,769.5 2104.9,1007.9 2256.1,769.5 				"/>
				<polygon fill="#037590" points="2104.9,1007.9 1953.7,769.5 1802.5,1007.9 				"/>
				<polygon fill="#005A70" points="1651.2,769.5 1802.5,1007.9 1953.7,769.5 				"/>
				<polygon fill="#006780" points="1802.5,1007.9 1651.2,769.5 1500,1007.9 				"/>
				<polygon fill="#03708A" points="1348.8,769.5 1500,1007.9 1651.2,769.5 				"/>
				<polygon fill="#03708A" points="2861,1246.2 2709.7,1007.9 2558.5,1246.2 				"/>
				<polygon fill="#037590" points="2407.3,1007.9 2558.5,1246.2 2709.7,1007.9 				"/>
				<polygon fill="#0082A0" points="2558.5,1246.2 2407.3,1007.9 2256.1,1246.2 				"/>
				<polygon fill="#0088A7" points="2104.9,1007.9 2256.1,1246.2 2407.3,1007.9 				"/>
				<polygon fill="#03708A" points="2256.1,1246.2 2104.9,1007.9 1953.7,1246.2 				"/>
				<polygon fill="#005A70" points="1802.5,1007.9 1953.7,1246.2 2104.9,1007.9 				"/>
				<polygon fill="#006780" points="1953.7,1246.2 1802.5,1007.9 1651.2,1246.2 				"/>
				<polygon fill="#03708A" points="1500,1007.9 1651.2,1246.2 1802.5,1007.9 				"/>
				<polygon fill="#006780" points="1651.2,1246.2 1500,1007.9 1348.8,1246.2 				"/>
				<polygon fill="#005A70" points="2558.5,1246.2 2709.7,1484.5 2861,1246.2 				"/>
				<polygon fill="#03708A" points="2709.7,1484.5 2558.5,1246.2 2407.3,1484.5 				"/>
				<polygon fill="#03708A" points="2256.1,1246.2 2407.3,1484.5 2558.5,1246.2 				"/>
				<polygon fill="#0082A0" points="2407.3,1484.5 2256.1,1246.2 2104.9,1484.5 				"/>
				<polygon fill="#037590" points="1953.7,1246.2 2104.9,1484.5 2256.1,1246.2 				"/>
				<polygon fill="#006780" points="2104.9,1484.5 1953.7,1246.2 1802.5,1484.5 				"/>
				<polygon fill="#03708A" points="1651.2,1246.2 1802.5,1484.5 1953.7,1246.2 				"/>
				<polygon fill="#006780" points="1802.5,1484.5 1651.2,1246.2 1500,1484.5 				"/>
				<polygon fill="#005A70" points="1348.8,1246.2 1500,1484.5 1651.2,1246.2 				"/>
			</g>
			<g opacity="0.5">
				<polygon fill="#03708A" points="2482.9,12.2 2634.1,250.5 2785.4,12.2 				"/>
				<polygon fill="#0082A0" points="2634.1,250.5 2482.9,12.2 2331.7,250.5 				"/>
				<polygon fill="#037590" points="2180.5,12.2 2331.7,250.5 2482.9,12.2 				"/>
				<polygon fill="#037B98" points="2331.7,250.5 2180.5,12.2 2029.3,250.5 				"/>
				<polygon fill="#005A70" points="1878.1,12.2 2029.3,250.5 2180.5,12.2 				"/>
				<polygon fill="#037590" points="2029.3,250.5 1878.1,12.2 1726.9,250.5 				"/>
				<polygon fill="#03708A" points="1575.6,12.2 1726.9,250.5 1878.1,12.2 				"/>
				<polygon fill="#037B98" points="1726.9,250.5 1575.6,12.2 1424.4,250.5 				"/>
				<polygon fill="#0088A7" points="1273.2,12.2 1424.4,250.5 1575.6,12.2 				"/>
				<polygon fill="#03708A" points="1424.4,250.5 1273.2,12.2 1122,250.5 				"/>
				<polygon fill="#005A70" points="970.8,12.2 1122,250.5 1273.2,12.2 				"/>
				<polygon fill="#0082A0" points="2785.4,488.8 2634.1,250.5 2482.9,488.8 				"/>
				<polygon fill="#037B98" points="2331.7,250.5 2482.9,488.8 2634.1,250.5 				"/>
				<polygon fill="#0082A0" points="2482.9,488.8 2331.7,250.5 2180.5,488.8 				"/>
				<polygon fill="#037590" points="2029.3,250.5 2180.5,488.8 2331.7,250.5 				"/>
				<polygon fill="#006780" points="2180.5,488.8 2029.3,250.5 1878.1,488.8 				"/>
				<polygon fill="#0082A0" points="1726.9,250.5 1878.1,488.8 2029.3,250.5 				"/>
				<polygon fill="#037590" points="1878.1,488.8 1726.9,250.5 1575.6,488.8 				"/>
				<polygon fill="#0088A7" points="1424.4,250.5 1575.6,488.8 1726.9,250.5 				"/>
				<polygon fill="#03708A" points="1575.6,488.8 1424.4,250.5 1273.2,488.8 				"/>
				<polygon fill="#005A70" points="1122,250.5 1273.2,488.8 1424.4,250.5 				"/>
				<polygon fill="#037B98" points="1273.2,488.8 1122,250.5 970.8,488.8 				"/>
				<polygon fill="#03708A" points="2482.9,488.8 2634.1,727.2 2785.4,488.8 				"/>
				<polygon fill="#037590" points="2634.1,727.2 2482.9,488.8 2331.7,727.2 				"/>
				<polygon fill="#037B98" points="2180.5,488.8 2331.7,727.2 2482.9,488.8 				"/>
				<polygon fill="#037B98" points="2331.7,727.2 2180.5,488.8 2029.3,727.2 				"/>
				<polygon fill="#03708A" points="1878.1,488.8 2029.3,727.2 2180.5,488.8 				"/>
				<polygon fill="#006780" points="2029.3,727.2 1878.1,488.8 1726.9,727.2 				"/>
				<polygon fill="#006780" points="1575.6,488.8 1726.9,727.2 1878.1,488.8 				"/>
				<polygon fill="#037B98" points="1726.9,727.2 1575.6,488.8 1424.4,727.2 				"/>
				<polygon fill="#03708A" points="1273.2,488.8 1424.4,727.2 1575.6,488.8 				"/>
				<polygon fill="#03708A" points="1424.4,727.2 1273.2,488.8 1122,727.2 				"/>
				<polygon fill="#006780" points="970.8,488.8 1122,727.2 1273.2,488.8 				"/>
				<polygon fill="#03708A" points="2785.4,965.5 2634.1,727.2 2482.9,965.5 				"/>
				<polygon fill="#005A70" points="2331.7,727.2 2482.9,965.5 2634.1,727.2 				"/>
				<polygon fill="#0088A7" points="2482.9,965.5 2331.7,727.2 2180.5,965.5 				"/>
				<polygon fill="#03708A" points="2029.3,727.2 2180.5,965.5 2331.7,727.2 				"/>
				<polygon fill="#006780" points="2180.5,965.5 2029.3,727.2 1878.1,965.5 				"/>
				<polygon fill="#03708A" points="1726.9,727.2 1878.1,965.5 2029.3,727.2 				"/>
				<polygon fill="#037590" points="1878.1,965.5 1726.9,727.2 1575.6,965.5 				"/>
				<polygon fill="#037590" points="1424.4,727.2 1575.6,965.5 1726.9,727.2 				"/>
				<polygon fill="#037590" points="1575.6,965.5 1424.4,727.2 1273.2,965.5 				"/>
				<polygon fill="#005A70" points="1122,727.2 1273.2,965.5 1424.4,727.2 				"/>
				<polygon fill="#03708A" points="1273.2,965.5 1122,727.2 970.8,965.5 				"/>
				<polygon fill="#037590" points="2482.9,965.5 2634.1,1203.8 2785.4,965.5 				"/>
				<polygon fill="#03708A" points="2634.1,1203.8 2482.9,965.5 2331.7,1203.8 				"/>
				<polygon fill="#006780" points="2180.5,965.5 2331.7,1203.8 2482.9,965.5 				"/>
				<polygon fill="#03708A" points="2331.7,1203.8 2180.5,965.5 2029.3,1203.8 				"/>
				<polygon fill="#03708A" points="1878.1,965.5 2029.3,1203.8 2180.5,965.5 				"/>
				<polygon fill="#037590" points="2029.3,1203.8 1878.1,965.5 1726.9,1203.8 				"/>
				<polygon fill="#037B98" points="1575.6,965.5 1726.9,1203.8 1878.1,965.5 				"/>
				<polygon fill="#037590" points="1726.9,1203.8 1575.6,965.5 1424.4,1203.8 				"/>
				<polygon fill="#005A70" points="1273.2,965.5 1424.4,1203.8 1575.6,965.5 				"/>
				<polygon fill="#006780" points="1424.4,1203.8 1273.2,965.5 1122,1203.8 				"/>
				<polygon fill="#03708A" points="970.8,965.5 1122,1203.8 1273.2,965.5 				"/>
				<polygon fill="#037590" points="2785.4,1442.2 2634.1,1203.8 2482.9,1442.2 				"/>
				<polygon fill="#006780" points="2331.7,1203.8 2482.9,1442.2 2634.1,1203.8 				"/>
				<polygon fill="#03708A" points="2482.9,1442.2 2331.7,1203.8 2180.5,1442.2 				"/>
				<polygon fill="#037590" points="2029.3,1203.8 2180.5,1442.2 2331.7,1203.8 				"/>
				<polygon fill="#0082A0" points="2180.5,1442.2 2029.3,1203.8 1878.1,1442.2 				"/>
				<polygon fill="#0088A7" points="1726.9,1203.8 1878.1,1442.2 2029.3,1203.8 				"/>
				<polygon fill="#03708A" points="1878.1,1442.2 1726.9,1203.8 1575.6,1442.2 				"/>
				<polygon fill="#005A70" points="1424.4,1203.8 1575.6,1442.2 1726.9,1203.8 				"/>
				<polygon fill="#006780" points="1575.6,1442.2 1424.4,1203.8 1273.2,1442.2 				"/>
				<polygon fill="#03708A" points="1122,1203.8 1273.2,1442.2 1424.4,1203.8 				"/>
				<polygon fill="#006780" points="1273.2,1442.2 1122,1203.8 970.8,1442.2 				"/>
			</g>
		</g>
	</g>
</g>
<radialGradient id="SVGID_6_" cx="1507.3555" cy="938.7038" r="1212.0659" gradientTransform="matrix(0.9533 0 0 0.9743 -157.037 -193.0155)" gradientUnits="userSpaceOnUse">
	<stop  offset="0" style="stop-color:#037B98;stop-opacity:0"/>
	<stop  offset="1" style="stop-color:#037B98"/>
</radialGradient>
<rect y="1" display="none" opacity="0.7" fill="url(#SVGID_6_)" width="2560" height="1441.2"/>
<radialGradient id="SVGID_7_" cx="1507.3555" cy="938.7038" r="1083.8903" gradientTransform="matrix(0.9533 0 0 0.9743 -157.037 -193.0155)" gradientUnits="userSpaceOnUse">
	<stop  offset="0" style="stop-color:#037B98"/>
	<stop  offset="1" style="stop-color:#037B98;stop-opacity:0"/>
</radialGradient>
<rect y="1" display="none" fill="url(#SVGID_7_)" width="2560" height="1441.2"/>
</svg>
