<?xml version="1.0" encoding="utf-8"?>
<!-- Generator: Adobe Illustrator 18.1.1, SVG Export Plug-In . SVG Version: 6.00 Build 0)  -->
<svg version="1.1" id="Layer_1" xmlns="http://www.w3.org/2000/svg" xmlns:xlink="http://www.w3.org/1999/xlink" x="0px" y="0px"
	 viewBox="0 0 873 486" enable-background="new 0 0 873 486" xml:space="preserve">
<rect id="path-1_1_" fill="#097B96" width="873" height="486"/>
<polygon fill="none" points="215.8,249.3 274,368.2 332.6,134.9 281.5,182.3 "/>
<polygon fill="none" points="622.6,21.5 650.8,112.5 647.7,37.2 628.8,1.7 "/>
<polygon fill="#338CA7" points="154.8,124.8 152.4,119.8 152.7,131.4 "/>
<polygon fill="#338CA7" points="158.2,308.1 215.8,249.3 154.8,124.8 152.7,131.4 "/>
<polygon fill="#238BA5" points="158.2,308.1 215.8,249.3 154.8,124.8 152.7,131.4 "/>
<polygon fill="#338CA7" points="332.6,134.9 378,92.9 352.7,54.9 "/>
<polygon fill="#238BA5" points="332.6,134.9 378,92.9 352.7,54.9 "/>
<polygon fill="#338CA7" points="647.6,113.6 601.3,90.1 555.6,236.7 "/>
<polygon fill="#238BA5" points="647.6,113.6 601.3,90.1 555.6,236.7 "/>
<polygon fill="#338CA7" points="378,92.9 423.9,162 434.3,40.6 "/>
<polygon fill="#238BA5" points="378,92.9 423.9,162 434.3,40.6 "/>
<polygon fill="#338CA7" points="813,333.5 804.6,301.4 803.2,326.8 812.2,342.1 "/>
<polygon fill="#02718A" points="813,333.5 804.6,301.4 803.2,326.8 812.2,342.1 "/>
<polygon fill="#28778E" points="813,333.5 804.6,301.4 803.2,326.8 812.2,342.1 "/>
<polygon fill="#338CA7" points="67.3,400.8 152.7,131.4 152.4,119.8 94.3,1.4 7.8,381.8 162.6,447.1 158.2,308.1 "/>
<polygon fill="#2C7C93" points="67.3,400.8 152.7,131.4 152.4,119.8 94.3,1.4 7.8,381.8 162.6,447.1 158.2,308.1 "/>
<polygon fill="#338CA7" points="67.3,400.8 158.2,308.1 152.7,131.4 "/>
<polygon fill="#338CA7" points="67.3,400.8 158.2,308.1 152.7,131.4 "/>
<polygon fill="#2E7D95" points="67.3,400.8 158.2,308.1 152.7,131.4 "/>
<polygon fill="#338CA7" points="423.9,162 399.9,442.8 400.5,444.1 512.2,294.7 "/>
<polygon fill="#2C7C93" points="423.9,162 399.9,442.8 400.5,444.1 512.2,294.7 "/>
<polygon fill="#338CA7" points="512.2,294.7 529.5,320.7 555.6,236.7 "/>
<polygon fill="#2C7C93" points="512.2,294.7 529.5,320.7 555.6,236.7 "/>
<polygon fill="#338CA7" points="434.3,40.6 423.9,162 512.2,294.7 555.6,236.7 601.3,90.1 458.7,18 "/>
<polygon fill="#338CA7" points="434.3,40.6 423.9,162 512.2,294.7 555.6,236.7 601.3,90.1 458.7,18 "/>
<polygon fill="#2E7D95" points="434.3,40.6 423.9,162 512.2,294.7 555.6,236.7 601.3,90.1 458.7,18 "/>
<polygon fill="#338CA7" points="434.3,40.6 458.7,18 437.2,7.2 "/>
<polygon fill="#338CA7" points="434.3,40.6 458.7,18 437.2,7.2 "/>
<polygon fill="#338CA7" points="434.3,40.6 458.7,18 437.2,7.2 "/>
<polygon fill="#2E7E95" points="434.3,40.6 458.7,18 437.2,7.2 "/>
<polygon fill="#0A7F98" points="873,460.1 855.2,486 873,486 "/>
<polygon fill="#0A7F98" points="873,0 846,0 813,333.5 853.1,486 855.2,486 873,460.1 "/>
<polygon fill="none" stroke="#8E278F" stroke-miterlimit="10" points="437.8,0 437.8,0 437.2,7.2 "/>
<polygon fill="#1E87A1" points="215.8,249.3 281.5,182.3 332.6,134.9 352.7,54.9 321.8,8.5 343.8,0 194.4,0 154.8,124.8 "/>
<polygon fill="#338CA7" points="437.2,7.2 437.8,0 423.1,0 "/>
<polygon fill="#2C8DA6" points="366.5,0 352.7,54.9 378,92.9 434.3,40.6 437.2,7.2 423.1,0 "/>
<polygon fill="#2C7C93" points="458.7,18 601.3,90.1 622.6,21.5 616,0 478.1,0 "/>
<polygon fill="#2E7D95" points="458.7,18 478.1,0 437.8,0 437.2,7.2 "/>
<polygon fill="#307085" points="628.8,1.7 627.9,0 616,0 622.6,21.5 "/>
<polygon fill="#338CA7" points="647.7,37.2 646.2,0 629.3,0 628.8,1.7 "/>
<polygon fill="#2C7C93" points="791.2,306.7 803.2,326.8 804.6,301.4 735.2,37.3 694.9,0 646.2,0 647.7,37.2 "/>
<polygon fill="#147C95" points="813,333.5 846,0 821.4,0 804.6,301.4 "/>
<polygon fill="#1E87A1" points="804.6,301.4 821.4,0 694.9,0 735.2,37.3 "/>
<polygon fill="#338CA7" points="352.7,54.9 366.5,0 343.8,0 321.8,8.5 "/>
<polygon fill="#24788E" points="94.3,1.4 152.4,119.8 148.6,-0.2 94.7,-0.2 "/>
<polygon fill="#338CA7" points="94.3,1.4 93.6,-0.2 0,-0.2 0,378.5 7.8,381.8 "/>
<polygon fill="#24788E" points="162.6,447.1 7.8,381.8 0,416.3 0,486 163.8,486 "/>
<polygon fill="#1E87A1" points="255.5,442 274,368.2 215.8,249.3 158.2,308.1 162.6,447.1 254.8,486 298.5,486 "/>
<polygon fill="#1E87A1" points="399.9,442.8 423.9,162 378,92.9 332.6,134.9 274,368.2 331.8,486 369.2,486 400.5,444.1 "/>
<polygon fill="#338CA7" points="274,368.2 255.5,442 298.5,486 331.8,486 "/>
<polygon fill="#24788E" points="529.5,320.7 512.2,294.7 400.5,444.1 422.4,486 478,486 "/>
<polygon fill="#1E87A1" points="650.8,112.5 622.6,21.5 601.3,90.1 647.6,113.6 555.6,236.7 529.5,320.7 639.4,486 665.9,486 "/>
<polygon fill="#2C7C93" points="650.8,112.5 665.9,486 766,486 "/>
<polygon fill="#24788E" points="796.2,451.8 803.2,326.8 791.2,306.7 647.7,37.2 650.8,112.5 766,486 809.1,486 "/>
<polygon fill="#24758B" points="813,333.5 812.2,342.1 803.2,326.8 796.2,451.8 809.1,486 853.1,486 "/>
</svg>
