<?xml version="1.0" encoding="utf-8"?>
<!-- Generator: Adobe Illustrator 18.1.1, SVG Export Plug-In . SVG Version: 6.00 Build 0)  -->
<svg version="1.1" id="Layer_1" xmlns="http://www.w3.org/2000/svg" xmlns:xlink="http://www.w3.org/1999/xlink" x="0px" y="0px"
	 viewBox="0 0 419.5 86.6" enable-background="new 0 0 419.5 86.6" xml:space="preserve">
<g>
	<g>
		<g>
			<g>
				<path fill="#FFFFFF" d="M402.6,53.3c0.1,4.7,4,8.4,8.7,8.2c4.7-0.1,8.3-4,8.2-8.7c-0.1-4.7-4-8.4-8.6-8.2
					C406.2,44.7,402.5,48.6,402.6,53.3z"/>
			</g>
			<g>
				<path fill="#FFFFFF" d="M368.1,12.7c0.1,4.7,4,8.4,8.6,8.2c4.7-0.1,8.4-4,8.2-8.7c-0.1-4.7-4-8.3-8.7-8.2
					C371.7,4.1,368,8,368.1,12.7z"/>
			</g>
			<g>
				<path fill="#FFFFFF" d="M347.7,6.7c0.1,3.6,3.1,6.5,6.7,6.4c3.6-0.1,6.5-3.1,6.4-6.7c-0.1-3.6-3.1-6.5-6.7-6.4
					C350.4,0.1,347.6,3.1,347.7,6.7z"/>
			</g>
			<g>
				<path fill="#FFFFFF" d="M402.5,74.8c0.1,3.3,2.8,5.9,6.1,5.8c3.3-0.1,5.9-2.8,5.8-6.1c-0.1-3.3-2.8-5.9-6.1-5.8
					C405,68.7,402.4,71.5,402.5,74.8z"/>
			</g>
			<g>
				<path fill="#FFFFFF" d="M389.3,83.2c0,1.9,1.7,3.5,3.6,3.4c2,0,3.5-1.7,3.4-3.6c0-1.9-1.7-3.5-3.6-3.4
					C390.8,79.6,389.2,81.2,389.3,83.2z"/>
			</g>
			<g>
				<path fill="#FFFFFF" d="M336.3,16.6c0.1,2.1,1.8,3.8,4,3.8c2.1-0.1,3.8-1.8,3.8-4c-0.1-2.1-1.8-3.8-4-3.8
					C337.9,12.6,336.2,14.4,336.3,16.6z"/>
			</g>
			<g>
				<path fill="#FFFFFF" d="M335.8,31.9c0,1.7,1.4,3,3.1,3c1.7,0,3-1.4,3-3.1c0-1.7-1.4-3-3.1-3C337.1,28.8,335.8,30.2,335.8,31.9z"
					/>
			</g>
			<g>
				<path fill="#FFFFFF" d="M387.2,30.1c0.1,5.8,5,10.4,10.8,10.3c5.8-0.1,10.4-5,10.3-10.8c-0.1-5.8-5-10.4-10.8-10.3
					C391.6,19.4,387,24.3,387.2,30.1z"/>
			</g>
		</g>
	</g>
	<g>
		<g>
			<path fill="#FFFFFF" d="M366.4,62l13-13.1c0.6-0.6,0.7-1.6,0.4-2.4c-0.4-0.8-1.1-1.3-2-1.3c-0.6,0-1.1,0.2-1.5,0.6l-12.9,13
				l-13.1-13.2c-0.4-0.4-1-0.6-1.5-0.6c-0.9,0-1.7,0.5-2,1.4c-0.3,0.8-0.1,1.7,0.5,2.4L360.3,62l-12.9,13c-0.6,0.6-0.8,1.5-0.5,2.4
				c0.3,0.8,1.1,1.3,2,1.3c0.6,0,1.1-0.2,1.5-0.6l12.9-13l13.1,12.1c0.4,0.4,1,0.6,1.5,0.6c0.9,0,1.6-0.5,2-1.3
				c0.3-0.8,0.2-1.7-0.4-2.4L366.4,62z"/>
			<path fill="#FFFFFF" d="M348.9,79.7c-1.3,0-2.4-0.8-2.9-2c-0.5-1.2-0.2-2.5,0.7-3.5L358.9,62l-12.4-12.5
				c-0.9-0.9-1.2-2.2-0.7-3.4c0.5-1.2,1.7-2,2.9-2c0.8,0,1.6,0.3,2.2,0.9l12.4,12.5l12.2-12.3c0.6-0.6,1.4-0.9,2.2-0.9
				c1.2,0,2.4,0.8,2.9,1.9c0.5,1.2,0.3,2.5-0.6,3.4L367.8,62l12.3,11.3c1,1,1.2,2.4,0.7,3.5c-0.5,1.2-1.7,1.9-2.9,1.9
				c-0.8,0-1.6-0.3-2.2-0.9l-12.3-11.4l-12.2,12.3C350.5,79.3,349.7,79.7,348.9,79.7z M348.7,46.1c-0.5,0-0.9,0.3-1.1,0.7
				c-0.2,0.4-0.1,0.9,0.3,1.3L361.7,62l-13.6,13.7c-0.4,0.4-0.5,0.8-0.3,1.3c0.3,0.7,1.3,0.9,1.9,0.4l13.6-13.7l13.8,12.7
				c0.7,0.7,1.6,0.4,1.9-0.3c0.2-0.4,0.1-0.9-0.3-1.3L364.9,62l13.7-13.8c0.3-0.3,0.4-0.8,0.2-1.3c-0.3-0.7-1.3-0.9-1.9-0.4
				l-13.6,13.7l-13.8-13.9C349.3,46.2,349,46.1,348.7,46.1z"/>
		</g>
		<g>
			<path fill="#FFFFFF" d="M26.6,45.2H3.7C2.2,45.2,1,46.4,1,48v27.9c0,1.6,1.2,2.8,2.7,2.8h22.9c4.1,0,7.8-3.7,7.8-7.7v-18
				C34.4,48.9,30.6,45.2,26.6,45.2z M26.7,74.2c-3.9,0-7.7,0-11.5,0l-1,0c-2.9,0-5.9,0-8.8,0V49.5h21.3c1.7,0,3.4,1.7,3.4,3.5v17.9
				C30,72.6,28.4,74.2,26.7,74.2z"/>
			<path fill="#FFFFFF" d="M26.7,79.6H3.7C1.6,79.6,0,78,0,75.8V48c0-2.1,1.6-3.8,3.7-3.8h22.9c4.5,0,8.8,4.3,8.8,8.8v18
				C35.4,75.5,31.2,79.6,26.7,79.6z M3.7,46.2c-1,0-1.7,0.8-1.7,1.8v27.9c0,1,0.8,1.8,1.7,1.8h22.9c3.5,0,6.8-3.2,6.8-6.7v-18
				c0-3.4-3.4-6.8-6.8-6.8H3.7z M4.3,75.3V48.5h22.3c2.2,0,4.4,2.2,4.4,4.5v17.9c0,2.2-2.1,4.3-4.4,4.3c-3.9,0-7.7,0-11.5,0l-1,0
				c-2.9,0-5.9,0-8.8,0L4.3,75.3z M6.3,50.5v22.8c2.6,0,5.2,0,7.8,0l1,0c3.8,0,7.6,0,11.5,0c1.2,0,2.4-1.2,2.4-2.3V53
				c0-1.2-1.3-2.5-2.4-2.5H6.3z"/>
		</g>
		<g>
			<path fill="#FFFFFF" d="M78.4,45.2H61.3c-4.6,0-8.3,3.5-8.3,7.8v23.7c0,1.2,0.9,2.1,2.1,2.1c1.2,0,2.2-1,2.2-2.1V65.1h25v11.6
				c0,1.2,1,2.1,2.2,2.1c1.2,0,2.1-1,2.1-2.1V53C86.7,48.2,82.4,45.2,78.4,45.2z M82.3,53v7.9h-25V53c0-2.1,2.1-3.5,4-3.5h17
				C80.3,49.5,82.3,50.8,82.3,53z"/>
			<path fill="#FFFFFF" d="M84.5,79.8c-1.8,0-3.2-1.4-3.2-3.1V66.1h-23v10.6c0,1.7-1.4,3.1-3.2,3.1c-1.8,0-3.1-1.4-3.1-3.1V53
				c0-4.9,4.2-8.8,9.3-8.8h17.1c4.5,0,9.3,3.4,9.3,8.8v23.7C87.7,78.4,86.2,79.8,84.5,79.8z M56.4,64.1h27v12.6
				c0,0.6,0.5,1.1,1.2,1.1c0.6,0,1.1-0.5,1.1-1.1V53c0-4.2-3.8-6.8-7.3-6.8H61.3c-4,0-7.3,3-7.3,6.8v23.7c0,0.7,0.5,1.1,1.1,1.1
				c0.7,0,1.2-0.5,1.2-1.1V64.1z M83.3,61.9h-27V53c0-2.8,2.6-4.5,5-4.5h17c2.4,0,5,1.7,5,4.5V61.9z M58.4,59.9h23V53
				c0-1.5-1.5-2.5-3-2.5h-17c-1.4,0-3,0.9-3,2.5V59.9z"/>
		</g>
		<g>
			<path fill="#FFFFFF" d="M129,45.2h-24.6c-1.2,0-2.2,1-2.2,2.2c0,1.2,1,2.2,2.2,2.2h10.2c0,3.4,0,8.1,0,12.8l0,3.5
				c0,4.3,0,8.2,0,10.9c0,1.2,1,2.1,2.2,2.1c1.2,0,2.2-0.9,2.2-2.1V49.5H129c1.2,0,2.2-1,2.2-2.2C131.1,46.1,130.2,45.2,129,45.2z"
				/>
			<path fill="#FFFFFF" d="M116.7,79.8c-1.8,0-3.2-1.4-3.2-3.1c0-2.7,0-6.7,0-10.9l0-6.3c0-3.3,0-6.4,0-8.9h-9.2
				c-1.8,0-3.2-1.4-3.2-3.2c0-1.8,1.4-3.2,3.2-3.2H129c1.8,0,3.2,1.4,3.2,3.2c0,1.8-1.4,3.2-3.2,3.2h-9.1v26.2
				C119.9,78.4,118.5,79.8,116.7,79.8z M104.4,46.2c-0.7,0-1.2,0.5-1.2,1.2c0,0.7,0.5,1.2,1.2,1.2h11.2l0,1c0,2.7,0,6.2,0,9.9l0,6.3
				c0,4.3,0,8.2,0,10.9c0,0.7,0.5,1.1,1.2,1.1c0.7,0,1.2-0.5,1.2-1.1V48.5H129c0.7,0,1.2-0.5,1.2-1.2c0-0.7-0.5-1.2-1.2-1.2H104.4z"
				/>
		</g>
		<g>
			<path fill="#FFFFFF" d="M173,45.2H156c-4.6,0-8.3,3.5-8.3,7.8v23.7c0,1.2,0.9,2.1,2.1,2.1c1.2,0,2.2-1,2.2-2.1V65.1h25v11.6
				c0,1.2,1,2.1,2.2,2.1c1.2,0,2.1-1,2.1-2.1V53C181.3,48.2,177,45.2,173,45.2z M177,53v7.9h-25V53c0-2.1,2.1-3.5,4-3.5h17
				C174.9,49.5,177,50.8,177,53z"/>
			<path fill="#FFFFFF" d="M179.2,79.8c-1.8,0-3.2-1.4-3.2-3.1V66.1h-23v10.6c0,1.7-1.4,3.1-3.2,3.1c-1.8,0-3.1-1.4-3.1-3.1V53
				c0-4.9,4.2-8.8,9.3-8.8H173c4.5,0,9.3,3.4,9.3,8.8v23.7C182.3,78.4,180.9,79.8,179.2,79.8z M151,64.1h27v12.6
				c0,0.6,0.5,1.1,1.2,1.1c0.6,0,1.1-0.5,1.1-1.1V53c0-4.2-3.8-6.8-7.3-6.8H156c-4,0-7.3,3-7.3,6.8v23.7c0,0.7,0.5,1.1,1.1,1.1
				c0.7,0,1.2-0.5,1.2-1.1V64.1z M178,61.9h-27V53c0-2.8,2.6-4.5,5-4.5h17c2.4,0,5,1.7,5,4.5V61.9z M153,59.9h23V53
				c0-1.5-1.5-2.5-3-2.5h-17c-1.4,0-3,0.9-3,2.5V59.9z"/>
		</g>
		<g>
			<path fill="#FFFFFF" d="M226.2,59.8h-18.7c-2.3,0-3.4-2.7-3.4-5.2c0-2.4,1-5.1,3.3-5.1h20.6c1.2,0,2.2-1,2.2-2.2
				c0-1.2-1-2.2-2.2-2.2h-20.6c-5,0-7.6,4.8-7.6,9.4c0,4.6,2.4,9.5,7.7,9.5H226c2.4,0,3.4,2.7,3.4,5.2c0,2.4-1,5-3.3,5h-23.7
				c-1.2,0-2.1,1-2.1,2.2c0,1.2,0.9,2.2,2.1,2.2h23.7c5.3,0,7.7-4.9,7.7-9.4C233.8,64.5,231.2,59.8,226.2,59.8z"/>
			<path fill="#FFFFFF" d="M226.1,79.6h-23.7c-1.8,0-3.1-1.4-3.1-3.2c0-1.8,1.4-3.2,3.1-3.2h23.7c1.7,0,2.3-2.4,2.3-4
				c0-1.7-0.6-4.2-2.4-4.2h-18.4c-6,0-8.7-5.4-8.7-10.5c0-5.2,3-10.4,8.6-10.4h20.6c1.8,0,3.2,1.4,3.2,3.2c0,1.8-1.4,3.2-3.2,3.2
				h-20.6c-1.7,0-2.3,2.4-2.3,4.1c0,1.7,0.6,4.2,2.4,4.2h18.7c5.6,0,8.5,5.2,8.5,10.4C234.8,74.2,232.1,79.6,226.1,79.6z
				 M202.4,75.3c-0.7,0-1.1,0.5-1.1,1.2s0.5,1.2,1.1,1.2h23.7c4.6,0,6.7-4.4,6.7-8.4c0-4.2-2.2-8.4-6.5-8.4h-18.7
				c-3,0-4.4-3.2-4.4-6.2c0-2.9,1.3-6.1,4.3-6.1h20.6c0.7,0,1.2-0.5,1.2-1.2c0-0.7-0.5-1.2-1.2-1.2h-20.6c-4.3,0-6.6,4.3-6.6,8.4
				c0,4.1,2.1,8.5,6.7,8.5H226c3.1,0,4.4,3.2,4.4,6.2c0,2.9-1.3,6-4.3,6H202.4z"/>
		</g>
		<g>
			<path fill="#FFFFFF" d="M276.1,45.2h-26.8c-1.2,0-2.2,1-2.2,2.2c0,1.2,1,2.2,2.2,2.2h12.3c0,3.4,0,8.1,0,12.8c0,5.5,0,11,0,14.4
				c0,1.2,1,2.1,2.2,2.1c1.2,0,2.2-0.9,2.2-2.1V49.5h10.1c1.2,0,2.2-1,2.2-2.2C278.2,46.1,277.3,45.2,276.1,45.2z"/>
			<path fill="#FFFFFF" d="M263.8,79.8c-1.8,0-3.2-1.4-3.2-3.1c0-3.4,0-8.9,0-14.4l0-11.8h-11.3c-1.8,0-3.2-1.4-3.2-3.2
				c0-1.8,1.4-3.2,3.2-3.2h26.8c1.8,0,3.2,1.4,3.2,3.2c0,1.8-1.4,3.2-3.2,3.2h-9.1v26.2C266.9,78.4,265.5,79.8,263.8,79.8z
				 M249.3,46.2c-0.7,0-1.2,0.5-1.2,1.2c0,0.7,0.5,1.2,1.2,1.2h13.3l0,13.8c0,5.5,0,11,0,14.4c0,0.7,0.5,1.1,1.2,1.1
				c0.7,0,1.2-0.5,1.2-1.1V48.5h11.1c0.7,0,1.2-0.5,1.2-1.2c0-0.7-0.5-1.2-1.2-1.2H249.3z"/>
		</g>
		<g>
			<path fill="#FFFFFF" d="M320.1,45.2H303c-4.6,0-8.3,3.5-8.3,7.8v23.7c0,1.2,0.9,2.1,2.1,2.1c1.2,0,2.2-1,2.2-2.1V65.1h25v11.6
				c0,1.2,1,2.1,2.2,2.1c1.2,0,2.1-1,2.1-2.1V53C328.4,48.2,324.1,45.2,320.1,45.2z M324.1,53v7.9h-25V53c0-2.1,2.1-3.5,4-3.5h17
				C322,49.5,324.1,50.8,324.1,53z"/>
			<path fill="#FFFFFF" d="M326.3,79.8c-1.8,0-3.2-1.4-3.2-3.1V66.1h-23v10.6c0,1.7-1.4,3.1-3.2,3.1c-1.8,0-3.1-1.4-3.1-3.1V53
				c0-4.9,4.2-8.8,9.3-8.8h17.1c4.5,0,9.3,3.4,9.3,8.8v23.7C329.4,78.4,328,79.8,326.3,79.8z M298.1,64.1h27v12.6
				c0,0.6,0.5,1.1,1.2,1.1c0.6,0,1.1-0.5,1.1-1.1V53c0-4.2-3.8-6.8-7.3-6.8H303c-4,0-7.3,3-7.3,6.8v23.7c0,0.7,0.5,1.1,1.1,1.1
				c0.7,0,1.2-0.5,1.2-1.1V64.1z M325.1,61.9h-27V53c0-2.8,2.6-4.5,5-4.5h17c2.4,0,5,1.7,5,4.5V61.9z M300.1,59.9h23V53
				c0-1.5-1.5-2.5-3-2.5h-17c-1.4,0-3,0.9-3,2.5V59.9z"/>
		</g>
	</g>
</g>
</svg>
