<?xml version="1.0" encoding="utf-8"?>
<!-- Generator: Adobe Illustrator 18.1.1, SVG Export Plug-In . SVG Version: 6.00 Build 0)  -->
<svg version="1.1" id="Layer_1" xmlns="http://www.w3.org/2000/svg" xmlns:xlink="http://www.w3.org/1999/xlink" x="0px" y="0px"
	 viewBox="0 0 873 486" enable-background="new 0 0 873 486" xml:space="preserve">
<rect id="path-1_6_" y="0.1" fill="#148D75" width="873" height="486"/>
<polygon fill="none" points="215.8,249.4 274,368.3 332.6,135 281.5,182.4 "/>
<polygon fill="none" points="622.6,21.6 650.8,112.6 647.7,37.2 628.8,1.8 "/>
<polygon fill="#219A83" points="158.2,308.2 215.8,249.4 154.8,124.9 152.7,131.5 "/>
<polygon fill="#338CA7" points="332.6,135 378,93 352.7,55 "/>
<polygon fill="#279B84" points="332.6,135 378,93 352.7,55 "/>
<polygon fill="#279B84" points="647.6,113.7 601.3,90.2 555.6,236.7 "/>
<polygon fill="#338CA7" points="378,93 423.9,162.1 434.3,40.7 "/>
<polygon fill="#279B84" points="378,93 423.9,162.1 434.3,40.7 "/>
<polygon fill="#338CA7" points="813,333.6 804.6,301.4 803.2,326.9 812.2,342.2 "/>
<polygon fill="#02718A" points="813,333.6 804.6,301.4 803.2,326.9 812.2,342.2 "/>
<polygon fill="#127D6A" points="813,333.6 804.6,301.4 803.2,326.9 812.2,342.2 "/>
<polygon fill="#11826D" points="67.3,400.9 152.7,131.5 152.4,119.9 94.3,1.5 7.8,381.9 162.6,447.2 158.2,308.2 "/>
<polygon fill="#13836F" points="67.3,400.9 158.2,308.2 152.7,131.5 "/>
<polygon fill="#338CA7" points="423.9,162.1 399.9,442.9 400.5,444.2 512.2,294.8 "/>
<polygon fill="#178D77" points="423.9,162.1 399.9,442.9 400.5,444.2 512.2,294.8 "/>
<polygon fill="#148A74" points="512.2,294.8 529.5,320.8 555.6,236.7 "/>
<polygon fill="#1A8E78" points="434.3,40.7 423.9,162.1 512.2,294.8 555.6,236.7 601.3,90.2 458.7,18.1 "/>
<polygon fill="#338CA7" points="434.3,40.7 458.7,18.1 437.2,7.2 "/>
<polygon fill="#338CA7" points="434.3,40.7 458.7,18.1 437.2,7.2 "/>
<polygon fill="#338CA7" points="434.3,40.7 458.7,18.1 437.2,7.2 "/>
<polygon fill="#1B9079" points="434.3,40.7 458.7,18.1 437.2,7.2 "/>
<polygon fill="#148D75" points="873,460.2 855.2,486.1 873,486.1 "/>
<polygon fill="#128972" points="873,0.1 846,0.1 813,333.6 853.1,486.1 855.2,486.1 873,460.2 "/>
<polygon fill="none" stroke="#8E278F" stroke-miterlimit="10" points="437.8,0.1 437.8,0.1 437.2,7.2 "/>
<polygon fill="#19937C" points="215.8,249.4 281.5,182.4 332.6,135 352.7,55 321.8,8.6 343.8,0.1 194.4,0.1 154.8,124.9 "/>
<polygon fill="#1C967F" points="437.2,7.2 437.8,0.1 423.1,0.1 "/>
<polygon fill="#2A9C86" points="366.5,0.1 352.7,55 378,93 434.3,40.7 437.2,7.2 423.1,0.1 "/>
<polygon fill="#148A74" points="458.7,18.1 601.3,90.2 622.6,21.6 616,0.1 478.1,0.1 "/>
<polygon fill="#148D76" points="458.7,18.1 478.1,0.1 437.8,0.1 437.2,7.2 "/>
<polygon fill="#128972" points="628.8,1.8 627.9,0.1 616,0.1 622.6,21.6 "/>
<polygon fill="#1E9780" points="647.7,37.2 646.2,0.1 629.3,0.1 628.8,1.8 "/>
<polygon fill="#11826D" points="791.2,306.7 803.2,326.9 804.6,301.4 735.2,37.4 694.9,0.1 646.2,0.1 647.7,37.2 "/>
<polygon fill="#198D76" points="813,333.6 846,0.1 821.4,0.1 804.6,301.4 "/>
<polygon fill="#1E9780" points="804.6,301.4 821.4,0.1 694.9,0.1 735.2,37.4 "/>
<polygon fill="#1C967F" points="352.7,55 366.5,0.1 343.8,0.1 321.8,8.6 "/>
<polygon fill="#137D68" points="94.3,1.5 152.4,119.9 148.6,-0.1 94.7,-0.1 "/>
<polygon fill="#1E9780" points="94.3,1.5 93.6,-0.1 0,-0.1 0,378.6 7.8,381.9 "/>
<polygon fill="#137D68" points="162.6,447.2 7.8,381.9 0,416.3 0,486.1 163.8,486.1 "/>
<polygon fill="#1E9780" points="255.5,442.1 274,368.3 215.8,249.4 158.2,308.2 162.6,447.2 254.8,486.1 298.5,486.1 "/>
<polygon fill="#249882" points="399.9,442.9 423.9,162.1 378,93 332.6,135 274,368.3 331.8,486.1 369.2,486.1 400.5,444.2 "/>
<polygon fill="#269C86" points="274,368.3 255.5,442.1 298.5,486.1 331.8,486.1 "/>
<polygon fill="#128972" points="529.5,320.8 512.2,294.8 400.5,444.2 422.4,486.1 478,486.1 "/>
<polygon fill="#19937C" points="650.8,112.6 622.6,21.6 601.3,90.2 647.6,113.7 555.6,236.7 529.5,320.8 639.4,486.1 665.9,486.1 
	"/>
<polygon fill="#0F7F6D" points="650.8,112.6 665.9,486.1 766,486.1 "/>
<polygon fill="#137D68" points="796.2,451.9 803.2,326.9 791.2,306.7 647.7,37.2 650.8,112.6 766,486.1 809.1,486.1 "/>
<polygon fill="#117B68" points="813,333.6 812.2,342.2 803.2,326.9 796.2,451.9 809.1,486.1 853.1,486.1 "/>
</svg>
