<?xml version="1.0" encoding="utf-8"?>
<!-- Generator: Adobe Illustrator 18.1.1, SVG Export Plug-In . SVG Version: 6.00 Build 0)  -->
<svg version="1.1" id="Layer_1" xmlns="http://www.w3.org/2000/svg" xmlns:xlink="http://www.w3.org/1999/xlink" x="0px" y="0px"
	 viewBox="0 0 873 486" enable-background="new 0 0 873 486" xml:space="preserve">
<rect id="path-1_5_" x="0.2" y="0.1" fill="#CA6328" width="873" height="486"/>
<polygon fill="none" points="216,249.4 274.2,368.3 332.8,135 281.7,182.4 "/>
<polygon fill="none" points="622.8,21.6 650.9,112.6 647.9,37.2 629,1.8 "/>
<polygon fill="#CA6734" points="158.4,308.2 216,249.4 155,124.9 152.9,131.5 "/>
<polygon fill="#338CA7" points="332.8,135 378.1,93 352.9,55 "/>
<polygon fill="#DA6D3D" points="332.8,135 378.1,93 352.9,55 "/>
<polygon fill="#D36736" points="647.8,113.7 601.4,90.2 555.8,236.7 "/>
<polygon fill="#338CA7" points="378.1,93 424.1,162.1 434.5,40.7 "/>
<polygon fill="#D36736" points="378.1,93 424.1,162.1 434.5,40.7 "/>
<polygon fill="#338CA7" points="813.2,333.6 804.8,301.4 803.3,326.9 812.4,342.2 "/>
<polygon fill="#02718A" points="813.2,333.6 804.8,301.4 803.3,326.9 812.4,342.2 "/>
<polygon fill="#B85D2F" points="813.2,333.6 804.8,301.4 803.3,326.9 812.4,342.2 "/>
<polygon fill="#B95E2C" points="67.5,400.9 152.9,131.5 152.5,119.9 94.5,1.5 8,381.9 162.7,447.2 158.4,308.2 "/>
<polygon fill="#BC602E" points="67.5,400.9 158.4,308.2 152.9,131.5 "/>
<polygon fill="#338CA7" points="424.1,162.1 400,442.9 400.7,444.2 512.4,294.8 "/>
<polygon fill="#CC6334" points="424.1,162.1 400,442.9 400.7,444.2 512.4,294.8 "/>
<polygon fill="#BF5E2D" points="512.4,294.8 529.6,320.8 555.8,236.7 "/>
<polygon fill="#CA6332" points="434.5,40.7 424.1,162.1 512.4,294.8 555.8,236.7 601.4,90.2 458.9,18.1 "/>
<polygon fill="#338CA7" points="434.5,40.7 458.9,18.1 437.4,7.2 "/>
<polygon fill="#338CA7" points="434.5,40.7 458.9,18.1 437.4,7.2 "/>
<polygon fill="#338CA7" points="434.5,40.7 458.9,18.1 437.4,7.2 "/>
<polygon fill="#CE6737" points="434.5,40.7 458.9,18.1 437.4,7.2 "/>
<polygon fill="#CD652D" points="873.2,460.2 855.4,486.1 873.2,486.1 "/>
<polygon fill="#BD5E2C" points="873.2,0.1 846.2,0.1 813.2,333.6 853.3,486.1 855.4,486.1 873.2,460.2 "/>
<polygon fill="none" stroke="#8E278F" stroke-miterlimit="10" points="438,0.1 438,0.1 437.4,7.2 "/>
<polygon fill="#D86F3F" points="216,249.4 281.7,182.4 332.8,135 352.9,55 322,8.6 344,0.1 194.6,0.1 155,124.9 "/>
<polygon fill="#CE6737" points="437.4,7.2 438,0.1 423.2,0.1 "/>
<polygon fill="#D86D3D" points="366.7,0.1 352.9,55 378.1,93 434.5,40.7 437.4,7.2 423.2,0.1 "/>
<polygon fill="#BF5E2D" points="458.9,18.1 601.4,90.2 622.8,21.6 616.2,0.1 478.3,0.1 "/>
<polygon fill="#CC6739" points="458.9,18.1 478.3,0.1 438,0.1 437.4,7.2 "/>
<polygon fill="#C6622D" points="629,1.8 628.1,0.1 616.2,0.1 622.8,21.6 "/>
<polygon fill="#D46936" points="647.9,37.2 646.4,0.1 629.5,0.1 629,1.8 "/>
<polygon fill="#C1602E" points="791.4,306.7 803.3,326.9 804.8,301.4 735.4,37.4 695.1,0.1 646.4,0.1 647.9,37.2 "/>
<polygon fill="#C1602E" points="813.2,333.6 846.2,0.1 821.5,0.1 804.8,301.4 "/>
<polygon fill="#D46936" points="804.8,301.4 821.5,0.1 695.1,0.1 735.4,37.4 "/>
<polygon fill="#D36F3D" points="352.9,55 366.7,0.1 344,0.1 322,8.6 "/>
<polygon fill="#BD5E2C" points="94.5,1.5 152.5,119.9 148.8,-0.1 94.9,-0.1 "/>
<polygon fill="#C5622B" points="94.5,1.5 93.8,-0.1 0.2,-0.1 0.2,378.6 8,381.9 "/>
<polygon fill="#BD5E2C" points="162.7,447.2 8,381.9 0.2,416.3 0.2,486.1 164,486.1 "/>
<polygon fill="#C5622B" points="255.7,442.1 274.2,368.3 216,249.4 158.4,308.2 162.7,447.2 254.9,486.1 298.7,486.1 "/>
<polygon fill="#D46936" points="400,442.9 424.1,162.1 378.1,93 332.8,135 274.2,368.3 331.9,486.1 369.4,486.1 400.7,444.2 "/>
<polygon fill="#C9632E" points="274.2,368.3 255.7,442.1 298.7,486.1 331.9,486.1 "/>
<polygon fill="#C6622D" points="529.6,320.8 512.4,294.8 400.7,444.2 422.6,486.1 478.1,486.1 "/>
<polygon fill="#C5622B" points="650.9,112.6 622.8,21.6 601.4,90.2 647.8,113.7 555.8,236.7 529.6,320.8 639.6,486.1 666.1,486.1 
	"/>
<polygon fill="#B95E2C" points="650.9,112.6 666.1,486.1 766.2,486.1 "/>
<polygon fill="#BD5E2C" points="796.4,451.9 803.3,326.9 791.4,306.7 647.9,37.2 650.9,112.6 766.2,486.1 809.3,486.1 "/>
<polygon fill="#B85B2C" points="813.2,333.6 812.4,342.2 803.3,326.9 796.4,451.9 809.3,486.1 853.3,486.1 "/>
</svg>
